<svg width="18" height="18" viewBox="0 0 18 18" fill="none" xmlns="http://www.w3.org/2000/svg">
<path d="M8.99957 1.88916C8.05657 1.88916 7.1522 2.26376 6.48541 2.93056C5.81861 3.59735 5.44401 4.50172 5.44401 5.44472C5.44401 6.38771 5.81861 7.29208 6.48541 7.95887C7.1522 8.62567 8.05657 9.00027 8.99957 9.00027C9.94256 9.00027 10.8469 8.62567 11.5137 7.95887C12.1805 7.29208 12.5551 6.38771 12.5551 5.44472C12.5551 4.50172 12.1805 3.59735 11.5137 2.93056C10.8469 2.26376 9.94256 1.88916 8.99957 1.88916ZM6.3329 5.44472C6.3329 4.73747 6.61385 4.05919 7.11395 3.5591C7.61405 3.059 8.29232 2.77805 8.99957 2.77805C9.70681 2.77805 10.3851 3.059 10.8852 3.5591C11.3853 4.05919 11.6662 4.73747 11.6662 5.44472C11.6662 6.15196 11.3853 6.83024 10.8852 7.33033C10.3851 7.83043 9.70681 8.11138 8.99957 8.11138C8.29232 8.11138 7.61405 7.83043 7.11395 7.33033C6.61385 6.83024 6.3329 6.15196 6.3329 5.44472ZM4.56312 9.88916C4.32902 9.88822 4.09704 9.93351 3.88048 10.0224C3.66392 10.1113 3.46704 10.2421 3.30113 10.4073C3.13522 10.5724 3.00355 10.7687 2.91367 10.9849C2.82379 11.2011 2.77746 11.4328 2.77734 11.6669C2.77734 13.17 3.51779 14.3034 4.67512 15.0421C5.81468 15.7683 7.35068 16.1114 8.99957 16.1114C10.6485 16.1114 12.1845 15.7683 13.324 15.0421C14.4813 14.3043 15.2218 13.1692 15.2218 11.6669C15.2218 11.1954 15.0345 10.7433 14.7011 10.4099C14.3677 10.0765 13.9155 9.88916 13.444 9.88916H4.56312ZM3.66623 11.6669C3.66623 11.1754 4.06445 10.778 4.56312 10.778H13.444C13.6798 10.778 13.9059 10.8717 14.0725 11.0384C14.2392 11.2051 14.3329 11.4312 14.3329 11.6669C14.3329 12.8305 13.78 13.6972 12.8458 14.2918C11.8947 14.8989 10.5418 15.2225 8.99957 15.2225C7.45734 15.2225 6.10445 14.8989 5.15334 14.2918C4.22001 13.6963 3.66623 12.8314 3.66623 11.6669Z" fill="black"/>
</svg>
