<svg width="64" height="64" viewBox="0 0 64 64" fill="none" xmlns="http://www.w3.org/2000/svg">
<g clip-path="url(#clip0_380_5094)">
<path fill-rule="evenodd" clip-rule="evenodd" d="M35.2 51.2C36.8974 51.2 38.5252 51.8743 39.7255 53.0745C40.9257 54.2747 41.6 55.9026 41.6 57.6C41.6 59.2974 40.9257 60.9253 39.7255 62.1255C38.5252 63.3257 36.8974 64 35.2 64C33.5026 64 31.8748 63.3257 30.6745 62.1255C29.4743 60.9253 28.8 59.2974 28.8 57.6C28.8 55.9026 29.4743 54.2747 30.6745 53.0745C31.8748 51.8743 33.5026 51.2 35.2 51.2ZM15.1712 41.6C17.2929 41.6 19.3278 42.4429 20.8281 43.9431C22.3283 45.4434 23.1712 47.4783 23.1712 49.6C23.1712 51.7217 22.3283 53.7566 20.8281 55.2569C19.3278 56.7571 17.2929 57.6 15.1712 57.6C13.0495 57.6 11.0146 56.7571 9.51435 55.2569C8.01405 53.7566 7.1712 51.7217 7.1712 49.6C7.1712 47.4783 8.01405 45.4434 9.51435 43.9431C11.0146 42.4429 13.0495 41.6 15.1712 41.6ZM52.2208 43.2C53.9182 43.2 55.5461 43.8743 56.7463 45.0745C57.9465 46.2747 58.6208 47.9026 58.6208 49.6C58.6208 51.2974 57.9465 52.9253 56.7463 54.1255C55.5461 55.3257 53.9182 56 52.2208 56C50.5234 56 48.8955 55.3257 47.6953 54.1255C46.4951 52.9253 45.8208 51.2974 45.8208 49.6C45.8208 47.9026 46.4951 46.2747 47.6953 45.0745C48.8955 43.8743 50.5234 43.2 52.2208 43.2ZM59.2 29.8208C60.473 29.8208 61.6939 30.3265 62.5941 31.2267C63.4943 32.1269 64 33.3478 64 34.6208C64 35.8938 63.4943 37.1147 62.5941 38.0149C61.6939 38.9151 60.473 39.4208 59.2 39.4208C57.927 39.4208 56.7061 38.9151 55.8059 38.0149C54.9057 37.1147 54.4 35.8938 54.4 34.6208C54.4 33.3478 54.9057 32.1269 55.8059 31.2267C56.7061 30.3265 57.927 29.8208 59.2 29.8208ZM8 19.2C10.1217 19.2 12.1566 20.0429 13.6569 21.5431C15.1571 23.0434 16 25.0783 16 27.2C16 29.3217 15.1571 31.3566 13.6569 32.8569C12.1566 34.3571 10.1217 35.2 8 35.2C5.87827 35.2 3.84344 34.3571 2.34315 32.8569C0.842855 31.3566 0 29.3217 0 27.2C0 25.0783 0.842855 23.0434 2.34315 21.5431C3.84344 20.0429 5.87827 19.2 8 19.2ZM56.9152 16.6624C57.7639 16.6624 58.5778 16.9995 59.1779 17.5997C59.7781 18.1998 60.1152 19.0137 60.1152 19.8624C60.1152 20.7111 59.7781 21.525 59.1779 22.1251C58.5778 22.7253 57.7639 23.0624 56.9152 23.0624C56.0665 23.0624 55.2526 22.7253 54.6525 22.1251C54.0523 21.525 53.7152 20.7111 53.7152 19.8624C53.7152 19.0137 54.0523 18.1998 54.6525 17.5997C55.2526 16.9995 56.0665 16.6624 56.9152 16.6624ZM25.6 0C28.1461 0 30.5879 1.01143 32.3882 2.81177C34.1886 4.61212 35.2 7.05392 35.2 9.6C35.2 12.1461 34.1886 14.5879 32.3882 16.3882C30.5879 18.1886 28.1461 19.2 25.6 19.2C23.0539 19.2 20.6121 18.1886 18.8118 16.3882C17.0114 14.5879 16 12.1461 16 9.6C16 7.05392 17.0114 4.61212 18.8118 2.81177C20.6121 1.01143 23.0539 0 25.6 0ZM49.6 9.6C50.0243 9.6 50.4313 9.76857 50.7314 10.0686C51.0314 10.3687 51.2 10.7757 51.2 11.2C51.2 11.6243 51.0314 12.0313 50.7314 12.3314C50.4313 12.6314 50.0243 12.8 49.6 12.8C49.1757 12.8 48.7687 12.6314 48.4686 12.3314C48.1686 12.0313 48 11.6243 48 11.2C48 10.7757 48.1686 10.3687 48.4686 10.0686C48.7687 9.76857 49.1757 9.6 49.6 9.6Z" fill="#4C40DC"/>
</g>
<defs>
<clipPath id="clip0_380_5094">
<rect width="64" height="64" fill="white"/>
</clipPath>
</defs>
</svg>
