<svg width="312" height="275" viewBox="0 0 312 275" fill="none" xmlns="http://www.w3.org/2000/svg">
<path d="M368.005 114.583C366.967 112.194 366.543 111.138 367.11 111.865C367.676 112.592 369.276 115.066 371.859 119.951C382.335 139.601 388.301 162.181 388.473 184.93L388.495 187.327L388.462 189.723L388.444 190.922L388.4 192.12L388.305 194.521C388.272 195.317 388.21 196.118 388.159 196.918C388.108 197.718 388.071 198.518 387.991 199.315C387.845 200.908 387.72 202.508 387.516 204.101L387.235 206.491L386.891 208.877L386.719 210.071L386.518 211.259L386.109 213.637C385.506 216.798 384.841 219.955 384.012 223.075C381.549 232.546 378.367 241.655 373.99 250.53C371.574 255.415 368.765 260.691 365.56 265.51C363.85 268.123 362.009 270.625 360.142 273.136L358.68 274.962C358.194 275.569 357.727 276.194 357.219 276.789C356.214 277.98 355.238 279.197 354.186 280.348C350.072 285.033 345.622 289.412 340.872 293.451L338.742 295.237L336.549 296.965C336.184 297.25 335.819 297.543 335.453 297.824L334.357 298.657C333.626 299.205 332.896 299.775 332.125 300.309C329.121 302.475 326.023 304.503 322.873 306.443C319.724 308.384 316.468 310.152 313.165 311.811C312.343 312.235 311.499 312.618 310.67 313.024L309.42 313.627C309 313.824 308.576 313.992 308.156 314.197L305.62 315.322L303.062 316.385C289.306 322 274.688 325.213 259.845 325.885C256.192 326.072 252.436 326.013 248.658 325.885C244.88 325.757 240.985 325.297 237.21 324C235.3 323.343 233.498 322.407 231.861 321.223C231.437 320.938 231.065 320.587 230.666 320.266L230.52 320.141C230.451 320.076 230.381 320.006 230.316 319.937C230.184 319.8 230.061 319.653 229.95 319.498C229.751 319.21 229.586 318.9 229.457 318.574C229.25 318.007 229.121 317.414 229.073 316.813C229.017 316.276 228.999 315.737 229.018 315.198C229.135 313.244 229.447 311.306 229.95 309.414C230.063 308.957 230.18 308.5 230.316 308.051L230.359 307.883L230.385 307.799L230.385 307.777L230.385 307.704L230.385 307.594C230.4 307.489 230.409 307.383 230.411 307.276C230.412 307.219 230.402 307.162 230.381 307.108C230.374 307.097 230.364 307.088 230.352 307.083L230.33 307.083C230.33 307.083 230.29 307.083 230.268 307.119C230.163 307.263 230.071 307.414 229.99 307.572L229.943 307.634L229.841 307.773L229.738 307.905L229.691 307.971L229.442 308.267C228.69 309.176 227.93 310.094 227.133 310.989C225.555 312.783 223.892 314.54 222.138 316.203C220.097 318.12 217.939 319.91 215.679 321.563C213.439 323.211 211.155 324.731 208.89 326.218C204.313 329.22 199.568 331.956 194.677 334.413C184.924 339.289 174.671 343.094 164.098 345.762C160.832 346.609 157.521 347.304 154.233 347.954C152.578 348.243 150.944 348.557 149.275 348.813C147.605 349.068 145.986 349.335 144.306 349.521C137.68 350.376 131.007 350.81 124.327 350.822C117.645 350.822 110.971 350.383 104.348 349.507C97.6945 348.613 91.115 347.237 84.6613 345.389C76.775 343.193 69.1472 340.156 61.9092 336.331C61.0213 335.838 60.1224 335.37 59.2492 334.87L56.6477 333.302C55.7964 332.754 54.9597 332.206 54.1156 331.633L53.4872 331.216L52.877 330.77L51.653 329.879C48.4287 327.497 45.4154 324.842 42.6464 321.943C40.6397 319.793 38.7874 317.503 37.1036 315.092L36.4715 314.186C36.256 313.886 36.0477 313.583 35.8613 313.265L34.7177 311.376C34.5277 311.054 34.3268 310.758 34.1477 310.419C33.9687 310.079 33.7823 309.746 33.6216 309.403C33.2817 308.72 32.9931 308.022 32.7191 307.32C31.6914 304.522 30.9866 301.615 30.6182 298.657C30.2395 295.738 30.0625 292.795 30.0884 289.852C30.1252 283.967 30.8114 278.105 32.1345 272.372C32.784 269.462 33.7064 266.62 34.8894 263.884C35.5067 262.448 36.3062 261.097 37.2681 259.865C37.8142 259.168 38.4873 258.58 39.2521 258.133C39.7038 257.877 40.1995 257.707 40.7136 257.633C41.2639 257.564 41.8225 257.616 42.3504 257.786C42.8787 257.969 43.3655 258.254 43.7828 258.626C44.1672 258.984 44.4884 259.404 44.7327 259.869C45.1473 260.686 45.4134 261.571 45.5183 262.481C45.6977 264.107 45.6732 265.75 45.4452 267.37C45.015 270.469 44.317 273.525 43.3589 276.504C41.4847 282.391 39.1361 288.116 36.3363 293.622C34.5728 297.135 32.6436 300.556 30.5488 303.886C28.4531 307.227 26.1338 310.423 23.6066 313.451C22.3306 314.975 20.9692 316.426 19.5289 317.796L18.9809 318.307L18.4182 318.789L17.3001 319.758C16.5694 320.401 15.8167 321.058 15.0202 321.639L12.6744 323.441L10.2374 325.111C9.82813 325.385 9.42987 325.677 9.01334 325.933L7.74915 326.7L6.48862 327.464C6.06479 327.719 5.65189 327.982 5.20978 328.194L2.60825 329.586C2.39267 329.703 2.17716 329.824 1.95792 329.93L1.28925 330.244L-0.0480634 330.873L-1.38165 331.497C-1.82376 331.717 -2.28778 331.863 -2.74084 332.071L-5.47388 333.167L-8.26175 334.135C-8.72577 334.292 -9.18613 334.475 -9.65747 334.607L-11.0751 335.02L-12.4416 335.447C-12.913 335.586 -13.3843 335.728 -13.863 335.812L-16.7385 336.488C-24.4608 338.161 -32.3933 338.644 -40.2615 337.921C-42.1858 337.769 -44.1007 337.516 -45.998 337.161C-47.9063 336.816 -49.7954 336.372 -51.6577 335.831C-55.4109 334.752 -58.9974 333.161 -62.3158 331.103C-65.6231 328.995 -68.5354 326.324 -70.9204 323.211C-73.244 320.112 -75.0913 316.683 -76.4011 313.038C-78.334 307.711 -79.2182 302.136 -79.5105 296.596C-79.7455 291.094 -79.501 285.582 -78.7797 280.122C-78.049 274.699 -77.1209 269.336 -75.9626 264.005C-74.8044 258.674 -73.405 253.409 -71.8046 248.155C-67.706 234.695 -62.2088 221.702 -55.4028 209.388C-53.7879 206.498 -53.5174 206.187 -53.6819 206.757C-54.1386 208.445 -55.3845 211.109 -58.8154 217.832L-59.601 219.377L-60.3318 220.938C-60.8287 221.979 -61.3329 223.017 -61.8152 224.062C-62.7542 226.166 -63.7188 228.263 -64.5884 230.401C-65.458 232.538 -66.3167 234.687 -67.1717 236.842C-67.9609 239.035 -68.7976 241.187 -69.532 243.401C-72.9556 253.244 -75.2794 263.815 -77.0405 274.349C-77.4059 276.65 -77.7713 278.949 -78.0417 281.272C-78.312 283.596 -78.5093 285.924 -78.6189 288.262C-78.8676 292.945 -78.6842 297.64 -78.0709 302.289C-77.4699 306.943 -76.2012 311.487 -74.3038 315.779C-72.3951 320.057 -69.6194 323.893 -66.1522 327.043C-64.9644 328.115 -63.6952 329.092 -62.356 329.966C-62.0235 330.193 -61.6873 330.412 -61.3402 330.609C-60.9931 330.807 -60.657 331.026 -60.3098 331.223C-59.6047 331.589 -58.9031 331.991 -58.176 332.319C-57.4489 332.648 -56.7145 332.984 -55.9837 333.306C-55.253 333.627 -54.493 333.898 -53.733 334.15C-52.222 334.682 -50.684 335.134 -49.1256 335.506C-47.5728 335.893 -45.998 336.192 -44.4196 336.445C-43.6303 336.572 -42.8375 336.678 -42.0446 336.773C-41.2517 336.868 -40.4552 336.92 -39.6623 336.993L-38.4712 337.095C-38.0729 337.128 -37.6783 337.172 -37.2801 337.175L-34.8941 337.241L-33.7066 337.274L-32.5155 337.245L-30.1442 337.175C-25.5099 336.93 -20.9045 336.294 -16.3768 335.275L-14.6887 334.873C-14.1297 334.735 -13.5634 334.618 -13.0117 334.442L-9.69034 333.474L-6.42389 332.338C-5.87582 332.159 -5.34967 331.932 -4.81256 331.717L-3.21585 331.066C1.0304 329.284 5.11365 327.136 8.9878 324.646C12.8512 322.135 16.4676 319.262 19.7883 316.067C22.1119 313.688 24.2462 311.132 26.1715 308.42C28.1007 305.735 29.8692 302.939 31.517 300.111C34.7842 294.455 37.6073 288.553 39.9609 282.46C41.1101 279.511 42.0957 276.5 42.9132 273.442C43.3114 271.919 43.6439 270.384 43.907 268.839C44.1703 267.301 44.2926 265.743 44.2723 264.184C44.2616 263.412 44.171 262.643 44.002 261.889C43.8544 261.147 43.5199 260.456 43.03 259.88C42.7868 259.608 42.4859 259.395 42.1495 259.255C41.822 259.107 41.4629 259.043 41.1045 259.068C40.7449 259.096 40.3957 259.202 40.0815 259.379C39.7583 259.556 39.4588 259.774 39.1899 260.026C38.132 261.121 37.2782 262.397 36.6689 263.793C36.0212 265.186 35.4694 266.621 35.0173 268.09C34.1134 271.037 33.4283 274.048 32.9676 277.096C32.4956 280.147 32.2003 283.223 32.0833 286.307C31.9609 289.397 32.0451 292.491 32.3355 295.57C32.61 298.647 33.2077 301.686 34.1185 304.638C34.6824 306.441 35.4575 308.17 36.4277 309.79C36.9392 310.611 37.4544 311.434 37.9732 312.26C38.5249 313.057 39.1059 313.842 39.6686 314.639C42.0278 317.752 44.6778 320.633 47.5827 323.244C51.4941 326.71 55.7525 329.764 60.2906 332.356C64.8395 334.964 69.59 337.204 74.4964 339.053C84.3524 342.77 94.6086 345.323 105.057 346.661C109.591 347.267 114.162 347.665 118.744 347.907C123.318 348.154 127.902 348.171 132.478 347.958C142.156 347.491 151.765 346.071 161.164 343.719C170.529 341.369 179.646 338.121 188.388 334.022C193.697 331.538 198.794 328.783 203.427 326.188C204.721 325.439 206.04 324.676 207.37 323.868C208.7 323.061 210.033 322.217 211.363 321.34C214.095 319.574 216.7 317.621 219.161 315.494C221.664 313.272 224.014 310.883 226.194 308.343L227.835 306.411L229.632 304.185L231.401 301.971C231.704 301.584 231.967 301.288 232.237 300.977C232.508 300.667 232.764 300.382 233.027 300.1C233.337 299.761 233.882 299.183 233.999 299.099C234.188 298.932 234.401 298.792 234.631 298.686C234.699 298.659 234.775 298.659 234.843 298.686C234.873 298.71 234.898 298.74 234.916 298.774C234.934 298.808 234.945 298.845 234.949 298.884C234.97 299.03 234.97 299.179 234.949 299.326C234.842 299.934 234.692 300.533 234.499 301.12C234.134 302.333 233.67 303.619 233.22 304.898C232.305 307.39 231.573 309.946 231.028 312.545C230.75 313.85 230.642 315.185 230.707 316.517C230.737 317.176 230.913 317.82 231.222 318.402C231.383 318.687 231.601 318.935 231.861 319.133C232.113 319.345 232.365 319.568 232.621 319.772C234.736 321.35 237.131 322.511 239.68 323.192C243.721 324.343 247.982 324.617 252.209 324.723C256.456 324.836 260.706 324.73 264.942 324.405C269.194 324.06 273.426 323.499 277.621 322.725C281.824 321.961 285.984 320.978 290.084 319.78C304.912 315.461 318.883 308.613 331.379 299.538C341.515 292.222 350.573 283.519 358.289 273.684C364.626 265.529 369.995 256.666 374.289 247.274C378.585 237.893 381.876 228.084 384.107 218.011C385.985 209.53 387.086 200.896 387.395 192.215C387.551 187.889 387.52 183.561 387.3 179.23C387.077 174.904 386.643 170.589 386.036 166.292C385.334 161.058 384.267 155.88 382.843 150.796L382.412 149.229C382.262 148.713 382.123 148.205 382.002 147.734C381.802 147.015 381.654 146.282 381.56 145.542L381.524 145.421L381.564 145.535L381.469 145.253L381.104 144.047L381.129 144.194C377.744 134.114 373.453 124.361 368.308 115.055C368.33 115.102 368.308 115.113 368.26 115.033L368.136 114.766L368.26 114.971L368.074 114.627L368.005 114.583ZM377.969 239.466C377.665 240.197 377.322 240.975 376.982 241.779C376.81 242.184 376.642 242.594 376.481 243.021C376.321 243.449 376.145 243.872 375.992 244.318C376.193 243.847 376.386 243.401 376.569 242.977C376.752 242.553 376.902 242.137 377.062 241.742C377.377 240.946 377.673 240.204 377.969 239.466ZM382.971 223.641C382.828 224.16 382.704 224.621 382.605 225.041C382.507 225.461 382.371 225.841 382.265 226.214C382.028 227.061 382.05 227.124 382.302 226.331C382.444 225.87 382.62 225.275 382.751 224.767C382.817 224.449 382.861 224.179 382.971 223.641Z" fill="#4C40DC"/>
<path d="M181.207 127.152C182.194 127.214 182.892 127.207 183.268 127.254C183.645 127.302 183.696 127.364 183.367 127.474C182.649 127.678 181.916 127.822 181.175 127.905L179.128 128.182L177.85 128.351C177.393 128.402 176.907 128.435 176.388 128.482C159.438 130.04 142.36 127.549 126.562 121.215C117.554 117.706 109.11 112.894 101.5 106.932C100.769 106.351 100.09 105.752 99.3847 105.167C98.6795 104.583 97.9707 104.016 97.2838 103.381C95.914 102.126 94.6469 100.764 93.4948 99.3066C92.3214 97.8361 91.3096 96.2437 90.4768 94.5567C89.5961 92.8258 89.0388 90.9487 88.8326 89.0176C88.7202 87.8921 88.7805 86.7561 89.0116 85.6488C89.2554 84.4913 89.706 83.3872 90.3416 82.3896C90.9875 81.3653 91.8293 80.4788 92.8188 79.7808C93.8127 79.0949 94.929 78.6062 96.1072 78.3413C98.5811 77.8285 101.15 78.03 103.513 78.9222C105.872 79.7612 107.968 81.2067 109.59 83.113C109.996 83.5916 110.362 84.1024 110.686 84.6404C111.013 85.1608 111.312 85.6987 111.581 86.2517C112.107 87.3551 112.525 88.5064 112.831 89.6899C113.411 92.0318 113.657 94.4441 113.561 96.855C113.513 98.2707 113.391 99.683 113.196 101.086C112.999 102.478 112.732 103.863 112.425 105.229C111.801 107.948 111.032 110.631 110.123 113.268C108.285 118.529 105.969 123.611 103.203 128.449C97.695 138.147 90.7398 146.948 82.5773 154.548C78.4465 158.398 74.0645 161.97 69.4602 165.239C64.8738 168.497 60.0632 171.427 55.0643 174.008C48.8636 177.153 42.3014 179.527 35.5239 181.078C27.4277 182.991 19.0963 183.716 10.7914 183.23C2.55475 182.736 -5.57701 181.129 -13.382 178.451L-15.1833 177.804L-16.0821 177.479L-16.97 177.132L-18.7457 176.438L-20.4959 175.707L-21.3728 175.342L-22.2351 174.94L-23.9633 174.143L-25.6623 173.296C-26.2323 173.014 -26.795 172.729 -27.3504 172.422L-29.0202 171.52L-30.6607 170.57C-31.7568 169.949 -32.8201 169.251 -33.8943 168.59C-36.0025 167.194 -38.0925 165.765 -40.0728 164.205C-44.078 161.092 -47.7688 157.595 -51.0927 153.763C-52.7579 151.836 -54.3179 149.821 -55.7658 147.727C-57.2602 145.625 -58.5951 143.414 -59.7594 141.113C-61.2504 138.234 -62.2811 135.14 -62.814 131.942C-63.0686 130.307 -63.1385 128.649 -63.0222 126.999C-62.89 125.342 -62.5411 123.709 -61.9846 122.143C-60.9112 118.964 -58.8949 116.188 -56.2043 114.185C-54.833 113.203 -53.2882 112.49 -51.6517 112.084C-50.0685 111.716 -48.4382 111.592 -46.8177 111.719C-44.5637 111.922 -42.3393 112.377 -40.1861 113.074C-38.0852 113.728 -36.0135 114.444 -33.9747 115.303C-31.9141 116.155 -29.925 117.17 -28.0263 118.339C-26.0976 119.531 -24.3241 120.957 -22.7466 122.585C-22.3593 123.005 -21.9683 123.418 -21.6139 123.871C-21.2595 124.324 -20.9051 124.77 -20.5689 125.237C-19.9185 126.183 -19.3419 127.177 -18.8444 128.212C-17.8628 130.283 -17.1918 132.488 -16.8531 134.756C-16.2061 139.275 -16.6291 143.883 -18.088 148.209C-18.8281 150.476 -19.8248 152.65 -21.0586 154.691C-21.675 155.707 -22.3547 156.683 -23.0937 157.614L-23.6345 158.319L-24.2118 158.995C-24.6064 159.437 -24.9718 159.908 -25.392 160.321C-27.0038 162.055 -28.7643 163.644 -30.6534 165.071C-32.5322 166.483 -34.5049 167.766 -36.5579 168.911C-39.1482 170.367 -41.8338 171.646 -44.5962 172.74C-47.3353 173.839 -50.1321 174.788 -52.9743 175.583C-58.6122 177.257 -64.3795 178.46 -70.2165 179.178C-76.0445 179.9 -81.9162 180.207 -87.7876 180.099C-93.6709 179.932 -99.5363 179.369 -105.344 178.415C-111.019 177.473 -116.609 176.07 -122.056 174.22L-124.092 173.526C-124.431 173.409 -124.771 173.299 -125.107 173.161L-126.108 172.766L-130.095 171.191L-133.99 169.434L-134.962 168.999C-135.283 168.842 -135.594 168.677 -135.912 168.517L-137.804 167.556L-139.2 166.843L-139.898 166.478L-140.574 166.09L-143.278 164.53L-144.622 163.752L-145.93 162.908L-148.532 161.22L-149.182 160.796L-149.811 160.343L-151.064 159.437L-153.57 157.628L-155.982 155.703L-157.184 154.738L-157.787 154.256L-158.364 153.748C-164.604 148.398 -170.285 142.427 -175.318 135.928C-178.579 131.746 -181.546 127.341 -184.196 122.746L-185.201 121.036L-186.129 119.285C-186.736 118.113 -187.379 116.962 -187.956 115.778C-188.533 114.594 -189.078 113.392 -189.637 112.201L-190.061 111.306L-190.426 110.396L-191.182 108.569C-192.14 106.267 -192.176 105.957 -191.884 106.307C-191.262 107.086 -190.727 107.93 -190.287 108.825C-189.951 109.453 -189.604 110.224 -189.162 111.149C-188.72 112.073 -188.183 113.144 -187.594 114.437C-184.62 120.711 -181.103 126.713 -177.082 132.373C-172.585 138.767 -167.016 144.698 -161.141 150.145C-155.995 154.917 -150.391 159.17 -144.41 162.842C-138.456 166.503 -132.153 169.563 -125.593 171.977L-124.76 172.302L-123.913 172.587L-122.214 173.153L-120.511 173.72L-119.66 174.004C-119.375 174.092 -119.086 174.169 -118.797 174.253L-115.337 175.229L-114.471 175.47C-114.182 175.546 -113.887 175.609 -113.594 175.678L-111.844 176.08L-110.09 176.485L-109.217 176.686L-108.333 176.847L-104.8 177.483L-103.919 177.636L-103.031 177.757L-101.255 177.984L-99.487 178.206L-98.6028 178.316C-98.3105 178.349 -98.0109 178.367 -97.7186 178.389C-90.8092 179.048 -83.858 179.15 -76.9322 178.696C-70.0422 178.241 -63.2095 177.146 -56.5222 175.426C-55.912 175.291 -55.3164 175.112 -54.7172 174.933L-52.9268 174.403C-51.7357 174.037 -50.5409 173.705 -49.3717 173.288C-47.0296 172.481 -44.7241 171.575 -42.4807 170.559C-37.9934 168.574 -33.794 165.993 -29.9957 162.886C-28.1644 161.371 -26.4843 159.683 -24.9791 157.844L-24.6941 157.508L-24.4274 157.142L-23.8975 156.437C-23.7222 156.2 -23.5322 155.969 -23.3751 155.728L-22.8818 154.998C-22.2445 154.015 -21.6674 152.995 -21.1536 151.943C-19.0902 147.778 -18.0576 143.178 -18.1428 138.53C-18.2525 133.955 -19.6336 129.396 -22.4141 125.822C-22.5807 125.594 -22.7588 125.375 -22.9476 125.164C-23.1339 124.949 -23.313 124.73 -23.5029 124.521C-23.8976 124.119 -24.2739 123.696 -24.7014 123.319C-25.5322 122.544 -26.4174 121.83 -27.3504 121.182C-28.2906 120.528 -29.2665 119.926 -30.2734 119.38C-31.2928 118.847 -32.3232 118.328 -33.3974 117.879C-36.0736 116.753 -38.8226 115.808 -41.6257 115.051C-44.4281 114.298 -47.3219 113.819 -50.0294 114.276C-50.2596 114.309 -50.4824 114.36 -50.7053 114.411C-50.9297 114.457 -51.1517 114.515 -51.3703 114.583L-51.6992 114.682L-52.0171 114.802L-52.6565 115.047C-53.4903 115.427 -54.2743 115.908 -54.9912 116.479C-56.4422 117.652 -57.631 119.116 -58.4806 120.776C-59.3457 122.455 -59.9202 124.269 -60.1796 126.14C-60.409 128.027 -60.3511 129.937 -60.0079 131.807C-59.6621 133.701 -59.1082 135.552 -58.3563 137.324C-57.602 139.117 -56.7154 140.851 -55.7037 142.513C-53.6618 145.866 -51.3277 149.033 -48.7287 151.976C-44.2558 157.155 -39.1407 161.742 -33.507 165.626C-27.5125 169.686 -21.0087 172.936 -14.1639 175.294C-7.35014 177.655 -0.274261 179.176 6.90746 179.825C11.2664 180.212 15.5852 180.3 19.5532 180.326C21.8717 180.337 24.1891 180.223 26.4954 179.986C27.6792 179.836 28.885 179.726 30.0871 179.514L31.914 179.222L33.7408 178.857L34.6543 178.674L35.5677 178.462L37.3946 178.035L39.2215 177.545L40.135 177.297L41.0448 177.023C43.4745 176.325 45.8678 175.462 48.2318 174.582C48.5971 174.443 49.1269 174.173 49.2585 174.132C52.9096 172.949 56.4306 171.397 59.7667 169.499C63.2597 167.563 66.6651 165.33 69.8913 163.131C75.1405 159.547 80.0542 155.496 84.5723 151.026C89.1335 146.529 93.2803 141.63 96.9623 136.389C100.304 131.664 103.23 126.659 105.709 121.43C108.189 116.214 110.086 110.74 111.369 105.109C111.89 102.854 112.24 100.562 112.414 98.2544C112.493 97.0929 112.507 95.9281 112.458 94.765C112.458 94.1804 112.378 93.6031 112.334 93.0185L112.213 92.1525C112.177 91.8639 112.129 91.5753 112.067 91.2903L111.892 90.4316L111.665 89.5876C111.629 89.4451 111.592 89.3062 111.552 89.1637L111.409 88.7509C111.311 88.4769 111.223 88.1992 111.121 87.9251C110.883 87.3917 110.682 86.829 110.39 86.3357C110.251 86.0799 110.134 85.8096 109.977 85.5648L109.513 84.8341C108.202 82.8907 106.368 81.3579 104.222 80.4129C102.481 79.6056 100.584 79.1902 98.6649 79.1962C96.7522 79.1834 94.8838 79.7713 93.3231 80.877C91.7979 82.0225 90.7027 83.648 90.2137 85.4917C89.7734 87.3453 89.8365 89.2829 90.3964 91.1039C90.9366 92.9409 91.7429 94.6889 92.7896 96.2923C93.823 97.9097 95.0059 99.4267 96.3228 100.823C96.9805 101.525 97.6674 102.194 98.3835 102.833C99.1143 103.468 99.8451 104.075 100.576 104.7C102.037 105.971 103.598 107.097 105.125 108.277C110.372 112.129 116.005 115.428 121.932 118.12C127.845 120.828 133.987 123.004 140.285 124.624C142.189 125.161 144.144 125.544 146.08 125.979C147.052 126.177 148.031 126.323 149.003 126.487C149.975 126.652 150.947 126.801 151.926 126.882C152.726 126.958 153.567 127.068 154.283 127.189C154.648 127.251 154.973 127.313 155.251 127.382C155.478 127.421 155.7 127.481 155.916 127.561L156.139 127.561L157.085 127.645L156.976 127.616L159.899 127.799L162.822 127.894L164.283 127.945L165.767 127.945L168.744 127.945L171.741 127.85L173.246 127.806L174.751 127.704L177.773 127.51L180.798 127.207C180.762 127.207 180.754 127.207 180.827 127.17L181.05 127.17L180.871 127.2L181.16 127.17L181.207 127.152ZM92.859 97.0486C92.194 96.0365 91.6387 94.8563 90.9225 93.6213C91.4729 94.8164 92.1231 95.9629 92.8663 97.0486L92.859 97.0486ZM101.584 105.851C100.967 105.324 100.506 104.919 100.057 104.553C99.5491 104.133 99.4943 104.137 99.9547 104.553C100.225 104.795 100.583 105.094 100.886 105.343C101.087 105.5 101.259 105.624 101.592 105.851L101.584 105.851Z" fill="#4C40DC"/>
<path d="M156.962 127.621L156.808 127.573L155.994 127.555L156.125 127.555L156.962 127.621Z" fill="#4C40DC"/>
<path d="M229.768 108.503C225.018 112.402 219.121 115.957 213.11 118.734C212.252 119.165 211.356 119.541 210.472 119.954C209.588 120.367 208.7 120.795 207.79 121.164C205.963 121.876 204.137 122.625 202.262 122.991L202.401 122.936L202.357 122.936L202.262 122.983L202.361 122.936C201.003 123.499 199.603 123.956 198.174 124.302C196.814 124.631 195.503 124.967 194.154 125.205L194.304 125.161L194.023 125.23L193.997 125.23L194.133 125.205C192.645 125.596 191.166 126.052 189.609 126.381L187.238 126.926L186.628 127.065L186.01 127.181L184.742 127.419C185.628 127.373 186.511 127.281 187.388 127.145C193.52 126.08 199.547 124.481 205.401 122.366C210.436 120.539 215.478 118.449 220.137 115.65C222.153 114.401 224.437 113.071 226.392 111.664L227.828 110.659C228.281 110.323 228.694 109.972 229.088 109.647C229.771 109.093 230.421 108.5 231.036 107.871C231.77 107.086 230.78 107.685 229.768 108.503Z" fill="#4C40DC"/>
<path d="M179.083 125.921C179.083 125.892 178.824 125.888 178.659 125.87C178.392 125.918 177.928 125.983 177.928 126.002C177.928 126.02 178.199 126.038 178.356 126.053C178.604 126.009 179.072 125.943 179.083 125.921Z" fill="#4C40DC"/>
<path d="M204.516 122.194L204.651 122.129L204.483 122.165L204.509 122.165C203.778 122.439 203.014 122.637 202.415 122.896C203.131 122.732 203.979 122.655 204.516 122.194Z" fill="#4C40DC"/>
<path d="M181.208 127.156L181.049 127.182L181.16 127.182L181.208 127.156Z" fill="#4C40DC"/>
<path d="M190.954 124.259L191.319 124.138L190.976 124.182C190.848 124.222 190.61 124.288 190.61 124.299C190.726 124.295 190.841 124.282 190.954 124.259Z" fill="#4C40DC"/>
<path d="M186.382 433.102C187.526 433.511 188.348 433.833 188.775 434.015C189.203 434.198 189.236 434.278 188.804 434.256C187.957 434.165 185.227 433.745 180.236 432.382C175.187 430.997 170.271 429.162 165.548 426.901C160.774 424.626 156.277 421.813 152.142 418.516C147.975 415.193 144.304 411.29 141.243 406.926C139.689 404.754 138.323 402.453 137.158 400.05C135.98 397.655 134.95 395.19 134.074 392.669C132.158 386.979 130.811 381.113 130.055 375.156C129.657 372.182 129.357 369.193 129.219 366.19C129.134 364.688 129.032 363.187 128.97 361.681C128.97 360.176 128.97 358.671 128.97 357.165C128.969 348.048 129.794 338.949 131.436 329.981C131.67 328.732 131.911 327.449 132.167 326.152C132.269 325.498 132.438 324.855 132.584 324.201C132.73 323.547 132.88 322.893 133.033 322.232C133.333 320.916 133.632 319.59 133.947 318.267C134.312 316.963 134.677 315.658 135.079 314.365C136.75 308.789 138.701 303.302 140.925 297.923C141.492 296.586 142.109 295.27 142.701 293.94L143.574 291.967L144.02 290.973C144.177 290.645 144.349 290.323 144.51 289.998L146.497 286.121C146.83 285.474 147.148 284.82 147.498 284.185L148.595 282.292C149.46 280.794 150.308 279.285 151.185 277.798L153.973 273.413L154.671 272.317L155.036 271.773L155.402 271.243L156.9 269.127L158.394 267.012L159.125 265.956C159.377 265.591 159.651 265.273 159.914 264.929L163.107 260.852C163.63 260.165 164.203 259.503 164.748 258.846C165.292 258.188 165.866 257.527 166.432 256.876C168.709 254.275 171.084 251.761 173.575 249.357C178.546 244.497 184.063 240.23 190.017 236.642C190.77 236.207 191.515 235.75 192.29 235.348C193.065 234.946 193.817 234.508 194.607 234.139C196.156 233.331 197.774 232.677 199.378 231.994L200.584 231.483C200.99 231.318 201.406 231.19 201.816 231.04L204.285 230.178C204.698 230.039 205.104 229.871 205.528 229.762L206.785 229.396L209.306 228.691C215.985 226.952 223.102 226.06 230.191 225.768C237.161 225.508 244.14 225.694 251.087 226.323C253.045 226.466 255.055 226.725 257.123 226.974C258.16 227.091 259.194 227.262 260.25 227.412C261.306 227.562 262.366 227.715 263.429 227.905C265.559 228.271 267.722 228.636 269.878 229.064C272.034 229.491 274.204 229.908 276.356 230.368C286.36 232.509 296.247 235.246 305.689 239.229C310.424 241.208 314.994 243.562 319.354 246.269C323.728 249.001 327.796 252.194 331.488 255.795C332.069 256.347 332.621 256.931 333.173 257.512C333.724 258.093 334.269 258.685 334.788 259.288C335.306 259.891 335.829 260.501 336.337 261.115L336.633 261.48L336.684 261.55L336.797 261.699L336.852 261.772L336.881 261.809L336.907 261.772L337.016 261.619C337.049 261.571 337.1 261.509 337.122 261.484L337.893 260.585C338.175 260.282 338.478 259.997 338.77 259.701L339.216 259.262L339.439 259.043L339.673 258.842C340.316 258.316 340.922 257.746 341.606 257.282C344.259 255.338 347.209 253.834 350.342 252.828C353.448 251.838 356.675 251.276 359.933 251.158C360.338 251.129 360.744 251.158 361.153 251.158L362.374 251.158C363.185 251.209 364.003 251.246 364.811 251.334C365.618 251.421 366.418 251.505 367.211 251.662L368.402 251.871C368.801 251.944 369.192 252.042 369.586 252.13C372.72 252.842 375.773 253.872 378.699 255.203C381.601 256.523 384.402 258.057 387.077 259.792C389.733 261.524 392.287 263.406 394.728 265.43C397.733 267.879 400.537 270.568 403.11 273.468C405.691 276.363 407.957 279.524 409.869 282.899C411.756 286.288 413.144 289.932 413.991 293.717C414.042 293.955 414.1 294.189 414.148 294.426L414.261 295.139L414.488 296.567C414.564 297.042 414.59 297.536 414.645 298.029C414.699 298.522 414.699 299.001 414.714 299.49C414.751 301.415 414.598 303.339 414.257 305.234C414.007 306.619 413.667 307.986 413.238 309.326C412.803 310.661 412.281 311.966 411.674 313.232C410.461 315.782 408.872 318.136 406.961 320.215C405.029 322.317 402.722 324.039 400.157 325.293C398.864 325.916 397.507 326.394 396.109 326.718C395.762 326.813 395.411 326.875 395.057 326.938C394.702 327 394.352 327.065 393.961 327.098C393.233 327.182 392.5 327.208 391.768 327.175C391.403 327.15 391.038 327.139 390.672 327.084C390.489 327.058 390.307 327.04 390.124 327.011L389.58 326.905C389.214 326.843 388.849 326.726 388.484 326.634C388.118 326.543 387.753 326.411 387.42 326.247C386.704 325.952 386.027 325.571 385.403 325.111C384.762 324.624 384.201 324.039 383.741 323.379C383.286 322.7 382.95 321.949 382.747 321.157C382.568 320.399 382.49 319.62 382.513 318.841C382.584 317.421 382.765 316.009 383.054 314.617C384.134 309.128 386.25 303.895 389.287 299.198C390.062 297.959 390.928 296.779 391.805 295.614C392.682 294.448 393.632 293.337 394.633 292.271C396.611 290.121 398.765 288.138 401.071 286.344C403.376 284.551 405.819 282.943 408.378 281.536C410.946 280.133 413.626 278.948 416.391 277.992C419.904 276.779 423.524 275.901 427.203 275.368C430.862 274.822 434.561 274.589 438.259 274.674C441.942 274.759 445.615 275.106 449.25 275.712C452.873 276.323 456.451 277.177 459.959 278.269C463.47 279.338 466.911 280.63 470.259 282.135C473.665 283.623 476.88 285.515 479.835 287.769C481.322 288.927 482.694 290.225 483.931 291.646C485.176 293.079 486.249 294.652 487.128 296.333C488.834 299.691 489.966 303.311 490.475 307.043C490.967 310.618 491.168 314.228 491.074 317.836C491.027 319.626 490.932 321.409 490.859 323.192L490.742 325.867L490.501 328.531C490.333 330.303 490.201 332.078 490 333.843C489.799 335.608 489.529 337.362 489.295 339.119C489.061 340.877 488.743 342.612 488.451 344.352C488.301 345.217 488.151 346.087 487.998 346.953L487.775 348.25L487.501 349.54C485.448 359.583 482.702 369.472 479.284 379.136C475.94 388.749 472.1 398.135 468.008 407.485C467.343 408.991 466.679 410.496 466.017 412.001L463.974 416.484C462.63 419.477 461.216 422.433 459.838 425.4C459.137 426.876 458.436 428.351 457.737 429.824C457.007 431.286 456.363 432.747 455.604 434.256C454.853 435.769 453.971 437.212 452.965 438.568C452.441 439.263 451.858 439.912 451.223 440.508C450.899 440.814 450.558 441.102 450.203 441.37C450.021 441.502 449.838 441.626 449.641 441.736L449.359 441.922L449.056 442.083C448.862 442.185 448.691 442.284 448.508 442.371L447.993 442.576C447.711 442.692 447.42 442.783 447.123 442.85C446.765 442.948 446.398 443.007 446.027 443.026C445.556 443.055 445.603 442.993 445.892 442.883L446.582 442.631L447.386 442.266C447.675 442.127 447.978 441.951 448.314 441.769C448.671 441.543 449.016 441.299 449.348 441.038C450.216 440.373 451 439.605 451.683 438.751C452.631 437.564 453.478 436.3 454.215 434.973C455.278 433.084 456.159 431.118 457.109 429.189C458.059 427.259 458.987 425.316 459.904 423.365C461.764 419.477 463.576 415.553 465.418 411.607C469.492 402.783 473.156 393.396 476.631 384.043C482.663 367.747 487.249 350.614 489.138 333.449C489.284 331.987 489.394 330.493 489.525 329.009L489.719 326.784L489.81 325.688L489.854 324.57C489.917 323.079 489.978 321.588 490.037 320.098C490.106 318.607 490.143 317.113 490.117 315.618C490.092 314.124 490.059 312.629 489.942 311.142C489.898 310.412 489.814 309.655 489.741 308.913C489.668 308.172 489.565 307.43 489.43 306.696C488.987 303.754 488.139 300.888 486.913 298.179C485.997 296.207 484.826 294.364 483.431 292.698C482.034 291.045 480.45 289.56 478.71 288.273C475.261 285.668 471.366 283.743 467.402 282.095C459.456 278.764 451.038 276.695 442.454 275.964C436.278 275.454 430.062 275.843 423.998 277.118C417.999 278.344 412.258 280.6 407.03 283.786C401.989 286.845 397.515 290.754 393.807 295.34C390.149 299.838 387.401 305.004 385.714 310.55C385.31 311.926 384.979 313.323 384.724 314.734C384.445 316.126 384.282 317.539 384.238 318.958C384.231 319.629 384.324 320.298 384.516 320.942C384.718 321.568 385.036 322.151 385.455 322.659C386.333 323.667 387.486 324.398 388.772 324.764C389.09 324.88 389.43 324.939 389.759 325.027C390.088 325.114 390.431 325.162 390.774 325.187C391.458 325.266 392.148 325.288 392.835 325.253C394.224 325.152 395.595 324.873 396.913 324.424C399.585 323.506 402.024 322.016 404.06 320.057C406.616 317.584 408.635 314.61 409.99 311.321C411.388 308.011 412.142 304.464 412.211 300.872C412.227 299.68 412.162 298.488 412.018 297.305C411.852 296.116 411.627 294.935 411.342 293.769C411.203 293.184 411.068 292.599 410.874 292.029C410.68 291.459 410.509 290.875 410.319 290.308L409.665 288.624C409.445 288.061 409.171 287.528 408.934 286.969C406.888 282.584 404.019 278.602 400.76 274.988C399.116 273.19 397.373 271.473 395.554 269.844C393.734 268.214 391.823 266.679 389.857 265.218C385.959 262.264 381.739 259.761 377.277 257.757C373.424 256.026 369.349 254.835 365.169 254.22C361.001 253.626 356.757 253.86 352.68 254.907C348.372 255.999 344.394 258.123 341.09 261.096L339.921 262.258C339.738 262.463 339.556 262.675 339.388 262.883L339.11 263.205C338.982 263.358 338.851 263.504 338.745 263.665C338.259 264.294 337.82 264.929 337.353 265.565L336.987 266.044C336.958 266.077 336.929 266.139 336.899 266.15L336.812 266.033L336.633 265.799L335.902 264.867L335.171 263.928L334.806 263.46C334.696 263.314 334.528 263.121 334.44 263.037L333.37 261.75C332.617 260.921 331.908 260.073 331.094 259.284C330.279 258.495 329.504 257.713 328.697 256.942C328.284 256.577 327.86 256.211 327.443 255.846C327.027 255.481 326.599 255.115 326.165 254.75C324.441 253.321 322.648 251.98 320.79 250.731C317.062 248.234 313.142 246.035 309.069 244.154C304.129 241.837 299.054 239.959 294.413 238.213C288.825 236.182 283.113 234.507 277.314 233.196C274.296 232.487 271.212 231.852 268.113 231.241C265.015 230.631 261.902 230.072 258.778 229.575C258.318 229.499 257.561 229.418 257.397 229.385C252.717 228.413 247.973 227.777 243.202 227.482C238.233 227.182 233.161 227.182 228.298 227.325L225.353 227.478C224.864 227.507 224.37 227.525 223.892 227.566L222.43 227.712L219.485 228.008C218.506 228.143 217.53 228.304 216.562 228.45C214.596 228.702 212.671 229.181 210.716 229.575C210.475 229.63 210.23 229.674 209.985 229.736L209.255 229.933L207.815 230.328L206.379 230.722L205.648 230.92C205.411 230.986 205.177 231.077 204.943 231.157L202.119 232.126L201.414 232.37L201.048 232.491L200.705 232.637L199.327 233.214L196.576 234.38C195.681 234.822 194.775 235.235 193.894 235.703C190.355 237.549 186.964 239.666 183.751 242.035C177.97 246.347 172.659 251.255 167.905 256.679L166.133 258.71L164.404 260.782L161.09 265.032C159.954 266.427 158.96 267.929 157.919 269.394C156.878 270.859 155.814 272.317 154.89 273.855C148.546 283.651 143.301 294.115 139.248 305.059C132.643 323.21 129.533 342.447 130.084 361.754L130.413 367.838C130.443 368.342 130.461 368.85 130.505 369.354L130.64 370.871C130.728 371.879 130.852 372.884 130.958 373.892C131.429 377.91 132.147 381.895 133.106 385.826C133.366 386.801 133.599 387.78 133.895 388.749C134.042 389.234 134.177 389.72 134.326 390.21L134.798 391.65C134.951 392.128 135.119 392.603 135.298 393.075L135.817 394.496L136.387 395.895C136.577 396.363 136.753 396.827 136.983 397.284L137.608 398.661C137.82 399.118 138.057 399.564 138.28 400.013C138.715 400.923 139.226 401.793 139.712 402.673C139.953 403.119 140.235 403.535 140.494 403.967C140.753 404.398 141.002 404.836 141.302 405.242L143.033 407.719C145.946 411.682 149.422 415.198 153.352 418.154C153.545 418.308 153.743 418.465 153.944 418.618L154.558 419.057C154.967 419.349 155.358 419.641 155.716 419.915C156.267 420.333 156.796 420.78 157.301 421.253L157.4 421.315L157.301 421.26L157.539 421.406L158.533 422.038L158.427 421.947C166.655 426.96 176.034 430.599 185.867 433C185.819 433 185.816 432.974 185.911 432.978L186.177 433.062L185.954 433.021L186.32 433.102L186.382 433.102ZM130.611 340.928C130.662 340.175 130.815 339.404 130.943 338.6C131.08 337.762 131.172 336.917 131.221 336.068L130.855 338.655C130.764 339.448 130.658 340.197 130.611 340.928ZM129.832 356.402C129.832 355.393 129.832 354.63 129.869 353.906C129.898 353.084 129.869 353.037 129.807 353.807C129.807 354.034 129.778 354.29 129.763 354.538C129.748 354.787 129.763 355.068 129.763 355.316C129.774 355.645 129.803 355.908 129.832 356.405L129.832 356.402Z" fill="#4C40DC"/>
<path d="M312.744 232.045C314.122 232.937 314.736 233.309 314.155 233.236C313.547 233.11 312.952 232.93 312.375 232.699L311.645 232.429L310.782 232.063L309.785 231.654L308.689 231.146C307.096 230.415 305.55 229.597 304.023 228.731C302.496 227.865 301.019 226.904 299.595 225.852C298.17 224.8 296.788 223.703 295.444 222.545C294.099 221.387 292.839 220.13 291.648 218.811C290.456 217.492 289.309 216.126 288.217 214.719C287.124 213.312 286.127 211.829 285.202 210.298C284.278 208.767 283.408 207.21 282.59 205.621C281.771 204.031 281.059 202.391 280.419 200.721C277.496 193.249 275.805 185.182 275.998 177.026C276.134 170.862 277.058 164.794 279.181 158.907C279.767 157.215 280.437 155.552 281.19 153.927C281.965 152.231 282.913 150.62 284.018 149.119C285.226 147.49 286.65 146.032 288.25 144.785C289.053 144.163 289.9 143.6 290.785 143.101C291.673 142.609 292.593 142.178 293.54 141.811C297.329 140.35 301.418 139.984 305.368 140.262C310.085 140.595 314.663 141.724 319.066 143.24C320.164 143.62 321.26 144.023 322.354 144.449C323.432 144.877 324.524 145.33 325.599 145.874C326.704 146.426 327.736 147.113 328.671 147.92C329.154 148.343 329.593 148.811 329.983 149.32C330.388 149.848 330.723 150.427 330.981 151.041C331.229 151.655 331.405 152.297 331.507 152.952C331.596 153.619 331.596 154.294 331.507 154.961C331.344 156.389 330.636 157.698 329.53 158.615C328.97 159.062 328.33 159.396 327.645 159.602C326.993 159.793 326.318 159.891 325.639 159.894C324.365 159.895 323.098 159.706 321.879 159.335C317.328 157.915 313.1 155.616 309.434 152.568C305.742 149.501 302.539 145.89 299.934 141.859C297.328 137.85 295.268 133.511 293.811 128.957C292.937 126.224 292.349 123.408 292.057 120.554C291.984 119.823 291.951 119.055 291.896 118.299C291.874 117.934 291.852 117.543 291.827 117.163C291.801 116.783 291.827 116.403 291.827 116.023L291.827 113.732C291.856 112.972 291.922 112.212 291.969 111.452C292.519 104.427 294.402 97.5703 297.519 91.2502C299.075 88.129 300.896 85.1475 302.963 82.3387C305.068 79.5624 307.412 76.9755 309.968 74.6073C316.369 68.7612 323.932 64.5812 331.835 61.6436C332.829 61.2782 333.816 60.9129 334.821 60.5987L337.839 59.6633L340.886 58.8485C341.905 58.5818 342.932 58.3699 343.959 58.1177C348.061 57.2308 352.208 56.5612 356.382 56.1118C358.939 55.8378 361.497 55.6222 364.018 55.4724C366.539 55.3226 369.075 55.2423 371.581 55.1399C376.598 55.034 381.563 55.0267 386.452 55.2423C400.855 55.8123 415.354 56.9559 429.793 59.2322C437.353 60.427 444.883 61.9323 452.323 63.7921L455.867 64.7238C457.051 65.0344 458.231 65.3449 459.407 65.6884C461.76 66.3643 464.11 67.1097 466.423 67.972C471.034 69.7002 475.579 71.9181 479.478 75.1334C481.435 76.7414 483.166 78.6058 484.626 80.6762L485.663 82.2693L486.566 83.9427C487.13 85.0718 487.619 86.2376 488.027 87.432C488.832 89.8131 489.378 92.2742 489.653 94.7725C489.912 97.2544 489.971 99.7531 489.829 102.244C489.703 104.666 489.411 107.076 488.955 109.457C488.519 111.827 487.943 114.17 487.231 116.472L486.723 118.197L486.467 119.059L486.343 119.49L486.189 119.914C485.785 121.04 485.381 122.164 484.976 123.287L484.677 124.127C484.578 124.408 484.472 124.69 484.352 124.96L483.657 126.601C483.186 127.697 482.751 128.793 482.258 129.871C479.371 136.16 475.77 142.096 471.527 147.562C467.326 152.993 462.59 157.989 457.39 162.473C450.715 168.286 443.285 173.171 435.303 176.997C433.429 177.914 433.166 177.947 433.44 177.666C434.032 177.071 434.697 176.554 435.42 176.128C435.928 175.81 436.542 175.459 437.295 175.061L437.886 174.75L438.519 174.385C438.957 174.133 439.432 173.87 439.954 173.588C442.53 172.269 444.949 170.698 447.394 169.156L450.956 166.672C451.563 166.273 452.118 165.806 452.699 165.367L454.431 164.03C459.546 160.011 464.212 155.049 468.502 149.93L469.897 148.246C470.127 147.961 470.369 147.687 470.591 147.394L471.238 146.514C472.101 145.333 472.981 144.164 473.825 142.966L476.215 139.279C476.627 138.676 476.967 138.026 477.333 137.39L478.429 135.479C481.241 130.373 483.565 125.014 485.371 119.472C485.678 118.526 485.93 117.561 486.211 116.604C486.493 115.647 486.778 114.693 487.026 113.725C487.516 111.784 487.914 109.819 488.239 107.846C488.32 107.349 488.378 106.852 488.447 106.359C488.517 105.865 488.586 105.365 488.627 104.868L488.769 103.374L488.849 101.879L488.886 101.13L488.886 100.399C488.886 99.8987 488.886 99.4019 488.886 98.905C488.835 97.9111 488.824 96.9209 488.7 95.9344C488.435 93.0429 487.808 90.1962 486.833 87.4613C485.85 84.7431 484.431 82.2033 482.631 79.9418C480.811 77.6998 478.663 75.7461 476.259 74.1469C473.863 72.5392 471.316 71.1686 468.655 70.0546C464.822 68.4905 460.88 67.2082 456.861 66.2182C452.89 65.1878 448.917 64.25 444.942 63.4048C437.159 61.7496 429.465 60.5658 421.755 59.7108C414.046 58.8559 406.318 58.3333 398.437 58.0374C393.599 57.8255 388.571 57.7231 383.657 57.65C377.066 57.6184 370.482 57.8242 363.905 58.2675C360.616 58.5087 357.328 58.8156 354.08 59.276C352.446 59.4806 350.828 59.7619 349.202 60.0323C348.391 60.1712 347.587 60.3466 346.779 60.5C345.972 60.6535 345.165 60.8215 344.368 61.0188L342.278 61.4975C341.584 61.6546 340.897 61.8628 340.203 62.02C339.508 62.1771 338.811 62.3524 338.127 62.5571L336.07 63.1527C335.38 63.3354 334.7 63.5619 334.024 63.7884L331.993 64.4644L329.998 65.2316C329.336 65.4911 328.668 65.7359 328.028 66.0428L325.967 66.9782C325.602 67.1243 325.288 67.3034 324.955 67.4788L323.954 68.0012C322.602 68.6662 321.331 69.4627 320.041 70.2373L319.559 70.5296L319.095 70.8475L318.167 71.4833L317.239 72.119L316.778 72.4369L316.332 72.7841C315.16 73.7121 313.954 74.6109 312.869 75.6303L312.036 76.3793L311.623 76.7447L311.228 77.1467L309.661 78.7433C309.394 79.0027 309.16 79.295 308.93 79.5764L308.199 80.4204L307.468 81.2645C307.224 81.5458 307.012 81.8564 306.782 82.1487L305.422 83.9244L304.173 85.7768C303.964 86.0911 303.749 86.3943 303.552 86.7086L302.985 87.6732C302.62 88.3163 302.211 88.9483 301.86 89.606C300.22 92.6933 298.756 95.8711 297.475 99.1241C295.993 102.795 295.018 106.651 294.578 110.586C294.101 114.758 294.168 118.974 294.775 123.129C294.823 123.436 294.954 123.93 294.962 124.043C295.002 124.792 295.115 125.548 295.228 126.319C295.342 127.09 295.513 127.865 295.718 128.643C296.115 130.235 296.625 131.797 297.245 133.316C297.874 134.866 298.584 136.382 299.372 137.858C300.161 139.319 301.012 140.755 301.878 142.129C304.706 146.627 308.391 150.526 312.723 153.602C313.815 154.368 314.948 155.074 316.117 155.718C317.292 156.352 318.502 156.919 319.741 157.417C320.975 157.936 322.251 158.348 323.556 158.648C324.867 158.97 326.241 158.936 327.535 158.549C328.114 158.35 328.644 158.029 329.088 157.607C329.528 157.184 329.875 156.674 330.104 156.108C330.537 154.967 330.61 153.719 330.312 152.535C330.035 151.351 329.447 150.263 328.609 149.382C327.778 148.509 326.816 147.769 325.759 147.19C324.703 146.613 323.61 146.104 322.489 145.666C321.371 145.224 320.246 144.793 319.109 144.402C316.836 143.606 314.518 142.943 312.167 142.418C308.429 141.603 304.52 141.121 300.625 141.428C300.135 141.453 299.653 141.526 299.163 141.574C298.674 141.621 298.199 141.709 297.72 141.811C296.762 141.994 295.816 142.238 294.888 142.542C293.964 142.848 293.061 143.214 292.185 143.638C291.314 144.07 290.478 144.567 289.682 145.125C287.036 146.952 284.957 149.51 283.35 152.257C281.776 155.064 280.518 158.037 279.601 161.121C278.653 164.196 277.966 167.344 277.548 170.534C277.142 173.723 276.988 176.94 277.087 180.154C277.457 191.021 280.738 201.589 286.587 210.754C288.33 213.546 290.371 216.139 292.674 218.489C293.135 218.972 293.65 219.45 294.052 219.904C294.375 220.24 294.665 220.607 294.918 221L294.972 221.051L294.914 221.007L295.057 221.128L295.634 221.665L295.579 221.584C298.065 223.704 300.709 225.63 303.489 227.346C306.33 229.112 309.303 230.654 312.383 231.957C312.354 231.939 312.354 231.932 312.419 231.935L312.58 232.027L312.438 231.979L312.664 232.071L312.744 232.045ZM277.935 166.233C278.161 165.254 278.516 164.216 278.666 163.04C278.337 164.278 278.15 165.261 277.931 166.233L277.935 166.233ZM276.839 176.548C276.875 175.872 276.912 175.364 276.926 174.878C276.948 174.33 276.926 174.293 276.861 174.809C276.835 175.112 276.821 175.499 276.813 175.828C276.824 176.036 276.842 176.208 276.853 176.548L276.839 176.548Z" fill="#4C40DC"/>
<path d="M295.604 221.559L295.531 221.445L294.998 221.025L295.082 221.102L295.604 221.559Z" fill="#4C40DC"/>
<path d="M311.795 230.068C311.824 230.05 311.63 229.929 311.521 229.845C311.329 229.766 311.132 229.698 310.933 229.641C310.911 229.663 311.104 229.787 311.21 229.867C311.401 229.946 311.596 230.013 311.795 230.068Z" fill="#4C40DC"/>
<path d="M207.837 65.5239C210.029 65.1037 209.791 65.3338 205.802 67.5042C201.826 69.7695 197.855 72.0897 193.974 74.6035C192.991 75.2137 192.049 75.8824 191.08 76.5181L189.619 77.4827C189.14 77.8042 188.673 78.1477 188.198 78.4802L185.359 80.4934L182.574 82.5834C178.427 85.7621 174.536 89.2515 170.601 92.7628C167.63 95.4337 164.945 98.2764 162.139 101.167C161.379 101.974 160.615 102.847 159.841 103.724C159.066 104.601 158.332 105.551 157.546 106.413C154.225 110.229 151.172 114.272 148.412 118.511C145.1 123.51 142.295 128.825 140.037 134.379L139.248 136.477C138.996 137.178 138.7 137.865 138.488 138.581L137.801 140.711L137.458 141.775L137.165 142.871C136.8 144.31 136.365 145.746 136.069 147.201C135.901 147.931 135.773 148.662 135.623 149.393C135.474 150.124 135.371 150.854 135.258 151.585C134.362 157.517 134.442 163.556 135.495 169.463C136.106 172.733 136.771 176.486 137.838 180.059C139.022 184.188 140.636 188.182 142.653 191.974C143.665 193.85 144.793 195.66 146.029 197.396C147.256 199.136 148.607 200.786 150.07 202.332C151.859 204.244 153.847 205.959 156 207.448C158.097 208.915 160.383 210.09 162.796 210.941C163.977 211.351 165.189 211.665 166.421 211.88L167.338 212.019L168.255 212.099L168.716 212.143L169.176 212.143L170.097 212.143L171.021 212.099L171.485 212.077L171.946 212.026L172.866 211.92L173.783 211.755L174.24 211.675C174.394 211.642 174.543 211.602 174.693 211.565L175.599 211.346L176.495 211.069C176.795 210.985 177.09 210.885 177.379 210.769C178.815 210.258 180.192 209.594 181.486 208.789C182.779 208.005 183.984 207.082 185.077 206.037C186.164 205.007 187.136 203.861 187.975 202.621C188.797 201.372 189.498 200.047 190.068 198.664C191.725 194.46 191.968 189.831 190.759 185.478C190.61 184.934 190.433 184.399 190.229 183.873L189.926 183.084C189.816 182.825 189.688 182.576 189.56 182.321C189.15 181.337 188.574 180.432 187.858 179.642C186.586 178.287 184.368 178.133 182.198 178.546L181.343 178.703L180.503 178.934L180.083 179.05C179.944 179.094 179.809 179.149 179.67 179.197L178.851 179.5C177.769 179.947 176.731 180.497 175.753 181.14C174.766 181.787 173.833 182.512 172.961 183.307C172.092 184.118 171.28 184.989 170.532 185.912C169.572 187.089 168.716 188.347 167.974 189.672C167.213 190.995 166.561 192.377 166.023 193.805C165.478 195.249 165.014 196.723 164.631 198.218C164.265 199.724 163.962 201.255 163.717 202.796C163.262 205.918 162.98 209.063 162.873 212.216C162.745 215.391 162.672 218.592 162.698 221.778C162.731 224.884 162.807 227.989 163.063 231.055C163.286 234.092 163.767 237.105 164.499 240.061C165.04 242.192 165.733 244.282 166.574 246.313L167.232 247.811L167.963 249.272C168.453 250.229 169.011 251.15 169.633 252.027C172.12 255.584 175.439 258.479 179.301 260.46C181.773 261.737 184.469 262.525 187.24 262.781C189.952 263.032 192.682 262.585 195.173 261.483C196.313 260.939 196.481 260.921 196.349 261.147C196.056 261.613 195.653 262.001 195.176 262.276C194.207 262.863 193.13 263.249 192.009 263.413C188.249 264.011 184.396 263.503 180.919 261.951C179.934 261.532 178.97 261.062 178.033 260.544C177.079 260.028 176.155 259.457 175.267 258.835C173.46 257.596 171.827 256.122 170.411 254.45C167.937 251.527 166.231 248.056 164.93 244.475C164.293 242.675 163.768 240.837 163.356 238.973C162.921 237.116 162.625 235.235 162.376 233.357C161.719 228.183 161.719 222.867 161.689 217.645C161.646 213.835 161.8 210.025 162.15 206.231C162.491 202.465 163.239 198.747 164.382 195.142C165.199 192.567 166.326 190.101 167.736 187.798L168.274 186.946L168.851 186.128L169.139 185.719L169.45 185.324L170.071 184.538L170.736 183.789L171.069 183.424L171.434 183.059L172.143 182.354L172.892 181.692C174.85 179.976 177.11 178.639 179.556 177.75C180.787 177.33 182.056 177.035 183.345 176.869C184.672 176.691 186.021 176.834 187.28 177.286C187.924 177.54 188.515 177.911 189.023 178.382C189.518 178.849 189.952 179.375 190.317 179.949C190.503 180.231 190.682 180.516 190.836 180.801L191.292 181.678C191.597 182.265 191.871 182.867 192.114 183.483C193.099 185.978 193.638 188.627 193.707 191.309C193.74 192.996 193.591 194.681 193.265 196.337C192.911 198.001 192.383 199.623 191.691 201.178C190.755 203.247 189.511 205.163 188 206.859C186.49 208.538 184.751 209.996 182.834 211.189C178.987 213.6 174.559 214.922 170.02 215.015C168.042 215.039 166.072 214.769 164.174 214.211C162.296 213.666 160.476 212.938 158.741 212.037C155.111 210.134 151.78 207.709 148.854 204.839C145.91 202.012 143.319 198.839 141.137 195.39C139.831 193.384 138.77 191.229 137.976 188.971C137.176 186.574 136.343 184.02 135.616 181.356C134.869 178.662 134.28 175.927 133.851 173.164C133.822 172.96 133.727 172.634 133.723 172.558C133.723 170.552 133.511 168.418 133.358 166.226C133.162 164.039 133.106 161.843 133.19 159.649C133.396 156.16 133.832 152.689 134.494 149.258C134.684 148.403 134.838 147.537 135.053 146.7L135.357 145.421L135.722 144.15L136.431 141.592C136.687 140.752 136.979 139.922 137.249 139.085C137.717 137.566 138.323 136.093 138.883 134.61C139.149 133.861 139.478 133.148 139.792 132.417L140.735 130.225C141.071 129.494 141.426 128.796 141.765 128.08L142.284 127.01L142.544 126.476L142.825 125.95L143.947 123.853C144.137 123.487 144.312 123.148 144.513 122.804L145.116 121.774C147.722 117.322 150.653 113.069 153.885 109.048C159.188 102.369 165.065 96.1668 171.449 90.512C176.789 85.7161 182.42 81.2526 188.307 77.1466C189.195 76.5108 190.134 75.9445 191.048 75.3197C191.961 74.6949 192.874 74.0847 193.744 73.4672C194.475 72.952 195.33 72.4624 195.732 72.4368L195.776 72.4076L195.739 72.4404L195.841 72.3674L196.283 72.0897L196.218 72.0897C199.866 69.61 203.705 67.422 207.698 65.5458C207.676 65.5458 207.672 65.5458 207.698 65.5092L207.815 65.4727L207.731 65.5275L207.877 65.4581L207.837 65.5239ZM164.912 97.1474C164.352 97.6019 163.852 98.1262 163.425 98.7075C164.006 98.0974 164.444 97.6077 164.912 97.1474ZM169.772 92.3389C169.439 92.6349 169.183 92.8541 168.953 93.0697C168.723 93.2853 168.701 93.3621 168.953 93.1465C169.107 93.0223 169.293 92.8469 169.45 92.6934C169.563 92.6057 169.625 92.5107 169.772 92.3389Z" fill="#4C40DC"/>
<path d="M196.155 72.1889L196.068 72.2072L195.702 72.4922L195.768 72.452L196.155 72.1889Z" fill="#4C40DC"/>
<path d="M235.173 55.5129C234.369 55.8052 233.54 56.0828 232.696 56.3568C232.272 56.4957 231.841 56.6163 231.414 56.7625L230.124 57.2009C229.262 57.4859 228.385 57.7672 227.508 58.0413C226.631 58.3153 225.769 58.6368 224.906 58.9255C224.406 59.0972 223.905 59.2909 223.408 59.4955L222.677 59.7988L221.947 60.1276C220.973 60.5744 219.952 60.9102 218.903 61.1287L218.976 61.0886L218.951 61.0886L218.903 61.1214L218.954 61.0886C218.238 61.4627 217.498 61.791 216.74 62.0714C216.009 62.3381 215.3 62.5574 214.581 62.8022L214.654 62.7583L214.508 62.8241L214.581 62.7985C213.813 63.1639 213.075 63.5951 212.304 64.0116L209.9 65.3232C210.558 65.1004 210.941 65.009 211.285 64.8519L213.609 63.7887C214.383 63.4233 215.18 63.1237 215.965 62.7912L218.318 61.8083L220.693 60.9059C221.375 60.6428 222.065 60.387 222.761 60.1385L224.866 59.4516C225.568 59.2226 226.268 58.9851 226.967 58.7391C227.665 58.4907 228.374 58.2751 229.072 58.0084C231.501 57.084 234.629 56.4227 236.014 55.5092C236.5 55.2023 235.857 55.2681 235.173 55.5129Z" fill="#4C40DC"/>
<path d="M206.196 64.7019C206.196 64.669 206.039 64.7019 205.94 64.7019C205.809 64.7896 205.575 64.9247 205.575 64.9393C205.575 64.9539 205.74 64.9394 205.835 64.9211C205.96 64.8565 206.081 64.7832 206.196 64.7019Z" fill="#4C40DC"/>
<path d="M220.095 60.643L220.168 60.5992L220.069 60.5992L220.088 60.5992C219.698 60.7207 219.319 60.8747 218.955 61.0596C219.368 60.9975 219.839 60.9864 220.095 60.643Z" fill="#4C40DC"/>
<path d="M207.834 65.524C207.81 65.5421 207.784 65.5579 207.757 65.5713L207.819 65.5713C207.819 65.5713 207.837 65.524 207.834 65.524Z" fill="#4C40DC"/>
<path d="M212.416 61.9838L212.595 61.8595L212.405 61.9107C212.339 61.9509 212.218 62.0166 212.222 62.0312C212.288 62.0221 212.353 62.0062 212.416 61.9838Z" fill="#4C40DC"/>
<path d="M82.0405 200.217C81.255 199.643 80.8969 199.373 81.255 199.347C81.6266 199.361 81.995 199.422 82.3511 199.53C83.1203 199.727 83.8681 200 84.5836 200.345C85.5485 200.793 86.4067 201.442 87.101 202.248C87.7913 203.081 88.2902 204.055 88.5625 205.102C89.1215 207.188 88.9864 209.366 88.5845 211.423C87.737 215.561 85.9907 219.463 83.4692 222.852C80.6521 226.648 76.9983 229.951 72.6065 231.987C72.2009 232.195 71.7734 232.352 71.3532 232.535C70.933 232.717 70.5238 232.9 70.0744 233.043C69.2012 233.356 68.3027 233.595 67.3889 233.755C65.5183 234.131 63.5876 234.086 61.7365 233.623C60.6163 233.342 59.5616 232.846 58.6308 232.162L57.9439 231.555C57.7356 231.325 57.5419 231.088 57.3446 230.85C56.9886 230.351 56.6988 229.809 56.4823 229.235C56.0946 228.047 55.9142 226.801 55.9489 225.552C55.9489 224.361 56.0512 223.236 56.1462 222.085C56.3398 219.798 56.6729 217.524 57.1437 215.278C58.2676 209.931 60.092 204.755 62.5696 199.884C63.8301 197.455 65.3574 195.05 67.5131 193.107C68.0508 192.619 68.6249 192.173 69.2304 191.773L69.6944 191.477C69.8515 191.386 70.0159 191.305 70.1767 191.218C70.5019 191.05 70.8234 190.874 71.1523 190.713C72.4937 190.132 73.9109 189.745 75.3614 189.563C78.2458 189.284 81.1567 189.554 83.9405 190.359C84.6457 190.527 85.318 190.772 86.0049 190.977C86.6918 191.181 87.3568 191.444 88.0072 191.707C89.3298 192.219 90.5867 192.825 91.8217 193.428C93.2902 194.215 94.7127 195.085 96.082 196.033C96.7872 196.534 97.4778 197.078 98.1793 197.612L99.2279 198.423L100.233 199.289L101.391 200.294L101.968 200.802C102.155 200.973 102.334 201.167 102.52 201.331L104.712 203.48L106.755 205.745C107.102 206.111 107.42 206.509 107.734 206.907L108.684 208.091C111.177 211.268 113.397 214.65 115.319 218.201C117.705 222.555 119.694 227.115 121.26 231.826C122.835 236.544 123.799 241.445 124.128 246.408C124.51 252.356 124.095 258.328 122.893 264.165C122.013 268.331 121.03 272.467 119.864 276.566C118.699 280.666 117.354 284.722 115.845 288.726C114.264 292.921 112.524 297.049 110.624 301.112C108.191 306.283 105.476 311.27 102.692 316.214C99.9075 321.157 97.0174 326.039 94.1236 330.953C91.2919 335.739 88.2154 340.398 85.2193 344.972C80.78 351.721 75.9825 357.965 71.1267 364.294C67.9795 368.371 64.8275 372.403 61.6707 376.388C60.9399 377.338 60.7682 377.4 60.7938 377.148C60.8705 376.417 61.2651 375.346 63.0335 373.234C64.1297 371.941 65.1564 370.622 66.2233 369.318C67.2902 368.013 68.3242 366.68 69.4131 365.371C70.6188 363.91 71.7478 362.332 72.8987 360.764C74.0497 359.197 75.1605 357.585 76.3406 356.014C80.4475 350.599 84.3095 344.907 87.8939 339.207C90.3419 335.279 92.8484 331.293 95.0845 327.255C98.3729 321.318 101.84 315.585 105.03 309.677C107.336 305.402 109.342 301.061 111.216 296.706C114.766 288.316 117.438 279.58 119.189 270.64C119.327 269.953 119.469 269.26 119.612 268.561C119.766 267.863 119.864 267.154 119.996 266.449L120.383 264.33C120.511 263.625 120.588 262.912 120.694 262.211L120.895 260.793C120.964 260.322 121.034 259.847 121.067 259.372L121.319 256.522L121.384 255.791L121.406 255.06L121.454 253.632C121.454 252.682 121.542 251.724 121.487 250.774L121.395 247.913C121.395 247.435 121.326 246.963 121.286 246.488L121.143 245.063L120.997 243.642C120.953 243.163 120.851 242.7 120.778 242.228L120.537 240.818C120.449 240.346 120.387 239.875 120.266 239.411C120.076 238.604 119.901 237.796 119.729 236.981L119.609 236.371L119.455 235.768L119.148 234.562C118.783 232.94 118.26 231.358 117.749 229.783C117.464 228.95 117.117 228.143 116.799 227.324C116.635 226.915 116.477 226.506 116.309 226.1L115.75 224.909L115.191 223.718C115.005 223.32 114.826 222.918 114.61 222.538L113.361 220.229C113.16 219.838 112.926 219.469 112.696 219.096L112.009 217.978L111.322 216.864C111.084 216.498 110.829 216.133 110.591 215.767C110.087 215.037 109.608 214.306 109.093 213.615L107.496 211.54C107.336 211.328 107.182 211.116 107.014 210.912C106.846 210.707 106.674 210.506 106.506 210.305C106.174 209.899 105.845 209.494 105.527 209.088C104.913 208.263 104.263 207.499 103.7 206.71C101.143 203.162 97.3389 199.793 93.3344 196.965C93.1882 196.859 92.9178 196.728 92.8703 196.68C91.5207 195.38 89.9572 194.322 88.2483 193.552C86.4901 192.737 84.6741 192.054 82.8151 191.506C81.3453 191.053 79.8314 190.758 78.2991 190.626C76.7524 190.506 75.1965 190.629 73.688 190.991C72.1673 191.357 70.7293 192.006 69.4496 192.906C68.1783 193.817 67.0503 194.913 66.1027 196.158C64.3672 198.401 63.1103 200.944 61.9776 203.509C61.415 204.799 60.8997 206.103 60.443 207.429C59.9863 208.756 59.5661 210.097 59.2007 211.449C58.0009 215.839 57.2986 220.351 57.1071 224.898C57.065 225.827 57.13 226.758 57.3008 227.671C57.391 228.123 57.5268 228.563 57.7063 228.987C57.7502 229.089 57.8014 229.191 57.8525 229.297C57.9037 229.403 57.9694 229.491 58.0242 229.59L58.2033 229.882L58.2909 230.028L58.3969 230.16C58.9479 230.891 59.6673 231.479 60.4942 231.873C61.321 232.271 62.2049 232.538 63.114 232.663C64.9507 232.876 66.8114 232.735 68.5946 232.246C69.49 232.002 70.3648 231.688 71.2107 231.307C71.643 231.134 72.0662 230.939 72.4786 230.722C72.8951 230.514 73.3226 230.324 73.7209 230.083L74.7439 229.495C75.0801 229.29 75.4016 229.064 75.7304 228.848C76.3954 228.428 76.9983 227.92 77.6268 227.452C78.8394 226.459 79.9696 225.369 81.0065 224.193C83.0806 221.844 84.7701 219.182 86.0122 216.305C86.7946 214.568 87.3367 212.733 87.6235 210.849C87.7112 210.086 87.8464 209.256 88.051 208.96L88.051 208.851C88.051 208.701 88.051 208.551 88.0729 208.401L88.0474 208.453C88.0181 206.626 87.682 204.729 86.6954 203.25C85.7089 201.77 84.0538 200.82 82.2452 200.169C82.2452 200.169 82.2451 200.188 82.2196 200.195L82.1282 200.14L82.2123 200.14L82.0807 200.093L82.0405 200.217ZM66.1904 233.119C66.0443 233.119 65.8945 233.141 65.741 233.145L65.2697 233.145C65.1089 233.145 64.9481 233.145 64.7801 233.163C64.6093 233.167 64.4393 233.186 64.2722 233.222L64.8093 233.222L65.2953 233.196L65.752 233.174L66.1904 233.119ZM71.9598 231.314C71.5944 231.479 71.3167 231.563 71.0609 231.68C70.8052 231.797 70.7613 231.848 71.0609 231.756C71.2486 231.692 71.4328 231.618 71.6127 231.534C71.7355 231.472 71.8518 231.399 71.9598 231.314Z" fill="#4C40DC"/>
<path d="M88.0371 208.548L88.0042 208.621C88.0042 208.752 88.0261 208.88 88.0335 209.012L88.0335 208.946C88.0371 208.814 88.0371 208.661 88.0371 208.548Z" fill="#4C40DC"/>
<path d="M56.8845 196.055C60.0638 195.882 63.2525 196.015 66.4063 196.453C68.2551 196.687 70.2573 196.618 72.0111 197.33L71.938 197.33L71.96 197.33C73.4946 197.389 74.7222 197.856 76.0084 198.24L75.9316 198.24L76.0741 198.269L76.0084 198.251C77.4954 198.47 78.9826 198.719 80.6523 199.037C80.2575 198.857 79.8538 198.697 79.4429 198.558C76.5199 197.791 73.5347 197.122 70.5679 196.632C68.0102 196.198 65.3905 195.715 62.7415 195.635C60.4396 195.558 57.6006 195.306 56.2085 195.81C55.686 195.989 56.2487 196.103 56.8845 196.055Z" fill="#4C40DC"/>
<path d="M82.3936 201.887C82.3717 201.913 82.4703 201.986 82.5215 202.044C82.6226 202.079 82.7265 202.105 82.832 202.121C82.832 202.096 82.7553 202.019 82.7078 201.964C82.6057 201.928 82.5005 201.903 82.3936 201.887Z" fill="#4C40DC"/>
<path d="M70.8633 197.148L70.7939 197.148L70.8706 197.188L70.8706 197.163C71.2206 197.249 71.5777 197.304 71.9375 197.327C71.594 197.196 71.2287 196.969 70.8633 197.148Z" fill="#4C40DC"/>
<path d="M82.0447 200.217L82.1211 200.235L82.0738 200.206L82.0447 200.217Z" fill="#4C40DC"/>
<path d="M77.0125 200.144L76.8226 200.144L76.9797 200.217C77.0416 200.223 77.104 200.223 77.166 200.217C77.166 200.217 77.0747 200.17 77.0125 200.144Z" fill="#4C40DC"/>
<path d="M-30.159 233.558C-30.3928 234.252 -30.5646 234.545 -30.6961 234.322C-30.8276 234.099 -30.9482 233.361 -31.2222 231.994C-31.5087 230.624 -31.8636 229.269 -32.2855 227.935L-31.3976 227.745C-31.2174 228.729 -30.8342 229.665 -30.2722 230.493C-29.993 230.909 -29.6723 231.296 -29.315 231.647C-28.96 232.005 -28.5735 232.33 -28.1604 232.619C-26.4725 233.783 -24.4876 234.442 -22.4385 234.519C-20.9181 234.588 -19.4039 234.283 -18.0284 233.631C-16.6796 232.931 -15.4659 231.997 -14.4441 230.873C-13.6602 230.015 -13.0054 229.047 -12.5002 228.001C-11.9891 226.941 -11.5663 225.841 -11.2361 224.712C-10.9087 223.374 -10.7166 222.007 -10.6624 220.631C-10.4139 217.642 -11.0534 214.61 -11.9595 211.705C-12.5732 209.791 -13.3192 207.922 -14.1919 206.111C-14.4039 205.654 -14.6268 205.197 -14.8496 204.744L-15.7448 202.969L-17.8823 198.854L-14.1591 199.322L-12.2628 199.563C-11.8718 199.607 -11.7366 199.607 -11.532 199.625L-10.9109 199.673L-8.42629 199.866L-5.93441 199.958C-2.22139 200.068 1.49076 199.711 5.11465 198.895C5.61887 198.781 6.14498 198.694 6.68574 198.591C7.2265 198.489 7.78188 198.376 8.3336 198.277C8.88533 198.179 9.46629 198.087 10.0363 197.999L11.7462 197.663C17.0074 196.705 22.1823 195.322 27.22 193.527C28.0056 193.264 28.7619 192.932 29.5182 192.603C30.2746 192.274 31.0309 191.952 31.7653 191.587C33.2268 190.831 34.6883 190.126 36.0914 189.26C36.7929 188.839 37.5017 188.437 38.196 188.01L40.253 186.68C41.6378 185.814 42.9715 184.875 44.3051 183.94C45.9237 182.785 47.4766 181.583 48.9417 180.315C50.3837 179.066 51.7422 177.723 53.0084 176.296C54.8534 174.188 56.2761 171.746 57.1993 169.102C58.1169 166.416 58.6197 163.605 58.69 160.767C58.7661 157.771 58.5211 154.775 57.9593 151.83C57.2759 148.05 56.2083 144.349 54.7732 140.785C53.3252 137.192 51.4873 133.768 49.2925 130.576C47.1689 127.45 44.792 124.504 42.1859 121.767L40.7244 120.305L39.9936 119.575L39.2629 118.877L37.7722 117.481L36.2302 116.151L35.4593 115.482L34.6628 114.854L33.0588 113.593L31.3926 112.417L30.5559 111.832L29.6863 111.292L28.5646 110.597C28.1992 110.364 27.8338 110.133 27.4246 109.932C26.6537 109.512 25.8864 109.088 25.1081 108.686L22.7332 107.59C21.9403 107.225 21.1219 106.933 20.3144 106.611C19.5069 106.29 19.4886 106.202 19.6713 106.125C20.2121 105.91 21.0378 105.858 22.788 106.637C23.8293 107.17 24.8889 107.663 25.9156 108.219L27.4429 109.088L28.2029 109.534C28.455 109.688 28.6961 109.856 28.9336 110.016C29.4817 110.382 30.0298 110.747 30.618 111.08C31.2063 111.412 31.7434 111.81 32.3134 112.176C33.4558 112.897 34.554 113.687 35.6018 114.54C39.2481 117.532 42.6395 120.822 45.741 124.376L46.5266 125.293C46.7897 125.596 47.0527 125.903 47.2902 126.228C47.7774 126.866 48.2719 127.507 48.7737 128.15C49.709 129.469 50.6773 130.766 51.5469 132.114C51.8721 132.608 52.2082 133.097 52.5115 133.602L53.3811 135.136C53.973 136.152 54.448 137.222 54.9485 138.278C55.91 140.402 56.7267 142.588 57.3929 144.822C58.418 147.982 59.183 151.22 59.6802 154.505C60.1429 157.669 60.258 160.874 60.0236 164.063C59.7785 167.31 58.9634 170.489 57.6158 173.453C56.7342 175.332 55.6036 177.083 54.2543 178.66C52.4791 180.753 50.5054 182.669 48.3608 184.382C47.3036 185.244 46.2233 186.072 45.1199 186.866C44.0238 187.659 42.9057 188.452 41.762 189.187C39.8036 190.52 37.6442 191.532 35.5506 192.617C31.1243 194.93 26.5279 196.902 21.8014 198.515C21.0707 198.734 20.3399 198.946 19.6348 199.121C18.9426 199.309 18.2343 199.431 17.5192 199.486C15.9517 199.585 14.3295 199.881 12.6414 200.1C11.7974 200.217 10.957 200.389 10.0838 200.495L7.52613 200.82C7.39825 200.838 7.19729 200.912 7.16075 200.904C5.86505 200.775 4.55837 200.803 3.26947 200.988C1.92122 201.12 0.547393 201.273 -0.778928 201.302L-4.0052 201.229C-4.54231 201.229 -5.07943 201.193 -5.62019 201.16L-7.23881 201.069C-8.33494 201.032 -9.39454 200.912 -10.4724 200.813L-12.0947 200.667C-12.6427 200.601 -13.1908 200.521 -13.7389 200.451C-14.5098 200.349 -15.3027 200.236 -16.0371 200.159C-15.2844 201.598 -14.55 203.005 -13.8449 204.401C-13.1397 205.797 -12.4747 207.229 -11.8681 208.683C-10.6035 211.617 -9.80704 214.732 -9.5078 217.913C-9.40121 219.234 -9.41711 220.562 -9.5553 221.881C-9.68584 223.201 -9.95154 224.505 -10.3482 225.772C-10.7453 227.048 -11.2884 228.274 -11.9668 229.426C-12.6594 230.581 -13.5216 231.625 -14.5245 232.524C-14.9446 232.904 -15.3862 233.258 -15.8471 233.587C-16.0846 233.744 -16.3294 233.887 -16.5779 234.04L-16.9433 234.263L-17.3086 234.457C-18.3341 234.963 -19.4369 235.294 -20.5715 235.436C-22.8512 235.735 -25.1685 235.354 -27.2323 234.34C-28.4783 233.685 -29.6099 232.832 -30.5828 231.815C-30.9994 231.41 -31.3136 230.825 -31.2624 230.533L-31.2624 230.503L-31.2405 230.529L-31.2843 230.463L-31.4451 230.167L-31.4451 230.211C-31.8828 229.498 -32.1885 228.712 -32.3476 227.891L-31.3209 227.672C-30.7001 229.532 -30.3135 231.463 -30.17 233.419C-30.17 233.419 -30.1699 233.419 -30.1371 233.419L-30.1371 233.5L-30.1553 233.437L-30.1553 233.54L-30.159 233.558ZM-11.4735 227.712C-11.3895 227.526 -11.2689 227.347 -11.1666 227.149C-11.0598 226.941 -10.9987 226.711 -10.9876 226.477C-11.0753 226.722 -11.1447 226.941 -11.2287 227.142L-11.4735 227.712ZM-13.6475 231.307C-13.4832 231.15 -13.334 230.977 -13.2018 230.792C-13.0666 230.609 -13.0885 230.577 -13.2347 230.73C-13.3297 230.83 -13.4164 230.938 -13.4941 231.052C-13.5509 231.136 -13.6022 231.224 -13.6475 231.315L-13.6475 231.307Z" fill="#4C40DC"/>
<path d="M-68.4101 44.8617C-69.1957 44.9384 -69.5574 44.9348 -69.3893 44.7082C-69.2212 44.4817 -68.5197 44.0177 -67.1532 43.2467C-66.4626 42.8631 -65.7648 42.4794 -65.034 42.1506C-64.3032 41.8217 -63.5725 41.5075 -62.8198 41.2115C-61.3033 40.659 -59.7472 40.2217 -58.1649 39.9034C-56.5692 39.5976 -54.9538 39.4048 -53.3309 39.3262C-51.7025 39.2629 -50.0717 39.3092 -48.4495 39.465C-46.616 39.6447 -44.7978 39.9561 -43.009 40.3967C-42.5632 40.5173 -42.1102 40.6196 -41.6681 40.7621L-40.3454 41.1896C-39.4795 41.5002 -38.6574 41.8144 -37.8462 42.03C-37.2714 42.1977 -36.6716 42.2633 -36.0741 42.2236C-35.5293 42.1773 -35.0064 41.9883 -34.5578 41.6756C-34.0632 41.3107 -33.6098 40.893 -33.2059 40.4297C-32.7289 39.8884 -32.2201 39.376 -31.6823 38.8951C-30.9818 38.2612 -30.1438 37.7984 -29.2343 37.5431C-28.3118 37.3039 -27.3467 37.2802 -26.4135 37.4737C-25.4913 37.6677 -24.5896 37.9491 -23.7207 38.3141C-22.8657 38.6576 -22.0838 39.0449 -21.2727 39.4102L-20.0633 39.9656L-18.8758 40.5611L-17.6883 41.1568C-17.2937 41.3577 -16.9137 41.5843 -16.5227 41.7962C-9.15672 45.8774 -2.29494 50.8758 3.57303 56.9777C6.47048 59.9847 9.51043 63.2877 12.2033 66.4775C12.5686 66.9415 12.9706 67.4348 13.3579 67.939L13.9351 68.7209L14.4942 69.5503C15.2511 70.7081 15.9452 71.9058 16.5732 73.1383C17.3306 74.6013 17.9601 76.1269 18.4549 77.6982C18.9587 79.3119 19.2665 80.9802 19.372 82.6673C19.3976 83.0948 19.4159 83.5223 19.4012 83.9498L19.4012 84.5929L19.3464 85.2359C19.3245 85.4515 19.3208 85.6598 19.2843 85.8827L19.1784 86.544C19.1057 86.9807 19.0068 87.4126 18.8824 87.8375C18.412 89.5219 17.6502 91.1109 16.6316 92.5325L16.1347 93.1719L15.8863 93.4899C15.7986 93.5922 15.7073 93.6909 15.6159 93.7895L15.0679 94.3887L14.4723 94.9441L14.1727 95.2181L13.8511 95.4738L13.2008 95.9745L12.4992 96.4166C12.3823 96.4896 12.269 96.57 12.1339 96.6357L11.7685 96.8221C10.7632 97.3502 9.6783 97.7106 8.55679 97.889L7.69816 97.9877C7.40981 98.006 7.12058 98.006 6.83221 97.9877C6.25675 97.9908 5.68252 97.9344 5.11861 97.8195C2.94285 97.3685 0.925591 96.3486 -0.727454 94.8637C-1.53652 94.1696 -2.27123 93.3932 -2.91972 92.5472C-3.57196 91.7069 -4.13867 90.8036 -4.61143 89.8507C-5.72253 87.5608 -6.34469 85.0647 -6.43831 82.5212C-6.53344 80.0954 -6.18678 77.6725 -5.41527 75.3707C-4.87384 73.7141 -4.15344 72.1214 -3.26684 70.6208C-2.38843 69.1137 -1.32414 67.7229 -0.098988 66.4811C1.13717 65.2241 2.55325 64.1577 4.10286 63.3169C5.65614 62.5061 7.30454 61.8924 9.00986 61.49C12.5686 60.6533 16.2261 60.6497 19.7483 61.0589C24.2104 61.6252 28.5847 62.7445 32.7704 64.3911C34.855 65.1948 36.8976 66.1034 38.8905 67.1132C40.8928 68.1071 42.8439 69.2068 44.7585 70.3724C45.7012 70.9278 46.5853 71.5452 47.5097 72.159C48.4342 72.7729 49.2928 73.4269 50.1405 74.1139C50.9882 74.8008 51.8322 75.4876 52.6652 76.1819C53.4983 76.8761 54.2985 77.6033 55.0731 78.3486C59.7317 82.682 63.411 87.7461 66.5167 93.172C68.5038 96.6731 70.1965 100.333 71.5772 104.115C71.906 105.003 71.8659 105.138 71.6795 105.025C71.3256 104.801 71.0281 104.498 70.8099 104.141C70.6331 103.863 70.478 103.572 70.3459 103.271C70.1453 102.857 69.9673 102.433 69.8124 102C68.8751 99.55 67.8079 97.1521 66.6154 94.8162C65.2964 92.1672 63.4439 89.7009 61.6974 87.2419C58.6298 82.9214 54.9539 79.0671 50.7836 75.7983C47.9684 73.5293 44.9483 71.5269 41.7624 69.817C37.0928 67.3836 32.3758 65.1804 27.3482 63.7262C26.4384 63.4814 25.5213 63.2292 24.6079 63.0502C24.1512 62.9589 23.6944 62.8529 23.2341 62.7762L21.8529 62.5569C20.0213 62.2784 18.1734 62.1211 16.3211 62.0856C12.7221 62.0272 9.14872 62.6191 6.05397 64.1573C2.95921 65.6955 0.551372 68.2203 -1.08918 71.1945C-2.11832 73.0649 -2.87848 75.0711 -3.34721 77.1538C-3.98372 79.9533 -3.93483 82.865 -3.20471 85.6416C-2.48293 88.4091 -0.921935 90.8852 1.26386 92.7299C2.17849 93.5169 3.19941 94.1713 4.29652 94.6737C4.83934 94.9134 5.40651 95.0934 5.98818 95.2108L6.423 95.2802C6.56915 95.3021 6.71528 95.2985 6.86144 95.3094C7.15291 95.3405 7.44687 95.3405 7.73835 95.3094C8.99573 95.2048 10.2074 94.7892 11.2643 94.1C12.3361 93.4039 13.2701 92.5157 14.0192 91.4803C14.7745 90.4483 15.3603 89.3024 15.7548 88.0859C16.1453 86.8778 16.3353 85.614 16.3174 84.3444C16.3174 82.7843 16.0982 81.2534 15.952 79.7918C15.7409 78.0267 15.2474 76.307 14.4905 74.6985C13.6952 72.9755 12.7782 71.3112 11.7465 69.7183C11.6698 69.6014 11.5054 69.4334 11.4871 69.3859C11.2271 68.7236 10.9117 68.0844 10.5445 67.475C10.1572 66.8611 9.71506 66.2583 9.25834 65.6481C8.80162 65.0379 8.30833 64.4679 7.82238 63.8869C7.33643 63.306 6.87606 62.7141 6.40837 62.1441C3.44343 58.3467 0.0879255 54.8712 -3.60298 51.7747C-6.94906 48.974 -10.5337 46.4713 -14.3159 44.2953C-17.366 42.5201 -20.5146 40.9196 -23.7463 39.5016C-25.0836 38.9499 -26.4866 38.4822 -27.9079 38.5041C-28.6094 38.512 -29.3001 38.6781 -29.9285 38.99C-30.5436 39.3387 -31.0977 39.7855 -31.569 40.3127C-32.0696 40.8316 -32.5446 41.4088 -33.089 41.913C-33.6398 42.4591 -34.3067 42.8738 -35.0401 43.1261C-35.7871 43.3466 -36.5752 43.3904 -37.342 43.254C-38.0799 43.1229 -38.804 42.9234 -39.505 42.6584C-40.0933 42.4502 -40.6633 42.2127 -41.2442 42.0263C-41.8252 41.84 -42.3988 41.6317 -42.9871 41.4783C-43.283 41.3979 -43.5717 41.3102 -43.8677 41.2371L-44.7592 41.0398C-45.3511 40.89 -45.954 40.8097 -46.5495 40.7C-48.9524 40.3228 -51.3883 40.2003 -53.8169 40.3347C-55.2974 40.3644 -56.7691 40.5692 -58.2014 40.9448C-58.7751 41.1238 -59.4364 41.2115 -59.7141 41.0982L-59.747 41.0982L-59.7178 41.0982L-59.7981 41.1275L-60.1416 41.2188L-60.0941 41.2188C-62.9125 42.1848 -65.6545 43.361 -68.2968 44.7375C-68.2786 44.7375 -68.2749 44.7374 -68.2968 44.7703L-68.3809 44.7886L-68.3261 44.7484L-68.4247 44.7996L-68.4101 44.8617ZM-33.48 41.8509C-33.0674 41.5758 -32.7195 41.2143 -32.4605 40.7914C-32.7804 41.1632 -33.1208 41.5169 -33.48 41.8509ZM-37.8426 42.9471C-37.6026 43.0142 -37.3585 43.0654 -37.1118 43.1005C-36.8597 43.1005 -36.8414 43.0823 -37.0716 43.0384C-37.2068 43.0019 -37.3822 42.9836 -37.5283 42.9581C-37.6745 42.9325 -37.6855 42.9507 -37.8426 42.9398L-37.8426 42.9471Z" fill="#4C40DC"/>
<path d="M250.264 136.408C249.201 137.201 249.194 136.985 250.151 134.691C251.071 132.352 251.868 129.966 252.541 127.544C252.69 126.93 252.873 126.327 253.008 125.717L253.41 123.868L253.728 122.001C253.841 121.38 253.889 120.748 253.969 120.123C254.218 117.286 254.218 114.433 253.969 111.595C253.922 110.499 253.732 109.454 253.578 108.391C253.476 107.865 253.374 107.339 253.275 106.809C253.224 106.542 253.173 106.275 253.125 106.009C253.078 105.742 253.012 105.479 252.954 105.212C252.731 104.028 252.223 102.797 251.909 101.558C251.148 98.9169 250.121 96.3595 248.843 93.9256C247.376 91.0146 245.561 88.2922 243.439 85.8179L242.635 84.9008C242.504 84.7546 242.365 84.5866 242.237 84.455C242.109 84.3235 241.981 84.1919 241.846 84.064C241.298 83.556 240.695 83.1111 240.048 82.7378C239.433 82.3751 238.766 82.1054 238.072 81.9375C237.517 81.7805 236.927 81.81 236.391 82.0215C236.175 82.1246 235.989 82.2789 235.847 82.471C235.692 82.6768 235.583 82.9137 235.529 83.1652C235.43 83.7963 235.497 84.442 235.722 85.0396C235.979 85.7831 236.29 86.5072 236.65 87.2063C237.016 87.9371 237.381 88.6678 237.798 89.3364C238.726 90.9075 239.625 92.7564 240.684 94.4262C241.802 96.3152 243.213 98.0146 244.864 99.461C246.464 100.78 248.31 101.577 250.316 101.54C250.621 101.539 250.926 101.52 251.229 101.482C251.53 101.435 251.827 101.37 252.12 101.288C252.718 101.123 253.292 100.885 253.83 100.579C254.937 99.9432 255.918 99.1098 256.724 98.1201C257.54 97.1158 258.206 95.9983 258.701 94.8025C258.957 94.19 259.18 93.5644 259.37 92.9281C259.567 92.2851 259.735 91.6274 259.877 90.9551C260.608 87.6667 260.67 84.1188 260.765 80.666C260.875 75.5507 259.867 70.4354 258.31 65.5065C258.131 64.8524 257.886 64.2203 257.663 63.5809L256.984 61.6627C256.878 61.3412 256.753 61.027 256.618 60.7164L256.235 59.7737L255.475 57.8884C255.139 57.0919 254.744 56.3135 254.419 55.5243L253.896 54.3405C253.728 53.9422 253.531 53.5659 253.33 53.1786L252.186 50.8585C251.788 50.0949 251.353 49.3494 250.937 48.5931L250.305 47.4605C250.093 47.0951 249.848 46.7297 249.621 46.3643L248.222 44.1721C247.729 43.4632 247.202 42.7727 246.687 42.0785L245.905 41.0371C245.635 40.6973 245.343 40.3758 245.061 40.0469C244.506 39.4063 243.958 38.7608 243.417 38.1104C242.851 37.482 242.266 36.8682 241.696 36.247L240.841 35.3153C240.556 35.0047 240.238 34.727 239.942 34.431L238.116 32.7028C236.245 31.1134 234.462 29.4656 232.522 28.026C230.62 26.5456 228.586 25.243 226.445 24.1347C223.717 22.7149 220.757 21.7908 217.706 21.4053C216.997 21.3286 216.92 21.2336 217.062 21.113C217.472 20.7659 218.191 20.4517 219.854 20.8463C221.878 21.339 223.839 22.0598 225.7 22.9948C227.772 24.0726 230 25.0847 231.944 26.528C233.632 27.7775 235.291 29.0856 236.866 30.485C238.496 31.8187 240.001 33.2911 241.517 34.716L243.008 36.2726C243.501 36.7987 244.016 37.303 244.469 37.8656L245.883 39.5025L246.614 40.31L247.29 41.1467C250.027 44.3694 252.04 48.0561 253.867 51.7646C254.196 52.4406 254.547 53.1019 254.879 53.7669C255.212 54.4319 255.508 55.1152 255.829 55.7802C256.505 57.0992 257.057 58.4657 257.656 59.7993L258.083 60.7895C258.211 61.1256 258.336 61.4581 258.449 61.7906C258.712 62.4556 258.973 63.1181 259.231 63.7782C259.508 64.4323 259.717 65.1082 259.962 65.7732L260.667 67.7791C261.105 69.1274 261.474 70.4939 261.876 71.8678C262.194 73.2562 262.515 74.6592 262.775 76.0878C263.054 77.8814 263.211 79.6917 263.246 81.5064C263.363 83.9435 263.302 86.3858 263.064 88.814C262.843 91.2925 262.267 93.7265 261.354 96.0411C260.461 98.074 259.097 99.865 257.375 101.266C255.59 102.848 253.376 103.865 251.013 104.189C248.596 104.476 246.152 103.946 244.071 102.684C242.869 101.99 241.841 101.032 241.064 99.8813C239.381 97.3562 237.89 94.7083 236.603 91.9599C236.555 91.8576 236.438 91.7078 236.431 91.6676C236.197 90.519 235.829 89.4018 235.335 88.3389C234.886 87.2245 234.319 86.1065 234.151 84.9044C233.962 83.9375 234.12 82.9348 234.597 82.0727C234.847 81.6558 235.198 81.308 235.616 81.0606C236.037 80.8242 236.508 80.6914 236.99 80.6733C237.956 80.6711 238.908 80.9004 239.767 81.342C240.634 81.7626 241.441 82.2957 242.168 82.9277C242.499 83.2128 242.811 83.5191 243.103 83.8448L243.954 84.835C244.539 85.4854 245.05 86.1832 245.606 86.8665C245.88 87.2026 246.136 87.5571 246.384 87.9151L247.148 88.9784C247.634 89.7091 248.105 90.4399 248.576 91.1706C250.046 93.6007 251.27 96.171 252.23 98.8436C253.039 101.049 253.702 103.306 254.214 105.599C254.708 107.9 255.025 110.236 255.16 112.585L255.201 114.076L255.226 114.807C255.226 115.055 255.226 115.304 255.226 115.538L255.226 117.021C255.226 117.518 255.168 118.011 255.142 118.508C255.106 119.498 254.963 120.481 254.857 121.468C254.799 121.957 254.7 122.447 254.623 122.929C254.547 123.412 254.466 123.909 254.346 124.391C254.207 124.98 254.067 125.571 253.925 126.163C253.763 126.745 253.632 127.335 253.531 127.931C253.469 128.425 253.249 128.932 253.008 129.06L253.008 129.126L252.921 129.404L252.954 129.378C252.696 130.558 252.352 131.717 251.923 132.846C251.68 133.413 251.436 133.98 251.192 134.545C250.944 135.115 250.637 135.641 250.352 136.211C250.352 136.211 250.352 136.211 250.378 136.236L250.326 136.288C250.325 136.269 250.325 136.251 250.326 136.233L250.286 136.309L250.264 136.408ZM254.247 107.624C254.248 107.224 254.167 106.829 254.009 106.462C254.123 106.915 254.192 107.269 254.265 107.624L254.247 107.624ZM254.828 111.336C254.828 111.091 254.828 110.905 254.795 110.729C254.762 110.554 254.737 110.525 254.726 110.729C254.723 110.852 254.732 110.974 254.751 111.095C254.774 111.178 254.806 111.259 254.846 111.336L254.828 111.336Z" fill="#4C40DC"/>
<path d="M252.918 129.45L252.965 129.413L252.987 129.161L252.973 129.201L252.918 129.45Z" fill="#4C40DC"/>
<path d="M240.587 149.24C240.875 148.874 241.179 148.476 241.497 148.103C241.814 147.731 242.121 147.329 242.45 146.949C243.115 146.196 243.751 145.392 244.398 144.629C244.751 144.152 245.077 143.656 245.373 143.141C245.531 142.887 245.706 142.642 245.896 142.411C246.078 142.177 246.289 141.967 246.524 141.786C246.524 141.786 246.524 141.815 246.524 141.83C246.696 141.416 246.93 141.03 247.218 140.686C247.474 140.35 247.748 140.039 248.015 139.707L248.015 139.754L248.059 139.678L248.033 139.711C248.442 138.863 248.764 137.979 249.177 137C248.988 137.194 248.815 137.403 248.658 137.624C247.743 139.248 246.738 140.819 245.647 142.33C245.161 142.966 244.65 143.595 244.135 144.216C243.619 144.837 243.093 145.454 242.6 146.105C242.161 146.664 241.639 147.263 241.16 147.807C240.715 148.25 240.371 148.783 240.152 149.371C240.035 149.744 240.346 149.565 240.587 149.24Z" fill="#4C40DC"/>
<path d="M251.854 136.502C251.88 136.502 251.946 136.455 252 136.426C252.029 136.348 252.05 136.267 252.063 136.185C252.037 136.185 251.967 136.232 251.916 136.261C251.887 136.339 251.866 136.42 251.854 136.502Z" fill="#4C40DC"/>
<path d="M246.129 142.408L246.129 142.455L246.176 142.426L246.154 142.426C246.306 142.257 246.429 142.064 246.52 141.856C246.322 142.002 246.056 142.108 246.129 142.408Z" fill="#4C40DC"/>
<path d="M250.265 136.408C250.262 136.392 250.262 136.375 250.265 136.359L250.239 136.382L250.265 136.408Z" fill="#4C40DC"/>
<path d="M249.866 139.783L249.832 139.908L249.921 139.831C249.921 139.786 249.965 139.716 249.954 139.709C249.943 139.701 249.899 139.757 249.866 139.783Z" fill="#4C40DC"/>
<path d="M47.1135 53.8719C46.8979 53.2325 46.876 52.9109 47.1135 52.9876C47.3214 53.0935 47.5153 53.2248 47.6907 53.3786C47.9684 53.6015 48.3229 53.9267 48.8125 54.3213C52.7218 57.6026 57.2137 60.1187 62.0538 61.7384C64.8057 62.5787 67.6474 63.0902 70.5196 63.2621C71.6056 63.3594 72.6959 63.3983 73.7861 63.3789C74.3305 63.3789 74.8822 63.3388 75.423 63.3242C75.9637 63.3096 76.5191 63.3242 77.0708 63.2657C77.681 63.2329 78.3168 63.1525 78.9598 63.0757C79.6029 62.999 80.2496 62.8638 80.8927 62.8054C83.6711 62.467 86.4204 61.921 89.1173 61.1721C95.5809 59.4731 101.679 56.6999 107.73 53.8097C109.222 53.1096 110.636 52.2522 111.946 51.2521C113.215 50.2863 114.348 49.1545 115.315 47.887C115.826 47.1891 116.364 46.4656 116.82 45.6947C117.27 44.9781 117.613 44.2003 117.84 43.3855C117.96 42.9509 118.026 42.5028 118.033 42.0519C118.05 41.6089 118.009 41.1655 117.913 40.7328C117.895 40.6213 117.868 40.5113 117.832 40.404C117.8 40.2944 117.774 40.1775 117.737 40.0789C117.65 39.8852 117.58 39.6915 117.5 39.4942C117.42 39.2969 117.288 39.1288 117.182 38.9425C117.076 38.7562 116.915 38.6064 116.784 38.431C115.626 37.0974 113.601 36.2752 111.614 36.2825C110.406 36.2622 109.22 36.6046 108.208 37.2654C107.203 37.9464 106.393 38.8769 105.855 39.9656C105.3 41.09 104.958 42.3078 104.847 43.5572C104.738 44.8253 104.829 46.1028 105.117 47.3425C105.183 47.7262 105.326 48.0733 105.428 48.457C105.53 48.8406 105.687 49.1694 105.877 49.5238C106.216 50.2414 106.622 50.9253 107.09 51.5663C108.054 52.8763 109.203 54.0383 110.503 55.0155C112.501 56.5009 114.822 57.4924 117.277 57.9092C119.803 58.3305 122.376 58.3847 124.917 58.0701C127.633 57.7378 130.326 57.2399 132.981 56.5793C134.684 56.1591 136.379 55.7317 138.056 55.2457C139.733 54.7598 141.392 54.2262 143.022 53.6051C144.655 52.9942 146.255 52.2978 147.815 51.5188C149.379 50.7403 150.885 49.8526 152.324 48.8625C153.033 48.3948 153.709 47.8723 154.403 47.401C155.097 46.9296 155.759 46.378 156.398 45.8226C157.703 44.7572 158.925 43.5931 160.052 42.3405C161.682 40.5312 163.169 38.5973 164.499 36.5566C165.825 34.5245 166.907 32.3426 167.721 30.0565L168.087 28.9603L168.39 27.8241L168.543 27.2577L168.66 26.6877L168.887 25.5405C169.135 24.0142 169.239 22.4678 169.197 20.922C169.179 20.1913 169.263 20.1073 169.402 20.2315C169.655 20.4676 169.838 20.7702 169.928 21.1047C170.006 21.3606 170.058 21.6239 170.081 21.8903C170.099 22.256 170.088 22.6225 170.049 22.9865C169.865 25.0916 169.429 27.1671 168.752 29.1686C167.973 31.4011 167.21 33.7651 165.942 35.8624C163.735 39.5007 161.04 42.8199 157.933 45.7276C155.761 47.674 153.432 49.4363 150.969 50.9963C147.381 53.3347 143.387 54.8218 139.368 56.0276C136.445 56.9118 133.591 57.7668 130.686 58.4355C127.881 59.1296 125.028 59.618 122.151 59.897C119.204 60.183 116.229 59.9102 113.382 59.0931C111.563 58.5228 109.853 57.6522 108.322 56.5172C106.235 55.01 104.535 53.0305 103.36 50.7406C102.207 48.405 101.719 45.7972 101.949 43.2028C102.056 42.0666 102.348 40.9556 102.815 39.9144C103.277 38.8675 103.893 37.8958 104.642 37.0316C105.431 36.0966 106.383 35.3128 107.452 34.7187C108.533 34.1382 109.717 33.7757 110.938 33.6518C113.41 33.3474 115.908 33.9625 117.957 35.3801C118.587 35.8202 119.138 36.3637 119.586 36.9877C119.703 37.136 119.804 37.2965 119.886 37.4664C119.977 37.6308 120.061 37.7952 120.145 37.9597C120.224 38.1238 120.286 38.2951 120.332 38.4711C120.383 38.6429 120.43 38.8147 120.47 38.9864C120.813 40.5381 120.788 42.1484 120.397 43.6888C119.971 45.2337 119.224 46.6716 118.205 47.9089C118.132 48.0002 118.052 48.183 118.011 48.2049C117.067 48.9261 116.163 49.6994 115.304 50.5213C114.413 51.3669 113.44 52.1221 112.399 52.7758C110.716 53.7572 108.972 54.631 107.178 55.3918C105.399 56.1957 103.601 56.9812 101.8 57.7522C98.5368 59.1406 95.2557 60.4341 91.8869 61.5412C89.1508 62.4206 86.3576 63.1116 83.5271 63.6092L81.7696 63.9088L80.0012 64.1426L79.1133 64.2596L78.2254 64.3363C77.6335 64.3801 77.0379 64.4422 76.446 64.4787C75.2549 64.5116 74.0638 64.5884 72.8726 64.5299C72.2771 64.508 71.6778 64.53 71.0823 64.4605L69.3029 64.3034C67.2989 64.0967 65.3147 63.7301 63.3691 63.2072C61.4204 62.6892 59.5205 62.0022 57.6911 61.1538C56.595 60.6204 55.4989 60.0029 54.4027 59.495C53.9387 59.2977 53.493 58.9543 53.4235 58.6912L53.3614 58.6583L53.113 58.5049L53.113 58.5413C50.9047 57.3769 48.9155 55.8377 47.234 53.9924C47.234 53.9924 47.234 54.0107 47.2011 53.9924L47.1719 53.9267L47.2158 53.9596L47.1536 53.8937L47.1135 53.8719ZM74.4291 64.1755C74.7945 64.1755 75.2001 64.2887 75.6276 64.117L74.4291 64.1755ZM70.6182 64.1755C70.8667 64.2048 71.053 64.234 71.2284 64.2449C71.4038 64.2559 71.4476 64.2194 71.2576 64.1792C71.1369 64.1578 71.0148 64.1456 70.8923 64.1426C70.8066 64.1415 70.7211 64.1476 70.6365 64.1609L70.6182 64.1755Z" fill="#4C40DC"/>
<path d="M53.1171 58.5018L53.139 58.5566L53.3838 58.6406L53.3509 58.6223L53.1171 58.5018Z" fill="#4C40DC"/>
<path d="M39.9266 39.2931C40.4593 41.2552 41.0972 43.1872 41.8376 45.0807C42.287 46.1769 43.1895 47.0977 43.4343 48.2961L43.4013 48.2632L43.4306 48.2632L43.4013 48.2412C43.7137 48.5677 43.9781 48.9367 44.1869 49.3374C44.4025 49.7027 44.5523 50.101 44.7825 50.4737L44.746 50.4408L44.8044 50.5102L44.7825 50.4737C45.4634 51.1988 46.1818 51.8879 46.9346 52.5381C46.7336 52.2056 46.6459 52.001 46.5144 51.8329C45.3011 50.3967 44.2373 48.8407 43.3393 47.189C42.561 45.7604 42.0677 44.2002 41.4502 42.6838C41.3066 42.3386 41.1846 41.9847 41.0849 41.6243L40.9205 41.0762C40.8766 40.8935 40.8291 40.7108 40.7816 40.5355C40.5734 39.8303 40.4162 39.1872 40.0801 38.7816C39.8499 38.5259 39.806 38.8949 39.9266 39.2931Z" fill="#4C40DC"/>
<path d="M46.5438 55.3446C46.5182 55.3446 46.5438 55.4469 46.573 55.509C46.6498 55.5638 46.774 55.6625 46.7886 55.6515C46.8032 55.6405 46.7667 55.5456 46.7557 55.4871C46.6826 55.4359 46.562 55.3336 46.5438 55.3446Z" fill="#4C40DC"/>
<path d="M43.0588 47.6681L43.0223 47.6316L43.0223 47.6937C43.1117 47.907 43.2351 48.1045 43.3877 48.2783C43.3365 48.0262 43.3585 47.7338 43.0588 47.6681Z" fill="#4C40DC"/>
<path d="M47.1122 53.8709L47.1572 53.9009L47.1385 53.8672L47.1122 53.8709Z" fill="#4C40DC"/>
<path d="M44.053 52.234L43.9458 52.1564C43.9458 52.1897 43.9754 52.2304 43.9902 52.271C44.0049 52.3117 44.0826 52.356 44.0937 52.3523C44.1047 52.3486 44.0678 52.2784 44.053 52.234Z" fill="#4C40DC"/>
<path d="M308.806 203.076C309.353 202.703 309.978 202.46 310.633 202.367C310.998 202.294 311.324 201.848 311.762 202.155C312.021 201.884 312.314 202.027 312.602 202.074L312.628 202.074L313.49 201.53C313.355 201.482 313.275 201.42 313.209 201.431C312.606 201.552 311.999 201.643 311.408 201.764C310.892 201.87 310.341 201.822 309.847 202.078C309.416 202.301 308.832 202.294 308.656 202.864C308.561 203.094 308.693 203.181 308.806 203.076Z" fill="#4C40DC"/>
<path d="M311.54 202.216C311.618 202.216 311.699 202.216 311.751 202.145C311.67 202.12 311.559 201.975 311.54 202.216Z" fill="#4C40DC"/>
<path d="M215.213 149.013C215.772 148.476 215.878 148.531 216.127 149.565C216.631 151.647 216.73 153.803 216.828 155.959C216.89 157.172 217.08 158.385 217.058 159.612C217.026 160.544 217.164 161.439 217.091 162.393C217.055 162.912 217.197 163.489 217.135 164.03C217.007 165.21 217.018 166.394 216.92 167.574C216.689 170.377 216.616 173.186 216.251 175.978C216.158 176.668 216.127 177.365 216.16 178.06C216.172 178.635 216.344 179.194 216.657 179.675C216.821 179.895 216.938 180.041 217.073 180.22C217.197 180.397 217.342 180.559 217.504 180.702C218.049 181.165 218.666 181.536 219.331 181.798C220.196 182.147 221.085 182.434 221.991 182.657C222.616 182.825 223.244 182.953 223.876 183.062L224.826 183.209L225.773 183.373C226.401 183.479 227.033 183.585 227.662 183.709C228.29 183.833 228.908 184.012 229.521 184.21C229.887 184.334 230.252 184.455 230.618 184.593C230.983 184.732 231.348 184.886 231.714 185.043C232.424 185.342 233.114 185.685 233.782 186.069C234.755 186.613 235.766 187.087 236.807 187.487C237.322 187.695 237.845 187.885 238.371 188.068L239.946 188.645C241.054 189.033 242.15 189.468 243.234 189.95C245.964 191.203 248.401 192.942 251.031 194.356C251.685 194.685 252.288 195.087 252.906 195.485L254.733 196.654C255.626 197.204 256.48 197.815 257.29 198.481L258.511 199.461C258.916 199.789 259.314 200.126 259.731 200.444C260.827 201.251 261.861 202.08 262.979 202.822C263.246 202.998 263.224 203.085 263.089 203.158C262.877 203.299 262.622 203.363 262.369 203.337C262.116 203.311 261.879 203.197 261.7 203.016C261.032 202.446 260.352 201.92 259.694 201.302C258.964 200.623 258.017 200.184 257.235 199.537C256.561 198.959 255.852 198.422 255.113 197.93C254.382 197.44 253.651 196.947 252.862 196.527C252.336 196.231 251.813 195.916 251.287 195.613C250.761 195.31 250.22 195.04 249.672 194.787C249.27 194.606 248.877 194.405 248.496 194.185C248.13 193.973 247.732 193.757 247.359 193.527C246.629 193.07 245.898 192.577 245.123 192.153C244.575 191.846 244.01 191.569 243.431 191.324C242.854 191.093 242.266 190.885 241.689 190.666C240.562 190.264 239.408 189.941 238.236 189.701C237.658 189.566 237.067 189.468 236.489 189.336C235.912 189.205 235.335 189.069 234.75 188.938C234.031 188.744 233.327 188.5 232.642 188.207C231.714 187.856 230.778 187.524 229.836 187.21C228.882 186.922 227.914 186.685 226.935 186.501C226.08 186.373 225.272 186.004 224.435 185.795C223.54 185.594 222.634 185.459 221.728 185.335C220.778 185.235 219.834 185.086 218.9 184.889C218.306 184.783 217.757 184.503 217.322 184.086C216.861 183.585 216.35 183.15 215.886 182.642C215.404 182.142 215.03 181.547 214.789 180.896C214.789 180.845 214.702 180.782 214.705 180.761C214.805 180.255 214.814 179.735 214.731 179.226C214.652 178.719 214.652 178.202 214.731 177.695C215.098 176.121 215.368 174.526 215.538 172.92C215.692 171.458 215.769 169.997 215.805 168.535C215.827 167.954 215.845 167.362 215.882 166.77C215.918 166.178 215.951 165.579 215.973 164.987C216.061 163.032 215.973 161.074 215.973 159.119C215.973 157.468 215.82 155.831 215.754 154.19C215.782 153.688 215.733 153.184 215.608 152.696C215.562 152.608 215.55 152.506 215.575 152.41C215.6 152.314 215.66 152.231 215.743 152.177L215.743 152.152L215.743 152.031L215.721 152.031C215.435 151.058 215.287 150.049 215.279 149.035C215.279 149.035 215.279 149.035 215.246 149.035L215.268 149.006L215.268 149.027L215.268 148.991L215.213 149.013ZM216.309 161.264C216.309 161.417 216.178 161.578 216.335 161.761C216.306 161.567 216.284 161.414 216.284 161.264L216.309 161.264ZM216.189 159.689C216.182 159.773 216.182 159.857 216.189 159.941C216.189 160.025 216.233 160.029 216.255 159.941C216.264 159.889 216.264 159.836 216.255 159.784C216.225 159.766 216.2 159.74 216.171 159.7L216.189 159.689Z" fill="#4C40DC"/>
<path d="M215.677 152.067L215.647 152.089L215.714 152.188L215.71 152.17L215.677 152.067Z" fill="#4C40DC"/>
<path d="M214.552 142.389C214.931 143.141 215.161 143.96 215.228 144.8C215.286 145.283 215.721 145.747 215.399 146.262L215.399 146.244C215.659 146.609 215.495 146.974 215.432 147.34L215.432 147.376L215.432 147.358C215.59 147.723 215.747 148.114 215.926 148.538C215.98 148.374 216.05 148.279 216.039 148.191C215.951 147.409 215.911 146.616 215.805 145.842C215.717 145.169 215.805 144.468 215.542 143.81C215.326 143.233 215.341 142.484 214.771 142.202C214.537 142.075 214.457 142.235 214.552 142.389Z" fill="#4C40DC"/>
<path d="M213.788 149.384C213.759 149.384 213.729 149.421 213.696 149.447C213.663 149.473 213.736 149.539 213.755 149.539C213.773 149.539 213.818 149.498 213.847 149.476C213.877 149.454 213.807 149.384 213.788 149.384Z" fill="#4C40DC"/>
<path d="M215.342 145.969L215.342 145.951L215.32 145.976L215.342 145.976C215.333 146.024 215.334 146.072 215.344 146.119C215.354 146.166 215.373 146.211 215.4 146.25C215.437 146.145 215.583 146.024 215.342 145.969Z" fill="#4C40DC"/>
<path d="M213.84 147.858L213.799 147.813L213.77 147.858C213.77 147.858 213.795 147.906 213.807 147.902C213.818 147.898 213.829 147.873 213.84 147.858Z" fill="#4C40DC"/>
<path d="M-23.9259 283.238C-24.6566 283.677 -24.7224 283.574 -24.5982 282.314C-24.346 279.774 -23.7432 277.275 -23.1988 274.761C-22.8918 273.347 -22.7384 271.89 -22.384 270.475C-22.1063 269.405 -22.0186 268.309 -21.6276 267.187C-21.4121 266.577 -21.2915 265.828 -20.8969 265.192C-20.4814 264.489 -19.9657 263.85 -19.3659 263.296C-18.7653 262.765 -18.0846 262.332 -17.349 262.013C-16.5306 261.669 -15.691 261.377 -14.8352 261.14L-12.4128 260.446C-10.8088 259.982 -9.20478 259.511 -7.58616 259.083C-5.93863 258.635 -4.35117 257.99 -2.85816 257.161C-1.92542 256.709 -0.944948 256.364 0.0648637 256.131C2.45078 255.477 4.86957 255.086 7.27011 254.607C10.2479 254.015 13.0066 252.813 15.9588 252.181C16.8649 251.987 17.7638 251.816 18.6663 251.68C19.5688 251.545 20.4932 251.436 21.308 251.355C22.5283 251.231 23.6683 250.884 24.4429 250.212C24.8269 249.883 25.1317 249.472 25.3344 249.01C25.5443 248.505 25.6809 247.974 25.74 247.431C25.8336 246.121 25.8458 244.807 25.7765 243.496C25.7327 239.959 26.1419 236.452 26.0031 232.9C25.93 231.172 26.0031 229.44 25.9665 227.741C25.8861 225.231 26.1419 222.786 26.1382 220.305C26.1382 218.705 26.0907 217.116 25.9519 215.534C25.9154 215.168 25.9994 215.113 26.1382 215.168C26.5548 215.358 26.9275 215.687 26.9165 216.546C26.9165 217.598 26.9165 218.639 26.8398 219.699C26.7484 220.883 26.9896 222.107 26.9128 223.323C26.8033 225.44 26.8033 227.561 26.9128 229.677C26.9713 231.139 26.964 232.6 27.0919 234.022C27.2782 236.137 27.048 238.224 26.953 240.314C26.9257 241.807 26.9757 243.301 27.1028 244.789C27.1759 246.229 27.3367 247.654 27.0078 249.141C26.8389 249.913 26.5049 250.64 26.0287 251.271C25.5278 251.91 24.9073 252.445 24.2018 252.846C23.3533 253.299 22.442 253.623 21.498 253.807C19.1311 254.264 16.7905 254.849 14.4863 255.557C13.4925 255.886 12.4293 255.985 11.4135 256.233C9.2578 256.763 7.17513 257.501 5.05594 258.148C4.4374 258.371 3.77936 258.464 3.12308 258.422C1.66156 258.261 0.152552 258.681 -1.35281 259.003C-1.40761 259.003 -1.48434 259.079 -1.50992 259.076C-2.71566 258.754 -3.83736 259.558 -5.01022 259.763C-6.89923 260.099 -8.79554 260.537 -10.6736 261.031C-11.5237 261.257 -12.3689 261.492 -13.2093 261.736C-14.0497 261.977 -14.8937 262.218 -15.7085 262.529C-16.9983 263.014 -18.3209 263.643 -19.1942 264.721C-19.8868 265.643 -20.3728 266.703 -20.6192 267.83C-20.9078 268.952 -21.1234 270.11 -21.4048 271.25C-21.8688 273.179 -22.1903 275.127 -22.6507 277.052C-22.8323 277.629 -22.9439 278.225 -22.9832 278.828C-22.9832 279.08 -23.0782 279.336 -23.2864 279.391L-23.2864 279.424L-23.3157 279.562L-23.2901 279.562C-23.3373 280.782 -23.5424 281.991 -23.9003 283.158C-23.9003 283.158 -23.9003 283.158 -23.8674 283.158L-23.9003 283.187C-23.9003 283.187 -23.9003 283.165 -23.9003 283.158L-23.9003 283.202L-23.9259 283.238ZM-21.1965 268.718C-21.1526 268.539 -20.9773 268.382 -21.0796 268.13C-21.1271 268.36 -21.1599 268.539 -21.2111 268.718L-21.1965 268.718ZM-21.4997 270.585C-21.4655 270.49 -21.4374 270.392 -21.4157 270.293C-21.4157 270.194 -21.434 270.18 -21.4778 270.267C-21.503 270.324 -21.519 270.385 -21.5253 270.446C-21.5232 270.494 -21.5146 270.54 -21.4997 270.585Z" fill="#4C40DC"/>
<path d="M-30.0652 99.0038C-29.9994 98.2731 -29.8862 98.2256 -29.0641 98.7334C-27.4125 99.7565 -25.9547 101.043 -24.4457 102.274C-23.5907 102.957 -22.6407 103.535 -21.804 104.251C-21.1682 104.799 -20.4521 105.215 -19.8236 105.782C-19.4583 106.089 -18.9796 106.289 -18.6215 106.626C-17.8396 107.356 -16.9627 107.959 -16.137 108.628C-14.1712 110.221 -12.0301 111.551 -9.98768 113.045C-8.9229 113.793 -7.74298 114.362 -6.49464 114.73C-5.75831 115.001 -5.06631 115.381 -4.44122 115.855C-3.66662 116.367 -2.93222 116.929 -2.21242 117.51C-1.49263 118.091 -0.772839 118.665 -0.0493903 119.239C0.862527 119.913 1.82513 120.517 2.82981 121.043C3.83963 121.564 4.81588 122.147 5.75284 122.79C6.38867 123.232 6.98302 123.731 7.52857 124.281C8.13929 124.888 8.63452 125.601 8.99008 126.385C9.24151 126.972 9.4289 127.585 9.54908 128.212C9.65588 128.782 9.72426 129.358 9.75371 129.937C9.78659 130.485 9.80122 131.015 9.81584 131.522C9.83045 132.03 9.85966 132.527 9.87792 133.028C9.92908 134.08 9.98756 135.132 9.99121 136.185C9.99121 138.867 9.56369 141.523 9.68792 144.223C9.74638 145.531 9.64773 146.847 9.68792 148.136C9.74638 150.036 9.47234 151.889 9.45773 153.77C9.4374 154.978 9.48866 156.186 9.6112 157.388C9.64043 157.673 9.56004 157.705 9.41754 157.654C9.18462 157.602 8.97869 157.467 8.83816 157.274C8.69764 157.081 8.63215 156.843 8.65391 156.606C8.67584 155.809 8.65392 155.016 8.75257 154.216C8.85123 153.317 8.61738 152.389 8.70507 151.468C8.83649 149.865 8.85848 148.255 8.77086 146.649C8.72336 145.553 8.74528 144.457 8.62836 143.361C8.45298 141.753 8.69778 140.175 8.80739 138.589C8.8492 137.456 8.8101 136.322 8.69045 135.195C8.59715 134.107 8.44469 133.025 8.23372 131.954C8.08088 130.937 7.83629 129.937 7.50297 128.965C7.31858 128.439 7.07333 127.936 6.77221 127.467C6.29997 126.792 5.71099 126.207 5.03301 125.739C4.29613 125.217 3.52464 124.745 2.72384 124.328C2.04843 123.902 1.3982 123.437 0.776389 122.936C0.0785172 122.465 -0.648597 122.037 -1.38301 121.624L-3.57528 120.364C-4.02582 120.132 -4.40477 119.782 -4.67141 119.352C-5.23044 118.332 -6.23158 117.678 -7.14503 116.948C-7.17791 116.922 -7.26195 116.918 -7.26561 116.9C-7.58714 115.925 -8.67231 115.764 -9.34461 115.157C-10.4407 114.189 -11.5917 113.276 -12.7755 112.399C-13.8497 111.609 -14.9349 110.849 -16.0347 110.097C-16.9043 109.49 -17.7629 108.807 -18.5923 108.138C-19.2902 107.587 -20.0063 107.042 -20.7188 106.52C-21.4313 105.997 -22.1365 105.424 -22.8198 104.861C-23.9634 103.882 -25.1984 103.034 -26.3274 102.033C-26.6452 101.697 -27.0153 101.414 -27.4235 101.196C-27.5111 101.168 -27.5849 101.108 -27.6302 101.028C-27.6756 100.949 -27.6892 100.854 -27.6683 100.765L-27.6902 100.765L-27.7743 100.696L-27.7743 100.721C-28.6015 100.297 -29.3513 99.736 -29.9921 99.0623C-29.9921 99.0623 -29.9921 99.0624 -30.0177 99.0843L-30.0177 99.0477L-29.9958 99.0477L-30.0213 99.0258L-30.0652 99.0038ZM-21.1244 105.785C-21.0148 105.869 -20.9819 106.067 -20.759 106.041L-21.1244 105.785ZM-22.3155 104.978C-22.2635 105.034 -22.2073 105.087 -22.1474 105.135C-22.0817 105.179 -22.0561 105.153 -22.0963 105.091C-22.125 105.053 -22.1611 105.02 -22.2023 104.996C-22.2365 104.985 -22.2722 104.979 -22.3082 104.978L-22.3155 104.978Z" fill="#4C40DC"/>
<path d="M280.048 60.9458C279.383 60.7412 279.35 60.6352 279.792 60.0068C280.676 58.7462 281.816 57.7232 282.916 56.6563C283.537 56.057 284.049 55.3373 284.707 54.7709C285.203 54.3361 285.591 53.8027 286.106 53.3825C286.391 53.1486 286.585 52.765 286.895 52.5311C287.564 52.0196 288.137 51.4058 288.766 50.8504C290.26 49.5314 291.572 48.0297 293.026 46.6668C293.772 45.9434 294.37 45.0807 294.784 44.1274C295.079 43.5699 295.479 43.0739 295.96 42.6659C296.49 42.1581 297.051 41.6846 297.641 41.2483L298.481 40.6199C298.673 40.4855 298.855 40.3377 299.026 40.1777C299.073 40.1358 299.112 40.0864 299.143 40.0316C299.156 39.9974 299.156 39.9597 299.143 39.9256C299.08 39.7025 298.993 39.4868 298.883 39.2825C298.518 38.5846 298.12 37.8429 297.787 37.0902C297.388 36.1275 297.051 35.1402 296.779 34.1344C296.377 32.6144 295.434 31.3684 294.469 30.1408C293.958 29.4904 293.443 28.8473 292.964 28.1677C291.744 26.4285 290.929 24.4263 289.771 22.5921C289.241 21.6675 288.772 20.7094 288.368 19.7238C287.699 18.2988 287.509 16.7314 287.272 15.1968C287.129 14.1993 287.008 13.2019 286.906 12.1898C286.881 11.9486 286.961 11.923 287.103 11.9742C287.513 12.113 287.882 12.3396 287.856 12.8401C287.856 13.1544 287.856 13.4686 287.856 13.7828C287.856 14.097 287.893 14.4113 287.882 14.7364C287.882 15.4672 288.247 16.1432 288.371 16.8593C288.585 18.1202 289.019 19.3336 289.654 20.4437C290.039 21.2222 290.487 21.9676 290.995 22.6724C291.777 23.6736 292.237 24.8428 292.822 25.9426C293.285 26.7046 293.822 27.4193 294.426 28.0764C295.522 29.4064 296.983 30.4148 298.079 31.7594C298.418 32.1877 298.706 32.6535 298.938 33.1478C299.599 34.4559 300.188 35.7895 300.926 37.0829C301.201 37.6929 301.4 38.3348 301.518 38.9939C301.627 39.4022 301.672 39.825 301.653 40.2472C301.622 40.6978 301.498 41.1372 301.287 41.537C300.914 42.1864 300.454 42.7824 299.921 43.309C299.669 43.6228 299.319 43.8429 298.927 43.9338C297.973 44.1018 297.305 44.7559 296.589 45.3295C296.563 45.3515 296.552 45.4209 296.534 45.4209C295.646 45.4209 295.416 46.2941 294.835 46.7034C293.899 47.3732 293.009 48.1056 292.171 48.8956C291.408 49.6264 290.68 50.3572 289.979 51.1208C289.405 51.731 288.762 52.2973 288.152 52.8746C287.129 53.8319 286.183 54.8695 285.141 55.7976C284.264 56.5868 283.486 57.4747 282.613 58.2639C282.32 58.4746 282.071 58.7417 281.882 59.0495C281.869 59.0842 281.849 59.1156 281.823 59.1414C281.796 59.1672 281.764 59.1868 281.729 59.1987C281.694 59.2106 281.657 59.2145 281.62 59.2102C281.583 59.2059 281.548 59.1935 281.517 59.1738L281.517 59.192L281.455 59.2541L281.477 59.2541C281.112 59.8971 280.614 60.4542 280.015 60.8874C280.015 60.8874 280.015 60.8873 280.037 60.9129L280.004 60.9129L279.982 60.9129L280.048 60.9458ZM286.08 54.5261C286.161 54.453 286.336 54.4676 286.318 54.2594L286.08 54.5261ZM285.35 55.3848C285.4 55.3525 285.448 55.3158 285.492 55.2751C285.529 55.2276 285.492 55.1984 285.452 55.2204C285.418 55.235 285.389 55.259 285.368 55.2898C285.342 55.308 285.342 55.3409 285.342 55.3848L285.35 55.3848Z" fill="#4C40DC"/>
<path d="M281.507 59.2795L281.537 59.2905L281.552 59.1981L281.544 59.2055L281.507 59.2795Z" fill="#4C40DC"/>
<path d="M276.467 64.1067C276.693 63.5371 277.06 63.0343 277.534 62.6452C277.786 62.4077 277.8 61.8814 278.308 61.9326C278.37 61.5672 278.674 61.5672 278.929 61.4649L278.929 61.443L279.32 60.5771C279.185 60.6026 279.09 60.5771 279.043 60.6319C278.633 61.0156 278.202 61.3626 277.8 61.7609C277.398 62.1591 276.989 62.3126 276.737 62.762C276.514 63.1493 276.05 63.4197 276.215 63.9824C276.28 64.2345 276.423 64.2346 276.467 64.1067Z" fill="#4C40DC"/>
<path d="M281.156 61.896C281.156 61.9182 281.215 61.9255 281.252 61.9402C281.289 61.955 281.278 61.8665 281.252 61.8554C281.226 61.8444 281.189 61.8223 281.159 61.8075C281.13 61.7928 281.145 61.8813 281.156 61.896Z" fill="#4C40DC"/>
<path d="M278.162 62.0937L278.191 62.0937C278.254 62.0568 278.317 62.0198 278.324 61.9385C278.21 61.9495 278.029 61.8794 278.162 62.0937Z" fill="#4C40DC"/>
<path d="M280.224 62.5084L280.224 62.5605L280.272 62.5605C280.272 62.5605 280.272 62.5196 280.272 62.5121C280.272 62.5046 280.224 62.5084 280.224 62.5084Z" fill="#4C40DC"/>
</svg>
