<svg width="149" height="126" viewBox="0 0 149 126" fill="none" xmlns="http://www.w3.org/2000/svg">
<path d="M29.8376 112.873C29.0275 112.539 28.6354 112.498 28.4388 112.275C12.7076 94.6734 4.83831 74.2419 6.71875 50.531C7.24088 44.5049 9.19414 38.6919 12.4169 33.5728C15.6658 28.1417 20.5939 23.9104 26.4624 21.5133C32.331 19.1162 38.8238 18.6825 44.9673 20.2771C51.6027 21.9328 57.7023 24.5635 62.3202 29.9392C61.8253 33.119 61.1334 36.2258 60.896 39.3592C60.6274 41.7439 60.8829 44.1594 61.6448 46.4375C62.4068 48.7156 63.6568 50.8016 65.308 52.5506C67.9139 55.3253 71.0612 56.3653 73.3274 55.1113C74.6021 54.4369 75.6106 53.353 76.1901 52.0348C76.7695 50.7166 76.886 49.2412 76.5206 47.8472C75.6473 43.8956 74.4083 40.0328 72.8196 36.3083C71.6717 33.9457 70.3462 31.6729 68.8542 29.5096C74.3281 18.2385 87.1718 16.6518 99.1742 25.8437C99.0987 27.643 98.9034 29.5665 98.9663 31.4783C99.1921 38.3559 101.53 44.3237 107.222 48.5229C109.359 50.0901 111.922 51.2245 114.679 49.6967C116.8 48.5359 117.725 45.5364 116.925 42.091C115.652 36.6054 112.577 32.0692 108.975 27.8527C107.719 26.3879 106.392 25.0044 105.117 23.6375C112.969 5.89769 133.567 -1.95642 147.577 10.4811C147.846 9.09986 148.358 7.97898 148.118 7.18891C147.641 6.24722 146.864 5.48947 145.909 5.03413C137.517 0.591645 128.867 -0.988936 119.942 3.35551C113.397 6.6116 107.762 11.4317 103.538 17.3874C102.913 18.2421 102.283 19.0724 101.597 19.8968C101.502 20.017 101.297 20.0452 100.822 20.2664C99.9418 19.8992 98.756 19.4714 97.7045 18.9471C84.2834 12.3351 75.7063 13.823 65.0272 24.9L61.3562 22.312C54.3347 17.0716 45.7718 14.3015 37.0111 14.4363C22.218 14.6301 9.97405 23.4535 4.5802 37.6569C1.68708 45.2925 0.50913 53.471 1.12936 61.6161C2.56825 81.5519 9.63147 99.0782 23.7901 113.524C24.525 114.284 25.2566 115.054 25.9744 115.832C26.078 115.945 26.0579 116.158 26.2493 116.991C22.4361 116.712 19.1316 115.323 15.8134 114.126C12.4953 112.929 9.31872 111.649 5.80537 110.298C5.51169 111.33 5.56659 112.431 5.96166 113.43C6.35674 114.429 7.07003 115.271 7.99159 115.826C9.76746 117.267 11.7304 118.462 13.8268 119.378C19.5086 121.382 25.241 123.299 31.0796 124.763C35.7272 125.891 37.7468 123.833 36.8494 119.515C34.9346 110.349 32.9639 101.188 30.9375 92.0335C30.4852 90.4605 29.9349 88.917 29.29 87.4119C26.571 89.0784 26.9318 91.037 27.1574 92.8727C28.0495 99.3582 28.9205 105.837 29.8376 112.873ZM112.412 45.5394C105.458 42.3076 102.339 36.246 104.11 29.6456C107.985 34.3971 111.75 38.7221 112.412 45.5394ZM71.6888 50.7579C65.8993 47.3933 64.3078 42.2585 66.9561 36.0357C69.9225 40.5844 72.444 44.8903 71.6888 50.7579Z" fill="white"/>
</svg>
