<svg width="217" height="206" viewBox="0 0 217 206" fill="none" xmlns="http://www.w3.org/2000/svg">
<g clip-path="url(#clip0_217_4406)">
<path d="M141.955 110.922C142.818 112.905 143.171 113.782 142.7 113.178C142.229 112.575 140.897 110.522 138.749 106.469C130.035 90.163 125.071 71.4258 124.928 52.5492L124.91 50.5602L124.938 48.5714V47.5769L124.974 46.5824L125.053 44.5904C125.08 43.9295 125.132 43.2655 125.175 42.6015C125.217 41.9375 125.248 41.2736 125.314 40.6126C125.436 39.2907 125.539 37.9627 125.71 36.6408L125.944 34.6579L126.229 32.6781L126.372 31.6866L126.539 30.7013L126.88 28.7275C127.381 26.1049 127.934 23.4854 128.624 20.8961C130.673 13.0374 133.32 5.47886 136.961 -1.88564C138.97 -5.9393 141.308 -10.3174 143.973 -14.3165C145.396 -16.4843 146.928 -18.5611 148.481 -20.644L149.696 -22.16C150.101 -22.6632 150.49 -23.1817 150.912 -23.6759C151.748 -24.6643 152.56 -25.6739 153.435 -26.629C156.854 -30.5098 160.552 -34.1375 164.498 -37.4832L166.27 -38.9658L168.079 -40.3999C168.383 -40.6364 168.687 -40.8789 168.991 -41.1124L169.902 -41.8037C170.51 -42.2585 171.118 -42.7314 171.759 -43.1741C174.258 -44.972 176.835 -46.6547 179.455 -48.2647C182.075 -49.8746 184.783 -51.342 187.531 -52.7185C188.215 -53.0702 188.917 -53.3886 189.607 -53.7251L190.646 -54.2254C190.996 -54.3891 191.348 -54.5286 191.698 -54.6984L193.807 -55.6322L195.935 -56.5145C207.378 -61.1732 219.538 -63.8395 231.885 -64.3974C234.924 -64.5521 238.049 -64.5036 241.191 -64.3974C244.334 -64.2913 247.574 -63.9093 250.714 -62.833C252.303 -62.2879 253.802 -61.5114 255.163 -60.5287C255.516 -60.2922 255.826 -60.0011 256.157 -59.7343L256.279 -59.6313C256.337 -59.5767 256.394 -59.5191 256.449 -59.4615C256.559 -59.3476 256.661 -59.226 256.753 -59.0977C256.918 -58.8583 257.056 -58.6009 257.163 -58.3306C257.348 -57.8679 257.47 -57.3825 257.525 -56.8874C257.572 -56.4423 257.587 -55.9945 257.571 -55.5473C257.474 -53.9257 257.214 -52.3178 256.796 -50.7478C256.701 -50.3688 256.604 -49.9898 256.492 -49.6169L256.455 -49.4774L256.434 -49.4077V-49.3895V-49.3289V-49.2379C256.421 -49.1505 256.414 -49.0624 256.413 -48.9741C256.412 -48.9265 256.42 -48.8791 256.437 -48.8346C256.443 -48.8253 256.451 -48.8179 256.461 -48.8135H256.48C256.48 -48.8135 256.513 -48.8134 256.531 -48.8438C256.618 -48.9626 256.695 -49.0884 256.762 -49.2197L256.802 -49.2712L256.887 -49.3865L256.972 -49.4957L257.011 -49.5502L257.218 -49.7958C257.844 -50.5508 258.476 -51.3117 259.139 -52.0546C260.452 -53.5432 261.835 -55.0016 263.294 -56.3811C264.987 -57.9713 266.777 -59.4567 268.652 -60.8289C270.515 -62.1963 272.415 -63.4575 274.299 -64.6915C278.107 -67.1826 282.054 -69.4531 286.123 -71.4921C294.236 -75.5383 302.764 -78.6958 311.559 -80.9092C314.277 -81.6126 317.03 -82.1886 319.766 -82.7283C321.143 -82.9678 322.501 -83.2286 323.89 -83.4409C325.279 -83.6531 326.641 -83.8744 328.024 -84.029C333.535 -84.738 339.086 -85.0986 344.643 -85.1084C350.201 -85.1085 355.753 -84.7438 361.263 -84.0169C366.797 -83.2753 372.27 -82.1333 377.639 -80.5999C384.199 -78.7773 390.544 -76.2575 396.565 -73.0838C397.304 -72.6745 398.052 -72.2864 398.778 -71.8711L400.942 -70.5704C401.65 -70.1156 402.346 -69.6608 403.048 -69.1848L403.571 -68.8391L404.079 -68.4693L405.097 -67.7295C407.779 -65.7528 410.286 -63.5496 412.589 -61.1442C414.258 -59.3601 415.799 -57.4604 417.2 -55.4594L417.725 -54.7075C417.905 -54.4589 418.078 -54.2072 418.233 -53.9434L419.184 -52.376C419.342 -52.1092 419.51 -51.8635 419.659 -51.5816C419.807 -51.2996 419.963 -51.0237 420.096 -50.7387C420.379 -50.1717 420.619 -49.5926 420.847 -49.0105C421.702 -46.6884 422.288 -44.2766 422.595 -41.8219C422.91 -39.3992 423.057 -36.9578 423.035 -34.515C423.005 -29.6323 422.434 -24.7681 421.333 -20.0104C420.793 -17.596 420.026 -15.2378 419.042 -12.9672C418.528 -11.7755 417.863 -10.6546 417.063 -9.6321C416.609 -9.05342 416.049 -8.5658 415.413 -8.19498C415.037 -7.98218 414.624 -7.84134 414.197 -7.77965C413.739 -7.72266 413.274 -7.7661 412.835 -7.90696C412.396 -8.05862 411.991 -8.29565 411.644 -8.60432C411.324 -8.90098 411.057 -9.24949 410.853 -9.63513C410.509 -10.3134 410.287 -11.0475 410.2 -11.803C410.051 -13.1525 410.071 -14.5152 410.261 -15.8596C410.619 -18.4315 411.199 -20.9676 411.996 -23.4394C413.555 -28.324 415.509 -33.0744 417.838 -37.6439C419.305 -40.5586 420.91 -43.3975 422.652 -46.1606C424.396 -48.9333 426.325 -51.5852 428.427 -54.0981C429.489 -55.3627 430.621 -56.5663 431.819 -57.703L432.275 -58.1275L432.743 -58.5276L433.673 -59.3311C434.281 -59.8648 434.907 -60.4105 435.57 -60.8925L437.521 -62.3872L439.548 -63.7728C439.889 -64.0002 440.22 -64.2428 440.567 -64.455L441.618 -65.0918L442.667 -65.7254C443.019 -65.9376 443.363 -66.1559 443.731 -66.3318L445.895 -67.4869C446.074 -67.584 446.253 -67.684 446.436 -67.7719L446.992 -68.0327L448.104 -68.5542L449.214 -69.0726C449.581 -69.2545 449.967 -69.3758 450.344 -69.5486L452.618 -70.4582L454.937 -71.2616C455.323 -71.392 455.706 -71.5436 456.098 -71.6528L457.277 -71.9954L458.429 -72.3501C458.821 -72.4653 459.213 -72.5836 459.611 -72.6533L462.003 -73.2142C468.427 -74.602 475.026 -75.0028 481.571 -74.4027C483.172 -74.2771 484.765 -74.0665 486.343 -73.7721C487.93 -73.4857 489.502 -73.1174 491.051 -72.6685C494.173 -71.7737 497.157 -70.4535 499.917 -68.7452C502.668 -66.9962 505.091 -64.7797 507.075 -62.1963C509.008 -59.625 510.544 -56.7799 511.634 -53.7554C513.242 -49.3349 513.977 -44.7082 514.22 -40.1119C514.416 -35.5459 514.212 -30.9718 513.612 -26.441C513.005 -21.9417 512.232 -17.4908 511.269 -13.0673C510.305 -8.64372 509.141 -4.27478 507.81 0.0850983C504.401 11.2538 499.828 22.0355 494.166 32.2536C492.823 34.6519 492.598 34.9096 492.735 34.4366C493.115 33.0359 494.151 30.8256 496.99 25.2469L497.643 23.9644L498.266 22.6698C498.68 21.8057 499.099 20.9447 499.5 20.0775C500.282 18.3312 501.084 16.5908 501.807 14.8171C502.531 13.0435 503.245 11.2608 503.956 9.47194C504.613 7.65279 505.309 5.86694 505.92 4.02961C508.768 -4.13834 510.701 -12.9096 512.166 -21.6506C512.47 -23.5607 512.774 -25.4678 512.998 -27.3961C513.223 -29.3243 513.387 -31.2557 513.479 -33.1961C513.685 -37.0817 513.533 -40.978 513.023 -44.8356C512.523 -48.6977 511.467 -52.4677 509.889 -56.0294C508.301 -59.5795 505.992 -62.7624 503.108 -65.3767C502.12 -66.2656 501.064 -67.0766 499.95 -67.8023C499.674 -67.9902 499.394 -68.1722 499.105 -68.3359C498.817 -68.4996 498.537 -68.6815 498.248 -68.8452C497.662 -69.1484 497.078 -69.4819 496.473 -69.7548C495.868 -70.0277 495.257 -70.3066 494.65 -70.5734C494.042 -70.8402 493.41 -71.0646 492.777 -71.2738C491.52 -71.7152 490.241 -72.0906 488.945 -72.3986C487.653 -72.72 486.343 -72.9686 485.03 -73.1778C484.373 -73.2839 483.714 -73.3718 483.054 -73.4507C482.395 -73.5295 481.732 -73.572 481.073 -73.6326L480.082 -73.7175C479.75 -73.7448 479.422 -73.7812 479.091 -73.7842L477.106 -73.8388L476.118 -73.8661L475.128 -73.8418L473.155 -73.7842C469.3 -73.5802 465.469 -73.0528 461.703 -72.2076L460.298 -71.8741C459.833 -71.7589 459.362 -71.6619 458.903 -71.5163L456.14 -70.7129L453.423 -69.77C452.967 -69.6214 452.53 -69.4334 452.083 -69.2546L450.755 -68.7149C447.222 -67.236 443.826 -65.4536 440.603 -63.3878C437.389 -61.3036 434.381 -58.92 431.619 -56.2689C429.686 -54.2948 427.91 -52.1731 426.309 -49.9231C424.704 -47.6947 423.233 -45.3753 421.862 -43.0286C419.144 -38.3349 416.796 -33.4378 414.838 -28.3814C413.882 -25.9342 413.062 -23.4361 412.382 -20.8987C412.051 -19.6344 411.774 -18.361 411.556 -17.0785C411.337 -15.8028 411.235 -14.5099 411.252 -13.2158C411.261 -12.5751 411.336 -11.937 411.477 -11.3118C411.599 -10.6963 411.878 -10.1223 412.285 -9.64424C412.487 -9.41911 412.738 -9.24199 413.017 -9.12579C413.29 -9.00315 413.589 -8.95001 413.887 -8.97116C414.186 -8.99396 414.476 -9.08196 414.738 -9.2289C415.007 -9.37598 415.256 -9.55629 415.479 -9.76556C416.359 -10.6746 417.07 -11.7332 417.577 -12.8914C418.115 -14.0473 418.574 -15.2386 418.95 -16.4569C419.702 -18.9029 420.272 -21.4009 420.655 -23.9306C421.048 -26.4622 421.294 -29.0142 421.391 -31.574C421.493 -34.1378 421.423 -36.7055 421.181 -39.2599C420.953 -41.8133 420.456 -44.3355 419.698 -46.7851C419.229 -48.2806 418.584 -49.7156 417.777 -51.0601C417.352 -51.7413 416.923 -52.4244 416.492 -53.1097C416.033 -53.7706 415.549 -54.4225 415.081 -55.0834C413.119 -57.6663 410.914 -60.0572 408.498 -62.2236C405.244 -65.1 401.702 -67.6339 397.927 -69.7851C394.143 -71.9492 390.191 -73.8077 386.11 -75.3426C377.911 -78.4265 369.379 -80.5449 360.688 -81.655C356.916 -82.1583 353.114 -82.4888 349.303 -82.6889C345.497 -82.8941 341.684 -82.9082 337.878 -82.7314C329.827 -82.3442 321.834 -81.1661 314.015 -79.2143C306.225 -77.2638 298.641 -74.5692 291.369 -71.1677C286.952 -69.106 282.713 -66.8199 278.859 -64.6672C277.783 -64.0457 276.685 -63.4121 275.579 -62.742C274.473 -62.072 273.363 -61.3716 272.257 -60.6439C269.985 -59.179 267.817 -57.5581 265.771 -55.7929C263.688 -53.9495 261.733 -51.9671 259.92 -49.8595L258.555 -48.2556L257.06 -46.4091L255.589 -44.5718C255.337 -44.2504 255.118 -44.0048 254.893 -43.7471C254.668 -43.4894 254.455 -43.2529 254.236 -43.0195C253.978 -42.7375 253.525 -42.2585 253.428 -42.1887C253.27 -42.0495 253.093 -41.9341 252.902 -41.8461C252.846 -41.8232 252.782 -41.8232 252.726 -41.8461C252.701 -41.8659 252.68 -41.8907 252.665 -41.9189C252.65 -41.947 252.64 -41.978 252.638 -42.0098C252.619 -42.1314 252.619 -42.2551 252.638 -42.3767C252.726 -42.8812 252.851 -43.3787 253.012 -43.8654C253.316 -44.872 253.702 -45.9392 254.075 -47.0003C254.836 -49.0688 255.446 -51.1896 255.899 -53.3462C256.131 -54.4286 256.22 -55.5363 256.166 -56.6418C256.141 -57.1885 255.995 -57.7229 255.738 -58.2063C255.603 -58.4422 255.423 -58.6484 255.206 -58.8127C254.996 -58.9885 254.787 -59.1735 254.574 -59.3433C252.818 -60.6558 250.829 -61.623 248.711 -62.1932C245.349 -63.1483 241.805 -63.3757 238.289 -63.4636C234.756 -63.5574 231.22 -63.4694 227.696 -63.1999C224.159 -62.9136 220.639 -62.4481 217.15 -61.8051C213.654 -61.1715 210.193 -60.3558 206.782 -59.3614C194.444 -55.7748 182.819 -50.0882 172.422 -42.5525C163.991 -36.4853 156.456 -29.2677 150.037 -21.1109C144.766 -14.344 140.299 -6.99 136.727 0.803696C133.154 8.58778 130.416 16.7273 128.56 25.0863C126.998 32.1235 126.082 39.2882 125.825 46.4915C125.693 50.0812 125.72 53.673 125.904 57.2669C126.089 60.8566 126.451 64.4373 126.956 68.0028C127.54 72.3454 128.427 76.642 129.612 80.8612L129.971 82.1619C130.095 82.5894 130.211 83.0107 130.311 83.4019C130.478 83.9985 130.601 84.6065 130.679 85.221L130.709 85.3211L130.676 85.2271L130.755 85.4605L131.074 86.4611L131.053 86.3398C133.871 94.7055 137.442 102.799 141.724 110.522C141.706 110.483 141.709 110.474 141.764 110.54L141.867 110.762L141.764 110.592L141.919 110.877L141.955 110.922ZM133.667 7.29498C133.919 6.6886 134.205 6.04285 134.487 5.37583C134.63 5.03929 134.77 4.69967 134.904 4.34494C135.037 3.9902 135.183 3.63849 135.311 3.2686C135.144 3.65971 134.983 4.02966 134.831 4.38136C134.679 4.73306 134.554 5.07866 134.42 5.40611C134.159 6.06706 133.913 6.68253 133.667 7.29498ZM129.506 20.4262C129.624 19.9956 129.728 19.6136 129.81 19.2649C129.892 18.9163 130.004 18.601 130.092 18.2917C130.29 17.5883 130.272 17.5367 130.062 18.1947C129.943 18.5767 129.798 19.0709 129.688 19.4923C129.633 19.7561 129.597 19.9805 129.506 20.4262Z" fill="#BFEF5B"/>
<path d="M131.05 86.3429L131.022 86.1671L130.718 85.3242L130.764 85.4637C130.852 85.7547 130.949 86.0488 131.05 86.3429Z" fill="#BFEF5B"/>
<path d="M180.963 153.712C177.968 151.788 175.077 149.707 172.303 147.478C169.449 145.177 166.665 142.688 164.039 140.126C161 137.158 157.723 134.092 155.252 130.657L155.365 130.779L155.337 130.739L155.252 130.657L155.341 130.745C154.231 129.552 153.185 128.301 152.207 126.998C151.295 125.749 150.414 124.53 149.563 123.259L149.672 123.396L149.478 123.135V123.15V123.126L149.566 123.253C147.481 120.546 145.475 117.775 143.384 114.537C144.067 115.749 144.417 116.45 144.833 117.096C146.69 119.997 148.672 122.829 150.745 125.585C152.818 128.341 155 131 157.277 133.553C158.249 134.675 159.274 135.754 160.28 136.858L161.83 138.474L162.608 139.28L163.407 140.071C165.519 142.194 167.756 144.204 170.069 146.135C171.091 146.96 172.151 147.851 173.258 148.703C173.808 149.128 174.346 149.57 174.902 149.983L176.54 151.195C177.61 151.987 178.668 152.684 179.613 153.318C180.558 153.951 181.437 154.415 182.145 154.773C183.2 155.276 182.188 154.485 180.963 153.712Z" fill="#BFEF5B"/>
<path d="M141.937 108.406C141.973 108.406 141.846 108.133 141.785 107.963C141.621 107.709 141.368 107.239 141.35 107.242C141.383 107.397 141.432 107.548 141.496 107.693C141.648 107.948 141.918 108.4 141.937 108.406Z" fill="#BFEF5B"/>
<path d="M156.985 132.652L157.106 132.77V132.755L156.997 132.6V132.631C156.426 131.979 155.881 131.3 155.377 130.778C155.875 131.46 156.35 132.237 156.985 132.652Z" fill="#BFEF5B"/>
<path d="M141.952 110.916L141.858 110.762L141.909 110.877C141.923 110.891 141.937 110.904 141.952 110.916Z" fill="#BFEF5B"/>
<path d="M148.797 119.848L149.061 120.176L148.87 119.845C148.775 119.727 148.617 119.515 148.605 119.515C148.663 119.629 148.727 119.741 148.797 119.848Z" fill="#BFEF5B"/>
<path d="M293.037 -153.384C292.086 -153.723 291.402 -153.99 291.047 -154.142C290.691 -154.293 290.664 -154.36 291.022 -154.342C291.727 -154.266 293.998 -153.917 298.15 -152.787C302.35 -151.637 306.439 -150.115 310.368 -148.239C314.339 -146.351 318.08 -144.016 321.52 -141.28C324.986 -138.523 328.04 -135.284 330.586 -131.663C331.878 -129.86 333.015 -127.952 333.984 -125.957C334.964 -123.97 335.821 -121.925 336.549 -119.833C338.144 -115.111 339.264 -110.243 339.893 -105.301C340.224 -102.833 340.473 -100.353 340.589 -97.8605C340.659 -96.6144 340.744 -95.3683 340.795 -94.1192C340.795 -92.87 340.795 -91.6208 340.795 -90.3717C340.797 -82.8062 340.11 -75.2561 338.744 -67.8144C338.549 -66.7774 338.349 -65.7132 338.136 -64.6369C338.051 -64.0942 337.911 -63.5606 337.789 -63.0179C337.668 -62.4752 337.543 -61.9325 337.416 -61.3837C337.166 -60.2922 336.917 -59.1916 336.656 -58.094C336.352 -57.0117 336.048 -55.9293 335.714 -54.856C334.324 -50.2294 332.701 -45.6758 330.85 -41.2124C330.379 -40.1027 329.866 -39.0112 329.373 -37.9076L328.647 -36.2704L328.276 -35.4457C328.145 -35.1729 328.003 -34.9061 327.869 -34.6362L326.215 -31.4194C325.939 -30.8827 325.674 -30.34 325.383 -29.8124L324.471 -28.2419C323.75 -26.9988 323.045 -25.7467 322.316 -24.5127L319.997 -20.8744L319.416 -19.9648L319.112 -19.5131L318.808 -19.0734L317.562 -17.318L316.319 -15.5625L315.711 -14.6863C315.502 -14.3831 315.274 -14.1193 315.055 -13.8343L312.398 -10.4507C311.964 -9.88072 311.486 -9.33195 311.034 -8.78621C310.581 -8.24048 310.104 -7.69165 309.632 -7.15198C307.739 -4.99326 305.763 -2.90729 303.69 -0.912292C299.556 3.12067 294.966 6.66132 290.013 9.63867C289.387 9.99948 288.767 10.3785 288.123 10.712C287.478 11.0455 286.852 11.4093 286.196 11.7156C284.907 12.3856 283.561 12.9283 282.226 13.4953L281.223 13.9198C280.886 14.0562 280.539 14.1623 280.199 14.2866L278.144 15.0022C277.801 15.1174 277.463 15.2568 277.111 15.3478L276.065 15.651L273.968 16.2361C268.412 17.6793 262.491 18.4191 256.595 18.6616C250.797 18.8773 244.991 18.7234 239.213 18.2008C237.584 18.0825 235.912 17.8673 234.192 17.6611C233.328 17.5641 232.468 17.4216 231.59 17.2973C230.712 17.173 229.83 17.0457 228.946 16.888C227.174 16.5848 225.374 16.2816 223.581 15.9268C221.788 15.5721 219.982 15.2265 218.192 14.8445C209.87 13.0678 201.646 10.7969 193.792 7.49214C189.853 5.84961 186.052 3.8959 182.425 1.64966C178.786 -0.616776 175.402 -3.26672 172.331 -6.25455C171.848 -6.71236 171.389 -7.19745 170.93 -7.67952C170.471 -8.16159 170.018 -8.6528 169.586 -9.15306C169.155 -9.65332 168.72 -10.1597 168.298 -10.669L168.051 -10.9722L168.009 -11.0298L167.915 -11.1541L167.869 -11.2148L167.845 -11.245L167.823 -11.2148L167.732 -11.0874C167.705 -11.048 167.662 -10.9965 167.644 -10.9752L167.003 -10.2294C166.769 -9.97775 166.516 -9.74121 166.273 -9.49564L165.902 -9.13182L165.717 -8.94987L165.523 -8.78317C164.988 -8.34659 164.483 -7.8736 163.915 -7.48856C161.707 -5.87512 159.253 -4.62711 156.648 -3.7926C154.064 -2.97124 151.379 -2.50513 148.669 -2.40707C148.332 -2.38281 147.994 -2.40707 147.654 -2.40707H146.639C145.964 -2.44952 145.283 -2.47983 144.612 -2.5526C143.94 -2.62537 143.274 -2.69507 142.615 -2.82544L141.624 -2.99828C141.292 -3.05891 140.967 -3.14076 140.639 -3.21353C138.032 -3.80457 135.492 -4.65889 133.059 -5.76334C130.644 -6.85872 128.315 -8.13159 126.089 -9.57143C123.88 -11.0085 121.755 -12.5705 119.725 -14.2497C117.225 -16.2824 114.893 -18.513 112.753 -20.9199C110.606 -23.3222 108.721 -25.9454 107.13 -28.7452C105.56 -31.5576 104.405 -34.5813 103.701 -37.7227C103.659 -37.9198 103.61 -38.1138 103.571 -38.3109L103.476 -38.9021L103.288 -40.0876C103.224 -40.4817 103.203 -40.8911 103.157 -41.3004C103.112 -41.7097 103.112 -42.1068 103.099 -42.5131C103.068 -44.1104 103.196 -45.7069 103.479 -47.2793C103.687 -48.4285 103.971 -49.5628 104.327 -50.675C104.689 -51.7827 105.124 -52.8654 105.628 -53.9161C106.637 -56.0322 107.959 -57.9853 109.549 -59.7101C111.156 -61.4544 113.075 -62.8837 115.208 -63.9244C116.284 -64.4409 117.413 -64.8374 118.576 -65.1069C118.88 -65.1857 119.157 -65.2372 119.451 -65.2888C119.746 -65.3403 120.038 -65.3949 120.348 -65.4221C120.953 -65.4915 121.563 -65.5129 122.172 -65.4859C122.476 -65.4646 122.78 -65.4556 123.083 -65.4101C123.235 -65.3889 123.387 -65.3736 123.539 -65.3494L123.992 -65.2615C124.296 -65.21 124.6 -65.1129 124.904 -65.0371C125.208 -64.9613 125.512 -64.8522 125.789 -64.7158C126.384 -64.4713 126.948 -64.1546 127.466 -63.7728C128 -63.3686 128.466 -62.8837 128.849 -62.3357C129.228 -61.7725 129.507 -61.1491 129.676 -60.4923C129.825 -59.8627 129.89 -59.2165 129.87 -58.5701C129.811 -57.392 129.661 -56.2201 129.421 -55.0652C128.522 -50.5106 126.762 -46.1684 124.235 -42.2706C123.591 -41.2427 122.871 -40.2634 122.141 -39.2962C121.412 -38.3291 120.622 -37.4074 119.789 -36.5221C118.143 -34.7381 116.352 -33.0932 114.433 -31.6043C112.516 -30.116 110.483 -28.7818 108.355 -27.6143C106.219 -26.4507 103.989 -25.467 101.689 -24.6734C98.7665 -23.6674 95.7554 -22.9386 92.6956 -22.4965C89.652 -22.0429 86.575 -21.8501 83.4984 -21.9204C80.4343 -21.9913 77.3791 -22.279 74.3559 -22.7815C71.342 -23.2885 68.3657 -23.9976 65.4474 -24.9038C62.5268 -25.7822 59.6651 -26.8445 56.8794 -28.0843C54.0461 -29.3193 51.3716 -30.8889 48.9131 -32.7594C47.6764 -33.72 46.5354 -34.7973 45.5059 -35.9763C44.4706 -37.1652 43.5781 -38.4708 42.8465 -39.8663C41.4272 -42.6525 40.4862 -45.6562 40.0624 -48.7527C39.653 -51.7197 39.4863 -54.715 39.5639 -57.709C39.6034 -59.1946 39.6825 -60.6742 39.7432 -62.1538L39.8405 -64.3731L40.0411 -66.5834C40.1809 -68.0539 40.2903 -69.5274 40.4575 -70.9918C40.6247 -72.4562 40.8496 -73.9115 41.0441 -75.3698C41.2386 -76.8282 41.503 -78.2684 41.7462 -79.7115C41.8708 -80.4301 41.9954 -81.1517 42.1231 -81.8702L42.3085 -82.9466L42.5364 -84.0168C44.2442 -92.3505 46.5282 -100.556 49.372 -108.575C52.1531 -116.552 55.3475 -124.341 58.7516 -132.1C59.3048 -133.349 59.8569 -134.598 60.4081 -135.847L62.1071 -139.567C63.2256 -142.051 64.4019 -144.503 65.5477 -146.965C66.1313 -148.19 66.7138 -149.414 67.2954 -150.637C67.888 -151.85 68.4382 -153.062 69.0704 -154.315C69.6943 -155.57 70.4286 -156.767 71.2648 -157.892C71.7011 -158.469 72.1862 -159.008 72.7146 -159.502C72.984 -159.756 73.2671 -159.995 73.5626 -160.218C73.7146 -160.327 73.8665 -160.43 74.0307 -160.521L74.2647 -160.676L74.517 -160.809C74.6781 -160.894 74.8209 -160.976 74.9729 -161.048L75.4014 -161.218C75.6357 -161.314 75.8777 -161.39 76.1248 -161.446C76.4225 -161.527 76.7283 -161.576 77.0366 -161.591C77.4287 -161.615 77.3892 -161.564 77.1491 -161.473L76.5746 -161.264L75.906 -160.961C75.6659 -160.845 75.4136 -160.7 75.134 -160.548C74.8371 -160.361 74.55 -160.158 74.2738 -159.942C73.5519 -159.39 72.8997 -158.752 72.3316 -158.044C71.543 -157.059 70.8384 -156.011 70.2253 -154.909C69.3409 -153.341 68.6084 -151.71 67.8181 -150.109C67.0279 -148.508 66.2559 -146.896 65.493 -145.276C63.9459 -142.051 62.4536 -138.794 60.9065 -135.52C57.5176 -128.198 54.4691 -120.409 51.5786 -112.647C46.5606 -99.1248 42.7462 -84.9082 41.1748 -70.6643C41.0532 -69.4516 40.962 -68.2115 40.8526 -66.9806L40.6915 -65.1341L40.6155 -64.2246L40.5791 -63.2968C40.5284 -62.0598 40.4778 -60.8227 40.4271 -59.5857C40.3694 -58.3487 40.339 -57.1087 40.3602 -55.8686C40.3815 -54.6286 40.4089 -53.3885 40.5061 -52.1545C40.5426 -51.5481 40.6125 -50.9206 40.6733 -50.3051C40.7341 -49.6896 40.8192 -49.0741 40.9316 -48.4647C41.3071 -46.0328 42.0158 -43.664 43.0379 -41.4246C43.7996 -39.7887 44.7734 -38.2596 45.9345 -36.8768C47.0963 -35.5052 48.4142 -34.273 49.8614 -33.2051C52.7306 -31.0434 55.9706 -29.4456 59.2683 -28.0782C65.879 -25.3138 72.8822 -23.5972 80.0243 -22.9906C85.1612 -22.5677 90.3324 -22.8905 95.3763 -23.9488C100.366 -24.9657 105.142 -26.8378 109.491 -29.482C113.685 -32.0203 117.407 -35.2638 120.491 -39.0688C123.533 -42.8013 125.82 -47.0881 127.223 -51.6907C127.559 -52.8325 127.834 -53.9913 128.047 -55.1622C128.279 -56.3173 128.414 -57.4897 128.451 -58.6671C128.457 -59.2243 128.379 -59.7793 128.22 -60.3134C128.052 -60.8332 127.787 -61.3166 127.439 -61.7384C126.708 -62.5748 125.749 -63.1815 124.679 -63.4848C124.415 -63.5818 124.132 -63.6303 123.859 -63.7031C123.585 -63.7758 123.299 -63.8152 123.014 -63.8365C122.445 -63.9016 121.871 -63.9199 121.299 -63.8911C120.144 -63.8068 119.004 -63.5755 117.907 -63.2028C115.685 -62.4416 113.656 -61.205 111.962 -59.5797C109.836 -57.5273 108.156 -55.0595 107.029 -52.3304C105.866 -49.5836 105.239 -46.6406 105.181 -43.6592C105.168 -42.6703 105.222 -41.6817 105.343 -40.7001C105.48 -39.7129 105.668 -38.7333 105.905 -37.7651C106.02 -37.28 106.133 -36.7949 106.294 -36.3219C106.455 -35.8489 106.598 -35.3639 106.756 -34.8939L107.3 -33.4962C107.482 -33.0293 107.71 -32.5867 107.908 -32.1228C109.61 -28.4845 111.996 -25.1797 114.707 -22.1812C116.075 -20.6895 117.524 -19.2644 119.038 -17.9122C120.552 -16.56 122.141 -15.2866 123.776 -14.0738C127.019 -11.6229 130.53 -9.54597 134.241 -7.88271C137.447 -6.44601 140.837 -5.45833 144.314 -4.94777C147.78 -4.45499 151.311 -4.64871 154.702 -5.51781C158.286 -6.42369 161.595 -8.18646 164.343 -10.6538L165.316 -11.618C165.468 -11.7878 165.62 -11.9636 165.76 -12.1364L165.991 -12.4033C166.097 -12.5306 166.206 -12.6519 166.295 -12.7853C166.699 -13.3068 167.064 -13.8343 167.453 -14.3619L167.741 -14.759C167.766 -14.7863 167.79 -14.8379 167.814 -14.847L167.887 -14.75L168.036 -14.5559L168.644 -13.7828L169.252 -13.0036L169.556 -12.6155C169.647 -12.4942 169.787 -12.3335 169.845 -12.2638L170.735 -11.1966C171.361 -10.5083 171.966 -9.80492 172.629 -9.15002C173.291 -8.49513 173.951 -7.84627 174.622 -7.20653C174.966 -6.90334 175.319 -6.60014 175.665 -6.29695C176.012 -5.99377 176.367 -5.69058 176.729 -5.38739C178.162 -4.20174 179.654 -3.08864 181.2 -2.05229C184.301 0.0196686 187.561 1.84447 190.95 3.40514C195.059 5.32736 199.281 6.88577 203.141 8.33502C207.79 10.0201 212.541 11.4104 217.366 12.4978C219.876 13.086 222.441 13.6135 225.019 14.1198C227.596 14.6262 230.186 15.0901 232.784 15.5024C233.167 15.5661 233.796 15.6328 233.933 15.6601C237.826 16.4668 241.773 16.9947 245.741 17.2397C249.875 17.4883 254.094 17.4883 258.139 17.37L260.589 17.2427C260.996 17.2185 261.406 17.2033 261.805 17.17L263.02 17.0487L265.47 16.8031C266.285 16.6909 267.096 16.5575 267.902 16.4363C269.537 16.2271 271.139 15.8298 272.765 15.5024C272.965 15.4569 273.169 15.4206 273.372 15.369L273.98 15.2053L275.178 14.8778L276.372 14.5504L276.98 14.3867C277.178 14.3321 277.372 14.2563 277.567 14.1896L279.916 13.3861L280.503 13.183L280.807 13.083L281.093 12.9616L282.238 12.4827L284.527 11.5155C285.272 11.1486 286.025 10.806 286.758 10.4179C289.702 8.88567 292.523 7.129 295.195 5.16359C300.004 1.58546 304.423 -2.48755 308.377 -6.98824L309.851 -8.674L311.289 -10.3931L314.046 -13.9192C314.991 -15.0774 315.818 -16.3235 316.684 -17.5393C317.55 -18.7551 318.435 -19.9648 319.203 -21.2412C324.48 -29.3695 328.844 -38.0527 332.215 -47.1337C337.72 -62.1933 340.317 -78.1565 339.868 -94.1798L339.595 -99.2279C339.57 -99.6463 339.555 -100.068 339.519 -100.486L339.406 -101.744C339.333 -102.581 339.23 -103.415 339.142 -104.252C338.75 -107.586 338.153 -110.893 337.355 -114.154C337.139 -114.963 336.944 -115.776 336.698 -116.579C336.577 -116.983 336.464 -117.386 336.34 -117.792L335.948 -118.987C335.82 -119.384 335.68 -119.778 335.531 -120.169L335.1 -121.349L334.625 -122.51C334.467 -122.898 334.321 -123.283 334.13 -123.662L333.61 -124.805C333.434 -125.184 333.236 -125.554 333.051 -125.927C332.689 -126.682 332.264 -127.403 331.86 -128.134C331.659 -128.504 331.425 -128.85 331.209 -129.207C330.993 -129.565 330.787 -129.929 330.537 -130.266L329.097 -132.321C326.674 -135.61 323.783 -138.527 320.513 -140.98C320.352 -141.108 320.188 -141.238 320.021 -141.365L319.51 -141.729C319.17 -141.972 318.845 -142.214 318.547 -142.442C318.088 -142.789 317.648 -143.159 317.228 -143.551L317.146 -143.603L317.228 -143.557L317.03 -143.679L316.204 -144.203L316.292 -144.127C309.447 -148.287 301.645 -151.307 293.466 -153.299C293.505 -153.299 293.508 -153.278 293.429 -153.281L293.208 -153.35L293.393 -153.317L293.089 -153.384H293.037ZM339.431 -76.8979C339.388 -76.2734 339.26 -75.6336 339.154 -74.9666C339.041 -74.2707 338.964 -73.5694 338.923 -72.8655L339.227 -75.0121C339.303 -75.67 339.391 -76.2915 339.431 -76.8979ZM340.078 -89.7381C340.078 -88.9013 340.078 -88.2676 340.048 -87.6673C340.023 -86.9851 340.048 -86.9457 340.099 -87.5854C340.099 -87.7734 340.124 -87.9856 340.136 -88.1918C340.148 -88.3979 340.136 -88.6314 340.136 -88.8375C340.127 -89.1104 340.102 -89.3288 340.078 -89.7411V-89.7381Z" fill="#BFEF5B"/>
<path d="M93.0937 123.875C93.5051 123.979 93.8922 124.163 94.2334 124.415C94.4097 124.566 94.3976 124.633 94.203 124.606C93.8007 124.541 93.3946 124.501 92.9873 124.487C92.099 124.5 91.2138 124.594 90.343 124.769C87.1121 125.294 83.86 125.782 80.5896 126.255L75.6749 126.949L70.0611 127.713C70.3752 126.096 70.6872 124.487 70.9973 122.886C71.1371 122.195 71.2526 121.501 71.3681 120.804L71.7176 118.718C71.824 118.063 71.9395 117.408 72.0215 116.75L72.2859 114.773C72.4531 113.451 72.6537 112.135 72.7783 110.807C72.903 109.479 73.061 108.157 73.2038 106.829C73.3467 105.501 73.4409 104.167 73.5716 102.833C73.681 101.824 73.7388 100.814 73.8026 99.8015C73.8664 98.7889 73.9212 97.7914 73.9819 96.7696C74.0579 94.7564 74.1339 92.7402 74.2129 90.7058C74.2433 89.5779 74.2403 88.3955 74.2403 87.1979C74.2403 86.5915 74.2403 85.9851 74.219 85.3787C74.1977 84.7724 74.219 84.166 74.219 83.5778V81.6404C74.219 80.9946 74.1947 80.3488 74.1825 79.703C74.143 78.4145 74.1187 77.1229 74.061 75.8343L73.8421 71.9717C73.8117 71.3289 73.7631 70.6861 73.7114 70.0433L73.5595 68.1151C73.0792 61.9967 72.2738 55.9207 71.1979 49.8963C70.9121 48.3804 70.6386 46.8827 70.3407 45.391C70.0428 43.9188 69.6634 42.4643 69.204 41.0341C68.76 39.6329 68.1648 38.2839 67.429 37.0107C66.7202 35.7851 65.7799 34.7081 64.6601 33.8394C64.3887 33.6306 64.1022 33.4421 63.803 33.2754C63.6564 33.1856 63.503 33.1076 63.3441 33.042L62.876 32.8237C62.2291 32.5667 61.5519 32.3935 60.8609 32.3083C59.4311 32.1572 57.9855 32.287 56.6057 32.6903C55.1721 33.1096 53.7851 33.6734 52.4661 34.373C51.8035 34.7217 51.15 35.0825 50.5087 35.4676C49.8674 35.8526 49.2321 36.268 48.6091 36.6621L47.4966 37.3595L46.9252 37.7081L46.3569 38.081C45.594 38.5813 44.8037 39.0816 44.0013 39.597C43.1989 40.1124 42.4148 40.6581 41.6063 41.1887L40.3905 41.9892L39.2113 42.832L37.8435 43.8083L37.1566 44.2934L36.491 44.8027L33.8254 46.8281L31.2389 48.9261C30.3788 49.6356 29.552 50.3754 28.7071 51.097C25.3731 54.0301 22.211 57.1521 19.2363 60.4474C16.6663 63.3472 14.2749 66.3998 12.0755 69.5886C9.89932 72.769 7.92371 76.0678 6.06664 79.4332L3.08195 77.896C3.75467 76.4326 4.42739 74.9682 5.10011 73.5028C5.77182 72.0353 6.48608 70.5831 7.13043 69.0974C8.50423 66.0079 9.93275 62.9699 11.2245 59.9107L13.2123 55.3629C13.8485 53.8469 14.4807 52.3411 15.1088 50.8454C18.823 42.0256 21.7955 32.8085 24.3456 23.4521C24.9869 20.9932 25.6586 18.5373 26.2786 16.0694L28.0749 8.6503C30.9866 -3.98972 33.561 -16.6327 34.9622 -29.5729C35.0473 -30.3581 35.1537 -31.1464 35.2266 -31.9347L35.4515 -34.3027C35.6096 -35.8793 35.7555 -37.4589 35.9196 -39.0325C36.0837 -40.606 36.1658 -42.1826 36.2904 -43.7501C36.3451 -44.5343 36.4018 -45.3165 36.4606 -46.0968C36.5092 -46.8729 36.5822 -47.6764 36.6035 -48.4162C36.6545 -49.4912 36.5821 -50.5684 36.3877 -51.627C36.2409 -52.5723 35.8045 -53.4492 35.1385 -54.1374L34.8862 -54.3436C34.8011 -54.4133 34.7008 -54.4618 34.6096 -54.5224C34.4182 -54.6365 34.2143 -54.7282 34.0017 -54.7954C33.5514 -54.9292 33.0824 -54.9895 32.6127 -54.9742C31.5516 -54.9054 30.5036 -54.7016 29.4943 -54.3678C25.1398 -53.122 20.8656 -51.6124 16.6954 -49.8473C11.326 -47.5706 6.15461 -44.8548 1.234 -41.7278C0.0790291 -40.988 -0.100295 -40.9577 0.0425568 -41.1821C0.455915 -41.8339 1.32214 -42.7678 4.07887 -44.3231C7.44442 -46.24 10.9136 -47.9698 14.4706 -49.5046C18.4765 -51.2055 22.6192 -53.0247 26.9047 -54.3284C27.8348 -54.6316 28.777 -54.8833 29.7131 -55.1592C30.6356 -55.443 31.5885 -55.617 32.5519 -55.6776C33.4947 -55.7415 34.4324 -55.4943 35.2205 -54.9742C35.6005 -54.7058 35.9307 -54.3734 36.1962 -53.9919C36.4617 -53.6031 36.6724 -53.1797 36.8223 -52.7336C37.12 -51.8241 37.2848 -50.8765 37.3116 -49.92C37.3475 -48.9533 37.3241 -47.9854 37.2417 -47.0215C37.11 -45.0811 36.9813 -43.1478 36.8557 -41.2215C36.8071 -40.5575 36.7767 -39.8935 36.7159 -39.2326C36.6551 -38.5716 36.5943 -37.9046 36.5305 -37.2406C36.4089 -35.9126 36.2863 -34.5826 36.1627 -33.2506L35.9773 -31.2556L35.7494 -29.2697C35.6075 -27.9458 35.4657 -26.6249 35.3239 -25.307C35.1445 -23.3666 34.8588 -21.4474 34.5792 -19.5312L34.1507 -16.6631L33.9288 -15.232L33.6735 -13.81C33.3209 -11.9141 32.9693 -10.0222 32.6188 -8.13429C32.4486 -7.18834 32.245 -6.24842 32.0444 -5.30853L31.4517 -2.48589C31.1477 -1.12759 30.9107 0.242878 30.6158 1.58298C30.321 2.92308 30.0353 4.27829 29.7466 5.61839C29.4578 6.95849 29.1964 8.30162 28.8895 9.62959C28.5825 10.9576 28.2816 12.2856 27.9594 13.6075C25.5066 23.9614 23.069 33.8637 19.753 43.9539C19.2394 45.5001 18.6923 47.0676 18.1361 48.6412C17.5799 50.2147 16.9203 51.7549 16.3307 53.2951L15.1149 56.3937L13.8323 59.462L12.5497 62.5424L11.9084 64.0766L11.2336 65.5925C10.3461 67.6138 9.45658 69.6452 8.56502 71.6867C7.63092 73.7079 6.70998 75.7292 5.80221 77.7505C5.61985 78.1477 5.44052 78.5448 5.25816 78.945L3.93298 78.2629C4.36154 77.514 4.79617 76.7711 5.23385 76.0283L5.89643 74.9156C6.12135 74.5488 6.36146 74.191 6.59549 73.8271L7.99058 71.6654C8.46776 70.9499 8.96926 70.2526 9.44949 69.5431L10.3157 68.2697C10.6197 67.8483 10.9236 67.4389 11.2275 67.0236C11.8354 66.1989 12.422 65.356 13.0512 64.5435L14.9386 62.118C15.2426 61.7087 15.5799 61.3176 15.9052 60.9234L16.8869 59.744C19.5067 56.5873 22.3055 53.5829 25.2695 50.7453C26.151 49.863 27.0932 49.0535 28.005 48.2682C28.467 47.8771 28.9168 47.4891 29.3849 47.1313C29.853 46.7735 30.3241 46.44 30.7891 46.1186C34.9713 43.214 39.6732 39.7971 44.5727 36.9137C44.7521 36.8076 45.0287 36.6105 45.0986 36.5651C46.0104 36.1376 46.9799 35.704 47.9343 35.2037C48.8887 34.7035 49.8522 34.1578 50.8491 33.6514C52.8338 32.6358 54.9462 31.6776 57.1285 31.3108C58.0084 31.1672 58.8997 31.1054 59.791 31.1258C60.6835 31.1695 61.5673 31.3212 62.4231 31.5776L63.0523 31.808C63.2601 31.8882 63.4631 31.9803 63.6601 32.0839C63.8634 32.1735 64.0613 32.2747 64.2528 32.3871L64.8182 32.7419C65.0056 32.8629 65.1853 32.9955 65.3561 33.139C65.5263 33.2845 65.7148 33.4059 65.8698 33.5665C66.2018 33.8639 66.5126 34.184 66.7999 34.5246C67.9473 35.8947 68.8518 37.4502 69.4745 39.124C70.1176 40.7907 70.6258 42.5063 70.9942 44.254C72.2768 50.5968 73.289 56.9516 74.0336 63.355C74.3375 65.9079 74.5351 68.5092 74.7479 71.1348C74.8907 73.7574 75.0518 76.3922 75.1065 79.0178C75.1977 81.1796 75.1916 83.3443 75.2159 85.5061C75.2402 86.5884 75.2159 87.6709 75.1916 88.7533C75.1673 89.8357 75.1734 90.918 75.1339 91.9974L75.0062 95.2415C74.9849 95.7812 74.9697 96.3239 74.9363 96.8636L74.833 98.4826L74.6141 101.721L74.3102 104.953C74.1552 106.772 73.9272 108.591 73.7206 110.392C73.5139 112.193 73.2464 114.006 73.0093 115.81L72.8209 117.162L72.599 118.508L72.1553 121.201C72.0154 122.11 71.8331 122.996 71.6598 123.89L71.21 126.24C71.1796 126.403 71.1462 126.57 71.1127 126.734L73.6415 126.413C74.6415 126.276 75.6354 126.109 76.6141 125.943C77.5016 125.776 78.5015 125.673 78.8845 125.782L79.0091 125.758L79.538 125.688H79.4711C81.6149 125.304 83.7972 124.953 86.018 124.636C87.1283 124.474 88.2428 124.321 89.3613 124.175L91.0573 123.96C91.6498 123.884 92.2476 123.858 92.8444 123.881C92.8232 123.881 92.8171 123.881 92.8657 123.854L92.9994 123.881H92.887L93.0663 123.896L93.0937 123.875ZM74.7053 95.6175C74.7327 94.9474 74.8755 94.2198 74.7722 93.4285C74.7479 94.2835 74.7296 94.9505 74.7084 95.6175H74.7053ZM74.3406 102.557C74.3892 102.106 74.4348 101.766 74.45 101.442C74.4652 101.117 74.45 101.051 74.3953 101.393C74.371 101.593 74.3558 101.854 74.3375 102.072C74.3315 102.212 74.3406 102.327 74.3436 102.557H74.3406Z" fill="#BFEF5B"/>
<path d="M79.4581 125.682H79.3671L78.9241 125.788H78.9969L79.4581 125.682Z" fill="#BFEF5B"/>
<path d="M99.0965 151.871C98.5555 148.46 98.1999 144.655 97.8808 140.957C97.7015 138.816 97.2 136.606 97.3398 134.459V134.541V134.517V134.459V134.52C97.0176 132.795 97.0541 131.306 97.0054 129.76L97.0206 129.848L97.0024 129.684V129.757C96.9006 128.882 96.7091 128.021 96.431 127.186C96.1578 126.299 95.5799 125.537 94.7988 125.033C95.1552 125.342 95.4501 125.716 95.6681 126.134C96.076 126.868 96.3343 127.676 96.4279 128.511C96.5526 129.353 96.5951 130.221 96.6741 131.085C96.816 132.813 96.9588 134.531 97.1027 136.239C97.358 139.216 97.4857 142.233 97.8686 145.235C98.203 147.851 98.3792 151.101 98.9476 152.645C99.1877 153.248 99.212 152.596 99.0965 151.871Z" fill="#BFEF5B"/>
<path d="M91.8201 122.674C91.8201 122.647 91.6468 122.632 91.5435 122.614C91.3835 122.633 91.2251 122.663 91.0693 122.704C91.0693 122.729 91.2395 122.738 91.3398 122.753C91.504 122.723 91.8079 122.686 91.8201 122.674Z" fill="#BFEF5B"/>
<path d="M97.4735 135.799L97.4917 135.881V135.787H97.4735C97.4614 135.372 97.4198 134.959 97.3489 134.55C97.3489 134.987 97.2516 135.448 97.4735 135.799Z" fill="#BFEF5B"/>
<path d="M93.0934 123.875H92.9963L93.0631 123.89L93.0934 123.875Z" fill="#BFEF5B"/>
<path d="M98.1511 127.892L98.224 128.128V127.904C98.206 127.822 98.1816 127.742 98.1511 127.665C98.1463 127.74 98.1463 127.816 98.1511 127.892Z" fill="#BFEF5B"/>
<path d="M187.923 13.4529C186.777 12.7131 186.267 12.4038 186.75 12.4645C187.255 12.5692 187.751 12.7184 188.23 12.9101L188.853 13.1345L189.57 13.4377L190.4 13.7773L191.327 14.1987C192.652 14.8051 193.938 15.4843 195.208 16.2028C196.479 16.9214 197.707 17.7187 198.892 18.5919C200.078 19.4651 201.226 20.3747 202.345 21.3358C203.463 22.2969 204.512 23.3399 205.503 24.4344C206.494 25.5289 207.448 26.6628 208.357 27.8301C209.266 28.9974 210.095 30.2284 210.864 31.4988C211.633 32.7691 212.357 34.0607 213.038 35.3796C213.718 36.6985 214.311 38.0598 214.843 39.4454C217.274 45.6456 218.682 52.3401 218.521 59.1073C218.408 64.2221 217.639 69.2581 215.873 74.1425C215.386 75.5471 214.828 76.9264 214.202 78.275C213.557 79.6822 212.769 81.0192 211.849 82.265C210.844 83.6169 209.66 84.8266 208.329 85.8608C207.661 86.3773 206.956 86.8444 206.22 87.2585C205.482 87.6671 204.716 88.0247 203.928 88.3288C200.777 89.5415 197.375 89.8447 194.09 89.6143C190.166 89.3384 186.358 88.4016 182.695 87.1433C181.781 86.828 180.87 86.4935 179.96 86.1397C179.048 85.785 178.154 85.4091 177.261 84.9573C176.341 84.4996 175.483 83.9293 174.705 83.2594C174.303 82.9091 173.938 82.5202 173.614 82.0982C173.277 81.6596 172.998 81.1797 172.784 80.6702C172.577 80.1602 172.43 79.6281 172.346 79.0845C172.272 78.5311 172.272 77.9703 172.346 77.417C172.481 76.2325 173.07 75.1461 173.99 74.385C174.456 74.0145 174.988 73.7366 175.559 73.5664C176.101 73.408 176.662 73.3263 177.227 73.3239C178.277 73.3263 179.32 73.4826 180.324 73.7878C184.11 74.966 187.627 76.8737 190.677 79.4029C193.748 81.9477 196.412 84.9443 198.579 88.2894C200.748 91.6157 202.461 95.216 203.673 98.995C204.4 101.263 204.889 103.6 205.132 105.968C205.193 106.575 205.22 107.212 205.266 107.839C205.284 108.142 205.302 108.467 205.324 108.782C205.345 109.097 205.324 109.413 205.324 109.728V111.629C205.299 112.26 205.244 112.89 205.205 113.521C204.748 119.351 203.181 125.04 200.588 130.284C199.294 132.874 197.779 135.348 196.059 137.679C194.311 139.994 192.362 142.152 190.236 144.128C184.911 148.979 178.619 152.448 172.045 154.885C171.218 155.188 170.398 155.492 169.562 155.752L167.051 156.528L164.517 157.205C163.669 157.426 162.815 157.602 161.96 157.811C158.543 158.547 155.088 159.103 151.611 159.476C149.484 159.703 147.356 159.882 145.259 160.006C143.162 160.13 141.052 160.197 138.967 160.282C134.794 160.37 130.664 160.376 126.597 160.197C114.616 159.724 102.555 158.775 90.5438 156.886C84.2553 155.895 77.9911 154.646 71.8029 153.102L68.8547 152.329C67.8699 152.072 66.8882 151.814 65.9095 151.529C63.9521 150.968 61.9978 150.349 60.0739 149.634C56.2381 148.2 52.4571 146.359 49.2141 143.691C47.586 142.357 46.1455 140.81 44.9316 139.092L44.0684 137.761L43.3177 136.372C42.8481 135.435 42.4419 134.468 42.1019 133.477C41.4322 131.501 40.9787 129.459 40.7494 127.386C40.5338 125.326 40.485 123.253 40.6035 121.186C40.7081 119.176 40.9508 117.177 41.3299 115.201C41.6932 113.234 42.1722 111.29 42.7645 109.379L43.187 107.948L43.3997 107.233L43.5031 106.875L43.6307 106.523C43.9691 105.589 44.3055 104.657 44.6398 103.725L44.889 103.027C44.9711 102.794 45.0592 102.561 45.1595 102.336L45.737 100.975C46.1291 100.065 46.4908 99.1557 46.9011 98.2613C49.3026 93.0426 52.2979 88.1168 55.8278 83.5808C59.3226 79.0742 63.2621 74.929 67.5872 71.2076C73.1403 66.3843 79.3205 62.3304 85.9604 59.1558C87.5196 58.3948 87.7384 58.3675 87.5105 58.6009C87.018 59.0946 86.4644 59.5236 85.8631 59.8774C85.4407 60.1412 84.93 60.4322 84.3039 60.7627L83.8115 61.0204L83.2857 61.3236C82.921 61.5328 82.5259 61.7511 82.0912 61.9846C79.9485 63.0791 77.9364 64.3828 75.903 65.6623L72.9396 67.724C72.4351 68.0544 71.9731 68.4425 71.4898 68.8064L70.0491 69.916C65.7788 73.2511 61.9127 77.3685 58.3444 81.6162L57.1834 83.0138C56.9919 83.2503 56.7913 83.4777 56.6059 83.7203L56.0679 84.451C55.3506 85.4303 54.6181 86.4005 53.916 87.3949L51.9283 90.4541C51.5848 90.9544 51.3022 91.4941 50.9982 92.0216L50.0864 93.6074C47.7475 97.8442 45.814 102.291 44.3116 106.89C44.0562 107.675 43.8465 108.476 43.6125 109.27C43.3785 110.065 43.1414 110.856 42.9347 111.659C42.5274 113.269 42.1961 114.9 41.9256 116.538C41.8588 116.95 41.8101 117.362 41.7524 117.772C41.6946 118.181 41.6369 118.596 41.6035 119.009L41.4849 120.249L41.418 121.489L41.3877 122.11V122.717C41.3877 123.132 41.3877 123.544 41.3877 123.957C41.4302 124.781 41.4393 125.603 41.5427 126.422C41.7626 128.821 42.2844 131.183 43.0958 133.453C43.9138 135.706 45.0944 137.812 46.5911 139.686C48.1048 141.547 49.8919 143.168 51.8918 144.495C53.8846 145.829 56.0029 146.966 58.2168 147.891C61.4052 149.188 64.6843 150.252 68.028 151.074C71.3328 151.929 74.6376 152.707 77.9425 153.409C84.4164 154.782 90.8173 155.764 97.2305 156.474C103.644 157.183 110.072 157.617 116.628 157.863C120.652 158.038 124.834 158.123 128.922 158.184C134.405 158.21 139.882 158.039 145.353 157.671C148.089 157.471 150.824 157.217 153.526 156.835C154.885 156.665 156.231 156.431 157.584 156.207C158.258 156.092 158.927 155.946 159.599 155.819C160.271 155.692 160.942 155.552 161.605 155.388L163.343 154.991C163.921 154.861 164.492 154.688 165.07 154.558C165.647 154.427 166.228 154.282 166.796 154.112L168.507 153.618C169.082 153.466 169.647 153.278 170.209 153.09L171.899 152.529L173.559 151.893C174.109 151.677 174.665 151.474 175.197 151.22L176.911 150.443C177.2 150.322 177.477 150.174 177.753 150.028L178.586 149.595C179.711 149.043 180.768 148.382 181.841 147.739L182.242 147.496L182.628 147.233L183.4 146.705L184.172 146.178L184.555 145.914L184.926 145.626C185.902 144.856 186.905 144.11 187.807 143.264L188.5 142.642L188.844 142.339L189.172 142.006L190.476 140.681C190.698 140.465 190.892 140.223 191.084 139.989L191.692 139.289L192.3 138.589C192.503 138.355 192.68 138.098 192.871 137.855L194.002 136.381L195.041 134.844C195.214 134.584 195.394 134.332 195.558 134.071L196.029 133.271C196.333 132.737 196.673 132.213 196.965 131.667C198.33 129.105 199.547 126.468 200.612 123.769C201.846 120.722 202.656 117.523 203.023 114.258C203.419 110.796 203.364 107.297 202.859 103.849C202.819 103.594 202.71 103.185 202.704 103.091C202.67 102.47 202.576 101.842 202.482 101.202C202.387 100.562 202.245 99.9198 202.074 99.274C201.744 97.9528 201.32 96.6568 200.804 95.3962C200.281 94.11 199.69 92.8521 199.035 91.6275C198.378 90.4148 197.67 89.2232 196.95 88.0832C194.598 84.3506 191.533 81.1159 187.929 78.563C187.02 77.9273 186.078 77.3413 185.105 76.8075C184.128 76.2809 183.121 75.8102 182.09 75.3977C181.064 74.9665 180.003 74.6246 178.917 74.3759C177.826 74.1085 176.684 74.1368 175.607 74.4578C175.125 74.6231 174.685 74.8899 174.316 75.2401C173.949 75.5903 173.661 76.0139 173.471 76.4831C173.11 77.4306 173.05 78.4655 173.297 79.4483C173.528 80.4307 174.017 81.3339 174.714 82.0649C175.406 82.7893 176.205 83.4029 177.084 83.884C177.968 84.3634 178.882 84.7857 179.82 85.1483C180.75 85.5152 181.686 85.8729 182.631 86.1973C184.523 86.8579 186.451 87.4076 188.406 87.8437C191.516 88.5198 194.768 88.92 198.008 88.6654C198.415 88.6441 198.816 88.5834 199.223 88.544C199.631 88.5046 200.026 88.4319 200.439 88.347C201.237 88.1953 202.023 87.9928 202.795 87.7406C203.564 87.4867 204.315 87.1829 205.044 86.831C205.768 86.4724 206.464 86.0599 207.126 85.597C209.326 84.0811 211.056 81.9587 212.393 79.6787C213.703 77.3498 214.749 74.8829 215.512 72.3233C216.3 69.7725 216.871 67.1598 217.22 64.5131C217.557 61.8663 217.685 59.1971 217.603 56.5302C217.29 47.5116 214.556 38.7421 209.685 31.138C208.235 28.8219 206.537 26.6697 204.621 24.7194C204.238 24.3192 203.81 23.922 203.476 23.5461C203.207 23.2668 202.965 22.9621 202.755 22.6365L202.71 22.594L202.758 22.6304L202.64 22.5304L202.16 22.0847L202.205 22.1514C200.137 20.3924 197.937 18.794 195.625 17.3701C193.262 15.9048 190.789 14.6255 188.227 13.5438C188.251 13.559 188.251 13.5651 188.197 13.562L188.063 13.4862L188.181 13.5256L187.993 13.4498L187.923 13.4529ZM216.879 68.0636C216.691 68.8761 216.396 69.7372 216.271 70.7135C216.545 69.6856 216.7 68.8701 216.882 68.0636H216.879ZM217.791 59.5044C217.761 60.0653 217.73 60.4868 217.718 60.89C217.7 61.3448 217.718 61.3751 217.773 60.9476C217.794 60.696 217.806 60.3747 217.812 60.1018C217.803 59.929 217.788 59.7864 217.779 59.5044H217.791Z" fill="#BFEF5B"/>
<path d="M202.181 22.1543L202.241 22.2483L202.685 22.5969L202.615 22.5333L202.181 22.1543Z" fill="#BFEF5B"/>
<path d="M152.407 12.5827C154.44 11.6919 156.551 10.9925 158.714 10.4938C160.961 9.97582 163.246 9.63817 165.547 9.48413C168.191 9.30222 171.018 9.01724 173.619 9.58421H173.516H173.546H173.619H173.543C175.72 9.60543 177.525 10.0663 179.376 10.5302L179.267 10.515L179.464 10.5544H179.482L179.388 10.5302C181.593 10.8846 183.772 11.385 185.911 12.0279C185.108 11.6762 184.655 11.4852 184.199 11.3306C180.065 10.0454 175.786 9.28147 171.461 9.05666C169.589 8.95963 167.714 8.95963 165.842 9.05666C163.957 9.1449 162.082 9.38722 160.237 9.78125C157.009 10.4149 153.091 11.6004 151.441 12.7495C150.812 13.1679 151.587 12.9557 152.407 12.5827Z" fill="#BFEF5B"/>
<path d="M188.713 15.093C188.689 15.1082 188.85 15.2083 188.941 15.278C189.101 15.3436 189.264 15.4003 189.43 15.4478C189.448 15.4296 189.287 15.3265 189.199 15.2598C189.04 15.1949 188.878 15.1392 188.713 15.093Z" fill="#BFEF5B"/>
<path d="M171.969 9.47787H171.878L171.993 9.50822V9.48698C172.503 9.54664 173.015 9.57702 173.528 9.57795C172.99 9.49002 172.437 9.32021 171.969 9.47787Z" fill="#BFEF5B"/>
<path d="M187.923 13.4527L188.029 13.486L187.959 13.4497L187.923 13.4527Z" fill="#BFEF5B"/>
<path d="M181.02 12.2945L180.762 12.2612L180.983 12.3459C181.069 12.3624 181.155 12.3734 181.241 12.3791C181.169 12.347 181.095 12.3187 181.02 12.2945Z" fill="#BFEF5B"/>
<path d="M99.2757 54.8837C99.1146 55.4901 99.0082 55.5083 98.3912 54.8837C97.7755 54.2616 97.2056 53.5959 96.6861 52.8918C96.4248 52.5421 96.1674 52.1874 95.9141 51.8276L95.1725 50.73C94.8868 50.3237 94.595 49.9205 94.3033 49.5173C93.9997 49.1174 93.7245 48.697 93.4796 48.259C93.124 47.5829 92.6377 46.9978 92.3246 46.2883C92.1453 45.9002 91.8231 45.5394 91.6438 45.124C91.3003 44.2145 90.8201 43.3534 90.4919 42.4287C89.6651 40.2578 88.8323 38.0597 88.4463 35.7221C88.3712 35.1245 88.2502 34.5337 88.0847 33.9545C87.9357 33.3482 87.7807 32.7569 87.5892 32.1687C87.475 31.8168 87.4136 31.45 87.4069 31.0802C87.3826 30.6955 87.3826 30.3098 87.4069 29.9251C87.498 28.1272 87.9692 26.4233 88.4494 24.7709C89.0573 22.7243 89.2518 20.6384 89.9691 18.6889C90.3919 17.5215 90.9062 16.3892 91.507 15.3022C91.933 14.5221 92.2743 13.6988 92.5252 12.8464C92.7858 12.0624 92.9362 11.2461 92.972 10.4208C93.0168 9.72303 92.8287 9.03005 92.4371 8.45011C91.972 7.78006 91.0845 7.16461 90.0603 6.58248C89.0256 5.96732 87.9582 5.40862 86.8628 4.90887C85.7838 4.43589 84.7596 3.8416 83.7049 3.35953C82.1487 2.6531 80.7536 1.71627 79.24 0.961321C78.2733 0.467313 77.2799 0.0269849 76.2644 -0.357587C76.0243 -0.448545 76.0274 -0.521331 76.1186 -0.606224C76.2572 -0.76186 76.447 -0.862927 76.6537 -0.89128C76.8605 -0.919632 77.0706 -0.873332 77.2462 -0.76078C77.8814 -0.430303 78.5258 -0.127154 79.1397 0.257898C79.8266 0.688429 80.6594 0.882462 81.3737 1.30996C82.6203 2.04157 83.9115 2.69469 85.2398 3.26552C86.1516 3.6627 87.0269 4.11755 87.9509 4.46319C88.6206 4.72151 89.2681 5.03377 89.887 5.39696C90.4949 5.75473 91.124 6.12158 91.6955 6.52482C92.1072 6.80045 92.4993 7.10438 92.8687 7.43439C93.2338 7.76367 93.5276 8.16405 93.7319 8.61081C94.1013 9.53373 94.2631 10.5263 94.206 11.5184C94.1698 12.5111 94.0559 13.4995 93.8656 14.4745C93.734 15.0762 93.5541 15.6662 93.3276 16.2391C92.718 17.757 92.2172 19.3164 91.8292 20.9052C91.6833 21.5995 91.3459 22.2392 91.1544 22.9184C90.7818 24.3532 90.5307 25.8166 90.4037 27.2934C90.3825 27.7322 90.2586 28.16 90.042 28.5426C89.778 28.9735 89.6033 29.4529 89.5284 29.9524C89.4459 30.4632 89.3941 30.9786 89.3734 31.4956C89.3734 31.532 89.4068 31.5956 89.3977 31.6108C89.1804 31.9643 89.1055 32.3869 89.188 32.7933C89.2092 32.9964 89.2457 33.2026 89.2731 33.3997C89.2883 33.5028 89.2974 33.6028 89.3095 33.7029C89.3248 33.8033 89.3339 33.9045 89.3369 34.0061C89.3369 34.3305 89.3551 34.6579 89.3734 34.9854C89.3825 35.3144 89.4129 35.6425 89.4645 35.9677C89.5162 36.2921 89.5709 36.6165 89.6287 36.944C89.6797 37.2704 89.7508 37.5933 89.8414 37.9111C90.0056 38.4872 90.1454 39.0693 90.352 39.6272C90.5587 40.1851 90.7684 40.746 90.9994 41.2948C91.197 41.7253 91.3824 42.1709 91.5648 42.6197C91.7471 43.0684 91.9568 43.505 92.1544 43.9446C92.814 45.3969 93.6741 46.7431 94.4552 48.1287C94.8017 48.7048 95.1725 49.2656 95.5433 49.8235C95.9141 50.3813 96.3153 50.918 96.6801 51.4789C96.8787 51.8391 97.1307 52.1672 97.4278 52.4521C97.4972 52.4944 97.5482 52.5612 97.5707 52.6392C97.5933 52.7173 97.5856 52.8009 97.5493 52.8736H97.5676L97.6253 52.9524V52.9342C98.2475 53.4835 98.7843 54.1222 99.218 54.8292C99.218 54.8292 99.218 54.8291 99.2423 54.814V54.8443H99.224L99.2423 54.8686L99.2757 54.8837ZM93.358 46.7855C93.2942 46.6763 93.3246 46.5096 93.1392 46.4429C93.2182 46.5794 93.2911 46.6794 93.358 46.7855ZM94.0875 47.8497C94.0613 47.7861 94.0308 47.7243 93.9963 47.6648C93.9568 47.6072 93.9264 47.6193 93.9416 47.6829C93.9536 47.7242 93.9744 47.7625 94.0024 47.7951C94.0054 47.8164 94.0449 47.8254 94.0875 47.8497Z" fill="#BFEF5B"/>
<path d="M97.6405 52.9644L97.6556 52.9342L97.5676 52.8918L97.5767 52.9039L97.6405 52.9644Z" fill="#BFEF5B"/>
<path d="M102.516 59.268C101.939 58.8897 101.439 58.4062 101.042 57.843C100.798 57.5398 100.294 57.3882 100.309 56.8849H100.327C99.9869 56.7333 99.9474 56.4211 99.8441 56.1421H99.8623L99.841 56.1179L98.9961 55.5115C99.0265 55.6509 99.0174 55.748 99.063 55.8147C99.4459 56.3271 99.8198 56.8546 100.212 57.3549C100.555 57.7915 100.792 58.3129 101.242 58.6737C101.631 58.9769 101.926 59.5227 102.458 59.4863C102.649 59.4833 102.637 59.3408 102.516 59.268Z" fill="#BFEF5B"/>
<path d="M100.124 54.0072C100.148 54.0072 100.151 53.9558 100.163 53.9286C100.175 53.9014 100.093 53.8803 100.081 53.8893C100.069 53.8984 100.057 53.9437 100.045 53.9709C100.033 53.9981 100.111 54.0163 100.124 54.0072Z" fill="#BFEF5B"/>
<path d="M100.47 57.0694H100.488V57.0422C100.459 56.969 100.404 56.9088 100.334 56.8728C100.331 56.9847 100.276 57.1299 100.47 57.0694Z" fill="#BFEF5B"/>
<path d="M99.273 54.8838H99.2576V54.8993L99.273 54.8838Z" fill="#BFEF5B"/>
<path d="M100.741 55.1019H100.789V55.0565C100.774 55.0565 100.75 55.0383 100.741 55.0414C100.732 55.0444 100.741 55.0868 100.741 55.1019Z" fill="#BFEF5B"/>
<path d="M186.932 38.2205C187.339 38.648 187.309 38.742 186.671 38.9997C185.382 39.5242 184.014 39.7668 182.659 40.0608C181.893 40.2246 181.154 40.5186 180.376 40.646C179.786 40.74 179.23 40.9492 178.631 41.0401C178.303 41.0856 177.969 41.2736 177.619 41.31C176.859 41.3888 176.124 41.5859 175.376 41.7132C173.595 42.0164 171.863 42.5288 170.091 42.8805C169.175 43.079 168.303 43.4406 167.516 43.9478C167.017 44.2139 166.477 44.3933 165.918 44.4784C165.267 44.6139 164.609 44.7151 163.948 44.7815C163.276 44.8513 162.647 44.8876 162.082 44.9816C161.484 45.056 160.928 45.327 160.501 45.7517C160.212 46.11 159.997 46.5223 159.869 46.9645C159.626 47.6103 159.462 48.4804 159.21 49.4324C158.836 50.8271 158.906 52.24 159.009 53.659C159.058 54.4018 159.115 55.1446 159.131 55.8904C159.179 57.7854 158.857 59.6742 159.021 61.5752C159.103 62.5 159.058 63.4308 159.128 64.3404C159.237 65.6835 159.073 67.0054 159.128 68.3364C159.159 69.1918 159.251 70.0439 159.404 70.8862C159.441 71.0833 159.377 71.1136 159.255 71.0864C158.906 71.0045 158.587 70.8438 158.574 70.3799C158.544 69.8143 158.544 69.2475 158.574 68.682C158.623 68.0423 158.392 67.3935 158.432 66.7386C158.484 65.5988 158.452 64.4566 158.334 63.3216C158.264 62.5485 158.252 61.7602 158.131 60.9901C157.948 59.8531 158.131 58.7253 158.188 57.6004C158.206 56.7966 158.159 55.9925 158.049 55.1961C157.897 53.6407 157.392 52.1642 157.204 50.6028C157.158 50.1177 157.158 49.6295 157.204 49.1444C157.246 48.4649 157.322 47.788 157.432 47.1161C157.547 46.3805 157.77 45.6657 158.091 44.9938C158.252 44.6894 158.474 44.4219 158.745 44.2085C159.005 44.0032 159.282 43.8187 159.571 43.6567C160.695 43.0391 161.897 42.577 163.146 42.2833C163.489 42.1671 163.859 42.1597 164.206 42.262C165.012 42.5652 165.842 42.3681 166.665 42.262C166.696 42.262 166.738 42.2135 166.75 42.2195C167.422 42.6076 168.027 42.074 168.671 42.0285C169.714 41.9487 170.75 41.8039 171.774 41.595C172.705 41.407 173.619 41.1826 174.537 40.9461C175.27 40.7551 176.039 40.6247 176.789 40.4762C178.036 40.2306 179.261 39.891 180.507 39.6697C181.561 39.4787 182.586 39.1755 183.634 38.9875C183.962 38.9636 184.282 38.8804 184.579 38.7419C184.607 38.7211 184.638 38.7063 184.671 38.6986C184.704 38.691 184.739 38.6905 184.773 38.6975C184.806 38.7044 184.838 38.7184 184.865 38.7387C184.893 38.7589 184.915 38.7848 184.932 38.8147H184.95L185.026 38.7966C185.615 38.4916 186.259 38.3052 186.92 38.2478C186.92 38.2478 186.92 38.2477 186.92 38.2205H186.941H186.965H186.932ZM179.209 40.2307C179.112 40.2519 178.987 40.164 178.905 40.3216L179.209 40.2307ZM180.191 39.9275C180.135 39.9278 180.08 39.9339 180.026 39.9456C179.975 39.9456 179.978 39.9911 180.026 40.0002C180.059 40.0077 180.094 40.0077 180.127 40.0002C180.148 39.9851 180.16 39.9608 180.191 39.9335V39.9275Z" fill="#BFEF5B"/>
<path d="M185.008 38.7903L184.99 38.7661L184.932 38.8236H184.944L185.008 38.7903Z" fill="#BFEF5B"/>
<path d="M191.199 37.4928C190.744 37.8021 190.224 38.0032 189.68 38.081C189.376 38.1416 189.105 38.5115 188.74 38.2569C188.525 38.4812 188.281 38.363 188.041 38.3235H188.02L187.303 38.7753C187.415 38.8147 187.482 38.8663 187.537 38.8572C188.038 38.7571 188.543 38.6813 189.035 38.5812C189.464 38.4933 189.923 38.5327 190.333 38.3205C190.692 38.1356 191.178 38.1417 191.324 37.6687C191.403 37.4777 191.293 37.4049 191.199 37.4928Z" fill="#BFEF5B"/>
<path d="M186.549 37.0681C186.549 37.0439 186.519 37.0227 186.5 36.9955C186.482 36.9683 186.443 37.0348 186.446 37.05C186.449 37.0651 186.476 37.0983 186.494 37.1225C186.512 37.1467 186.549 37.0832 186.549 37.0681Z" fill="#BFEF5B"/>
<path d="M188.923 38.2051L188.907 38.187V38.2051C188.844 38.2051 188.777 38.2052 188.734 38.2626C188.816 38.2838 188.907 38.4017 188.923 38.2051Z" fill="#BFEF5B"/>
<path d="M187.558 37.0378L187.585 37.0014L187.552 36.9773C187.552 36.9773 187.525 37.0014 187.525 37.0135C187.525 37.0256 187.546 37.0287 187.558 37.0378Z" fill="#BFEF5B"/>
<path d="M148.714 168.216C149.395 168.956 149.246 168.992 147.45 168.577C143.83 167.783 140.134 167.061 136.411 167.137C134.322 167.229 132.252 167.564 130.241 168.134C128.728 168.57 127.263 169.155 125.867 169.881C125.459 170.076 125.069 170.309 124.703 170.575C124.323 170.839 123.931 171.091 123.56 171.36C121.919 172.462 120.513 173.875 119.421 175.52C119.339 175.638 119.251 175.757 119.172 175.878L118.928 176.266L118.503 177.027C118.235 177.552 117.998 178.1 117.764 178.658C117.302 179.771 116.883 180.92 116.421 182.075C115.969 183.264 115.427 184.418 114.801 185.525C114.134 186.732 113.198 187.769 112.065 188.557C111.449 188.963 110.77 189.265 110.056 189.452C109.877 189.494 109.695 189.531 109.509 189.57C109.324 189.609 109.142 189.622 108.956 189.646C108.578 189.681 108.198 189.686 107.819 189.661C107.069 189.614 106.329 189.46 105.622 189.203C104.956 188.964 104.311 188.674 103.692 188.333C102.306 187.584 101.087 186.393 99.9747 185.365C99.8106 185.222 99.6525 185.062 99.4914 184.928L99.0112 184.516C98.7073 184.24 98.379 183.958 98.0416 183.706C97.7043 183.455 97.3882 183.173 97.0386 182.933L96.0052 182.203C94.5855 181.267 93.0876 180.456 91.5282 179.777C89.5713 178.959 87.5187 178.39 85.419 178.085C83.3191 177.778 81.2051 177.575 79.0849 177.479C77.781 177.394 76.4802 177.379 75.1823 177.354C73.8845 177.33 72.5928 177.354 71.3132 177.388C67.5261 177.455 63.7573 178.297 60.034 179.319C58.0797 179.85 56.1314 180.423 54.171 180.968C49.1651 182.366 44.1167 183.394 39.3509 185.395C37.041 186.362 34.7158 187.329 32.5913 188.554C31.026 189.464 29.5033 190.373 28.0596 191.395C26.6226 192.407 25.2953 193.565 24.0992 194.852C23.3267 195.686 22.6271 196.585 22.0081 197.538C21.3885 198.477 20.8584 199.472 20.4246 200.509C20.2179 200.997 20.1207 201.028 20.0629 200.894C19.9449 200.659 19.8974 200.395 19.9261 200.133C19.9455 199.938 19.9873 199.746 20.0508 199.56C20.1467 199.309 20.2626 199.065 20.3972 198.832C21.1512 197.492 22.0557 196.242 23.0932 195.106C24.2694 193.851 25.4244 192.459 26.862 191.398C29.3633 189.561 32.016 187.938 34.7918 186.547C36.6793 185.592 38.6762 184.786 40.6214 183.955C43.4936 182.742 46.4904 182.021 49.466 181.257C51.621 180.711 53.7029 180.029 55.7819 179.395C59.8516 178.164 63.6843 176.706 67.8817 175.826C69.1936 175.565 70.5202 175.384 71.8542 175.284C75.4352 175.003 79.0327 175.003 82.6137 175.284C83.396 175.349 84.1736 175.462 84.9418 175.623L86.0907 175.884C86.4737 175.966 86.8536 176.063 87.2305 176.157C88.8493 176.525 90.4464 176.983 92.0145 177.527C92.4036 177.67 92.8048 177.791 93.1877 177.952L94.3427 178.425C94.7257 178.588 95.0995 178.776 95.4794 178.955C95.6648 179.046 95.8563 179.131 96.0417 179.228L96.5918 179.531C97.0399 179.762 97.4688 180.027 97.8745 180.326C98.0751 180.471 98.2665 180.629 98.452 180.777C98.5431 180.853 98.6313 180.932 98.7194 181.014C98.8076 181.096 98.8836 181.184 98.9595 181.272C99.303 181.678 99.6951 182.042 100.072 182.442C100.449 182.842 100.853 183.224 101.242 183.627C102.026 184.428 102.832 185.231 103.674 185.98C103.734 186.038 103.862 186.092 103.88 186.12C104.361 186.836 105.031 187.406 105.816 187.766C106.613 188.143 107.47 188.376 108.348 188.454C109.051 188.529 109.761 188.459 110.435 188.247C111.108 188.035 111.731 187.687 112.263 187.223C113.354 186.292 114.123 185.046 114.755 183.773C115.904 181.451 116.624 178.98 117.719 176.636C118.646 174.741 119.956 173.057 121.567 171.691C122.882 170.545 124.338 169.571 125.901 168.792C127.466 168.018 129.116 167.429 130.818 167.037C131.533 166.855 132.259 166.734 132.983 166.609C133.344 166.552 133.712 166.515 134.074 166.467L134.621 166.397L135.171 166.358C136.638 166.241 138.113 166.256 139.578 166.403C140.469 166.482 141.356 166.664 142.247 166.688C142.614 166.706 143.006 166.806 143.122 166.991H143.171L143.383 167.025L143.362 167.004C145.159 167.176 146.927 167.574 148.623 168.189C148.623 168.189 148.623 168.189 148.638 168.165L148.681 168.198H148.641L148.702 168.219L148.714 168.216ZM127.323 168.453C127.08 168.562 126.767 168.577 126.536 168.829L127.323 168.453ZM129.919 167.464C129.743 167.51 129.615 167.537 129.484 167.58C129.353 167.622 129.344 167.658 129.484 167.637C129.573 167.621 129.661 167.597 129.746 167.564C129.801 167.539 129.854 167.508 129.904 167.473L129.919 167.464Z" fill="#BFEF5B"/>
<path d="M143.341 167.016L143.31 166.985L143.119 167L143.149 167.003L143.341 167.016Z" fill="#BFEF5B"/>
<path d="M159.69 172.628C158.271 172.252 156.883 171.766 155.541 171.173C154.745 170.842 153.796 170.803 153.125 170.196C153.125 170.196 153.146 170.196 153.158 170.196C152.441 170.114 151.942 169.745 151.395 169.46H151.429L151.368 169.441L151.395 169.457L150.362 169.244L149.259 169.038C149.423 169.153 149.597 169.255 149.778 169.341C151.088 169.784 152.38 170.29 153.657 170.794C154.766 171.224 155.827 171.806 157 172.155C158.012 172.458 159.167 173.064 159.924 172.922C160.185 172.867 159.978 172.692 159.69 172.628Z" fill="#BFEF5B"/>
<path d="M148.626 166.934C148.626 166.912 148.584 166.867 148.556 166.831C148.529 166.795 148.38 166.804 148.374 166.831C148.368 166.858 148.42 166.897 148.444 166.934C148.468 166.97 148.617 166.949 148.626 166.934Z" fill="#BFEF5B"/>
<path d="M153.625 170.372H153.656L153.628 170.338V170.357C153.483 170.276 153.325 170.222 153.161 170.196C153.298 170.305 153.416 170.505 153.625 170.372Z" fill="#BFEF5B"/>
<path d="M148.697 168.219H148.66L148.681 168.238L148.697 168.219Z" fill="#BFEF5B"/>
<path d="M151.222 167.967H151.316L151.249 167.913C151.216 167.913 151.161 167.913 151.158 167.913C151.155 167.913 151.198 167.949 151.222 167.967Z" fill="#BFEF5B"/>
<path d="M29.9317 152.936C29.3239 153.136 29.26 153.051 29.4485 152.193C29.8284 150.471 30.4879 148.824 31.1049 147.16C31.4484 146.223 31.6733 145.238 32.0593 144.307C32.3633 143.6 32.5213 142.864 32.8313 142.157C33.0046 141.769 33.0562 141.29 33.2477 140.884C33.6611 140.002 33.965 139.065 34.3297 138.179C34.7674 137.112 35.1504 136.027 35.5455 134.938C35.9406 133.85 36.3236 132.767 36.6032 131.746C36.7456 131.246 36.79 130.725 36.7339 130.209C36.6844 129.744 36.5136 129.301 36.2385 128.923C35.9345 128.523 35.7187 128.035 35.3905 127.51C35.0166 126.904 34.5759 126.258 34.1079 125.555C33.6398 124.851 33.196 124.151 32.7219 123.459C31.5487 121.743 29.9591 120.428 28.7038 118.787C27.9371 117.803 27.2366 116.769 26.6066 115.692C25.6948 114.115 24.4122 112.833 23.1022 111.577C22.4153 110.919 21.7193 110.271 21.0476 109.598C19.3364 107.885 17.838 105.977 16.0174 104.298C15.1299 103.476 14.3548 102.533 13.5464 101.645C12.956 100.985 12.4242 100.274 11.9568 99.5225C11.4948 98.7676 11.0449 98.0066 10.6377 97.2183C10.0844 96.206 9.58424 95.1657 9.13923 94.1015C9.02981 93.8469 9.08452 93.7983 9.21218 93.7983C9.4246 93.7993 9.63042 93.8721 9.79603 94.0048C9.96164 94.1375 10.0773 94.3223 10.124 94.529C10.2456 94.8716 10.3854 95.2082 10.513 95.5478C10.6407 95.8873 10.8018 96.2178 10.9386 96.5635C11.2425 97.3305 11.8504 97.9672 12.2789 98.6858C13.035 99.9516 13.9548 101.113 15.0144 102.139C15.7032 102.868 16.4306 103.559 17.1936 104.21C18.3304 105.138 19.2331 106.275 20.1966 107.351C20.9078 108.098 21.6586 108.806 22.4457 109.473C23.932 110.807 25.6036 111.859 27.0869 113.212C27.5385 113.642 27.9562 114.106 28.3361 114.6C29.3816 115.904 30.3937 117.223 31.5669 118.42C32.0347 118.978 32.4719 119.56 32.8769 120.164C33.8313 121.377 34.9042 122.468 35.9163 123.635C36.2375 123.968 36.4696 124.375 36.5911 124.821C36.8129 125.852 37.4664 126.755 37.8068 127.816C37.8068 127.856 37.8767 127.907 37.8737 127.922C37.7891 128.339 37.7994 128.769 37.9041 129.181C38.0064 129.594 38.0322 130.022 37.9801 130.445C37.7247 131.767 37.205 132.998 36.7278 134.25C36.2962 135.384 35.9011 136.521 35.5121 137.67C35.2081 138.58 34.8312 139.507 34.4787 140.423C33.8981 141.939 33.4058 143.482 32.8009 144.971C32.2933 146.241 31.8891 147.545 31.3937 148.812C31.2048 149.185 31.0717 149.583 30.9986 149.995C30.9834 150.171 30.8891 150.334 30.7159 150.34V150.362L30.6825 150.456H30.7037C30.5832 151.29 30.334 152.101 29.9652 152.86C29.9652 152.86 29.9652 152.86 29.9864 152.86H29.9621C29.9621 152.86 29.9621 152.842 29.9621 152.839V152.866L29.9317 152.936ZM33.1383 143.264C33.1839 143.146 33.3359 143.058 33.2629 142.87L33.1383 143.264ZM32.7675 144.516C32.8016 144.455 32.8311 144.391 32.8556 144.325C32.8769 144.258 32.8556 144.243 32.807 144.298C32.7829 144.332 32.7664 144.372 32.7584 144.413C32.7493 144.431 32.7614 144.468 32.7675 144.516Z" fill="#BFEF5B"/>
<path d="M30.6733 150.483L30.7037 150.477L30.6915 150.383L30.6855 150.395L30.6733 150.483Z" fill="#BFEF5B"/>
<path d="M27.8441 158.057C27.8761 157.36 28.0369 156.676 28.3182 156.037C28.4611 155.661 28.3182 155.155 28.762 154.9C28.762 154.9 28.762 154.9 28.762 154.919C28.7164 154.549 28.9656 154.349 29.148 154.109V154.127V154.097L29.227 153.042C29.1237 153.142 29.0386 153.187 29.0112 153.257C28.7742 153.863 28.531 154.47 28.2939 155.076C28.0964 155.598 27.7772 156.08 27.686 156.656C27.6131 157.156 27.3 157.69 27.6009 158.126C27.7256 158.29 27.8441 158.205 27.8441 158.057Z" fill="#BFEF5B"/>
<path d="M31.1327 153.178C31.154 153.178 31.1904 153.178 31.2207 153.178C31.2511 153.178 31.2207 153.096 31.2207 153.09C31.2207 153.084 31.16 153.09 31.1297 153.09C31.0993 153.09 31.1176 153.172 31.1327 153.178Z" fill="#BFEF5B"/>
<path d="M28.6885 155.139V155.157H28.7128H28.6946C28.7427 155.093 28.7653 155.013 28.7583 154.934C28.6885 154.973 28.5338 155.003 28.6885 155.139Z" fill="#BFEF5B"/>
<path d="M30.5186 154.309L30.5337 154.357L30.5732 154.336C30.5732 154.318 30.5732 154.291 30.5732 154.288C30.5732 154.285 30.5337 154.303 30.5186 154.309Z" fill="#BFEF5B"/>
<path d="M215.122 155.431C215.676 155.601 215.703 155.689 215.335 156.21C214.6 157.256 213.651 158.105 212.736 158.99C212.22 159.488 211.794 160.085 211.247 160.555C210.834 160.916 210.512 161.358 210.083 161.707C209.846 161.901 209.685 162.219 209.427 162.413C208.87 162.838 208.393 163.347 207.87 163.808C206.627 164.903 205.536 166.149 204.326 167.28C203.706 167.88 203.209 168.596 202.864 169.387C202.618 169.849 202.286 170.261 201.886 170.6C201.445 171.021 200.978 171.414 200.488 171.776L199.789 172.297C199.629 172.409 199.478 172.531 199.336 172.664C199.297 172.699 199.264 172.74 199.238 172.786C199.228 172.814 199.228 172.845 199.238 172.873C199.291 173.059 199.363 173.238 199.454 173.407C199.758 173.986 200.09 174.602 200.366 175.226C200.698 176.025 200.978 176.844 201.205 177.679C201.539 178.94 202.323 179.974 203.126 180.993C203.551 181.533 203.98 182.066 204.378 182.63C205.393 184.073 206.071 185.735 207.035 187.257C207.475 188.024 207.865 188.819 208.202 189.637C208.758 190.819 208.916 192.12 209.113 193.393C209.232 194.221 209.332 195.049 209.417 195.889C209.439 196.089 209.372 196.11 209.253 196.068C208.913 195.952 208.606 195.764 208.627 195.349C208.627 195.088 208.627 194.827 208.627 194.567C208.627 194.306 208.597 194.045 208.606 193.775C208.606 193.169 208.302 192.608 208.199 192.014C208.021 190.968 207.66 189.961 207.132 189.04C206.812 188.394 206.438 187.775 206.016 187.19C205.366 186.359 204.983 185.389 204.497 184.477C204.111 183.844 203.664 183.251 203.162 182.706C202.251 181.602 201.05 180.765 200.123 179.65C199.841 179.294 199.602 178.908 199.409 178.498C198.859 177.412 198.369 176.306 197.755 175.232C197.526 174.726 197.36 174.193 197.263 173.647C197.172 173.308 197.134 172.957 197.15 172.607C197.176 172.233 197.279 171.868 197.454 171.536C197.765 170.997 198.148 170.503 198.591 170.066C198.801 169.806 199.092 169.623 199.418 169.547C200.211 169.408 200.767 168.865 201.363 168.389C201.384 168.371 201.393 168.313 201.409 168.313C202.147 168.313 202.339 167.589 202.822 167.249C203.601 166.693 204.341 166.086 205.038 165.43C205.673 164.824 206.278 164.217 206.861 163.584C207.338 163.077 207.873 162.607 208.381 162.128C209.232 161.334 210.019 160.473 210.885 159.703C211.615 159.048 212.262 158.311 212.989 157.656C213.233 157.482 213.439 157.26 213.597 157.004C213.607 156.976 213.624 156.95 213.646 156.928C213.668 156.907 213.695 156.891 213.724 156.881C213.753 156.871 213.784 156.868 213.815 156.871C213.845 156.875 213.874 156.885 213.901 156.901V156.886L213.952 156.835H213.934C214.237 156.301 214.652 155.839 215.15 155.479C215.15 155.479 215.15 155.479 215.131 155.458H215.159H215.177L215.122 155.431ZM210.11 160.758C210.044 160.819 209.898 160.806 209.913 160.979L210.11 160.758ZM210.718 160.045C210.676 160.072 210.636 160.103 210.6 160.136C210.569 160.176 210.6 160.2 210.633 160.182C210.662 160.17 210.686 160.15 210.703 160.124C210.718 160.109 210.718 160.082 210.718 160.045Z" fill="#BFEF5B"/>
<path d="M213.907 156.813L213.882 156.804L213.87 156.88L213.876 156.874L213.907 156.813Z" fill="#BFEF5B"/>
<path d="M218.101 152.808C217.913 153.281 217.607 153.698 217.213 154.021C217.004 154.218 216.991 154.655 216.569 154.612C216.517 154.915 216.265 154.915 216.052 155V155.018L215.727 155.737C215.84 155.716 215.919 155.737 215.958 155.692C216.298 155.373 216.657 155.085 216.991 154.755C217.326 154.424 217.666 154.297 217.876 153.924C218.061 153.603 218.447 153.378 218.311 152.911C218.256 152.702 218.137 152.702 218.101 152.808Z" fill="#BFEF5B"/>
<path d="M214.198 154.643C214.183 154.624 214.15 154.618 214.119 154.606C214.089 154.594 214.098 154.667 214.119 154.676C214.141 154.685 214.171 154.703 214.195 154.715C214.219 154.727 214.207 154.655 214.198 154.643Z" fill="#BFEF5B"/>
<path d="M216.687 154.479H216.663H216.678C216.627 154.509 216.575 154.539 216.569 154.606C216.648 154.597 216.797 154.654 216.687 154.479Z" fill="#BFEF5B"/>
<path d="M214.975 154.135V154.091H214.934C214.934 154.091 214.934 154.125 214.934 154.131C214.934 154.138 214.975 154.135 214.975 154.135Z" fill="#BFEF5B"/>
</g>
<defs>
<clipPath id="clip0_217_4406">
<rect width="625" height="390" fill="white" transform="translate(0 -184)"/>
</clipPath>
</defs>
</svg>
