<svg width="197" height="79" viewBox="0 0 197 79" fill="none" xmlns="http://www.w3.org/2000/svg">
<path d="M29.4043 3.01374C28.5094 2.98673 27.6145 3.04074 26.7602 3.18298C23.7757 3.67994 21.1721 5.90905 19.2482 8.10575C15.0663 12.8809 11.1654 21.2283 15.9846 26.8713C16.4735 27.4439 17.0164 27.9634 17.616 28.4189C21.2864 31.2035 25.6951 30.5409 29.3764 28.1939C30.0957 27.7347 30.7466 27.1657 31.402 26.6184C31.4011 33.1995 31.3624 39.7986 30.9519 46.368C30.6575 51.0792 30.238 55.7976 29.1792 60.407C28.0422 65.3577 26.0075 71.7831 20.4861 73.2928C14.3893 74.9593 7.53004 71.4347 4.98403 65.7241C4.07384 63.6832 3.85867 61.5225 4.05583 59.3105C4.9084 49.744 11.4715 41.5181 19.1635 36.2685C19.9504 35.7338 20.1485 34.6642 19.6137 33.8774C19.0789 33.0896 18.0094 32.8916 17.2225 33.4272C10.4479 38.0088 4.75715 44.4377 1.86093 52.164C0.724766 55.1971 -0.0674831 58.529 0.00453982 61.7863C0.217908 71.4517 9.33511 79.1456 18.8259 78.582C20.8561 78.4614 22.942 77.9878 24.7624 77.0623C31.4705 73.653 33.9085 64.9049 35.0878 58.1284C35.8612 53.6783 36.1817 49.1831 36.4662 44.6808C36.8533 38.5373 37.0442 32.3748 37.2818 26.2249C37.3764 23.7671 37.5249 21.3085 37.6753 18.8534C38.1758 17.8406 38.4432 16.7071 38.7448 15.5898C38.9285 15.2909 39.2319 15.0488 39.3354 14.7463C39.7378 13.5687 39.6604 12.374 39.42 11.2009C39.3696 10.2385 39.1058 9.34725 38.5197 8.5847C38.0309 7.59169 37.4574 6.61848 36.6912 5.85504C34.7916 3.96353 32.0881 3.09567 29.4043 3.01374ZM30.698 8.19039C31.4372 8.27952 32.1241 8.5415 32.7525 8.89441C31.8909 10.3079 31.7081 12.4415 31.6271 13.8739C31.601 14.3249 31.5929 14.7724 31.5704 15.2243C31.556 15.5142 31.5542 15.8059 31.5425 16.0967C30.2929 18.2799 28.721 20.3064 26.7314 21.8351C24.8327 23.2945 22.2317 24.5369 20.6265 21.9486C19.846 20.69 20.3564 18.7309 20.7391 17.475C21.561 14.7724 23.1131 12.1706 25.128 10.1881C25.8284 9.4994 26.753 8.62522 27.7442 8.38755C28.6535 8.16968 29.6906 8.06975 30.698 8.19039Z" fill="#4C40DC"/>
<path d="M52.4183 4.05459C49.4221 3.63145 47.2713 7.17228 46.1442 9.59765C44.8874 12.3021 43.9088 15.1407 43.1057 18.009C42.6078 19.7871 42.1451 21.5508 41.8957 23.3829C41.3123 27.6646 41.333 32.0148 41.1359 36.3245C40.972 37.385 41.6788 38.3834 42.7402 38.5473C43.8007 38.7111 44.7983 37.9765 44.9621 36.9151C46.0433 32.8611 47.0138 28.7999 48.2535 24.79C49.2727 21.4958 50.0388 18.0991 50.9544 14.7743C51.2758 13.6084 51.5963 12.3985 52.0239 11.229C52.0798 11.4018 52.1707 11.5621 52.2211 11.7358C52.9665 14.2891 53.2988 16.9755 53.7966 19.5845C55.0039 25.9217 56.348 32.3839 59.0012 38.2943C59.3847 39.1649 60.4092 39.5502 61.2798 39.1658C62.1513 38.7823 62.5645 37.7866 62.1801 36.9151C61.1033 34.4258 60.3183 31.8528 59.8456 29.1789C59.0561 24.7153 58.9985 20.1625 58.3818 15.6746C57.9523 12.5434 57.405 8.33096 55.3154 5.79935C54.8734 5.26368 54.3602 4.82343 53.7399 4.50473C53.2781 4.26796 52.8459 4.11581 52.4183 4.05459Z" fill="#4C40DC"/>
<path d="M78.4985 5.85502C77.7018 5.68667 76.887 5.75509 76.1074 5.96846C71.6581 7.18025 70.4094 12.3578 70.143 16.3497C69.9962 18.5392 70.1565 20.7674 70.7903 22.8767C71.4106 24.942 72.4558 26.7318 73.6874 28.4189C73.5676 28.7511 73.5091 29.104 73.3786 29.4317C72.7205 31.0793 72.0003 32.7376 71.1558 34.2987C70.9334 34.7092 70.6768 35.09 70.4248 35.4808C70.3149 35.2395 70.1718 35 70.0862 34.7488C69.6514 33.4722 69.3813 32.0471 69.5524 30.6975C69.7945 29.6523 69.1346 28.6053 68.0894 28.3622C67.0442 28.12 65.9971 28.7799 65.7541 29.8261C64.8889 32.6557 65.0725 36.7493 66.5985 39.3349C68.301 42.2212 71.3962 42.4823 73.8846 40.5449C75.9795 38.9136 77.4677 36.4675 78.639 33.989C78.855 34.206 79.0441 34.449 79.2584 34.6642C80.6574 36.0723 81.9889 37.5199 83.2817 39.0252C83.8975 39.7508 85.0031 39.8382 85.7296 39.2224C86.4553 38.6066 86.5417 37.5289 85.9259 36.8033C84.3936 34.9748 82.7488 33.249 81.1436 31.4853C80.7654 31.0703 80.4963 30.5877 80.1307 30.1628C81.7675 25.1428 82.5732 19.9256 82.5498 14.6328C82.5363 11.4044 82.5138 6.70489 78.4985 5.85502ZM76.9518 11.679C76.9905 12.1318 76.9995 12.5766 76.9797 13.0294C76.842 16.1138 76.2361 19.1748 75.5168 22.1736C75.4096 21.7334 75.2404 21.3129 75.1792 20.8511C74.8605 18.4644 75.253 15.8527 75.9102 13.5642C76.0921 12.9331 76.4468 12.2048 76.9518 11.679Z" fill="#4C40DC"/>
<path d="M126.358 1.10088C126.024 1.11799 125.697 1.1576 125.373 1.24223C123.804 1.64826 122.63 2.76371 121.688 4.02682C120.935 5.03604 120.334 6.13979 119.831 7.26244C119.838 7.01847 119.823 6.77449 119.831 6.53051C119.896 5.46007 119.073 4.54268 118.002 4.47696C116.931 4.41124 116.014 5.20619 115.949 6.27753C115.231 14.246 114.985 22.2405 114.429 30.2198C114.312 31.8997 114.237 33.5724 114.204 35.256C114.177 36.6478 113.762 37.9226 114.767 39.0543C115.356 39.7178 116.213 40.0968 117.102 40.0383C117.25 40.0284 117.406 39.9816 117.552 39.9546C117.614 39.942 117.701 39.9384 117.72 39.8979C117.724 39.8915 117.752 39.9069 117.749 39.8979C117.881 39.8456 118.017 39.824 118.143 39.7574C118.33 39.6575 118.507 39.5458 118.677 39.4198C119.148 39.0696 119.465 38.5537 119.662 38.0127C120.296 36.2751 120.625 34.4718 120.843 32.6388C121.518 27.0075 122.584 21.4042 124.079 15.9277C124.609 13.9858 125.146 11.988 125.936 10.1317C125.982 10.0227 126.054 9.93089 126.105 9.82285C126.115 9.85977 126.123 9.89848 126.133 9.93539C126.426 11.0373 126.714 12.1321 126.92 13.2548C127.334 15.5019 127.48 17.785 127.624 20.0636C127.498 20.7559 127.357 21.4492 127.258 22.1451C127.057 23.5549 126.912 24.9702 126.865 26.3935C126.791 28.5767 126.832 31.13 127.962 33.089C128.364 33.7885 128.951 34.3602 129.734 34.6366C129.914 34.7005 130.081 34.7653 130.269 34.8058C130.365 34.8265 130.522 34.8742 130.578 34.8337C130.588 34.8265 130.633 34.8517 130.634 34.8337C130.687 34.84 130.853 34.8454 131.028 34.8337C131.431 34.8067 131.846 34.6978 132.21 34.524C134.145 33.5994 133.985 31.8979 134.095 30.0226C134.176 28.647 134.354 27.2677 134.376 25.8867C134.408 23.8673 134.323 21.8552 134.235 19.8385C134.197 18.9752 134.103 18.1118 134.039 17.2502C134.35 15.7359 134.718 14.2658 135.192 12.8046C135.528 11.7711 136.056 10.7006 136.851 9.93539C136.96 10.138 137.05 10.3405 137.133 10.5539C137.391 11.2075 137.571 11.8953 137.724 12.5795C138.183 14.6304 138.405 16.7344 138.568 18.8257C138.693 20.4381 138.784 22.0488 138.849 23.6648C138.892 24.7298 138.922 25.8066 138.962 26.8716C139.054 29.3483 139.143 31.9132 140.256 34.1864C141.001 35.7079 142.252 37.0106 143.97 37.3374C147.309 37.973 150.202 34.9364 152.101 32.6109C152.272 32.4021 152.384 32.1482 152.551 31.9357C153.712 34.696 155.699 37.6021 158.881 37.9568C161.719 38.2728 164.252 36.493 166.195 34.6366C169.695 31.2956 172.501 27.437 175.142 23.4109C175.666 22.6169 175.458 21.5437 174.664 21.0197C173.869 20.4967 172.796 20.7037 172.272 21.4987C169.633 25.4888 166.812 29.5247 163.157 32.6676C161.92 33.7318 159.912 35.1128 158.29 33.9893C156.561 32.7928 155.705 30.0892 155.167 28.0816C157.001 25.171 158.677 22.1352 160.063 19.0229C161.156 16.566 162.504 13.7949 162.482 11.0319C162.455 7.70718 160.735 4.02772 156.883 4.25189C156.192 4.2924 155.495 4.46705 154.857 4.72993C154.271 4.97301 153.718 5.28721 153.226 5.68694C151.21 7.32276 150.328 9.96331 149.934 12.4391C149.274 16.5939 149.825 21.2439 150.694 25.4366C150.157 26.2639 149.708 27.1516 149.119 27.9411C148.233 29.1277 147.277 30.3071 146.136 31.2605C145.818 31.5261 145.446 31.7259 145.067 31.9078C145.005 31.7818 144.951 31.6584 144.898 31.5135C144.67 30.8887 144.534 30.2036 144.448 29.5445C144.189 27.5387 144.269 25.4834 144.195 23.4676C144.133 21.7841 144.038 20.1113 143.913 18.4314C143.816 17.126 143.719 15.8188 143.548 14.5215C143.468 13.9138 143.346 13.2493 143.238 12.6363C142.631 9.18275 141.294 4.15555 136.936 4.11144C136.32 4.10514 135.71 4.22578 135.135 4.44905C133.906 4.9262 132.965 5.81659 132.154 6.84021C131.472 4.53278 130.527 2.17402 128.074 1.35386C127.526 1.1711 126.937 1.07298 126.358 1.10088ZM157.221 8.78123C157.315 8.82264 157.445 9.14224 157.474 9.23137C157.527 9.39612 157.575 9.54197 157.615 9.71032C157.653 9.87057 157.682 10.0524 157.699 10.2163C157.831 11.4722 157.453 12.5246 156.996 13.677C156.111 15.9052 155.008 18.0335 153.873 20.1483C153.751 18.2874 153.678 16.4148 153.873 14.6619C153.931 14.1388 153.997 13.6878 154.098 13.171C154.195 12.6741 154.336 12.1618 154.492 11.6793C154.818 10.6736 155.332 9.44204 156.349 8.95048C156.575 8.84155 156.967 8.67229 157.221 8.78123Z" fill="#4C40DC"/>
<path d="M185.776 2.05766C185.446 2.04146 185.094 2.09729 184.791 2.22603C183.846 2.62936 183.042 3.79163 182.485 4.70182C182.416 4.78464 182.358 4.87467 182.287 4.95479C181.53 5.82717 180.74 6.70135 179.981 7.57192C179.511 8.10939 178.889 8.79901 178.461 9.3725C177.738 10.3412 177.122 11.4189 176.52 12.4668C174.701 15.6376 173.492 19.1109 171.85 22.37C170.372 25.3031 168.726 28.2056 167.349 31.2045C166.921 31.4241 166.572 31.7986 166.449 32.3019C166.043 33.8819 165.729 35.5276 165.239 37.0842C164.869 38.2573 164.198 39.6807 165.267 40.6854C165.393 40.8042 165.539 40.8934 165.576 40.9105C165.572 40.9177 165.58 40.9321 165.576 40.9384C165.573 40.9438 165.601 40.9438 165.604 40.9384C165.624 40.9591 165.824 41.0815 165.998 41.1355C166.26 41.2175 166.541 41.2238 166.814 41.1914C167.479 41.113 168.007 40.6809 168.361 40.1227C169.236 38.7444 169.576 37.2238 170.303 35.7896C170.633 35.136 171.189 34.4131 171.541 33.8486C172.192 32.8034 172.67 31.9895 173.284 30.9227C174.706 28.4586 176.009 25.9441 177.505 23.5241C179.08 20.9754 180.713 18.4474 182.287 15.8996C183.287 14.2827 184.298 12.7333 185.157 11.0317C185.515 10.3241 185.879 9.63538 186.226 8.92235C186.402 8.56314 186.563 8.18592 186.733 7.82491C186.902 7.46299 187.076 7.12088 187.239 6.75536C187.634 5.87308 188.234 4.90618 187.999 3.88615C187.909 3.49633 187.732 3.11731 187.464 2.81752C187.22 2.54293 186.922 2.37458 186.592 2.22603C186.587 2.22423 186.597 2.19992 186.592 2.19811C186.595 2.18911 186.565 2.20532 186.564 2.19811C186.558 2.12249 186.382 2.1333 186.283 2.11349C186.117 2.08108 185.944 2.06577 185.776 2.05766Z" fill="#4C40DC"/>
<path d="M173.763 0.510246C172.707 0.320286 171.703 1.0018 171.512 2.05783C170.292 5.99929 169.191 10.1244 169.008 14.2675C168.948 15.6531 169.086 17.0269 169.233 18.4035C169.685 22.6096 170.984 26.5925 172.553 30.5015C173.173 32.0437 173.752 33.684 174.607 35.1146C175.481 36.5767 176.778 37.7929 178.039 38.9129C181.163 41.6867 185.305 44.5964 189.687 43.1055C192.738 42.0666 194.852 39.2568 196.664 36.7468C197.228 35.9798 197.066 34.9183 196.299 34.3556C195.532 33.792 194.442 33.9541 193.879 34.7212C192.604 36.4263 191.101 38.5807 188.956 39.2505C186.245 40.0968 183.288 36.7612 181.584 35.0867C181.289 34.7968 181.001 34.5114 180.712 34.2143C180.167 33.6552 179.618 33.0646 179.221 32.3858C178.778 31.6287 178.451 30.6482 178.152 29.8263C177.158 27.0948 176.656 24.258 176.295 21.3852C175.993 18.9787 175.919 16.5669 175.705 14.155C175.365 10.3369 175.139 6.59709 175.338 2.76096C175.529 1.70493 174.82 0.700207 173.763 0.510246Z" fill="#4C40DC"/>
</svg>
