<svg width="456" height="98" viewBox="0 0 456 98" fill="none" xmlns="http://www.w3.org/2000/svg">
<path d="M17.8904 2.94637C13.838 3.46083 10.5381 7.47576 8.4737 10.6404C8.0467 11.2952 7.57341 12.0507 7.18757 12.7305C5.89335 15.014 4.81594 17.4209 3.88037 19.8726C3.2329 21.5718 2.66112 23.3099 2.18121 25.0634C1.70644 26.7979 1.30812 28.5485 1.00973 30.3226C0.793663 31.6087 0.624624 32.903 0.527613 34.2038C0.476168 34.8968 0.51291 35.6516 0.504826 36.3858C0.164552 39.069 -0.0757692 41.7721 0.0219768 44.47C0.14618 47.8926 0.846574 53.1327 4.93721 54.0242C5.29071 54.1013 5.67802 54.141 6.0396 54.1388C8.40756 54.1271 10.3515 52.7153 12.0109 50.9926C16.9475 50.8015 21.6011 47.5038 25.1023 44.1254C28.6064 40.7439 31.5366 36.7996 34.2426 32.7339C32.9455 37.9439 31.6873 43.1648 30.6143 48.4203C30.5165 48.8965 30.4291 49.3221 30.3379 49.7983C30.0373 51.3806 29.2642 54.0109 30.6598 55.3103C30.8627 55.4992 31.0773 55.716 31.3257 55.8387C31.652 55.9989 31.9967 56.1334 32.359 56.1599C32.7448 56.1885 33.1402 56.1209 33.5077 55.9989C33.8046 55.9005 34.0648 55.6858 34.3117 55.494C35.3546 54.6849 35.617 53.0085 35.8962 51.8194C36.0116 51.3277 36.1101 50.8081 36.2637 50.3267C36.4489 49.7454 36.7517 49.2074 36.9986 48.6496C37.7909 46.8608 38.7265 45.0874 39.4099 43.253C39.9979 41.6751 40.2808 40.0039 40.627 38.3606C40.8041 37.5227 40.9592 36.7173 40.9717 35.8574C40.9849 34.9865 40.9775 34.1251 40.9944 33.2623C41.0238 33.3072 41.0826 33.3366 41.1098 33.377C41.5126 33.9936 41.8543 34.6638 42.2122 35.3062C42.8457 36.4453 43.4006 37.5433 44.3016 38.4987C44.6845 38.9044 45.0123 39.3924 45.4967 39.6702C45.9722 39.9436 46.5439 39.9686 47.0812 40.0832C47.4464 40.1611 47.8337 40.2618 48.2063 40.2442C48.6223 40.2251 49.0251 40.1134 49.4234 39.9914C49.6468 39.923 49.8519 39.7459 50.0665 39.6239C50.1083 40.5345 50.0944 41.4568 50.2274 42.3571C50.7654 46.0105 52.3866 49.8372 56.0378 51.3145C56.661 51.5665 57.3195 51.7723 57.9905 51.8422C61.1162 52.167 64.319 49.3757 66.3959 47.387C66.9184 46.8858 67.5071 46.2809 68.0032 45.7562C70.5556 43.0575 72.8214 40.1024 74.9851 37.0744C74.6676 38.0725 74.2972 39.0565 73.998 40.0605C73.632 41.2878 73.3153 42.5269 72.8266 43.7123C71.916 45.9201 70.7379 48.0257 70.0015 50.3032C69.5466 51.7128 69.1762 53.5928 70.5071 54.6672C71.9079 55.7983 73.9495 55.0545 75.146 54.0014C77.428 51.9921 78.6061 48.4093 79.4873 45.5952C80.5926 42.0646 81.4047 38.4267 82.1279 34.8013C82.9708 30.5776 83.6595 26.3231 84.379 22.0774C84.5105 21.829 84.6619 21.5916 84.792 21.3425C85.4299 20.1203 86.0546 18.8555 86.6528 17.5759C86.6933 17.9449 86.7513 18.3094 86.7903 18.6783C86.9997 20.6744 87.1974 22.6411 87.135 24.6497C87.01 28.6484 87.3562 32.6442 87.5024 36.6386C87.7141 42.4328 87.5899 48.2491 87.5943 54.047C87.5943 54.8238 88.2183 55.4485 88.9951 55.4477C89.7719 55.4477 90.3959 54.8238 90.3959 54.047C90.3995 48.948 90.4951 43.8263 90.3959 38.728C90.3253 35.0842 90.0416 31.4617 89.9365 27.8194C89.8858 26.0666 90.0548 24.3123 90.0056 22.5595C89.9615 20.9846 89.7572 19.3949 89.5926 17.8288C89.3794 15.815 89.1208 13.7771 88.7423 11.7656C88.7511 11.7259 88.7797 11.6906 88.7886 11.6509C89.0252 10.55 89.2876 8.97282 88.3292 8.11369C88.0698 7.88145 87.7721 7.71682 87.4333 7.63157C87.4275 7.6301 87.3407 7.62421 87.2496 7.60878C87.035 7.43901 86.769 7.31408 86.4691 7.2641C84.4326 6.92383 83.8219 9.73495 83.4603 11.1681C83.3728 11.5142 83.3096 11.8537 83.2303 12.2021C83.1494 12.5585 83.0524 12.9701 82.9782 13.3273C82.8907 13.7433 82.8069 14.1504 82.7254 14.5678C82.6835 14.781 82.6519 14.9971 82.6107 15.2102C82.2131 16.2854 81.8214 17.3687 81.4392 18.449C81.1996 19.1252 80.9461 19.7947 80.7043 20.4701C80.6925 20.4907 80.6926 20.5179 80.6808 20.5385C77.051 27.1352 72.842 33.5144 68.0495 39.3255C65.9836 41.8309 63.7759 44.3833 61.1367 46.3074C60.5128 46.7616 59.8484 47.1974 59.1157 47.4561C58.929 47.5215 58.6292 47.642 58.4263 47.5935C54.6245 46.6763 54.2857 41.556 54.2695 38.3841C54.2644 37.3096 54.3445 36.2417 54.4305 35.1687C54.6664 34.8564 54.9604 34.5889 55.1882 34.2729C57.3166 31.3206 59.1642 28.1538 60.8376 24.9253C62.187 22.3243 63.4275 19.6631 64.3748 16.8873C64.5299 16.4331 64.7012 15.9025 64.8342 15.4402C65.5382 12.9936 66.3173 9.0059 63.3643 7.67714C60.6017 6.43437 58.3131 9.37262 57.0483 11.3981C56.7734 11.8383 56.5169 12.2741 56.2678 12.7305C55.9974 13.2251 55.757 13.6925 55.5094 14.2004C55.2632 14.706 55.0015 15.2932 54.7744 15.8077C52.4109 21.1749 50.9858 26.9177 50.2965 32.7339C50.273 32.9316 50.2722 33.133 50.2502 33.3314C49.8827 33.7819 49.5513 34.2677 49.1478 34.6859C48.7796 35.0688 48.379 35.4495 47.9307 35.7427C47.8756 35.7457 47.855 35.717 47.8161 35.7199C47.7654 35.7229 47.8065 35.8927 47.7698 35.8574C47.6904 35.7817 47.7198 35.6479 47.6551 35.559C47.5104 35.3606 47.2891 35.2099 47.1502 35.0078C46.7468 34.4221 46.4594 33.7709 46.1162 33.1477C44.9087 30.9517 43.3043 28.2354 40.5814 28.1406C40.76 27.4689 40.9298 26.7913 41.1098 26.1195C41.4957 24.6805 41.8837 23.2379 42.2806 21.8018C42.4952 21.0287 42.6789 20.2401 42.9472 19.4823C43.7593 17.1835 45.0799 15.0823 45.8178 12.7533C46.5285 10.511 46.3764 7.87851 43.774 7.01129C43.0412 6.76729 42.2328 6.74377 41.4773 6.87385C36.9325 7.65655 36.5702 13.0297 36.1263 16.6801C36.0248 17.5105 35.9352 18.3425 35.7588 19.1612C35.4553 20.5656 34.7145 21.7562 34.0126 22.9961C33.2137 24.4086 32.3781 25.8057 31.5094 27.1764C28.1331 32.5061 24.1814 37.9718 19.2684 41.9897C18.7289 42.4306 18.1131 42.8863 17.4766 43.3214C20.1481 38.8383 22.4587 34.0928 24.2292 29.1974C25.6388 25.2993 26.7867 21.2712 27.238 17.1401C27.7862 12.1191 27.2056 5.87949 21.9097 3.58944C21.202 3.28371 20.4472 3.04927 19.6814 2.94637C19.0736 2.8648 18.4695 2.87288 17.8904 2.94637ZM19.1302 8.04461C22.4631 8.72148 22.6189 12.8614 22.4837 15.5777C22.4661 15.9319 22.447 16.2817 22.4146 16.6345C22.3448 17.4062 22.2405 18.1198 22.1162 18.8849C21.3343 23.6935 19.7476 28.3692 17.8676 32.8486C16.214 36.7878 14.2922 40.6536 11.9646 44.24C11.7133 44.6281 11.4252 45.0036 11.1613 45.3887C10.7226 45.3534 10.2838 45.4174 9.85244 45.2741C6.37474 44.1195 5.96465 39.8297 5.97053 36.707C5.97787 32.85 6.74661 29.0049 7.83137 25.3155C8.02025 24.6717 8.28629 24.0485 8.49721 23.4098C8.67139 23.4738 8.80589 23.6178 9.00212 23.6163C9.87816 23.6105 10.5932 22.9079 10.5874 22.0318C10.5888 21.4608 10.5771 21.2638 10.5639 20.6994C10.5506 20.1078 10.4815 19.281 10.3801 18.4946C11.0033 17.1041 11.6317 15.7217 12.4012 14.4069C12.7517 13.8087 13.1141 13.234 13.5036 12.6614C14.5119 11.1783 15.6863 9.66513 17.2018 8.66489C17.739 8.30991 18.4578 7.90865 19.1302 8.04461ZM60.6083 14.085C60.0711 16.0436 59.3148 17.9434 58.4726 19.7807C57.9133 21 57.2592 22.192 56.6353 23.387C57.224 21.4145 57.9096 19.4721 58.7482 17.5759C59.2788 16.3751 59.9278 15.2131 60.6083 14.085ZM78.0402 38.7971C77.9351 39.2315 77.8748 39.6731 77.7646 40.1067C76.9701 43.2251 76.0978 46.4507 74.5948 49.3162C74.2134 50.0438 73.7761 50.7721 73.194 51.36C73.4314 50.6148 73.7225 49.888 74.0208 49.2243C74.8153 47.4575 75.7582 45.7246 76.4094 43.8961C76.8319 42.7091 77.1509 41.4892 77.5346 40.2905C77.6948 39.79 77.8755 39.2961 78.0402 38.7971ZM4.59253 48.4659C4.81227 48.6584 4.99454 48.8657 5.23559 49.0406C5.6964 49.3735 6.23877 49.5962 6.75175 49.8446C6.49967 49.9401 6.26964 50.0864 5.99404 50.0967C5.25984 50.1261 4.86666 49.3008 4.59253 48.4659Z" fill="#BFEF5B"/>
<path d="M105.393 8.48118C104.555 8.58554 103.744 8.83541 102.981 9.19332C96.1941 12.3763 94.5435 20.4069 94.3693 27.2219C94.337 28.4588 94.3678 29.6847 94.4377 30.9201C94.5251 32.4547 94.6993 33.9951 94.9433 35.5134C95.224 37.2611 95.6084 38.9904 96.1375 40.6808C97.2965 44.3833 99.311 48.7121 103.073 50.3958C103.647 50.6523 104.24 50.8206 104.865 50.9007C108.592 51.3777 111.321 48.3086 112.972 45.3659C113.098 45.1418 113.151 44.8809 113.27 44.6538C114.415 47.218 116.221 50.0041 119.15 50.5796C123.621 51.4578 126.715 46.7579 128.383 43.3214C128.586 42.9017 128.737 42.5732 128.888 42.2425C129.063 42.8348 129.146 43.45 129.347 44.0335C129.827 45.4284 130.363 46.9718 131.322 48.1219C132.387 49.3971 134.55 50.2503 136.191 50.2804C140.494 50.3606 142.523 45.7716 143.517 42.2881C143.606 41.9794 143.645 41.6575 143.724 41.3466C143.951 42.2851 144.154 43.2317 144.367 44.1717C144.539 44.9294 145.286 45.399 146.044 45.2278C146.802 45.0565 147.272 44.3091 147.101 43.5514C146.605 41.3503 145.937 39.1381 145.676 36.8907C145.402 34.5169 145.333 32.1357 145.263 29.7486C145.26 29.6722 145.266 29.595 145.263 29.5186C145.374 27.5505 145.525 25.5882 145.538 23.6164C145.55 21.9172 145.51 20.2151 145.424 18.5174C145.386 17.7693 145.432 16.8741 145.194 16.1524C145.043 15.6945 144.793 15.3182 144.321 15.1191C144.148 15.0456 143.957 15.0169 143.77 15.0037C143.741 15.0022 143.698 14.9941 143.678 15.0037C143.674 15.0066 143.655 14.9964 143.655 15.0037C143.616 14.9655 143.118 15.125 143.081 15.1419C143.037 15.1624 143.009 15.186 142.966 15.2102C142.538 15.4623 142.284 15.9025 142.208 16.3817C142.071 17.2541 142.113 18.1668 142.116 19.0458C142.121 20.4341 142.149 21.8158 142.185 23.2033C142.216 24.3579 142.263 25.5154 142.3 26.6707C142.134 30.1404 141.856 33.5923 141.221 37.0061C141.031 38.0247 140.912 38.5517 140.67 39.5556C140.201 41.4965 139.574 43.5867 138.396 45.2278C137.908 45.9076 137.217 46.6359 136.306 46.583C135.557 46.5396 134.898 46.1509 134.285 45.7562C134.277 45.7511 134.275 45.7422 134.262 45.7334C134.261 45.7319 134.25 45.7217 134.101 45.4578C134.003 45.2836 133.909 45.1117 133.826 44.9294C133.44 44.0835 133.144 43.1795 132.884 42.2881C132.221 40.0171 131.735 37.6991 131.368 35.3525C131.505 34.8829 131.678 34.4236 131.805 33.951C132.229 32.365 132.599 30.7768 132.838 29.1511C132.928 28.5441 133.073 27.9356 133.205 27.3366C133.648 25.342 134.632 21.8547 132.241 20.6311C131.985 20.4995 131.721 20.4018 131.437 20.3547C130.072 20.1306 128.722 21.011 127.969 22.0774C126.803 23.7288 126.628 25.9534 126.591 27.9113C126.553 29.9897 126.772 32.0732 127.074 34.1347C126.631 35.6318 126.293 37.1641 125.719 38.6134C125.062 40.2685 124.308 41.9066 123.353 43.414C122.769 44.3348 122.087 45.2961 121.171 45.9171C120.835 46.145 120.418 46.3442 119.999 46.2611C119.304 46.1229 118.739 45.3726 118.369 44.8375C117.546 43.6484 117.007 42.252 116.555 40.8873C116.276 40.0472 116.062 39.1786 115.843 38.315C116.426 36.4035 116.946 34.4757 117.359 32.5502C118.127 28.9564 118.737 25.2567 118.782 21.5725C118.797 20.4157 118.629 19.2781 118.576 18.1272C118.514 16.7999 118.551 15.3815 118.116 14.1078C117.65 12.7401 116.55 11.6958 115.039 11.6965C114.378 11.6972 113.749 11.9434 113.201 12.294C112.787 12.5593 112.455 12.9091 112.145 13.2817C111.178 10.9432 109.636 8.87657 107.001 8.48118C106.472 8.4018 105.922 8.41577 105.393 8.48118ZM106.105 12.868C106.688 12.8298 107.252 13.0929 107.782 13.8557C107.942 14.0865 108.066 14.3173 108.195 14.5679C108.423 15.0132 108.606 15.4946 108.769 15.9687C109.09 16.8998 109.252 17.8854 109.435 18.8621C109.234 20.2313 109.017 21.5916 108.907 22.9733C108.78 24.5556 108.874 26.1681 109.458 27.6585C109.533 27.8503 109.705 28.2729 109.848 28.4625C109.965 30.2815 110.138 32.1092 110.4 33.9054C110.511 34.6675 110.697 35.4172 110.836 36.1793C110.095 38.645 109.215 41.0806 107.873 43.2302C107.767 43.4 107.666 43.5705 107.552 43.7351C107.447 43.8858 107.342 44.0269 107.231 44.1717C106.955 44.5274 106.112 45.618 105.484 45.435C104.595 45.1741 103.887 44.1783 103.418 43.4595C102.266 41.6957 101.55 39.6239 101.006 37.6029C99.5888 32.3297 99.064 26.5046 100.088 21.1132C100.654 18.1272 101.658 15.4535 104.245 13.6948C104.91 13.2421 105.522 12.9062 106.105 12.868Z" fill="#BFEF5B"/>
<path d="M132.77 0.0295367C132.275 0.0508497 131.791 0.133893 131.3 0.190483C130.486 -0.135092 129.558 0.272791 129.233 1.08636C128.907 1.89993 129.292 2.82742 130.105 3.153C130.422 3.53369 130.727 3.92246 131.07 4.2789C131.391 4.61109 131.697 4.97709 132.103 5.19757C132.489 5.40629 132.935 5.46142 133.367 5.54153C133.811 5.62384 134.281 5.58268 134.722 5.67969C135.147 5.77302 135.541 5.98028 135.962 6.09273C136.828 6.3235 137.745 6.31907 138.626 6.4837C139.056 6.56307 139.447 6.72696 139.866 6.85116C140.587 7.13926 141.415 6.79164 141.704 6.06994C141.992 5.34824 141.644 4.52144 140.923 4.23261C140.534 4.03271 140.118 3.87397 139.752 3.63512C139.001 3.14712 138.355 2.50331 137.57 2.07411C137.187 1.86465 136.748 1.74853 136.376 1.52291C135.99 1.28846 135.674 0.965097 135.296 0.718895C134.928 0.479307 134.571 0.189743 134.147 0.0758288C133.701 -0.0447001 133.231 0.00969352 132.77 0.0295367Z" fill="#BFEF5B"/>
<path d="M159.319 10.2729C158.443 10.2722 157.712 10.9814 157.711 11.8575C157.571 15.5329 157.45 19.2061 157.298 22.8814C157.029 22.8917 156.773 22.9388 156.517 23.0196C155.871 23.2217 155.318 23.6906 154.909 24.2132C153.256 26.332 154.045 29.1063 155.3 31.195C155.751 31.9468 156.366 32.6186 156.93 33.3087C156.921 33.7143 156.893 34.1193 156.885 34.5257C156.808 38.4951 156.767 42.4784 156.976 46.4449C157.024 47.3451 157.069 48.2337 157.137 49.1325C157.184 49.7447 157.245 50.3576 157.298 50.9698C157.378 51.9083 157.465 52.8564 157.55 53.7942C157.581 54.1352 157.567 54.7628 157.78 55.0347C158.176 55.5396 158.622 55.9975 159.044 56.4818C159.205 56.6677 159.721 56.7486 159.939 56.7802C160.373 56.8427 160.81 56.803 161.225 56.6655C163.023 56.0702 163.134 54.5188 163.131 52.9218C163.13 52.1354 163.125 51.3424 163.109 50.5561C163.098 50.0166 163.101 49.4654 163.086 48.926C162.986 45.2983 162.728 41.6796 162.442 38.0622C163.088 38.3937 163.775 38.6671 164.487 38.7516C165.569 38.8794 166.649 38.5407 167.679 38.0622C167.914 39.5416 168.092 41.024 168.368 42.4953C168.89 45.2844 169.469 48.0786 170.159 50.8317C170.557 52.4162 170.98 53.997 171.583 55.5169C171.868 56.24 172.675 56.606 173.398 56.3209C174.12 56.0357 174.487 55.206 174.201 54.4835C173.65 53.0776 173.275 51.607 172.915 50.143C172.415 48.1065 171.987 46.0494 171.606 43.988C171.121 41.3591 170.706 38.709 170.389 36.0411C170.786 35.6061 171.219 35.2055 171.538 34.7094C172.311 33.502 172.866 32.157 173.26 30.782C173.916 28.4868 174.174 26.0688 174.155 23.6855C174.147 22.5199 173.997 21.3748 173.903 20.2173C173.827 19.2847 173.798 18.3403 173.65 17.415C173.538 16.7146 173.386 16.0069 173.007 15.394C171.804 13.4501 169.617 13.9822 168.345 15.463C166.528 17.5789 166.348 21.0573 166.3 23.6855C166.247 26.7398 166.518 29.795 166.875 32.8258C166.899 33.0338 166.941 33.2381 166.967 33.4461C166.455 33.904 165.856 34.2442 165.152 34.3648C165.101 34.3736 165.044 34.3817 164.992 34.3876C164.961 34.3765 164.898 34.3574 164.854 34.342C164.823 34.331 164.792 34.3324 164.762 34.3185C164.633 34.2604 164.497 34.2009 164.372 34.1347C163.892 33.8827 163.445 33.5696 163.017 33.2396C162.613 32.928 162.245 32.5568 161.868 32.2063C161.773 31.4625 161.692 30.7173 161.57 29.978C161.318 23.9376 161.123 17.9016 160.904 11.8575C160.905 10.9814 160.195 10.2737 159.319 10.2729Z" fill="#BFEF5B"/>
<path d="M209.226 34.6177C207.793 34.6199 206.362 34.8044 204.931 34.8242C203.015 34.8507 201.104 34.5677 199.189 34.8014C197.265 35.0359 195.431 35.8347 193.608 36.455C192.735 36.5293 192.087 37.3046 192.161 38.177C192.236 39.0501 192.988 39.6983 193.86 39.6241C195.762 39.9269 197.736 40.4075 199.672 40.3134C201.599 40.2193 203.429 39.6005 205.321 39.3029C206.736 39.0802 208.157 39.0141 209.57 38.7745C210.993 38.5327 212.376 38.1167 213.796 37.8558C214.734 37.6838 215.695 37.5868 216.643 37.4883C217.418 37.4222 217.996 36.7468 217.93 35.9722C217.864 35.1983 217.188 34.6206 216.414 34.6861C215.462 34.7493 214.497 34.8352 213.543 34.8242C212.1 34.8073 210.669 34.6155 209.226 34.6177Z" fill="#BFEF5B"/>
<path d="M235.316 13.8791C234.479 13.8115 233.646 14.1033 232.904 14.8206C232.176 15.5254 231.943 16.5837 231.893 17.5538C231.829 18.8245 231.976 20.1106 232.146 21.3666C232.42 23.3928 232.83 25.408 233.134 27.4298C233.281 28.4095 233.412 29.3987 233.432 30.3923C233.479 32.7 233.243 35.0474 233.111 37.3514C232.794 42.8619 232.3 48.357 231.917 53.8638C231.821 54.7347 232.447 55.5145 233.317 55.6093C234.188 55.7048 234.968 55.0794 235.063 54.2085C235.784 49.3815 236.569 44.5662 237.291 39.7399C237.437 38.7617 237.551 37.7798 237.682 36.8002C237.918 37.71 238.182 38.6118 238.462 39.5099C239.552 43.0052 241.532 46.4315 244.938 48.0763C246.065 48.6201 247.316 48.8861 248.567 48.7428C252.473 48.2938 254.66 44.2803 255.939 41.0025C256.674 39.1226 257.227 37.1662 257.685 35.1922C258.095 37.3609 258.497 39.5275 258.925 41.6919C259.996 47.1091 261.2 52.4969 262.692 57.8141C262.9 58.563 263.666 58.987 264.414 58.7791C265.163 58.5711 265.61 57.8053 265.402 57.0564C263.958 51.806 262.813 46.5057 261.888 41.1407C261.274 37.5829 260.685 34.0052 260.303 30.4151C260.082 28.3286 259.9 26.2598 259.729 24.1682C259.654 23.2422 259.569 22.3161 259.499 21.3894C259.431 20.4707 259.36 19.5513 259.293 18.6334C259.286 18.5423 259.276 18.4489 259.269 18.3578C259.268 18.3277 259.272 18.2961 259.269 18.2659C259.298 18.2645 259.267 18.1689 259.269 18.1968C259.266 18.1432 259.25 18.0895 259.247 18.0359C259.246 18.0205 259.263 17.9896 259.247 17.9903C257.912 18.0124 256.585 18.0072 255.251 18.0594C255.249 18.0594 255.252 18.1226 255.251 18.1505C255.249 18.2108 255.252 18.2748 255.251 18.3343C255.247 18.5077 255.231 18.69 255.227 18.8627C255.218 19.3558 255.213 19.8402 255.205 20.3326C255.177 21.909 255.155 23.4722 254.998 25.0413C254.535 29.65 253.698 34.3683 252.104 38.7287C251.504 40.3705 250.78 42.113 249.578 43.4146C249.166 43.8592 248.631 44.2994 247.993 44.3097C247.311 44.3215 246.647 43.8827 246.133 43.4829C244.614 42.3019 243.864 40.4719 243.308 38.6831C243.121 38.0834 242.974 37.4785 242.826 36.8685C241.618 31.9283 241.371 26.8176 240.438 21.8252C239.997 19.472 239.432 16.7703 237.658 15.0271C236.975 14.3561 236.152 13.9467 235.316 13.8791Z" fill="#BFEF5B"/>
<path d="M275.002 18.7702C273.891 18.613 272.781 18.7688 271.718 19.3677C268.238 21.3263 267.509 26.5216 267.285 30.1161C267.171 31.9505 267.189 33.7937 267.308 35.6281C267.389 36.8745 267.523 38.1114 267.698 39.3483C268.136 42.4277 268.808 45.5526 270.041 48.4203C270.586 49.6896 271.268 50.9632 272.246 51.9568C273.115 52.8417 274.243 53.559 275.347 54.1161C276.008 54.4497 276.692 54.7261 277.413 54.8966C278.095 55.0582 278.803 55.1192 279.503 55.0803C283.168 54.8775 285.561 51.7635 286.945 48.6731C287.141 48.2344 287.256 47.7677 287.427 47.3179C288.073 48.6959 288.716 50.0703 289.494 51.3601C289.893 52.0266 290.757 52.242 291.423 51.8422C292.089 51.4431 292.328 50.5796 291.928 49.913C290.644 47.7589 289.615 45.4262 288.69 43.0693C288.897 42.1389 289.139 41.2026 289.287 40.267C289.791 37.0774 289.988 33.826 289.862 30.5982C289.776 28.4324 289.655 25.719 288.621 23.731C288.462 23.426 288.261 23.11 288.024 22.8587C286.306 21.0309 284.137 22.4993 283.063 24.2131C283.006 24.305 283 24.4189 282.948 24.5122C281.624 22.7006 280.053 21.0875 278.194 19.9873C277.201 19.4001 276.112 18.9282 275.002 18.7702ZM274.474 24.1448C274.599 24.1779 274.718 24.2205 274.841 24.2594C275.139 24.3535 275.386 24.4432 275.668 24.5806C276.81 25.1384 277.805 25.9858 278.677 26.9008C279.784 28.0642 280.698 29.4062 281.524 30.8047C281.426 30.8356 281.319 30.7768 281.226 30.8275C280.456 31.2464 280.164 32.1938 280.582 32.964C281.228 34.2891 281.89 35.623 282.719 36.8451C283.035 37.3118 283.437 37.755 283.867 38.1313C284.161 39.0301 284.364 39.9576 284.694 40.8417C284.702 40.8638 284.708 40.888 284.717 40.9101C284.604 41.4591 284.552 42.0205 284.418 42.5637C283.992 44.2885 283.451 46.0134 282.627 47.5935C281.745 49.2824 280.393 51.1925 278.24 50.4642C277.299 50.146 276.253 49.4911 275.599 48.7422C274.598 47.5957 274.124 45.6085 273.784 44.1717C272.738 39.7437 272.423 35.0166 272.751 30.4836C272.86 28.9777 273.024 27.4255 273.486 25.9821C273.695 25.3295 273.985 24.6401 274.474 24.1448ZM285.589 27.6129C285.667 28.2663 285.786 28.8763 285.796 29.5414C285.655 29.2195 285.537 28.8983 285.383 28.5772C285.394 28.4632 285.367 28.3464 285.383 28.2325C285.412 28.0194 285.542 27.829 285.589 27.6129Z" fill="#BFEF5B"/>
<path d="M301.781 6.87373C300.906 6.91783 300.243 7.65202 300.288 8.52733C300.233 12.4599 300.142 16.4014 300.012 20.3318C299.922 23.0481 299.769 25.7674 299.759 28.4851C299.735 35.7353 300.09 42.9854 300.081 50.2347C300.073 56.5919 299.688 62.9424 299.53 69.2967C299.424 73.5365 299.42 77.7815 299.277 82.0205C299.124 86.5668 298.828 91.1014 298.52 95.6396C298.463 96.4142 299.054 97.0764 299.829 97.1322C300.603 97.1888 301.265 96.6215 301.321 95.8461C301.647 91.6092 301.971 87.376 302.378 83.1457C302.815 78.6016 303.345 74.0561 303.687 69.5039C304.166 63.1276 304.307 56.733 304.628 50.3494C304.981 43.3403 305.387 36.3577 305.295 29.3347C305.258 26.5898 305.004 23.8463 304.767 21.113C304.397 16.8593 303.949 12.6069 303.458 8.36638C303.413 7.49108 302.656 6.8289 301.781 6.87373Z" fill="#BFEF5B"/>
<path d="M305.984 21.228C304.365 21.2273 302.753 21.5757 301.253 22.3532C297.381 24.361 295.08 28.1989 291.767 30.8968C291.043 31.3907 290.837 32.3777 291.331 33.1016C291.824 33.8255 292.811 34.0313 293.536 33.5381C296.828 31.6486 299.479 28.6788 302.975 27.1531C305.325 26.1286 308.257 26.8995 310.416 28.0262C312.062 28.8846 313.617 30.07 314.734 31.5627C317.94 35.848 317.925 42.0516 315.4 46.6288C314.771 47.7686 314.007 48.8358 313.057 49.7294C312.406 50.3424 311.657 50.8745 310.83 51.2221C310.283 51.4521 309.702 51.6006 309.107 51.6131C305.62 51.6836 304.271 47.2586 303.733 44.5621C303.585 43.7993 302.842 43.2885 302.079 43.4369C301.317 43.5847 300.829 44.3277 300.977 45.0905C301.745 49.1643 303.6 53.934 308.188 54.8056C308.94 54.9482 309.726 54.9629 310.485 54.874C311.519 54.7534 312.513 54.4301 313.448 53.9781C314.435 53.5018 315.357 52.886 316.181 52.1643C317.292 51.1905 318.253 50.0212 319.029 48.7652C322.04 43.886 322.256 37.8485 320.452 32.5048C319.952 31.0203 319.329 29.5607 318.455 28.2555C315.835 24.3493 310.842 21.2302 305.984 21.228Z" fill="#BFEF5B"/>
<path d="M334.852 20.7226C333.518 20.8085 332.176 21.4781 331.04 22.5143C329.814 23.6336 328.758 25.03 327.894 26.4418C325.06 31.0697 323.877 36.8808 325.138 42.1965C326.12 46.3371 329.063 50.3594 333.337 51.4986C337.264 52.5444 340.818 50.3139 343.281 47.3874C343.982 46.5554 344.556 45.6198 345.141 44.7004C346.378 48.0547 348.568 51.4317 352.422 51.5441C353.079 51.5632 353.738 51.475 354.374 51.3148C355.45 51.0429 356.467 50.5446 357.406 49.9596C358.794 49.0939 360.038 48.0098 361.195 46.8589C362.246 45.8146 363.277 44.7218 364.158 43.529C365.043 42.3295 365.767 41.0162 366.569 39.7624C366.99 39.1091 366.787 38.2536 366.133 37.8332C365.48 37.4121 364.625 37.5929 364.204 38.2463C363.429 39.442 362.738 40.6862 361.885 41.8291C361.392 42.489 360.818 43.1137 360.254 43.7127C358.749 45.3104 357.049 46.881 355.04 47.8239C354.206 48.2149 353.258 48.4934 352.331 48.3516C350.387 48.0547 349.323 45.8683 348.747 44.2404C348.253 42.8433 347.964 41.3411 347.76 39.808C347.843 39.6213 347.955 39.4442 348.036 39.2568C349.304 36.323 350.357 33.2392 350.952 30.0929C351.042 29.6189 351.121 29.1713 351.182 28.6922C351.416 26.8592 351.573 24.2076 349.689 23.1346C349.236 22.8766 348.739 22.7532 348.219 22.7671C347.858 22.7767 347.548 22.8303 347.209 22.9509C344.774 23.8151 344.025 27.2495 343.695 29.4734C343.611 30.04 343.534 30.7639 343.488 31.3335C343.434 31.9927 343.409 32.6475 343.396 33.309C343.369 34.7002 343.427 36.0797 343.557 37.4658C343.572 37.6267 343.608 37.7869 343.626 37.9479C342.449 40.4253 341.063 42.8036 339.17 44.6314C337.994 45.7668 336.286 46.9905 334.577 46.3305C333.857 46.0527 333.219 45.5559 332.671 45.0216C330.144 42.5588 329.933 38.6858 330.305 35.3984C330.406 34.5069 330.559 33.6309 330.765 32.7578C330.962 31.9192 331.217 31.0829 331.522 30.2767C332.136 28.6554 333.021 27.0312 334.187 25.7296C334.475 25.4085 334.805 25.1976 335.128 24.9256C335.136 24.9197 335.108 24.8558 335.128 24.8573C335.237 24.8609 335.402 24.9896 335.473 25.0638C335.595 25.1909 335.708 25.3151 335.817 25.454C336.125 25.8465 336.374 26.2955 336.598 26.7402C336.958 27.4523 337.248 28.1902 337.563 28.9222C337.694 29.2272 337.839 29.7042 338.114 29.9092C338.393 30.1179 338.695 30.2943 338.986 30.4839C339.132 30.5772 339.444 30.5625 339.607 30.553C340.376 30.5052 340.788 30.0503 341.146 29.4506C341.429 28.9751 341.358 28.2336 341.352 27.7044C341.343 26.9467 341.295 26.1882 341.26 25.4313C341.261 24.5552 340.552 23.8475 339.676 23.846C339.585 23.846 339.532 23.9239 339.446 23.9386C339.186 23.4396 338.901 22.9398 338.551 22.4915C337.494 21.14 336.188 20.6373 334.852 20.7226Z" fill="#BFEF5B"/>
<path d="M376.813 8.34404C375.945 8.46236 375.338 9.26712 375.457 10.1351C375.713 14.0126 375.801 17.893 375.756 21.7793C375.734 23.7063 375.641 25.6172 375.618 27.5441C375.538 34.3151 375.746 41.0978 375.596 47.8694C375.465 53.7364 374.994 59.5945 374.861 65.4622C374.759 69.8917 374.888 74.3079 374.975 78.7366C374.985 79.2268 374.989 79.7163 374.998 80.2065C375.007 80.6717 375.089 81.1501 375.388 81.5154C375.643 81.8248 376.002 82.0217 376.4 82.0666C376.427 82.0695 376.777 82.0636 376.813 82.0438C376.813 82.0467 376.835 82.0416 376.835 82.0438C376.883 82.1209 377.448 81.802 377.548 81.7219C378.346 81.0862 378.363 79.4987 378.489 78.6219C378.848 76.1335 379.134 73.6597 379.385 71.158C379.443 70.6046 379.115 70.193 378.673 69.9174C378.893 67.0394 379.127 64.1621 379.316 61.2819C379.636 56.4005 379.894 51.5044 380.304 46.6289C380.717 41.7166 381.088 36.8175 381.13 31.8847C381.143 30.4016 381.181 28.9346 381.108 27.4523C380.812 21.4957 379.802 15.531 378.581 9.69853C378.463 8.83058 377.681 8.22498 376.813 8.34404Z" fill="#BFEF5B"/>
<path d="M381.429 15.9915C380.959 16.0657 380.498 16.2296 380.051 16.4964C379.793 16.6515 379.489 16.7867 379.339 17.0476C379.073 17.5121 378.884 18.0038 378.673 18.4947C378.562 18.7534 378.659 19.2774 378.65 19.5515C378.625 20.3747 378.583 21.1868 378.535 22.0084C378.5 22.6067 378.468 22.8742 378.421 23.4783C378.407 23.6466 378.366 23.8163 378.352 23.9839C376.989 23.4224 375.222 23.3188 374.057 23.3871C369.524 23.6524 365.293 26.0175 362.872 29.8862C361.505 32.0689 360.757 34.6007 360.438 37.1436C360.102 39.8144 360.162 42.8724 362.091 44.975C363.176 46.1583 364.686 47.0836 366.111 47.8001C367.18 48.3388 368.323 48.7577 369.509 48.9488C370.43 49.0965 371.368 49.1068 372.288 48.9488C374.983 48.4851 376.943 46.7492 378.374 44.562C379.603 45.4109 381.238 45.8548 382.577 46.0319C384.497 46.2854 386.462 46.2472 388.388 46.0774C389.658 45.9657 390.928 45.8026 392.177 45.5498C397.527 44.4665 404.949 41.4084 404.878 34.8697C404.844 31.7867 403.082 29.0314 401.088 26.809C398.465 23.884 395.518 21.9239 392.177 19.9418C390.984 19.234 389.79 18.5638 388.549 17.9435C387.612 17.4761 386.658 17.1285 385.677 16.7727C384.338 16.2855 382.839 15.7696 381.429 15.9915ZM383.105 20.5621C383.469 20.6723 383.827 20.7803 384.185 20.906C385.501 21.3712 386.718 21.9165 387.951 22.5831C391.964 24.7504 396.009 27.1529 398.883 30.782C399.943 32.1203 401.001 33.8202 400.813 35.6047C400.528 38.293 397.392 40.0936 395.186 41.0483C394.683 41.2658 394.167 41.4709 393.647 41.6451C392.792 41.9324 392.318 42.0904 391.442 42.3116C390.718 42.4946 389.906 42.6468 389.168 42.7703C388.074 42.954 386.97 43.0885 385.861 43.1377C385.517 43.1532 385.173 43.162 384.828 43.1612C383.393 43.1575 381.832 43.0532 380.487 42.4954C380.274 42.4064 379.821 42.1999 379.683 41.9207C379.896 41.4356 380.171 40.991 380.349 40.4971C380.402 40.4427 380.466 40.3589 380.51 40.3134C380.738 40.0782 380.973 39.8827 381.222 39.6703C381.69 39.2705 382.163 38.8942 382.669 38.5444C383.57 37.9226 384.521 37.3876 385.471 36.8452C386.147 36.4616 386.383 35.5914 385.999 34.916C385.616 34.2406 384.769 34.004 384.093 34.3876C383.229 34.8756 382.419 35.454 381.59 35.9956C381.758 35.2019 381.941 34.4074 382.072 33.6071C382.604 30.355 382.872 27.0677 383.014 23.7774C383.06 22.7066 383.085 21.6336 383.105 20.5621ZM374.171 27.2911C374.057 27.5733 373.943 27.8658 374.011 28.187C374.19 29.0446 375.036 29.5834 375.894 29.404C376.437 29.3122 377.121 29.0851 377.777 28.8756C377.327 32.0351 376.708 35.1666 375.596 38.1314C375.398 38.6583 375.214 39.161 374.975 39.6703C374.135 41.4577 372.74 43.9219 370.405 43.5287C369.785 43.4243 369.169 43.1752 368.614 42.8856C367.904 42.5145 367.254 42.0574 366.615 41.5767C366.446 41.4481 366.162 41.2864 366.041 41.0711C365.418 39.9584 365.574 38.3761 365.674 37.1671C365.945 33.8687 367.261 30.6865 370.106 28.8065C371.318 28.0069 372.735 27.5255 374.171 27.2911Z" fill="#BFEF5B"/>
<path d="M416.407 17.7139C409.869 17.4147 403.056 21.1695 402.214 28.1639C402.095 29.1479 402.109 30.146 402.26 31.1264C402.473 32.5102 402.951 33.8449 403.615 35.0766C404.662 37.0191 406.171 38.5595 407.864 39.9456C409.774 44.8858 412.434 49.6371 416.798 52.7378C419.169 54.4223 421.92 55.873 424.813 54.6898C428.081 53.3537 430.097 49.7033 431.772 46.812C432.244 45.9985 432.701 45.1783 433.196 44.3779C433.822 43.3645 434.509 42.4201 434.987 41.3236C435.517 40.1109 435.819 38.8057 435.929 37.4879C436.405 31.7716 433.152 25.6952 428.717 22.2381C427.576 21.3481 426.298 20.6352 424.996 20.0105C422.307 18.7185 419.398 17.8506 416.407 17.7139ZM413.881 22.0544C415.15 21.9089 416.438 21.9456 417.647 22.1462C420.499 22.6188 423.757 23.8616 426.03 25.66C428.124 27.3165 429.728 29.6514 430.624 32.1597C431.213 33.8103 431.489 35.6095 431.175 37.3505C430.868 39.0533 429.934 40.2087 428.97 41.5992C428.593 42.1423 428.11 42.8882 427.73 43.4821C426.725 45.0548 425.742 46.6665 424.538 48.0982C424.075 48.6479 423.44 49.4188 422.7 49.6371C422.569 49.6761 422.434 49.6753 422.309 49.6143C422.033 49.4791 421.754 49.3468 421.483 49.2006C421.229 49.0646 420.991 48.9191 420.748 48.7647C419.739 48.1239 418.835 47.3346 417.992 46.4909C417.428 45.9272 416.934 45.312 416.43 44.6998C418.06 45.2907 419.697 45.7868 421.276 46.1925C422.028 46.3872 422.803 45.9338 422.999 45.1819C423.194 44.4301 422.74 43.6548 421.988 43.4593C419.184 42.7229 416.118 41.7138 413.376 40.2212C412.286 38.2831 411.33 36.2503 410.505 34.2035C410.103 33.2062 409.718 32.2082 409.356 31.1947C409.242 30.8728 409.127 30.5524 409.012 30.2305C408.984 30.1511 408.934 30.0879 408.943 30.0012C408.998 29.4507 409.721 28.8841 410.091 28.5541C410.288 28.3785 410.485 28.216 410.689 28.0485C411.86 27.0865 413.081 26.2045 414.065 25.0404C414.655 24.3929 414.62 23.403 413.972 22.8121C413.326 22.2219 412.312 22.2572 411.722 22.904C410.148 24.4686 407.681 25.4571 406.21 27.1761C407.468 24.0732 410.578 22.4336 413.881 22.0544Z" fill="#BFEF5B"/>
<path d="M451.638 12.6382C450.635 12.8028 449.642 13.4025 448.882 14.1771C446.871 16.229 446.372 19.3547 446.218 22.1011C446.016 25.6986 446.452 29.3167 446.999 32.8951C446.675 33.0369 446.347 33.192 446.034 33.2853C445.656 33.3985 445.259 33.4786 444.863 33.4691C444.833 33.4683 444.801 33.4713 444.771 33.4691C444.733 33.4073 444.692 33.3485 444.656 33.2853C444.54 33.0759 444.347 32.7084 444.243 32.5048C443.938 31.9081 443.619 31.3054 443.14 30.8277C442.821 30.5095 442.435 30.2824 442.038 30.1163C441.334 26.1638 440.636 22.2239 439.672 18.3339C439.498 17.4755 438.648 16.9191 437.789 17.094C436.931 17.269 436.374 18.0958 436.549 18.9542C437.217 23.1293 437.708 27.3177 438.065 31.5171C437.283 32.9789 437.863 34.5171 438.34 36.0185C438.515 38.604 438.718 41.188 438.845 43.7816C438.933 45.5638 439.042 47.349 439.144 49.1327C439.153 49.8073 439.233 50.4791 439.236 51.1537C439.239 51.6623 439.234 52.1599 439.236 52.6692C439.238 53.1851 439.259 53.7157 439.259 54.2309C439.258 54.4683 439.258 54.7571 439.259 55.0349C439.258 55.0577 439.252 55.126 439.259 55.104C439.266 55.7735 439.325 56.4577 439.764 56.9178C440.075 57.2441 440.366 57.6645 440.797 57.7909C441.507 57.9989 442.305 58.0467 443.026 57.8828C443.485 57.7784 443.793 57.3389 444.151 57.0332C444.246 56.9523 444.32 56.8531 444.357 56.7341C444.484 56.3358 444.629 55.9411 444.748 55.5405C444.773 55.4545 444.744 55.3429 444.748 55.2414C444.75 55.2686 444.748 55.1768 444.748 55.1496C444.748 54.9827 444.767 54.81 444.771 54.6674C444.784 54.1699 444.787 53.6723 444.794 53.1748C444.802 52.5597 444.817 52.4105 444.817 51.7968C444.817 51.1743 444.803 50.5562 444.748 49.936C444.719 49.6067 444.663 49.2782 444.633 48.9489C444.613 48.3676 444.591 47.7841 444.565 47.2035C444.432 44.3431 444.179 41.4754 443.806 38.6371C443.767 38.3358 443.683 38.0447 443.646 37.7412C444.033 37.8309 444.405 37.9705 444.84 37.9705C445.818 37.9713 446.771 37.7045 447.688 37.3738C448.764 43.2738 450.082 49.1716 451.799 54.9203C452.019 55.6647 452.8 56.0822 453.544 55.8617C454.289 55.6412 454.706 54.8615 454.486 54.1162C453.212 49.7632 452.22 45.325 451.408 40.8647C451.105 39.1956 450.837 37.5163 450.604 35.8348C450.846 35.6548 451.128 35.5122 451.339 35.3064C452.531 34.1459 453.273 32.5886 453.866 31.0577C454.992 28.1474 455.63 24.9946 455.887 21.8939C456.06 19.7957 456.113 17.4762 455.45 15.4404C455.242 14.8003 454.944 14.1734 454.486 13.6722C453.645 12.7521 452.641 12.4743 451.638 12.6382ZM451.569 17.3241C451.616 17.618 451.641 17.9216 451.661 18.2192C451.732 19.3202 451.671 20.4299 451.569 21.5264C451.333 24.0612 450.834 26.6158 449.961 29.0139C449.944 28.6751 449.882 28.3414 449.869 28.0034C449.777 25.398 449.793 22.703 450.375 20.1484C450.599 19.1621 450.909 18.1178 451.569 17.3241Z" fill="#BFEF5B"/>
</svg>
