<svg width="243" height="135" viewBox="0 0 243 135" fill="none" xmlns="http://www.w3.org/2000/svg">
<path d="M43.4889 0.0312303C42.2447 -0.176138 41.084 0.671327 40.8777 1.91554C40.1847 5.35298 38.5321 8.6296 38.5956 12.1982C38.6189 13.4594 38.9331 14.6168 39.2241 15.8346C39.4991 16.9889 39.7435 18.1442 39.9848 19.3059C40.956 23.9918 41.8246 28.8364 43.8856 33.1922C44.8547 35.2404 46.0979 37.1533 47.7209 38.7467C48.7429 39.7496 49.9225 40.6331 51.1932 41.2932C52.2544 41.8445 53.3706 42.273 54.5651 42.4169C59.5334 43.0167 62.9434 38.9614 65.4424 34.9114C65.1102 36.7492 64.8118 38.5996 64.4838 40.4331C63.3211 46.9261 61.9891 53.4127 59.8879 59.675C57.1879 67.7253 53.1209 75.692 46.1339 80.835C37.8243 86.9523 25.8435 85.0469 17.37 80.4054C15.491 79.376 13.6839 78.1847 12.0472 76.8019C6.59637 72.1985 2.50934 65.0993 6.3594 58.1546C7.26294 56.5253 8.50184 55.0854 9.86455 53.8232C12.9433 50.974 16.6717 49.0008 20.4774 47.3101C21.5004 46.8583 21.9871 45.6882 21.5354 44.6651C21.0836 43.642 19.8806 43.1553 18.8575 43.6071C14.3156 45.6025 9.88148 48.0211 6.3266 51.5421C4.73325 53.1206 3.34621 54.8949 2.32629 56.8988C-2.04854 65.4939 2.31464 74.4267 8.87319 80.4054C19.3622 89.9687 37.3345 94.6101 49.7046 85.7949C56.5224 80.9365 61.0961 73.7739 64.2193 66.1224C68.4037 55.8704 70.3092 44.8027 72.5839 34.0185C72.9436 32.3151 73.3139 30.6106 73.6091 28.8945C73.8556 27.462 73.9889 26.0337 74.2047 24.5959C74.521 22.4746 74.9305 20.3554 75.3283 18.2479C75.4341 18.031 75.5896 17.8385 75.6923 17.6195C77.4718 13.8403 80.1761 7.83295 77.3449 3.86545C76.8011 3.10369 75.8256 2.74079 75.031 2.24564C74.5634 1.95469 73.3826 2.15993 72.8822 2.31229C70.3155 3.09203 69.8934 5.99624 69.4437 8.26354C69.2914 9.02847 69.1538 9.81035 69.0131 10.5774C68.8682 11.372 68.7222 12.1623 68.5836 12.9579C68.4841 13.5324 68.3825 14.1027 68.2863 14.6771C67.6864 15.9087 67.0897 17.1349 66.4009 18.3145C65.1112 20.5236 63.4364 22.4619 62.1361 24.6625C60.7459 27.0155 59.598 29.487 58.2014 31.8369C58.0565 32.0812 57.9242 32.3235 57.7719 32.5647C57.6343 32.7827 57.4904 33.0134 57.3423 33.225C56.9942 33.7254 55.8759 35.4425 55.0274 35.1759C51.153 33.9571 49.2761 29.7155 47.9854 26.2167C46.848 23.1316 46.0333 19.9545 45.1425 16.7931C44.64 15.0125 43.7904 13.1505 43.82 11.2715C43.8655 8.36407 44.9838 5.51381 45.3742 2.64239C45.5805 1.39819 44.7331 0.23754 43.4889 0.0312303Z" fill="#BFEF5B"/>
<path d="M119.07 0.824925C118.615 0.813287 118.15 0.822834 117.714 0.956142C117.248 1.10003 116.802 1.30843 116.425 1.61843C116.056 1.92101 115.787 2.33894 115.532 2.74203C114.922 3.70693 114.898 5.07704 114.871 6.18054C114.829 7.87545 114.905 9.54393 114.871 11.2388C114.857 11.9117 114.857 12.6693 114.673 13.322C114.414 14.2362 113.929 15.1323 113.548 15.9998C112.883 17.5149 112.176 19.0024 111.4 20.4635C110.539 22.0791 109.615 23.6534 108.622 25.1917C107.946 26.2381 107.252 27.2686 106.506 28.2663C102.816 33.2019 96.7463 39.7192 89.9084 36.9948C85.048 35.0587 83.7879 28.4916 84.0238 23.8692C84.0693 22.9721 84.1667 22.0759 84.3211 21.1914C84.5084 20.1197 84.7814 19.0733 85.1474 18.0502C85.6743 16.5775 86.4678 15.1968 87.4623 13.9833C87.256 14.7271 87.2909 15.4962 87.8591 16.0993C89.3953 17.8397 90.9548 19.5748 92.6857 21.1248C94.916 23.1212 99.3532 26.4402 101.977 23.0757C102.375 22.5647 102.563 22.1521 102.737 21.5215C102.865 21.056 102.908 20.4826 102.902 20.0002C102.88 18.247 102.245 16.4823 101.514 14.909C99.6896 10.9849 96.4765 6.86824 92.1239 5.68434C86.307 4.10263 81.5947 8.98529 79.1306 13.686C74.7399 22.0611 74.8806 34.3604 82.0729 41.194C83.2483 42.3102 84.6079 43.2433 86.0732 43.9384C93.2602 47.3431 100.606 44.8938 106.242 39.8377C111.65 34.9857 115.479 28.4345 118.442 21.8855C118.505 21.7458 118.544 21.5956 118.607 21.4559C118.469 27.1088 118.107 32.7607 117.583 38.3173C117.494 39.2579 117.403 40.2207 117.318 41.1602C117.233 42.0923 117.13 43.0053 117.054 43.9384C116.904 45.7423 116.357 48.3641 118.277 49.5257C119.001 49.9648 119.616 50.0865 120.458 49.9881C122.673 49.7321 123.671 46.8162 124.261 45.1615C124.447 44.6378 124.622 44.1046 124.79 43.5745C124.971 43.0032 125.151 42.362 125.319 41.7886C127.625 33.8779 129.233 25.7292 131.766 17.8841C132.421 15.8538 133.081 13.8066 133.982 11.8673C134.225 11.3415 134.492 10.8326 134.808 10.3469C134.839 10.2993 134.927 10.148 135.04 10.0158C135.071 10.0317 135.104 10.0306 135.138 10.0486C135.407 10.1978 135.66 10.4178 135.866 10.6442C136.57 11.4166 137.015 12.3878 137.386 13.3548C137.736 14.2637 138.015 15.2201 138.246 16.1659C138.584 17.5445 138.84 18.9263 139.04 20.3313C139.431 23.0895 139.629 25.8816 139.734 28.663C139.892 32.8453 139.744 37.0117 139.734 41.194C139.729 42.3123 140.632 43.2391 141.75 43.2434C142.869 43.2486 143.796 42.3451 143.801 41.2268C143.842 35.0438 143.997 28.8895 143.504 22.7118C143.233 19.3315 142.79 15.8676 141.75 12.628C140.811 9.69944 139.139 6.41647 135.931 5.51929C135.327 5.35001 134.777 5.28335 134.147 5.38704C131.312 5.85256 129.527 10.0242 128.592 12.3635C127.16 15.9448 125.943 19.6256 124.79 23.3074C124.905 20.928 125.092 18.5464 125.054 16.1659C124.99 12.1223 124.855 6.75715 122.541 3.27103C121.79 2.13897 120.539 0.859839 119.07 0.824925ZM89.5783 12.0651C90.5549 11.7266 91.6531 12.3476 92.4212 12.8925C94.0579 14.0531 95.3328 15.7491 96.2892 17.5212C95.5254 16.9446 94.7551 16.3395 94.042 15.7025C93.0549 14.8233 92.1027 13.923 91.1653 12.9919C90.5813 12.3719 89.7878 12.3085 89.0165 12.4957C89.2123 12.3561 89.3562 12.1434 89.5783 12.0651Z" fill="#BFEF5B"/>
<path d="M162.91 5.28755C161.684 5.38701 160.451 5.68112 159.307 6.1477C156.032 7.48395 153.622 10.3342 151.537 13.0903C146.386 19.8985 143.452 29.0936 147.801 37.127C148.434 38.295 149.193 39.3795 150.082 40.3666C150.973 41.3559 151.99 42.2319 153.091 42.9788C154.593 43.9987 156.243 44.7827 157.984 45.2937C168.314 48.3238 178.775 42.4128 186.286 35.8045C187.129 35.0692 187.219 33.771 186.484 32.9278C185.75 32.0846 184.484 32.0274 183.641 32.7628C178.2 37.4613 171.328 41.6605 163.836 40.9951C161.504 40.7877 159.212 40.0513 157.258 38.7468C156.048 37.9406 154.987 36.926 154.149 35.7389C153.141 34.3095 152.46 32.6337 152.165 30.9113C151.12 24.8013 154.56 19.0595 158.91 15.0741C159.728 14.325 160.56 13.5389 161.621 13.1569C164.171 12.2375 167.311 13.5209 168.532 15.9342C170.293 19.4171 167.264 23.7761 164.762 25.9186C164.239 26.3672 163.656 26.803 163.077 27.1755C162.352 27.641 161.59 28.0663 160.794 28.3985C160.774 28.407 160.75 28.4228 160.729 28.4313C160.701 28.2768 160.658 28.1308 160.629 27.969C160.456 26.9744 160.296 25.9736 159.935 25.0256C159.547 23.8258 158.258 23.1836 157.059 23.5719C155.859 23.9591 155.216 25.2478 155.604 26.4476C156.103 28.6799 155.308 31.1578 156.926 33.0939C159.009 35.5834 163.597 33.8038 166.019 32.6961C166.471 32.4898 166.905 32.274 167.341 32.0359C168.186 31.5736 169.082 30.9896 169.854 30.4151C173.023 28.0557 175.7 24.7315 176.632 20.8275C178.286 13.8986 173.397 6.96131 166.581 5.51925C165.375 5.26427 164.137 5.18916 162.91 5.28755Z" fill="#BFEF5B"/>
<path d="M199.875 10.1809C199.307 10.3185 198.815 10.6676 198.486 11.2061C196.512 13.3644 194.316 15.4582 192.501 17.753C190.293 20.544 188.889 23.8725 187.344 27.0433C186.035 29.7264 184.443 32.2571 183.211 34.9783C181.969 37.7207 181.167 40.6016 180.302 43.4751C179.785 45.1859 179.242 46.9157 178.747 48.6329C178.425 49.7036 179.032 50.8229 180.103 51.1456C181.173 51.4683 182.293 50.861 182.616 49.7903C183.127 48.1737 183.674 46.5973 184.401 45.0621C185.368 43.0212 186.615 41.1422 187.773 39.2103C189.229 36.7843 190.507 34.2621 192.072 31.9027C193.999 28.9975 196.383 26.4138 198.221 23.4387C200.082 20.4277 201.125 16.9225 202.354 13.6194C203.012 12.5434 202.703 11.1363 201.627 10.4782C201.088 10.1502 200.443 10.0444 199.875 10.1809Z" fill="#BFEF5B"/>
<path d="M185.69 9.75142C184.521 10.2233 183.962 11.5574 184.434 12.7276C184.818 15.4593 184.977 18.3477 185.922 20.9599C186.862 23.5594 188.484 25.8002 189.692 28.2664C190.593 30.1095 191.28 32.0541 192.204 33.8876C193.135 35.7348 194.29 37.4753 195.246 39.3088C195.878 40.5213 196.397 41.7877 196.932 43.0456C197.35 44.0825 198.54 44.5554 199.577 44.1364C200.614 43.7175 201.12 42.5621 200.701 41.5242C200.213 40.2472 199.732 38.967 199.346 37.6562C198.761 35.6724 198.403 33.6157 197.792 31.6383C197.185 29.6778 196.305 27.8051 195.676 25.8531C194.832 23.2399 194.423 20.5081 193.295 17.9837C192.162 15.4477 190.286 13.2735 188.666 11.0411C188.194 9.87097 186.86 9.27955 185.69 9.75142Z" fill="#BFEF5B"/>
<path d="M239.517 3.46989C238.632 3.24771 237.661 3.34081 236.838 3.73439C235.47 4.38823 234.833 5.82502 234.193 7.13905C233.577 8.40971 232.994 9.69413 232.474 11.0071C230.135 16.9277 228.725 23.1709 227.615 29.4237C227.346 30.9356 227.216 32.4686 226.986 33.9858C226.909 34.0948 226.855 34.2228 226.755 34.3498C226.599 34.5476 226.328 34.8576 226.159 35.0438C225.6 35.6617 224.063 37.3989 223.084 36.7303C222.307 36.1981 221.746 35.2861 221.3 34.482C220.366 32.804 219.725 30.9832 219.151 29.1592C217.986 25.4636 217.202 21.6453 216.439 17.8513C215.963 15.4846 215.549 13.0998 214.885 10.7764C214.564 9.55657 213.328 8.80223 212.108 9.1228C210.888 9.44338 210.167 10.713 210.488 11.9339C211.014 14.1599 211.269 16.4516 211.612 18.7114C212.117 22.0378 212.646 25.3493 213.397 28.6302C214.061 31.5291 214.851 34.481 216.175 37.1598C216.707 38.2379 217.441 39.2166 218.224 40.136C216.556 40.9876 214.813 41.6806 213.199 42.6487C198.449 51.4904 186.973 64.8858 180.401 80.7695C178.475 85.4258 177.276 90.4333 176.4 95.3826C175.954 97.9081 175.594 100.465 175.375 103.02C175.197 105.107 175.101 107.175 175.111 109.27C175.156 118.448 177.378 129.835 186.882 133.702C188.086 134.193 189.366 134.557 190.65 134.76C193.252 135.172 195.9 135.02 198.486 134.562C199.658 134.355 200.781 134.085 201.859 133.57C205.788 131.693 208.59 127.856 210.785 124.247C213.916 119.1 216.254 113.465 218.39 107.848C220.281 102.873 222.212 97.9123 223.812 92.8371C225.223 88.3639 226.292 83.7996 227.416 79.2481C228.875 73.336 230.176 67.4207 231.086 61.3954C232.248 53.6942 233.084 45.8121 234.227 37.9861C235.411 37.6169 236.533 37.091 237.731 36.7631C238.811 36.47 239.446 35.3633 239.153 34.2831C238.86 33.204 237.753 32.5691 236.673 32.8622C236.075 33.023 235.516 33.2854 234.921 33.4568C234.955 33.2569 235.019 33.0622 235.054 32.8622C235.515 31.8687 236.004 30.8848 236.409 29.8861C238.327 25.1621 239.786 20.2508 240.873 15.2729C241.242 13.5801 241.683 11.9043 242.063 10.2136C242.343 8.96834 242.526 7.78867 242.393 6.51061C242.313 5.73298 241.793 4.90562 241.236 4.39461C241.07 4.24331 240.891 4.12902 240.707 3.99889C240.609 3.928 240.48 3.73863 240.409 3.8C240.409 3.8 240.377 3.80211 240.376 3.8C240.351 3.74181 239.663 3.50586 239.517 3.46989ZM225.829 42.5493C224.789 51.1942 223.893 59.8518 222.423 68.4375C221.823 71.9437 220.995 75.4097 220.242 78.8852C219.371 82.9024 218.541 86.9356 217.398 90.8861C216.216 94.97 214.719 98.9513 213.298 102.955C211.108 109.129 208.793 115.346 205.397 120.974C203.924 123.412 201.66 126.914 198.817 128.049C197.532 128.562 195.954 128.649 194.585 128.71C193.596 128.754 192.588 128.729 191.609 128.578C182.766 127.217 181.235 116.508 181.063 109.203C181.028 107.767 181.033 106.341 181.096 104.905C181.179 102.974 181.364 101.039 181.592 99.1195C181.864 96.8215 182.234 94.5119 182.683 92.2425C186.272 74.0703 197.491 58.0659 212.836 47.8065C215.764 45.8481 218.841 44.1701 221.994 42.6487C223.312 43.0021 224.606 42.9375 225.829 42.5493Z" fill="#BFEF5B"/>
</svg>
