<svg width="217" height="206" viewBox="0 0 217 206" fill="none" xmlns="http://www.w3.org/2000/svg">
<g clip-path="url(#clip0_217_5018)">
<path d="M483.045 110.922C482.182 112.905 481.829 113.782 482.3 113.178C482.771 112.575 484.103 110.522 486.251 106.469C494.965 90.163 499.929 71.4258 500.072 52.5492L500.09 50.5602L500.062 48.5714L500.062 47.5769L500.026 46.5824L499.947 44.5904C499.92 43.9295 499.868 43.2655 499.825 42.6015C499.783 41.9375 499.752 41.2736 499.686 40.6126C499.564 39.2907 499.461 37.9627 499.29 36.6408L499.056 34.6579L498.771 32.6781L498.628 31.6866L498.461 30.7013L498.12 28.7275C497.619 26.1049 497.066 23.4854 496.376 20.8961C494.327 13.0374 491.68 5.47886 488.039 -1.88564C486.03 -5.9393 483.692 -10.3174 481.027 -14.3165C479.604 -16.4843 478.072 -18.5611 476.519 -20.644L475.304 -22.16C474.899 -22.6632 474.51 -23.1817 474.088 -23.6759C473.252 -24.6643 472.44 -25.6739 471.565 -26.629C468.146 -30.5098 464.448 -34.1375 460.502 -37.4832L458.73 -38.9658L456.921 -40.3999C456.617 -40.6364 456.313 -40.8789 456.009 -41.1124L455.098 -41.8037C454.49 -42.2585 453.882 -42.7314 453.241 -43.1741C450.742 -44.972 448.165 -46.6547 445.545 -48.2647C442.925 -49.8746 440.217 -51.3421 437.469 -52.7185C436.785 -53.0702 436.083 -53.3886 435.393 -53.7252L434.354 -54.2254C434.004 -54.3891 433.652 -54.5286 433.302 -54.6984L431.193 -55.6322L429.065 -56.5145C417.622 -61.1732 405.462 -63.8395 393.115 -64.3974C390.076 -64.5521 386.951 -64.5036 383.809 -64.3974C380.666 -64.2913 377.426 -63.9093 374.286 -62.833C372.697 -62.2879 371.198 -61.5114 369.837 -60.5287C369.484 -60.2922 369.174 -60.0011 368.843 -59.7343L368.721 -59.6313C368.663 -59.5767 368.606 -59.5191 368.551 -59.4615C368.441 -59.3476 368.339 -59.226 368.247 -59.0977C368.082 -58.8583 367.944 -58.6009 367.837 -58.3306C367.652 -57.8679 367.53 -57.3825 367.475 -56.8874C367.428 -56.4423 367.413 -55.9946 367.429 -55.5473C367.526 -53.9257 367.786 -52.3178 368.204 -50.7478C368.299 -50.3688 368.396 -49.9898 368.508 -49.6169L368.545 -49.4775L368.566 -49.4077L368.566 -49.3895L368.566 -49.3289L368.566 -49.2379C368.579 -49.1505 368.586 -49.0624 368.587 -48.9741C368.588 -48.9265 368.58 -48.8791 368.563 -48.8347C368.557 -48.8253 368.549 -48.818 368.539 -48.8135L368.52 -48.8135C368.52 -48.8135 368.487 -48.8134 368.469 -48.8438C368.382 -48.9627 368.305 -49.0884 368.238 -49.2197L368.198 -49.2712L368.113 -49.3865L368.028 -49.4957L367.989 -49.5502L367.782 -49.7958C367.156 -50.5508 366.524 -51.3118 365.861 -52.0546C364.548 -53.5432 363.165 -55.0016 361.706 -56.3811C360.013 -57.9713 358.223 -59.4567 356.348 -60.8289C354.485 -62.1963 352.585 -63.4576 350.701 -64.6915C346.893 -67.1826 342.946 -69.4532 338.877 -71.4921C330.764 -75.5383 322.236 -78.6958 313.441 -80.9092C310.723 -81.6126 307.97 -82.1887 305.234 -82.7283C303.857 -82.9679 302.499 -83.2286 301.11 -83.4409C299.721 -83.6531 298.359 -83.8744 296.976 -84.029C291.465 -84.7381 285.914 -85.0986 280.357 -85.1084C274.799 -85.1085 269.247 -84.7438 263.737 -84.0169C258.203 -83.2753 252.73 -82.1333 247.361 -80.5999C240.801 -78.7773 234.456 -76.2575 228.435 -73.0838C227.696 -72.6745 226.948 -72.2864 226.222 -71.8711L224.058 -70.5704C223.35 -70.1156 222.654 -69.6609 221.952 -69.1849L221.429 -68.8392L220.921 -68.4693L219.903 -67.7295C217.221 -65.7528 214.714 -63.5496 212.411 -61.1442C210.742 -59.3601 209.201 -57.4604 207.8 -55.4594L207.275 -54.7075C207.095 -54.4589 206.922 -54.2072 206.767 -53.9435L205.816 -52.376C205.658 -52.1092 205.49 -51.8636 205.341 -51.5816C205.193 -51.2996 205.037 -51.0237 204.904 -50.7387C204.621 -50.1718 204.381 -49.5927 204.153 -49.0105C203.298 -46.6885 202.712 -44.2767 202.405 -41.8219C202.09 -39.3993 201.943 -36.9578 201.965 -34.515C201.995 -29.6324 202.566 -24.7681 203.667 -20.0104C204.207 -17.5961 204.974 -15.2378 205.958 -12.9672C206.472 -11.7755 207.137 -10.6546 207.937 -9.63213C208.391 -9.05345 208.951 -8.56582 209.587 -8.195C209.963 -7.9822 210.376 -7.84136 210.803 -7.77967C211.261 -7.72269 211.726 -7.76612 212.165 -7.90698C212.604 -8.05864 213.009 -8.29567 213.356 -8.60434C213.676 -8.901 213.943 -9.24951 214.147 -9.63516C214.491 -10.3134 214.713 -11.0475 214.8 -11.803C214.949 -13.1525 214.929 -14.5152 214.739 -15.8597C214.381 -18.4315 213.801 -20.9676 213.004 -23.4394C211.445 -28.324 209.491 -33.0744 207.162 -37.6439C205.695 -40.5586 204.09 -43.3975 202.348 -46.1606C200.604 -48.9334 198.675 -51.5852 196.573 -54.0981C195.511 -55.3628 194.379 -56.5663 193.181 -57.703L192.725 -58.1275L192.257 -58.5277L191.327 -59.3312C190.719 -59.8648 190.093 -60.4105 189.43 -60.8926L187.479 -62.3873L185.452 -63.7729C185.111 -64.0003 184.78 -64.2428 184.433 -64.4551L183.382 -65.0918L182.333 -65.7254C181.981 -65.9376 181.637 -66.1559 181.269 -66.3318L179.105 -67.487C178.926 -67.584 178.747 -67.684 178.564 -67.7719L178.008 -68.0327L176.896 -68.5542L175.786 -69.0726C175.419 -69.2546 175.033 -69.3759 174.656 -69.5487L172.382 -70.4582L170.063 -71.2617C169.677 -71.392 169.294 -71.5436 168.902 -71.6528L167.723 -71.9954L166.571 -72.3501C166.179 -72.4654 165.787 -72.5836 165.389 -72.6533L162.997 -73.2143C156.573 -74.602 149.974 -75.0028 143.429 -74.4028C141.828 -74.2771 140.235 -74.0666 138.657 -73.7721C137.07 -73.4858 135.498 -73.1174 133.949 -72.6685C130.827 -71.7737 127.843 -70.4535 125.083 -68.7452C122.332 -66.9962 119.909 -64.7797 117.925 -62.1963C115.992 -59.625 114.456 -56.78 113.366 -53.7555C111.758 -49.3349 111.023 -44.7083 110.78 -40.1119C110.584 -35.546 110.788 -30.9718 111.388 -26.4411C111.995 -21.9417 112.768 -17.4909 113.731 -13.0673C114.695 -8.64376 115.859 -4.27481 117.19 0.0850648C120.599 11.2537 125.172 22.0355 130.834 32.2536C132.177 34.6518 132.402 34.9095 132.265 34.4366C131.885 33.0358 130.849 30.8255 128.01 25.2468L127.357 23.9644L126.734 22.6697C126.32 21.8056 125.901 20.9446 125.5 20.0775C124.718 18.3311 123.916 16.5908 123.193 14.8171C122.469 13.0435 121.755 11.2607 121.044 9.47191C120.387 7.65276 119.691 5.86691 119.08 4.02958C116.232 -4.13838 114.299 -12.9097 112.834 -21.6506C112.53 -23.5607 112.226 -25.4678 112.002 -27.3961C111.777 -29.3244 111.613 -31.2557 111.521 -33.1962C111.315 -37.0817 111.467 -40.978 111.977 -44.8356C112.477 -48.6977 113.533 -52.4677 115.111 -56.0294C116.699 -59.5795 119.008 -62.7624 121.892 -65.3768C122.88 -66.2656 123.936 -67.0766 125.05 -67.8023C125.326 -67.9903 125.606 -68.1722 125.895 -68.3359C126.183 -68.4996 126.463 -68.6815 126.752 -68.8453C127.338 -69.1484 127.922 -69.482 128.527 -69.7548C129.132 -70.0277 129.743 -70.3066 130.35 -70.5734C130.958 -70.8402 131.59 -71.0646 132.223 -71.2738C133.48 -71.7152 134.759 -72.0907 136.055 -72.3986C137.347 -72.72 138.657 -72.9687 139.97 -73.1779C140.627 -73.284 141.286 -73.3719 141.946 -73.4507C142.605 -73.5295 143.268 -73.572 143.927 -73.6326L144.918 -73.7175C145.25 -73.7448 145.578 -73.7812 145.909 -73.7842L147.894 -73.8388L148.882 -73.8661L149.872 -73.8418L151.845 -73.7842C155.7 -73.5803 159.531 -73.0529 163.297 -72.2077L164.702 -71.8741C165.167 -71.7589 165.638 -71.6619 166.097 -71.5164L168.86 -70.7129L171.577 -69.77C172.033 -69.6214 172.47 -69.4335 172.917 -69.2546L174.245 -68.7149C177.778 -67.2361 181.174 -65.4536 184.397 -63.3878C187.611 -61.3037 190.619 -58.92 193.381 -56.2689C195.314 -54.2948 197.09 -52.1731 198.691 -49.9232C200.296 -47.6947 201.767 -45.3753 203.138 -43.0286C205.856 -38.3349 208.204 -33.4378 210.162 -28.3815C211.118 -25.9342 211.938 -23.4361 212.618 -20.8987C212.949 -19.6344 213.226 -18.361 213.444 -17.0785C213.663 -15.8029 213.765 -14.51 213.748 -13.2159C213.739 -12.5751 213.664 -11.937 213.523 -11.3118C213.401 -10.6963 213.122 -10.1223 212.715 -9.64427C212.513 -9.41914 212.262 -9.24201 211.983 -9.12582C211.71 -9.00318 211.411 -8.95004 211.113 -8.97119C210.814 -8.99398 210.524 -9.08199 210.262 -9.22893C209.993 -9.37601 209.744 -9.55632 209.521 -9.76558C208.641 -10.6747 207.93 -11.7332 207.423 -12.8914C206.885 -14.0473 206.426 -15.2386 206.05 -16.4569C205.298 -18.9029 204.728 -21.401 204.345 -23.9306C203.952 -26.4622 203.706 -29.0142 203.609 -31.5741C203.507 -34.1378 203.577 -36.7055 203.819 -39.26C204.047 -41.8133 204.544 -44.3356 205.302 -46.7851C205.771 -48.2807 206.416 -49.7156 207.223 -51.0601C207.648 -51.7413 208.077 -52.4245 208.508 -53.1097C208.967 -53.7706 209.451 -54.4225 209.919 -55.0835C211.881 -57.6664 214.086 -60.0572 216.502 -62.2236C219.756 -65.1 223.298 -67.6339 227.073 -69.7852C230.857 -71.9492 234.809 -73.8077 238.89 -75.3427C247.089 -78.4265 255.621 -80.5449 264.312 -81.655C268.084 -82.1583 271.886 -82.4889 275.697 -82.689C279.503 -82.8941 283.316 -82.9082 287.122 -82.7314C295.173 -82.3442 303.166 -81.1661 310.985 -79.2143C318.775 -77.2638 326.359 -74.5692 333.631 -71.1677C338.048 -69.106 342.287 -66.8199 346.141 -64.6673C347.217 -64.0457 348.315 -63.4121 349.421 -62.742C350.527 -62.072 351.637 -61.3716 352.743 -60.6439C355.015 -59.179 357.183 -57.5581 359.229 -55.7929C361.312 -53.9495 363.267 -51.9672 365.08 -49.8595L366.445 -48.2556L367.94 -46.4091L369.411 -44.5718C369.663 -44.2504 369.882 -44.0048 370.107 -43.7471C370.332 -43.4894 370.545 -43.2529 370.764 -43.0195C371.022 -42.7375 371.475 -42.2585 371.572 -42.1887C371.73 -42.0495 371.907 -41.9341 372.098 -41.8461C372.154 -41.8232 372.218 -41.8232 372.274 -41.8461C372.299 -41.8659 372.32 -41.8907 372.335 -41.9189C372.35 -41.947 372.36 -41.978 372.362 -42.0098C372.381 -42.1314 372.381 -42.2551 372.362 -42.3767C372.274 -42.8812 372.149 -43.3787 371.988 -43.8654C371.684 -44.872 371.298 -45.9392 370.925 -47.0003C370.164 -49.0688 369.554 -51.1897 369.101 -53.3462C368.869 -54.4286 368.78 -55.5363 368.834 -56.6418C368.859 -57.1885 369.005 -57.7229 369.262 -58.2063C369.397 -58.4422 369.577 -58.6485 369.794 -58.8127C370.004 -58.9886 370.213 -59.1735 370.426 -59.3433C372.182 -60.6558 374.171 -61.623 376.289 -62.1932C379.651 -63.1483 383.195 -63.3757 386.711 -63.4636C390.244 -63.5574 393.78 -63.4694 397.304 -63.1999C400.841 -62.9136 404.361 -62.4481 407.85 -61.8052C411.346 -61.1715 414.807 -60.3558 418.218 -59.3614C430.556 -55.7748 442.181 -50.0882 452.578 -42.5526C461.009 -36.4853 468.544 -29.2677 474.963 -21.1109C480.234 -14.344 484.701 -6.99 488.273 0.803695C491.846 8.58778 494.584 16.7273 496.44 25.0862C498.002 32.1235 498.918 39.2882 499.175 46.4915C499.307 50.0812 499.28 53.673 499.096 57.2669C498.911 60.8566 498.549 64.4373 498.044 68.0028C497.46 72.3454 496.573 76.642 495.388 80.8612L495.029 82.1619C494.905 82.5894 494.789 83.0107 494.689 83.4019C494.522 83.9985 494.399 84.6065 494.321 85.221L494.291 85.3211L494.324 85.2271L494.245 85.4605L493.926 86.4611L493.947 86.3398C491.129 94.7055 487.558 102.799 483.276 110.522C483.294 110.483 483.291 110.474 483.236 110.54L483.133 110.762L483.236 110.592L483.081 110.877L483.045 110.922ZM491.333 7.29497C491.081 6.6886 490.795 6.04285 490.513 5.37583C490.37 5.03929 490.23 4.69967 490.096 4.34494C489.963 3.9902 489.817 3.63849 489.689 3.2686C489.856 3.65971 490.017 4.02965 490.169 4.38135C490.321 4.73305 490.446 5.07866 490.58 5.4061C490.841 6.06706 491.087 6.68253 491.333 7.29497ZM495.494 20.4262C495.376 19.9956 495.272 19.6136 495.19 19.2649C495.108 18.9163 494.996 18.601 494.908 18.2917C494.71 17.5883 494.728 17.5367 494.938 18.1947C495.057 18.5767 495.202 19.0709 495.312 19.4923C495.367 19.7561 495.403 19.9805 495.494 20.4262Z" fill="#BFEF5B"/>
<path d="M327.659 100.493C328.48 100.441 329.06 100.447 329.373 100.408C329.686 100.369 329.729 100.317 329.455 100.226C328.858 100.056 328.248 99.9365 327.632 99.8683L325.93 99.6378L324.866 99.4984C324.486 99.4559 324.082 99.4286 323.65 99.3892C309.55 98.0967 295.344 100.164 282.202 105.42C274.709 108.331 267.685 112.324 261.355 117.271C260.747 117.753 260.181 118.251 259.595 118.736C259.008 119.221 258.419 119.691 257.847 120.218C256.708 121.259 255.654 122.39 254.695 123.599C253.719 124.819 252.878 126.141 252.185 127.54C251.452 128.977 250.989 130.534 250.817 132.137C250.724 133.071 250.774 134.013 250.966 134.932C251.169 135.893 251.544 136.809 252.072 137.637C252.61 138.487 253.31 139.222 254.133 139.801C254.96 140.371 255.888 140.776 256.868 140.996C258.926 141.421 261.063 141.254 263.029 140.514C264.991 139.818 266.734 138.618 268.084 137.036C268.422 136.639 268.727 136.215 268.996 135.769C269.268 135.337 269.517 134.891 269.74 134.432C270.178 133.516 270.526 132.561 270.78 131.579C271.263 129.636 271.467 127.634 271.388 125.633C271.348 124.459 271.246 123.287 271.084 122.122C270.92 120.967 270.698 119.818 270.442 118.684C269.923 116.429 269.284 114.202 268.528 112.014C266.999 107.648 265.072 103.431 262.771 99.4165C258.189 91.3691 252.404 84.0661 245.614 77.7596C242.177 74.5648 238.532 71.6011 234.702 68.8883C230.887 66.1848 226.885 63.7532 222.727 61.6117C217.569 59.002 212.11 57.0318 206.472 55.7449C199.737 54.158 192.807 53.5564 185.899 53.9592C179.047 54.369 172.283 55.703 165.79 57.9248L164.292 58.4615L163.544 58.7314L162.805 59.0194L161.328 59.5954L159.872 60.2018L159.143 60.505L158.425 60.8385L156.988 61.4995L155.575 62.2029C155.1 62.4363 154.632 62.6728 154.17 62.9275L152.781 63.6763L151.417 64.4647C150.505 64.9801 149.62 65.5592 148.727 66.1079C146.973 67.2661 145.235 68.4516 143.587 69.7462C140.256 72.3294 137.185 75.2317 134.42 78.4114C133.035 80.01 131.737 81.682 130.533 83.4201C129.29 85.1641 128.179 86.9985 127.211 88.9079C125.971 91.2966 125.113 93.8644 124.67 96.518C124.458 97.8745 124.4 99.2506 124.497 100.62C124.607 101.995 124.897 103.35 125.36 104.65C126.253 107.287 127.93 109.59 130.168 111.253C131.309 112.067 132.594 112.659 133.955 112.996C135.272 113.302 136.628 113.404 137.976 113.3C139.851 113.131 141.702 112.753 143.493 112.175C145.241 111.632 146.964 111.038 148.66 110.325C150.374 109.618 152.029 108.776 153.608 107.806C155.212 106.817 156.688 105.634 158 104.283C158.322 103.934 158.647 103.591 158.942 103.215C159.237 102.84 159.532 102.47 159.811 102.082C160.353 101.297 160.832 100.472 161.246 99.6135C162.063 97.8945 162.621 96.0648 162.903 94.1834C163.441 90.4333 163.089 86.6096 161.875 83.0199C161.26 81.139 160.431 79.3345 159.404 77.6413C158.891 76.7982 158.326 75.9881 157.711 75.2158L157.261 74.6307L156.781 74.0697C156.453 73.7029 156.149 73.3118 155.799 72.9692C154.459 71.5305 152.994 70.2116 151.423 69.0277C149.865 67.849 148.229 66.7772 146.526 65.8199C144.372 64.612 142.138 63.5505 139.84 62.6425C137.561 61.7306 135.235 60.9432 132.87 60.2837C128.18 58.8945 123.383 57.8967 118.527 57.3003C113.679 56.7017 108.795 56.4463 103.911 56.5363C99.022 56.6757 94.1479 57.1426 89.3218 57.9339C84.6007 58.7156 79.9512 59.8797 75.4196 61.4146L73.7267 61.9907C73.444 62.0877 73.1613 62.1786 72.8817 62.2938L72.0489 62.6212L68.7329 63.928L65.4929 65.3864L64.6845 65.7472C64.417 65.8775 64.1587 66.014 63.8942 66.1474L62.3198 66.9447L61.1588 67.5359L60.5782 67.8391L60.016 68.1605L57.7668 69.4552L56.6483 70.101L55.5602 70.8013L53.3961 72.2021L52.8551 72.5538L52.3324 72.9297L51.2898 73.6816L49.2048 75.1825L47.1988 76.7803L46.1989 77.5807L45.6974 77.9809L45.2171 78.4023C40.0262 82.8419 35.301 87.7963 31.1143 93.1889C28.4009 96.6599 25.9331 100.315 23.7286 104.128L22.8928 105.547L22.1208 106.999C21.6162 107.973 21.0813 108.928 20.6011 109.91C20.1208 110.892 19.668 111.89 19.203 112.878L18.8504 113.621L18.5464 114.376L17.9173 115.892C17.121 117.802 17.0906 118.06 17.3337 117.769C17.8509 117.122 18.2962 116.422 18.6619 115.68C18.9416 115.158 19.2303 114.518 19.598 113.751C19.9658 112.984 20.4126 112.096 20.902 111.023C23.3758 105.816 26.3017 100.836 29.6463 96.139C33.3878 90.8331 38.0198 85.9124 42.9072 81.3918C47.1881 77.4323 51.8498 73.9033 56.8246 70.8559C61.7777 67.8184 67.0211 65.2793 72.4775 63.2762L73.1704 63.0063L73.8756 62.7698L75.2889 62.2999L76.7053 61.83L77.4135 61.5935C77.6505 61.5207 77.8906 61.457 78.1308 61.3873L81.009 60.5777L81.7294 60.3777C81.9695 60.314 82.2157 60.2624 82.4588 60.2048L83.9147 59.8714L85.3736 59.5348L86.1 59.368L86.8356 59.2346L89.7747 58.7071L90.5072 58.5798L91.2458 58.4797L92.7229 58.2917L94.194 58.1068L94.9295 58.0158C95.1727 57.9885 95.4219 57.9734 95.665 57.9552C101.413 57.4085 107.195 57.3233 112.956 57.7005C118.688 58.0783 124.371 58.9868 129.934 60.414C130.442 60.5262 130.937 60.6748 131.436 60.8233L132.925 61.263C133.916 61.5662 134.91 61.8421 135.882 62.1877C137.831 62.8578 139.748 63.6097 141.615 64.4525C145.347 66.1001 148.841 68.2417 152 70.8195C153.524 72.0763 154.921 73.4776 156.173 75.0036L156.41 75.2825L156.632 75.5857L157.073 76.1709C157.219 76.368 157.377 76.559 157.508 76.7591L157.918 77.3654C158.448 78.1806 158.928 79.027 159.356 79.9001C161.072 83.3565 161.931 87.1737 161.86 91.0303C161.769 94.8262 160.62 98.61 158.307 101.575C158.168 101.764 158.02 101.947 157.863 102.121C157.708 102.3 157.559 102.482 157.401 102.655C157.073 102.988 156.76 103.34 156.404 103.652C155.713 104.295 154.977 104.888 154.201 105.426C153.419 105.969 152.607 106.467 151.769 106.92C150.921 107.363 150.064 107.794 149.171 108.167C146.944 109.101 144.658 109.885 142.326 110.513C139.995 111.138 137.587 111.535 135.335 111.156C135.144 111.129 134.958 111.086 134.773 111.044C134.586 111.006 134.402 110.958 134.22 110.901L133.946 110.819L133.682 110.719L133.15 110.516C132.456 110.201 131.804 109.802 131.208 109.328C130.001 108.355 129.012 107.14 128.305 105.762C127.585 104.369 127.108 102.864 126.892 101.311C126.701 99.7457 126.749 98.1602 127.035 96.6089C127.322 95.0371 127.783 93.5017 128.408 92.0307C129.036 90.543 129.773 89.104 130.615 87.7254C132.314 84.9426 134.255 82.3149 136.417 79.8728C140.138 75.5754 144.393 71.7689 149.079 68.5456C154.066 65.1772 159.476 62.4798 165.17 60.5232C170.838 58.5646 176.724 57.3022 182.698 56.7637C186.324 56.4423 189.917 56.3695 193.217 56.3483C195.146 56.3389 197.074 56.433 198.992 56.6302C199.977 56.7545 200.98 56.8455 201.98 57.0213L203.5 57.2639L205.019 57.5671L205.779 57.7187L206.539 57.8946L208.059 58.2493L209.579 58.6556L210.338 58.8617L211.095 59.0891C213.116 59.6682 215.107 60.3837 217.074 61.1144C217.378 61.2296 217.818 61.454 217.928 61.4873C220.965 62.4691 223.894 63.7573 226.669 65.3318C229.575 66.9387 232.407 68.7912 235.091 70.6164C239.458 73.5899 243.545 76.9518 247.303 80.6611C251.098 84.3927 254.547 88.4577 257.61 92.8069C260.39 96.7276 262.824 100.881 264.886 105.22C266.949 109.548 268.527 114.09 269.594 118.763C270.028 120.634 270.318 122.536 270.464 124.451C270.529 125.415 270.541 126.381 270.5 127.346C270.5 127.831 270.433 128.311 270.397 128.796L270.297 129.514C270.266 129.754 270.227 129.993 270.175 130.23L270.029 130.942L269.841 131.643C269.81 131.761 269.78 131.876 269.746 131.994L269.628 132.337C269.546 132.564 269.473 132.795 269.388 133.022C269.19 133.465 269.023 133.932 268.78 134.341C268.664 134.553 268.567 134.778 268.436 134.981L268.05 135.587C266.955 137.212 265.417 138.492 263.619 139.277C262.171 139.947 260.592 140.292 258.996 140.287C257.405 140.297 255.851 139.809 254.552 138.892C253.284 137.941 252.373 136.593 251.966 135.063C251.6 133.525 251.652 131.917 252.118 130.406C252.567 128.881 253.238 127.431 254.109 126.1C254.968 124.758 255.952 123.499 257.048 122.341C257.595 121.759 258.166 121.203 258.762 120.673C259.37 120.146 259.978 119.642 260.586 119.124C261.801 118.069 263.099 117.135 264.37 116.156C268.735 112.959 273.42 110.221 278.351 107.988C283.269 105.741 288.378 103.935 293.618 102.591C295.201 102.145 296.827 101.827 298.438 101.466C299.247 101.302 300.061 101.181 300.87 101.045C301.678 100.908 302.487 100.784 303.301 100.717C303.967 100.654 304.666 100.563 305.262 100.462C305.566 100.411 305.836 100.359 306.067 100.302C306.256 100.269 306.441 100.22 306.62 100.153L306.806 100.153L307.593 100.084L307.502 100.108L309.933 99.9562L312.365 99.8774L313.581 99.8349L314.815 99.8349L317.292 99.8349L319.784 99.9137L321.036 99.9501L322.288 100.035L324.802 100.196L327.319 100.447C327.288 100.447 327.282 100.447 327.343 100.478L327.528 100.478L327.379 100.453L327.62 100.478L327.659 100.493ZM254.166 125.473C253.613 126.313 253.151 127.292 252.556 128.317C253.013 127.325 253.554 126.374 254.173 125.473L254.166 125.473ZM261.425 118.169C260.911 118.605 260.528 118.942 260.154 119.245C259.732 119.594 259.686 119.591 260.069 119.245C260.294 119.045 260.592 118.796 260.844 118.59C261.011 118.46 261.154 118.357 261.431 118.169L261.425 118.169Z" fill="#BFEF5B"/>
<path d="M20.2697 148.069C18.9537 148.166 18.3762 148.242 18.8199 148.397C19.2987 148.531 19.7861 148.633 20.2789 148.7C21.0448 148.809 22.1025 148.943 23.4763 149.109C34.567 150.392 45.9921 150.377 57.3169 149.337C63.7218 148.799 70.0926 147.914 76.4013 146.687C77.617 146.447 78.7933 146.177 79.9847 145.935C80.5926 145.814 81.1731 145.686 81.7689 145.547C82.3646 145.407 82.9573 145.268 83.5499 145.119C85.9551 144.541 88.3085 143.766 90.5861 142.803C91.2183 142.518 91.8748 142.248 92.5192 141.921C92.8414 141.76 93.1757 141.618 93.4948 141.436L94.4644 140.905C95.7743 140.174 96.9977 139.298 98.1117 138.295C99.3223 137.209 100.377 135.963 101.245 134.59C101.355 134.42 101.476 134.256 101.574 134.077L101.859 133.537L102.145 132.998C102.244 132.819 102.332 132.635 102.409 132.446C102.739 131.705 103.014 130.941 103.233 130.16C104.114 127.034 104.166 123.793 103.926 120.673C103.622 116.96 103.007 113.278 102.087 109.667C101.176 106.064 99.9906 102.536 98.5403 99.1132C97.1034 95.6897 95.4433 92.3636 93.5708 89.1564C91.7143 85.9447 89.6851 82.8356 87.492 79.8424C83.17 73.9029 78.1155 67.8664 73.2859 62.4817C70.1989 59.0958 66.9212 55.888 63.4687 52.8736C59.3648 49.2232 55.0098 45.8638 50.4357 42.8199C45.8657 39.771 41.0128 37.1667 35.9439 35.043C32.7974 33.7259 29.5539 32.6525 26.2422 31.8322C24.5948 31.4078 22.8988 31.1015 21.2332 30.8287C20.8107 30.768 20.3883 30.7195 19.9658 30.6619C19.5433 30.6043 19.1208 30.5436 18.6923 30.5164C17.8443 30.4466 16.9933 30.3526 16.1392 30.3344L14.8596 30.2799L13.577 30.2799C12.7199 30.2799 11.8658 30.3284 11.0117 30.3678C10.5832 30.3678 10.1577 30.4314 9.72912 30.4708L8.44954 30.5952C7.54188 30.7017 6.64368 30.877 5.76273 31.1197C4.80805 31.3799 3.89521 31.7738 3.05158 32.29C2.09915 32.8781 1.31007 33.6955 0.756814 34.667C0.48108 35.1776 0.276566 35.7233 0.148934 36.2891C0.0354927 36.8342 -0.00839924 37.3915 0.0182654 37.9476C0.0752417 38.9548 0.292748 39.9465 0.662613 40.8855C0.865075 41.4137 1.09538 41.9308 1.35256 42.4348C1.60179 42.9199 1.86315 43.3777 2.1215 43.8476C2.37985 44.3176 2.68075 44.7572 2.95734 45.212C3.23392 45.6668 3.56522 46.0882 3.86916 46.5279C5.11355 48.2308 6.52585 49.8052 8.08483 51.2273C11.1372 53.9814 14.6435 56.1887 18.4492 57.752C19.8138 58.328 21.215 58.8101 22.6222 59.2679C24.0295 59.7258 25.4641 60.0774 26.9139 60.3655C27.6342 60.5322 28.3667 60.6384 29.0901 60.7748L30.1873 60.9355C30.552 60.9931 30.9167 61.0416 31.2845 61.078L32.3848 61.2023L33.4911 61.2872C33.8589 61.3205 34.2267 61.3417 34.5975 61.3539L35.7068 61.4054C38.6715 61.4872 41.6374 61.2954 44.5667 60.8324C47.5061 60.3599 50.3949 59.6148 53.1955 58.6069C59.0555 56.4846 64.5811 53.198 69.0004 48.6653C71.8127 45.7721 74.0561 42.3783 75.6141 38.66C76.3884 36.8138 76.9917 34.9008 77.4165 32.9449L77.5836 32.2142L77.7143 31.4805C77.7933 30.9863 77.8936 30.4982 77.9575 30.007L78.1338 28.5244C78.2006 28.0332 78.2128 27.533 78.2523 27.0388L78.3039 26.296C78.3039 26.0504 78.304 25.8017 78.3252 25.5531C78.3252 25.0589 78.3495 24.5617 78.3495 24.0675C78.3222 23.0761 78.3161 22.0846 78.228 21.0993C78.1398 20.1139 78.0395 19.1285 77.924 18.1462C77.766 17.1699 77.6414 16.1876 77.4316 15.2235C77.2219 14.2593 77.0183 13.2891 76.7873 12.328C76.6657 11.8489 76.5229 11.376 76.3922 10.8969L76.1916 10.1844L75.9667 9.47793C75.3861 7.58906 74.6841 5.74267 73.9242 3.91747C72.417 0.378732 70.6355 -3.03743 68.5961 -6.30004C67.5901 -7.92817 66.5354 -9.51993 65.4656 -11.0874C64.3957 -12.6549 63.2833 -14.186 62.1678 -15.6989C58.9366 -20.1698 55.3387 -24.3652 51.4114 -28.242C47.4602 -32.0591 43.0865 -35.4973 38.0958 -38.0017C34.8845 -39.6368 31.4334 -40.7533 27.8713 -41.3095C27.4245 -41.3671 26.9777 -41.4368 26.5309 -41.4823C26.0841 -41.5278 25.6495 -41.5672 25.1754 -41.5975C24.2073 -41.6268 23.2409 -41.4967 22.3153 -41.2125C21.384 -40.9402 20.5047 -40.5149 19.7135 -39.9542C19.2917 -39.6522 18.9151 -39.2919 18.5951 -38.884C18.2301 -38.4295 17.9864 -37.8902 17.8869 -37.3164C17.8087 -36.8572 17.8484 -36.3858 18.0023 -35.946C18.0706 -35.7206 18.1731 -35.5069 18.3063 -35.3124C18.4735 -35.0789 18.4978 -35.1335 18.4553 -35.3124C18.3801 -35.632 18.3343 -35.9577 18.3185 -36.2856C18.3012 -36.7487 18.3918 -37.2094 18.5829 -37.6318C19.0297 -38.599 20.1026 -39.5449 21.8533 -40.2726C22.9387 -40.7197 24.1084 -40.9265 25.2817 -40.8789C26.4393 -40.8061 27.592 -40.6695 28.7345 -40.4697C31.0319 -40.0628 33.2809 -39.4197 35.4454 -38.5505C37.9104 -37.5456 40.2551 -36.2694 42.436 -34.7454C44.6345 -33.2061 46.7375 -31.5355 48.7337 -29.7428C52.2164 -26.6082 55.4244 -23.1829 58.323 -19.504C61.2355 -15.8677 63.9622 -12.0872 66.4929 -8.17685C69.9304 -2.84069 72.9972 2.91387 74.8938 8.96253C76.3143 13.373 77.1442 17.9514 77.3617 22.5789C77.594 27.1926 76.9853 31.8102 75.5654 36.2073C74.5085 39.3632 72.9317 42.3214 70.9 44.9603C68.8773 47.5427 66.5099 49.8369 63.8638 51.7791C61.3105 53.6371 58.5469 55.189 55.6301 56.4027C52.7637 57.6042 49.7817 58.5104 46.7307 59.1072C40.6338 60.2593 34.3662 60.1675 28.3059 58.8374C24.4969 58.0368 20.8078 56.7477 17.3306 55.002C12.7168 52.6371 8.57718 49.2838 5.61681 45.0331L5.06365 44.2357L4.55911 43.408C4.20349 42.8683 3.92387 42.2832 3.61081 41.7192C3.00075 40.6346 2.59876 39.446 2.42544 38.2143C2.36099 37.6433 2.41061 37.0653 2.57137 36.5135C2.74683 35.9806 3.03969 35.4937 3.42845 35.0885C4.21566 34.2669 5.36758 33.7574 6.57118 33.4391C7.65165 33.1704 8.7527 32.9919 9.86287 32.9055L10.7108 32.8115C10.9935 32.7842 11.2762 32.7721 11.5588 32.7508C12.1272 32.7205 12.6956 32.6539 13.2639 32.6508C15.5379 32.5526 17.8162 32.6428 20.0752 32.9206C24.8641 33.5341 29.5453 34.8033 33.9865 36.6923C38.4257 38.5728 42.6842 40.8521 46.7094 43.502C49.1714 45.0938 51.5451 46.7553 53.7821 48.1985C58.8518 51.4487 64.0614 56.045 68.9305 60.7232C69.1098 60.896 69.3742 61.2114 69.4471 61.2659C73.2403 64.2584 76.8511 68.6516 80.2948 72.5598C85.8629 78.8783 90.9326 85.8486 94.9082 93.4284C95.82 95.1354 96.6315 96.8878 97.4217 98.6493L97.981 99.9833L98.2606 100.65L98.519 101.324L99.0387 102.673L99.5189 104.034C100.787 107.671 101.734 111.411 102.352 115.213C102.482 115.968 102.57 116.729 102.683 117.499C102.795 118.269 102.847 119.036 102.932 119.809C103.087 121.36 103.149 122.919 103.118 124.478C103.092 126.04 102.906 127.595 102.564 129.12C102.225 130.639 101.659 132.099 100.884 133.45C100.731 133.732 100.562 134.004 100.376 134.265C100.194 134.529 100.03 134.805 99.835 135.06L99.2272 135.805C99.1238 135.93 99.0266 136.057 98.9232 136.175L98.5889 136.521L97.8807 137.155L97.1573 137.788C96.6862 138.228 96.1482 138.583 95.6376 138.974C93.5104 140.426 91.2075 141.603 88.7838 142.479C86.3619 143.363 83.8846 144.088 81.3677 144.649C78.845 145.216 76.3162 145.75 73.7692 146.223C69.4776 147.031 65.1707 147.665 60.8487 148.124C56.5267 148.582 52.1955 148.894 47.8431 149.091C46.521 149.134 45.1928 149.215 43.8615 149.234C42.5303 149.252 41.2081 149.261 39.9103 149.197C38.8344 149.14 37.6368 149.158 37.2022 149.312L37.1384 149.312L37.1992 149.312L37.0502 149.312L36.415 149.312L36.491 149.294C31.324 148.991 25.9595 148.636 20.5342 148.106C20.5615 148.106 20.5646 148.106 20.5159 148.078L20.367 148.078L20.4855 148.097L20.291 148.078L20.2697 148.069ZM84.7839 144.089C85.562 143.879 86.3614 143.506 87.3036 143.34C86.331 143.646 85.556 143.879 84.7839 144.082L84.7839 144.089ZM76.6597 145.883C77.1885 145.768 77.5714 145.665 77.9666 145.58C78.4012 145.492 78.4316 145.517 78.0304 145.623C77.7964 145.683 77.4924 145.75 77.2311 145.798C77.0669 145.835 76.9302 145.85 76.6597 145.877L76.6597 145.883Z" fill="#BFEF5B"/>
<path d="M36.5062 149.282L36.6126 149.258L37.1536 149.309L37.0654 149.309L36.5062 149.282Z" fill="#BFEF5B"/>
<path d="M7.91454 174.623C8.35829 170.521 8.68045 165.964 9.03606 161.555C9.24578 158.996 9.79896 156.356 9.73817 153.797L9.71992 153.897L9.71992 153.866C9.71992 153.866 9.71994 153.803 9.73817 153.797L9.71992 153.869C9.92052 152.842 9.98436 151.874 10.185 150.953C10.2755 150.49 10.4225 150.04 10.6226 149.613C10.8289 149.174 11.1286 148.784 11.501 148.473C11.4678 148.49 11.4363 148.51 11.4068 148.533C11.4068 148.533 11.5709 148.418 11.577 148.412L11.498 148.476C11.9534 148.17 12.4734 147.972 13.0177 147.9C13.5477 147.827 14.0846 147.82 14.6164 147.878C15.1483 147.93 15.6832 148.024 16.2273 148.121L17.905 148.403C17.0631 148.364 16.589 148.37 16.127 148.315C15.1058 148.182 14.0754 148.06 13.0876 148.251C12.6078 148.337 12.1542 148.532 11.7624 148.821C11.3727 149.116 11.0599 149.499 10.8506 149.94C10.416 150.825 10.2883 151.853 10.1789 152.869C10.0695 153.885 9.97523 154.919 9.87493 155.94C9.53148 159.494 9.36434 163.093 8.99049 166.682C8.66224 169.817 8.5589 173.701 8.03916 175.575C7.86592 176.266 7.82335 175.493 7.91454 174.623Z" fill="#BFEF5B"/>
<path d="M21.7255 146.999C21.7255 146.972 21.9018 146.963 22.0295 146.945C22.2119 146.978 22.528 147.023 22.534 147.039C22.5401 147.054 22.3486 147.072 22.2301 147.09C22.0508 147.057 21.7347 147.014 21.7255 146.999Z" fill="#BFEF5B"/>
<path d="M9.56799 155.382L9.54673 155.482L9.54673 155.367L9.56195 155.367C9.58771 154.873 9.64454 154.381 9.73213 153.894C9.71998 154.412 9.80203 154.961 9.56799 155.382Z" fill="#BFEF5B"/>
<path d="M20.2759 148.069L20.3821 148.087L20.3062 148.087L20.2759 148.069Z" fill="#BFEF5B"/>
<path d="M13.2607 146.42L12.9234 146.435L13.2273 146.362C13.3377 146.356 13.4482 146.356 13.5586 146.362C13.4605 146.387 13.3611 146.407 13.2607 146.42Z" fill="#BFEF5B"/>
<path d="M151.833 12.1975C151.638 11.6215 151.496 11.3789 151.386 11.5638C151.277 11.7488 151.176 12.3612 150.949 13.4951C150.71 14.6319 150.415 15.7562 150.064 16.8636L150.803 17.0213C150.953 16.2046 151.271 15.4281 151.739 14.7413C151.971 14.3958 152.238 14.0749 152.535 13.7832C152.83 13.4862 153.152 13.2163 153.496 12.9767C154.9 12.0105 156.551 11.4636 158.255 11.4001C159.52 11.3432 160.78 11.5961 161.924 12.1368C163.046 12.7176 164.055 13.4927 164.905 14.4259C165.557 15.1378 166.102 15.9406 166.522 16.809C166.948 17.6882 167.299 18.6009 167.574 19.5377C167.846 20.6479 168.006 21.7824 168.051 22.9244C168.258 25.4045 167.726 27.9209 166.972 30.3313C166.462 31.9196 165.841 33.4706 165.115 34.9732C164.939 35.3521 164.753 35.7311 164.568 36.1071L163.823 37.5806L162.045 40.9945L165.143 40.6065L166.72 40.4063C167.045 40.3699 167.158 40.3699 167.328 40.3548L167.845 40.3154L169.911 40.1547L171.984 40.0789C175.073 39.9875 178.161 40.2839 181.175 40.9612C181.595 41.0552 182.032 41.1279 182.482 41.2128C182.932 41.2977 183.394 41.3917 183.853 41.4735C184.312 41.5554 184.795 41.6312 185.269 41.704L186.692 41.983C191.068 42.7781 195.373 43.9259 199.564 45.415C200.217 45.6333 200.846 45.9092 201.475 46.1821C202.105 46.455 202.734 46.7218 203.345 47.025C204.56 47.6526 205.776 48.2378 206.943 48.9563C207.527 49.305 208.116 49.6385 208.694 49.9932L210.405 51.0968C211.557 51.8154 212.667 52.5946 213.776 53.3707C215.122 54.3288 216.414 55.3264 217.633 56.3784C218.832 57.4151 219.962 58.5292 221.016 59.7135C222.55 61.4623 223.734 63.489 224.502 65.6833C225.265 67.9123 225.683 70.2444 225.742 72.5991C225.805 75.0857 225.601 77.5719 225.134 80.0152C224.566 83.1523 223.678 86.2234 222.484 89.1806C221.279 92.1622 219.75 95.0029 217.925 97.6517C216.158 100.246 214.181 102.691 212.013 104.962L210.797 106.174L210.189 106.781L209.581 107.36L208.341 108.518L207.059 109.622L206.417 110.177L205.755 110.698L204.421 111.744L203.035 112.72L202.339 113.205L201.615 113.654L200.682 114.23C200.378 114.424 200.074 114.615 199.734 114.782C199.093 115.131 198.454 115.482 197.807 115.816L195.831 116.725C195.172 117.029 194.491 117.271 193.819 117.538C193.147 117.805 193.132 117.878 193.284 117.941C193.734 118.12 194.421 118.163 195.877 117.517C196.743 117.074 197.625 116.665 198.479 116.204L199.749 115.482L200.381 115.112C200.591 114.985 200.792 114.846 200.989 114.712C201.445 114.409 201.901 114.106 202.39 113.83C202.88 113.554 203.326 113.224 203.801 112.92C204.751 112.322 205.664 111.667 206.536 110.959C209.569 108.476 212.39 105.746 214.97 102.797L215.624 102.036C215.843 101.784 216.061 101.53 216.259 101.26C216.664 100.73 217.076 100.199 217.493 99.6649C218.271 98.5704 219.077 97.4941 219.8 96.3753C220.07 95.966 220.35 95.5597 220.602 95.1413L221.326 93.8679C221.818 93.025 222.213 92.1367 222.63 91.2604C223.429 89.4982 224.109 87.6841 224.663 85.8303C225.516 83.2084 226.152 80.5212 226.566 77.7958C226.951 75.1703 227.046 72.5106 226.851 69.8643C226.647 67.1699 225.969 64.5323 224.848 62.0724C224.115 60.5135 223.175 59.0602 222.052 57.7519C220.575 56.0151 218.934 54.425 217.15 53.0039C216.27 52.2884 215.372 51.6011 214.454 50.9422C213.542 50.2843 212.612 49.6264 211.66 49.017C210.031 47.9103 208.235 47.0704 206.493 46.17C202.811 44.2509 198.988 42.615 195.056 41.2765C194.448 41.0946 193.84 40.9188 193.254 40.7732C192.678 40.6175 192.089 40.516 191.494 40.47C190.19 40.3882 188.841 40.1425 187.436 39.9606C186.734 39.8636 186.035 39.7212 185.309 39.6332L183.181 39.3633C183.075 39.3482 182.908 39.2876 182.877 39.2936C181.8 39.4012 180.713 39.3778 179.64 39.2239C178.519 39.1147 177.376 38.9874 176.273 38.9631L173.589 39.0238C173.142 39.0238 172.695 39.0541 172.246 39.0814L170.899 39.1572C169.987 39.1875 169.106 39.2876 168.209 39.3694L166.86 39.4907C166.404 39.5452 165.948 39.612 165.492 39.6696C164.851 39.7545 164.191 39.8485 163.58 39.9121C164.206 38.7176 164.817 37.5503 165.404 36.3921C165.99 35.2339 166.544 34.0454 167.048 32.8387C168.1 30.404 168.763 27.8197 169.012 25.1801C169.1 24.0837 169.087 22.9815 168.972 21.8875C168.864 20.7915 168.643 19.7095 168.313 18.6585C167.982 17.5995 167.53 16.5821 166.966 15.6265C166.39 14.6681 165.673 13.8014 164.839 13.0555C164.489 12.7406 164.122 12.4461 163.738 12.1732C163.541 12.0429 163.337 11.9246 163.13 11.7973L162.826 11.6123L162.523 11.4516C161.67 11.0319 160.752 10.7573 159.808 10.6391C157.912 10.391 155.984 10.7074 154.268 11.5487C153.231 12.0921 152.29 12.7996 151.48 13.6437C151.134 13.9802 150.873 14.4653 150.915 14.7079L150.915 14.7322L150.933 14.7109L150.897 14.7655L150.763 15.0111L150.763 14.9747C150.399 15.5663 150.145 16.2185 150.012 16.9L150.866 17.0819C151.383 15.538 151.704 13.9359 151.824 12.3127C151.824 12.3127 151.824 12.3127 151.851 12.3127L151.851 12.246L151.851 12.2975L151.851 12.2126L151.833 12.1975ZM167.376 17.0486C167.446 17.2032 167.547 17.3517 167.632 17.5154C167.721 17.6887 167.771 17.8789 167.781 18.0733C167.708 17.8702 167.65 17.6882 167.58 17.5215L167.376 17.0486ZM165.553 14.0651C165.69 14.1958 165.814 14.3389 165.924 14.4926C166.036 14.6442 166.018 14.6716 165.896 14.5442C165.817 14.4612 165.745 14.372 165.68 14.2774C165.638 14.2071 165.601 14.1342 165.568 14.0591L165.553 14.0651Z" fill="#BFEF5B"/>
<path d="M150.745 14.9802L150.745 14.9258L150.9 14.7383L150.882 14.7715L150.745 14.9802Z" fill="#BFEF5B"/>
<path d="M149.11 -2.48279C149.657 -0.790989 150.292 1.03121 150.745 2.85036C150.857 3.39001 150.938 3.9356 150.988 4.48452C151.028 5.03477 151.152 5.5757 151.356 6.08841C151.356 6.08841 151.356 6.06116 151.356 6.046L151.356 6.07627L151.356 6.04296C151.295 6.95253 151.508 7.66501 151.626 8.44421L151.626 8.39876L151.626 8.48366L151.626 8.44421C151.562 9.35387 151.45 10.2596 151.292 11.1577C151.258 10.803 151.204 10.606 151.204 10.4119C151.251 8.68701 151.137 6.96144 150.863 5.25767C150.629 3.7781 150.161 2.34706 149.8 0.882653C149.496 -0.411971 148.733 -1.84606 148.76 -2.75563C148.781 -3.10733 148.994 -2.84359 149.11 -2.48279Z" fill="#BFEF5B"/>
<path d="M152.967 12.9102C152.991 12.9102 153.009 12.9918 153.031 13.0432C153.017 13.1202 152.995 13.1953 152.964 13.267C152.936 13.267 152.921 13.1823 152.9 13.1309C152.914 13.0551 152.936 12.9811 152.967 12.9102Z" fill="#BFEF5B"/>
<path d="M151.283 5.41825L151.283 5.3728L151.31 5.41522L151.292 5.41522C151.348 5.61843 151.369 5.82953 151.356 6.03981C151.286 5.83667 151.128 5.63049 151.283 5.41825Z" fill="#BFEF5B"/>
<path d="M151.833 12.2007C151.831 12.2163 151.831 12.232 151.833 12.2476L151.833 12.2131L151.833 12.2007Z" fill="#BFEF5B"/>
<path d="M153.003 9.27455L153.031 9.15967L153.064 9.26244C153.06 9.30171 153.05 9.34035 153.037 9.3774C153.037 9.3774 153.015 9.31084 153.003 9.27455Z" fill="#BFEF5B"/>
<path d="M120.014 168.777C119.36 168.714 119.059 168.717 119.199 168.905C119.339 169.092 119.922 169.478 121.059 170.117C121.634 170.436 122.214 170.754 122.822 171.027C123.43 171.3 124.038 171.56 124.664 171.806C125.925 172.265 127.22 172.627 128.536 172.892C129.863 173.145 131.207 173.305 132.557 173.371C133.912 173.423 135.268 173.385 136.618 173.255C138.143 173.106 139.655 172.848 141.143 172.482C141.514 172.382 141.891 172.297 142.259 172.179L143.359 171.824C144.08 171.567 144.763 171.306 145.438 171.127C145.916 170.988 146.415 170.933 146.912 170.966C147.365 171.005 147.8 171.162 148.174 171.421C148.585 171.724 148.962 172.07 149.298 172.455C149.695 172.904 150.118 173.329 150.566 173.728C151.148 174.254 151.845 174.638 152.602 174.85C153.369 175.049 154.172 175.068 154.948 174.908C155.716 174.747 156.466 174.513 157.188 174.21C157.9 173.925 158.55 173.604 159.225 173.301L160.231 172.84L161.219 172.346L162.206 171.852C162.535 171.685 162.851 171.497 163.176 171.321C169.303 167.934 175.011 163.787 179.893 158.723C182.303 156.228 184.832 153.487 187.072 150.84C187.376 150.455 187.71 150.046 188.032 149.628L188.512 148.979L188.977 148.291C189.607 147.33 190.184 146.336 190.707 145.313C191.337 144.099 191.861 142.833 192.272 141.529C192.691 140.19 192.947 138.806 193.035 137.406C193.056 137.051 193.072 136.697 193.059 136.342L193.059 135.808L193.014 135.275C192.996 135.096 192.992 134.923 192.962 134.738L192.874 134.189C192.814 133.827 192.731 133.468 192.628 133.116C192.236 131.718 191.603 130.4 190.755 129.22L190.342 128.689L190.135 128.426C190.063 128.341 189.987 128.259 189.911 128.177L189.455 127.68L188.959 127.219L188.71 126.991L188.443 126.779L187.902 126.364L187.318 125.997C187.221 125.936 187.126 125.87 187.014 125.815L186.71 125.66C185.874 125.222 184.971 124.923 184.038 124.775L183.324 124.693C183.084 124.678 182.844 124.678 182.604 124.693C182.125 124.691 181.647 124.737 181.178 124.833C179.368 125.207 177.69 126.053 176.315 127.286C175.642 127.862 175.031 128.506 174.492 129.208C173.949 129.905 173.478 130.655 173.084 131.445C172.16 133.345 171.643 135.417 171.565 137.527C171.486 139.54 171.774 141.551 172.416 143.461C172.866 144.836 173.465 146.157 174.203 147.402C174.934 148.653 175.819 149.807 176.838 150.837C177.866 151.88 179.044 152.765 180.333 153.463C181.626 154.136 182.997 154.645 184.415 154.979C187.376 155.673 190.418 155.676 193.348 155.337C197.06 154.867 200.699 153.938 204.181 152.572C205.915 151.905 207.614 151.151 209.271 150.313C210.937 149.488 212.56 148.576 214.153 147.608C214.937 147.148 215.672 146.635 216.441 146.126C217.21 145.617 217.925 145.074 218.63 144.504C219.335 143.934 220.037 143.364 220.73 142.788C221.423 142.212 222.089 141.608 222.733 140.99C226.608 137.394 229.669 133.192 232.252 128.689C233.905 125.784 235.313 122.747 236.462 119.609C236.735 118.872 236.702 118.76 236.547 118.854C236.253 119.04 236.005 119.291 235.824 119.588C235.677 119.818 235.548 120.059 235.438 120.309C235.271 120.653 235.123 121.005 234.994 121.364C234.214 123.397 233.326 125.387 232.334 127.325C231.237 129.523 229.696 131.57 228.243 133.61C225.692 137.195 222.634 140.394 219.165 143.106C216.823 144.989 214.311 146.65 211.66 148.069C207.776 150.089 203.852 151.917 199.67 153.123C198.913 153.327 198.15 153.536 197.391 153.684C197.011 153.76 196.631 153.848 196.248 153.912L195.099 154.094C193.575 154.325 192.038 154.455 190.497 154.485C187.503 154.533 184.531 154.042 181.956 152.766C179.382 151.489 177.379 149.394 176.014 146.926C175.158 145.374 174.526 143.709 174.136 141.981C173.607 139.658 173.647 137.242 174.255 134.938C174.855 132.642 176.154 130.587 177.972 129.056C178.733 128.403 179.582 127.86 180.495 127.443C180.946 127.244 181.418 127.095 181.902 126.998L182.263 126.94C182.385 126.922 182.507 126.925 182.628 126.916C182.871 126.89 183.115 126.89 183.358 126.916C184.404 127.003 185.411 127.347 186.291 127.919C187.182 128.497 187.959 129.234 188.582 130.093C189.211 130.949 189.698 131.9 190.026 132.91C190.351 133.912 190.509 134.961 190.494 136.014C190.494 137.309 190.312 138.579 190.19 139.792C190.015 141.257 189.604 142.684 188.974 144.019C188.313 145.448 187.55 146.829 186.692 148.151C186.628 148.248 186.491 148.388 186.476 148.427C186.26 148.977 185.997 149.507 185.692 150.013C185.37 150.522 185.002 151.022 184.622 151.529C184.242 152.035 183.832 152.508 183.428 152.99C183.023 153.472 182.64 153.963 182.251 154.436C179.785 157.587 176.994 160.471 173.923 163.041C171.14 165.365 168.158 167.442 165.012 169.247C162.475 170.72 159.855 172.048 157.167 173.225C156.055 173.683 154.888 174.071 153.705 174.053C153.122 174.046 152.547 173.908 152.024 173.649C151.513 173.36 151.052 172.989 150.66 172.552C150.243 172.121 149.848 171.642 149.395 171.224C148.937 170.771 148.382 170.427 147.772 170.217C147.151 170.034 146.495 169.998 145.858 170.111C145.244 170.22 144.641 170.386 144.058 170.605C143.569 170.778 143.095 170.975 142.611 171.13C142.128 171.285 141.651 171.457 141.162 171.585C140.915 171.651 140.675 171.724 140.429 171.785L139.688 171.949C139.195 172.073 138.694 172.14 138.198 172.231C136.199 172.544 134.173 172.645 132.153 172.534C130.921 172.509 129.697 172.339 128.506 172.027C128.028 171.879 127.478 171.806 127.247 171.9L127.22 171.9L127.244 171.9L127.177 171.876L126.892 171.8L126.931 171.8C124.587 170.998 122.306 170.022 120.108 168.88C120.108 168.88 120.126 168.88 120.108 168.853L120.038 168.838L120.083 168.871L120.001 168.829L120.014 168.777ZM149.07 171.275C149.413 171.504 149.703 171.804 149.918 172.155C149.652 171.846 149.369 171.553 149.07 171.275ZM145.441 170.366C145.641 170.31 145.844 170.268 146.049 170.239C146.259 170.239 146.274 170.254 146.082 170.29C145.97 170.32 145.824 170.336 145.703 170.357C145.581 170.378 145.572 170.363 145.441 170.372L145.441 170.366Z" fill="#BFEF5B"/>
<path d="M126.947 171.773L127.001 171.773L127.235 171.882L127.193 171.882L126.947 171.773Z" fill="#BFEF5B"/>
<path d="M104.142 164.29C105.174 164.124 106.22 164.072 107.263 164.135C108.32 164.213 109.366 164.396 110.385 164.684C111.57 165.015 112.616 165.773 113.832 165.982L113.792 165.955L113.807 165.955L113.832 165.979L113.804 165.955C114.622 166.528 115.433 166.761 116.236 167.095L116.193 167.064L116.275 167.11L116.233 167.11L118.755 168.817C118.486 168.737 118.222 168.641 117.965 168.529C116.251 167.598 114.528 166.679 112.762 165.93C111.216 165.305 109.604 164.858 107.956 164.596C107.2 164.48 106.433 164.457 105.671 164.527C105.034 164.608 104.392 164.64 103.75 164.621C103.382 164.56 103.716 164.369 104.142 164.29Z" fill="#BFEF5B"/>
<path d="M121.123 167.998C121.123 167.974 121.217 167.998 121.275 167.998C121.344 168.04 121.408 168.089 121.466 168.143C121.466 168.167 121.369 168.143 121.312 168.143C121.245 168.095 121.12 168.016 121.123 167.998Z" fill="#BFEF5B"/>
<path d="M113.151 165.654L113.111 165.624L113.175 165.624L113.175 165.639C113.398 165.711 113.611 165.813 113.807 165.942C113.549 165.903 113.266 165.918 113.151 165.654Z" fill="#BFEF5B"/>
<path d="M120.015 168.78L120.059 168.811L120.021 168.811C120.021 168.811 120.012 168.777 120.015 168.78Z" fill="#BFEF5B"/>
<path d="M117.695 166.345L117.604 166.261L117.713 166.288C117.749 166.315 117.81 166.361 117.807 166.37C117.804 166.379 117.737 166.354 117.695 166.345Z" fill="#BFEF5B"/>
<path d="M72.1582 188.833C72.3315 189.5 72.4409 189.797 72.5685 189.585C72.6692 189.356 72.7397 189.114 72.7783 188.867C72.8178 188.676 72.8634 188.451 72.909 188.187C72.9545 187.924 72.988 187.62 73.0336 187.278C73.2169 185.889 73.3285 184.491 73.3679 183.091C73.3892 181.684 73.3679 180.268 73.2646 178.846C73.065 176.008 72.6165 173.193 71.9242 170.433C71.5534 168.871 71.1036 167.328 70.6082 165.794C70.0989 164.256 69.497 162.751 68.8058 161.285L68.3955 160.461L68.131 159.924L67.8484 159.369C67.4502 158.663 67.0581 157.929 66.6509 157.213C66.2345 156.546 65.818 155.861 65.3865 155.2C64.9549 154.539 64.5263 153.906 64.0643 153.263C63.8424 152.96 63.6084 152.614 63.3653 152.256L63.2011 152.256C63.186 152.256 63.1707 152.256 63.1586 152.256L63.1586 152.378L63.1282 152.62C63.0917 152.951 63.0522 153.278 63.0158 153.612C62.9344 154.274 62.8887 154.94 62.879 155.607L62.8607 156.301C62.8607 156.531 62.879 156.777 62.8881 157.013L62.9519 158.429C62.956 158.555 62.9713 158.679 62.9975 158.802L63.0613 159.19L63.189 159.966L63.3136 160.74C63.3531 160.994 63.4321 161.264 63.4929 161.528L63.8881 162.874C64.0127 163.256 64.1707 163.623 64.3105 163.999C64.602 164.743 64.9337 165.471 65.3044 166.179C66.2068 167.845 67.2695 169.42 68.4775 170.881C69.7112 172.314 71.0712 173.633 72.5412 174.823C74.0389 175.986 75.6461 177.001 77.3404 177.855C79.0416 178.684 80.8109 179.367 82.6289 179.895C86.3067 180.935 90.0702 181.645 93.8747 182.017C96.2028 182.213 98.5445 182.176 100.865 181.908C102.251 181.769 103.631 181.587 104.99 181.347C106.348 181.108 107.725 180.835 109.06 180.505C110.394 180.174 111.746 179.768 113.068 179.322C114.396 178.856 115.697 178.317 116.965 177.709C118.555 176.947 120.074 176.047 121.506 175.02C122.959 173.973 124.271 172.743 125.408 171.36C126.545 169.955 127.466 168.39 128.144 166.715C128.803 165.073 129.266 163.36 129.524 161.61C129.685 160.552 129.788 159.487 129.828 158.457C129.852 157.935 129.873 157.417 129.879 156.901C129.885 156.386 129.861 155.87 129.852 155.358C129.843 154.846 129.822 154.339 129.803 153.842C129.785 153.345 129.718 152.829 129.676 152.326C129.633 151.823 129.572 151.323 129.524 150.825C129.475 150.328 129.369 149.837 129.293 149.346C128.831 146.452 128.213 143.586 127.442 140.759C127.241 140.053 127.041 139.349 126.834 138.637L126.135 136.545C126.013 136.199 125.916 135.842 125.776 135.502L125.375 134.471L124.974 133.44L124.773 132.925L124.548 132.419L123.594 130.296C123.257 129.599 122.886 128.917 122.53 128.225C122.348 127.886 122.184 127.531 121.98 127.201L121.372 126.2C120.965 125.539 120.594 124.854 120.138 124.223C117.947 120.929 115.365 117.911 112.448 115.234C109.535 112.566 106.367 110.189 102.99 108.136C99.689 106.161 96.1872 104.541 92.5434 103.303C91.893 103.045 91.2183 102.861 90.5496 102.657L89.5497 102.354C89.2184 102.254 88.884 102.157 88.5436 102.087L86.5194 101.627L86.0148 101.511L85.5042 101.426L84.483 101.257L83.4648 101.087L82.9542 101.005L82.4405 100.95L80.3889 100.72C80.0485 100.675 79.705 100.656 79.3616 100.638L78.3282 100.574C77.6413 100.535 76.9544 100.465 76.2614 100.471C75.3709 100.471 74.4803 100.423 73.5898 100.438L70.9273 100.523L68.2769 100.729C67.8332 100.753 67.3955 100.823 66.9578 100.878L65.6418 101.044C64.809 101.147 64.7299 101.229 64.888 101.32C65.3713 101.596 66.1463 101.778 68.0125 101.487L69.7359 101.311C70.3103 101.26 70.8817 101.181 71.4592 101.169L73.1947 101.084C73.4986 101.084 73.7752 101.041 74.067 101.041L74.9393 101.041C75.5928 101.041 76.2493 101.041 76.9119 101.06L78.8996 101.241L79.8996 101.335L80.8935 101.478C81.556 101.572 82.2217 101.657 82.8873 101.727C87.523 102.364 92.043 103.662 96.3093 105.58C96.671 105.744 97.0418 105.883 97.3974 106.065L98.4703 106.599C99.1815 106.963 99.9109 107.293 100.598 107.706C101.285 108.118 101.99 108.494 102.668 108.918C103.345 109.343 103.996 109.798 104.649 110.243L105.008 110.486L105.358 110.75L106.054 111.271L107.455 112.293L108.801 113.375C109.248 113.742 109.713 114.076 110.142 114.467L111.436 115.604C111.652 115.795 111.874 115.977 112.084 116.174L112.692 116.78L113.907 117.993C114.12 118.19 114.309 118.405 114.515 118.62L115.093 119.26C117.286 121.71 119.187 124.405 120.758 127.292C121.175 127.968 121.503 128.689 121.858 129.39C122.032 129.744 122.202 130.096 122.375 130.445C122.548 130.793 122.679 131.163 122.837 131.521C123.141 132.243 123.445 132.952 123.709 133.68C123.974 134.408 124.211 135.141 124.463 135.872C125.374 138.82 126.085 141.827 126.591 144.871C126.718 145.82 126.867 146.781 127.031 147.742C127.147 148.712 127.262 149.682 127.378 150.643L127.509 152.587L127.569 153.56C127.569 153.884 127.569 154.209 127.569 154.533L127.569 156.483C127.569 157.135 127.524 157.78 127.475 158.426C127.331 161 126.765 163.533 125.801 165.924C125.377 166.942 124.88 167.928 124.314 168.874C124.171 169.108 124.01 169.332 123.858 169.562C123.71 169.795 123.549 170.019 123.378 170.236C123.043 170.675 122.679 171.092 122.29 171.485C121.466 172.323 120.559 173.076 119.582 173.731C119.08 174.034 118.594 174.38 118.062 174.641C117.804 174.78 117.549 174.944 117.284 175.059L116.485 175.441C116.22 175.575 115.947 175.69 115.673 175.799L114.853 176.139C114.293 176.336 113.746 176.56 113.175 176.745L112.327 177.015C112.044 177.103 111.755 177.179 111.47 177.26C110.901 177.427 110.318 177.564 109.74 177.706C108.33 178.034 106.932 178.343 105.665 178.755C104.147 179.235 102.591 179.583 101.014 179.795C100.197 179.922 99.3608 179.995 98.5219 180.08L97.2606 180.168L96.6284 180.207L95.9993 180.232C95.8747 180.232 95.671 180.204 95.6254 180.217C95.3246 180.288 95.0202 180.344 94.7136 180.383C94.4096 180.417 94.0844 180.438 93.7653 180.453C93.1094 180.478 92.4527 180.461 91.7988 180.404C91.1332 180.371 90.4676 180.262 89.805 180.192C89.1424 180.123 88.4859 180.001 87.8385 179.947C83.5976 179.491 79.4963 178.169 75.7903 176.063C74.1334 175.073 72.593 173.902 71.1978 172.57C70.8574 172.231 70.4987 171.909 70.1765 171.554L69.2191 170.478C68.6054 169.741 68.0341 168.969 67.5079 168.168C67.0672 167.543 66.7025 166.867 66.3165 166.197L66.1737 165.945L66.046 165.685L65.7968 165.16L65.5445 164.636C65.4553 164.463 65.3771 164.285 65.3105 164.102L64.888 163.014L64.7816 162.741C64.7482 162.65 64.7239 162.556 64.6965 162.462L64.5324 161.907L64.3774 161.388L64.3014 161.128L64.2467 160.864C64.1768 160.512 64.1038 160.16 64.0339 159.809C63.9864 159.582 63.9539 159.352 63.9367 159.121L63.8668 158.435C63.8188 157.984 63.8026 157.53 63.8182 157.077L63.8182 156.407L63.8881 155.746L63.958 155.094L63.9762 154.933L63.9762 154.882L63.9762 154.9L64.0248 154.976L64.2254 155.279C65.0734 156.477 65.7968 157.705 66.4837 158.899C66.8028 159.506 67.1432 160.112 67.432 160.718L67.6843 161.228C67.7663 161.401 67.8605 161.573 67.9396 161.752L68.4228 162.816C70.1387 166.778 71.3301 170.945 71.9668 175.214L72.1218 176.187C72.1704 176.512 72.2069 176.839 72.2464 177.166C72.3303 177.816 72.3689 178.47 72.3619 179.125C72.3619 179.656 72.4166 180.244 72.5868 180.453L72.5868 180.526L72.5868 180.829L72.5655 180.793C72.4804 183.367 72.3801 186.007 72.1248 188.691C72.1248 188.691 72.1248 188.676 72.0944 188.691L72.0944 188.767L72.0944 188.709L72.0944 188.803L72.1582 188.833ZM66.1463 157.659C66.0399 157.48 65.9305 157.356 65.8211 157.18C65.6715 156.951 65.5433 156.708 65.4381 156.455C65.736 156.919 65.9335 157.295 66.1463 157.659ZM68.052 161.428C67.9244 161.191 67.8241 161.012 67.7481 160.84C67.6721 160.667 67.6782 160.615 67.7876 160.791C67.8561 160.908 67.918 161.028 67.973 161.152C68.0043 161.242 68.0307 161.335 68.052 161.428Z" fill="#BFEF5B"/>
<path d="M72.6324 180.813L72.6051 180.762L72.6384 180.492L72.6384 180.535L72.6324 180.813Z" fill="#BFEF5B"/>
<path d="M67.2009 205.427C68.4074 203.617 69.371 201.656 70.0671 199.597C70.4865 198.384 71.1977 197.207 71.2069 195.898L71.1856 195.943L71.1856 195.928C71.6354 194.973 71.6628 194.066 71.7783 193.157L71.76 193.208L71.7813 193.114L71.7813 193.154C71.9242 192.66 72.0853 192.165 72.216 191.656C72.3466 191.147 72.4834 190.607 72.6263 190.043C72.6454 190.346 72.6454 190.65 72.6263 190.953C72.3117 193 71.8681 195.025 71.298 197.016C70.8057 198.732 70.3041 200.482 69.4926 202.107C68.8027 203.526 67.9942 205.306 67.1705 205.933C66.8483 206.164 66.9548 205.785 67.2009 205.427Z" fill="#BFEF5B"/>
<path d="M71.0369 188.053C71.0126 188.053 70.9913 187.965 70.9701 187.911C70.9822 187.829 71.0026 187.748 71.0308 187.669C71.0581 187.669 71.0763 187.76 71.1006 187.814C71.0872 187.896 71.0659 187.976 71.0369 188.053Z" fill="#BFEF5B"/>
<path d="M70.9881 196.659L70.9608 196.704L70.9608 196.641C71.0034 196.398 71.0738 196.161 71.1705 195.934C71.1705 196.204 71.2313 196.501 70.9881 196.659Z" fill="#BFEF5B"/>
<path d="M72.1586 188.83C72.1586 188.803 72.1586 188.797 72.1736 188.779L72.1736 188.815L72.1586 188.83Z" fill="#BFEF5B"/>
<path d="M70.6355 191.962L70.5809 192.077L70.5809 191.962C70.5936 191.922 70.6109 191.883 70.6325 191.847C70.6325 191.847 70.6325 191.92 70.6355 191.962Z" fill="#BFEF5B"/>
<path d="M216.113 161.301C215.934 161.831 215.916 162.098 216.113 162.034C216.286 161.947 216.447 161.838 216.593 161.71C216.824 161.525 217.119 161.255 217.526 160.928C220.778 158.205 224.515 156.117 228.541 154.773C230.83 154.076 233.194 153.651 235.583 153.509C236.487 153.428 237.394 153.396 238.301 153.412C238.754 153.412 239.212 153.445 239.662 153.457C240.112 153.469 240.574 153.457 241.033 153.506C241.541 153.533 242.07 153.6 242.604 153.663C243.139 153.727 243.677 153.839 244.212 153.888C246.524 154.169 248.811 154.622 251.054 155.243C256.431 156.653 261.503 158.954 266.537 161.352C267.778 161.933 268.954 162.645 270.044 163.475C271.099 164.276 272.042 165.215 272.846 166.267C273.272 166.846 273.719 167.446 274.099 168.086C274.473 168.681 274.758 169.326 274.947 170.002C275.047 170.363 275.101 170.735 275.108 171.109C275.121 171.477 275.088 171.844 275.007 172.203C274.992 172.296 274.97 172.387 274.941 172.476C274.913 172.567 274.892 172.664 274.862 172.746C274.789 172.907 274.731 173.068 274.664 173.231C274.597 173.395 274.488 173.534 274.4 173.689C274.311 173.844 274.178 173.968 274.068 174.114C273.105 175.22 271.421 175.902 269.768 175.896C268.763 175.913 267.776 175.629 266.935 175.081C266.099 174.516 265.424 173.744 264.977 172.84C264.515 171.907 264.231 170.897 264.139 169.86C264.048 168.808 264.124 167.747 264.363 166.719C264.418 166.4 264.537 166.112 264.622 165.794C264.707 165.476 264.838 165.203 264.996 164.909C265.278 164.313 265.616 163.746 266.005 163.214C266.806 162.127 267.762 161.163 268.844 160.352C270.506 159.119 272.437 158.296 274.479 157.951C276.58 157.601 278.72 157.556 280.834 157.817C283.093 158.093 285.333 158.506 287.542 159.054C288.958 159.403 290.369 159.757 291.764 160.161C293.159 160.564 294.539 161.007 295.894 161.522C297.253 162.029 298.584 162.607 299.882 163.253C301.182 163.899 302.436 164.636 303.632 165.458C304.222 165.846 304.784 166.279 305.362 166.67C305.939 167.061 306.489 167.519 307.021 167.98C308.107 168.864 309.123 169.83 310.061 170.869C311.417 172.371 312.654 173.976 313.76 175.669C314.863 177.355 315.763 179.166 316.44 181.063L316.744 181.972L316.997 182.915L317.124 183.385L317.222 183.858L317.41 184.81C317.617 186.077 317.703 187.36 317.668 188.642C317.668 189.249 317.723 189.319 317.839 189.215C318.05 189.02 318.201 188.769 318.276 188.491C318.341 188.279 318.384 188.06 318.404 187.839C318.419 187.536 318.41 187.231 318.377 186.929C318.224 185.183 317.861 183.46 317.298 181.799C316.65 179.947 316.015 177.985 314.96 176.245C313.124 173.226 310.883 170.472 308.298 168.059C306.492 166.444 304.554 164.981 302.505 163.687C299.52 161.746 296.198 160.512 292.855 159.512C290.423 158.778 288.049 158.069 285.633 157.514C283.299 156.938 280.926 156.533 278.533 156.301C276.081 156.064 273.606 156.29 271.239 156.968C269.726 157.441 268.303 158.164 267.029 159.106C265.293 160.356 263.879 161.999 262.902 163.899C261.942 165.837 261.537 168.001 261.728 170.154C261.817 171.097 262.06 172.019 262.449 172.883C262.832 173.751 263.345 174.558 263.968 175.275C264.624 176.051 265.416 176.701 266.306 177.194C267.205 177.676 268.19 177.976 269.205 178.079C271.262 178.332 273.34 177.822 275.044 176.645C275.568 176.28 276.026 175.829 276.399 175.311C276.497 175.188 276.58 175.055 276.649 174.914C276.725 174.778 276.795 174.641 276.865 174.505C276.93 174.368 276.982 174.226 277.02 174.08C277.062 173.938 277.102 173.795 277.135 173.653C277.42 172.365 277.399 171.029 277.074 169.751C276.719 168.469 276.098 167.276 275.251 166.249C275.19 166.173 275.123 166.021 275.09 166.003C274.304 165.405 273.552 164.763 272.837 164.081C272.096 163.379 271.286 162.753 270.421 162.21C269.021 161.396 267.57 160.671 266.078 160.039C264.598 159.372 263.102 158.721 261.604 158.081C258.89 156.929 256.16 155.855 253.358 154.937C251.082 154.207 248.758 153.634 246.404 153.221L244.942 152.972L243.471 152.778L242.732 152.681L241.994 152.617C241.501 152.581 241.006 152.529 240.513 152.499C239.523 152.472 238.532 152.408 237.541 152.457C237.045 152.475 236.547 152.457 236.052 152.514L234.571 152.645C232.904 152.816 231.254 153.12 229.635 153.554C228.014 153.984 226.434 154.554 224.912 155.258C224 155.701 223.088 156.213 222.177 156.635C221.791 156.798 221.42 157.083 221.362 157.302L221.31 157.329L221.104 157.456L221.104 157.426C219.267 158.392 217.612 159.669 216.213 161.201C216.213 161.201 216.213 161.186 216.186 161.201L216.162 161.255L216.198 161.228L216.147 161.283L216.113 161.301ZM238.836 152.751C239.14 152.751 239.477 152.657 239.833 152.799L238.836 152.751ZM235.666 152.751C235.872 152.726 236.027 152.702 236.173 152.693C236.319 152.684 236.355 152.714 236.197 152.748C236.097 152.765 235.995 152.776 235.893 152.778C235.822 152.779 235.751 152.774 235.681 152.763L235.666 152.751Z" fill="#BFEF5B"/>
<path d="M210.135 173.398C210.578 171.77 211.109 170.167 211.724 168.595C212.098 167.686 212.849 166.922 213.053 165.927L213.025 165.955L213.05 165.955L213.025 165.973C213.285 165.702 213.505 165.396 213.679 165.063C213.858 164.76 213.983 164.429 214.174 164.12L214.144 164.148L214.192 164.09L214.174 164.12C214.741 163.519 215.338 162.947 215.964 162.407C215.797 162.683 215.724 162.853 215.615 162.992C214.606 164.184 213.721 165.475 212.974 166.846C212.326 168.031 211.916 169.326 211.402 170.584C211.283 170.871 211.181 171.164 211.098 171.463L210.962 171.918C210.925 172.07 210.886 172.221 210.846 172.367C210.673 172.952 210.542 173.486 210.262 173.822C210.071 174.035 210.034 173.728 210.135 173.398Z" fill="#BFEF5B"/>
<path d="M215.639 160.078C215.618 160.078 215.639 159.994 215.664 159.942C215.727 159.897 215.83 159.815 215.843 159.824C215.855 159.833 215.824 159.912 215.815 159.96C215.755 160.003 215.654 160.087 215.639 160.078Z" fill="#BFEF5B"/>
<path d="M212.739 166.449L212.709 166.479L212.709 166.428C212.783 166.25 212.886 166.087 213.013 165.942C212.97 166.152 212.989 166.394 212.739 166.449Z" fill="#BFEF5B"/>
<path d="M216.113 161.301L216.15 161.276L216.134 161.304L216.113 161.301Z" fill="#BFEF5B"/>
<path d="M213.566 162.659L213.478 162.722C213.478 162.695 213.503 162.662 213.515 162.628C213.527 162.595 213.591 162.559 213.6 162.562C213.609 162.565 213.578 162.622 213.566 162.659Z" fill="#BFEF5B"/>
<path d="M157.018 -29.0273C156.41 -29.3911 156.356 -29.3062 156.459 -28.2602C156.669 -26.1531 157.17 -24.0792 157.623 -21.9932C157.878 -20.8199 158.006 -19.6102 158.301 -18.4368C158.532 -17.5485 158.605 -16.6389 158.93 -15.7081C159.109 -15.2018 159.21 -14.5802 159.538 -14.0527C159.883 -13.4692 160.312 -12.9392 160.811 -12.4792C161.311 -12.0386 161.877 -11.6795 162.489 -11.4149C163.17 -11.1291 163.868 -10.887 164.58 -10.6903L166.595 -10.1142C167.93 -9.7292 169.264 -9.33809 170.61 -8.98336C171.981 -8.61142 173.301 -8.07595 174.543 -7.38857C175.319 -7.01375 176.135 -6.72694 176.975 -6.53355C178.96 -5.99084 180.972 -5.66645 182.968 -5.26927C185.446 -4.7781 187.74 -3.78064 190.196 -3.25612C190.95 -3.09543 191.698 -2.95289 192.448 -2.84071C193.199 -2.72853 193.968 -2.63761 194.646 -2.5709C195.661 -2.46782 196.609 -2.17975 197.254 -1.62188C197.573 -1.34941 197.827 -1.0084 197.995 -0.624371C198.17 -0.206083 198.283 0.234936 198.333 0.68536C198.41 1.77214 198.421 2.86269 198.363 3.95073C198.327 6.88561 198.667 9.79624 198.551 12.7433C198.491 14.1773 198.551 15.6145 198.521 17.0243C198.454 19.1073 198.667 21.1356 198.664 23.1942C198.664 24.5222 198.624 25.8411 198.509 27.1539C198.478 27.4571 198.548 27.5026 198.664 27.4571C199.01 27.2994 199.32 27.0266 199.311 26.3141C199.311 25.4409 199.311 24.5768 199.247 23.6976C199.171 22.7152 199.372 21.6996 199.308 20.6899C199.217 18.9336 199.217 17.1737 199.308 15.4174C199.357 14.2047 199.351 12.9919 199.457 11.8125C199.612 10.057 199.421 8.32583 199.342 6.59158C199.319 5.35223 199.361 4.11254 199.466 2.87749C199.527 1.68292 199.661 0.500433 199.387 -0.733551C199.247 -1.37446 198.969 -1.97748 198.573 -2.50118C198.156 -3.03114 197.64 -3.47495 197.053 -3.80787C196.347 -4.18379 195.589 -4.45259 194.804 -4.6053C192.835 -4.98488 190.888 -5.46969 188.971 -6.0576C188.145 -6.33047 187.26 -6.41228 186.415 -6.61845C184.622 -7.05808 182.889 -7.67052 181.127 -8.20717C180.612 -8.3926 180.065 -8.47001 179.519 -8.43456C178.303 -8.30116 177.048 -8.64985 175.795 -8.91666C175.75 -8.91666 175.686 -8.98032 175.665 -8.97729C174.662 -8.71048 173.729 -9.37754 172.753 -9.54732C171.182 -9.82626 169.604 -10.1901 168.042 -10.5994C167.335 -10.7874 166.632 -10.9824 165.933 -11.1845C165.234 -11.3846 164.532 -11.5847 163.854 -11.8424C162.781 -12.2457 161.681 -12.7672 160.954 -13.6616C160.378 -14.4268 159.974 -15.3068 159.769 -16.2417C159.529 -17.1725 159.349 -18.1337 159.115 -19.0796C158.729 -20.6805 158.462 -22.2964 158.079 -23.8942C157.928 -24.3726 157.835 -24.8673 157.802 -25.3678C157.802 -25.577 157.723 -25.7892 157.55 -25.8347L157.55 -25.8619L157.526 -25.9772L157.547 -25.9772C157.508 -26.9894 157.337 -27.9921 157.039 -28.9605C157.039 -28.9605 157.039 -28.9605 157.067 -28.9605L157.039 -28.9848C157.039 -28.9848 157.039 -28.9666 157.039 -28.9605L157.039 -28.997L157.018 -29.0273ZM159.289 -16.9785C159.325 -16.83 159.471 -16.6996 159.386 -16.4904C159.346 -16.6814 159.319 -16.83 159.276 -16.9785L159.289 -16.9785ZM159.036 -18.5278C159.065 -18.4485 159.088 -18.3675 159.106 -18.2852C159.106 -18.2034 159.106 -18.1913 159.055 -18.264C159.034 -18.3112 159.02 -18.3613 159.015 -18.4126C159.017 -18.4518 159.024 -18.4905 159.036 -18.5278Z" fill="#BFEF5B"/>
<path d="M81.6442 42.6741C82.1396 43.2017 82.2247 43.1259 82.3675 42.0071C82.6472 39.7514 82.6715 37.4592 82.7657 35.1732C82.7991 34.5304 82.866 33.8877 82.9268 33.2449C82.9876 32.6022 83.0453 31.9533 83.0788 31.3075C83.1244 30.3252 83.2824 29.3671 83.3219 28.3757C83.3493 27.8299 83.5255 27.2448 83.5438 26.6657C83.5681 26.0411 83.6046 25.4165 83.6806 24.798C83.7566 24.1795 83.8386 23.561 83.9024 22.9425C84.0331 21.463 84.328 20.0107 84.5802 18.5554C84.7048 17.8277 84.8842 17.1152 85.0422 16.3905L85.2732 15.3082C85.3462 14.9474 85.4221 14.5866 85.5163 14.2288C85.8591 12.7695 86.4141 11.3681 87.1637 10.0691C87.3773 9.68083 87.5573 9.2751 87.7017 8.85631C87.7746 8.64104 87.8476 8.4227 87.9236 8.2044L88.1637 7.55257C88.3501 7.04928 88.5233 6.54396 88.6834 6.03662C88.8475 5.52726 88.9874 5.01184 89.1788 4.52067L89.7046 3.00471L89.966 2.25281C90.0475 1.99958 90.1419 1.75066 90.2487 1.50697C90.5101 0.900592 90.7988 0.315403 91.0997 -0.263687L91.5617 -1.12478C91.7258 -1.40674 91.9112 -1.67354 92.0875 -1.94945C92.4431 -2.49519 92.7957 -3.03484 93.1392 -3.58664C93.4826 -4.13845 93.8413 -4.68117 94.1938 -5.33606C94.6859 -6.19834 95.0214 -7.14057 95.1847 -8.11933C95.2653 -8.6489 95.2653 -9.18758 95.1847 -9.71715C95.1075 -10.203 94.9707 -10.6776 94.7774 -11.1301C94.513 -11.7607 94.2151 -12.3277 93.9294 -12.8704C93.6437 -13.4131 93.3519 -13.9255 93.0875 -14.4652C92.8231 -15.0048 92.5313 -15.5324 92.2547 -16.069L91.8413 -16.8755L91.3946 -17.6638C90.7823 -18.7733 90.1107 -19.8492 89.3825 -20.8867C87.495 -23.5245 85.1273 -25.6892 82.9754 -28.0511C81.9268 -29.2062 80.7415 -30.234 79.6503 -31.3073C78.0334 -32.887 76.2432 -34.1816 74.5502 -35.6218C73.4591 -36.5526 72.3953 -37.4985 71.3862 -38.493C71.1461 -38.7295 71.0823 -38.7052 71.0397 -38.5779C70.9485 -38.205 70.9759 -37.7775 71.5716 -37.2924C72.3011 -36.7012 72.9971 -36.0796 73.7691 -35.5248C74.6202 -34.8941 75.3253 -34.033 76.1824 -33.363C77.6732 -32.189 79.0817 -30.9147 80.398 -29.5489L81.7566 -28.1572C82.2034 -27.6812 82.638 -27.1991 83.0484 -26.7049C84.2368 -25.2254 85.6349 -23.9762 86.8659 -22.5664C87.0908 -22.3117 87.3066 -22.051 87.5163 -21.7902C87.726 -21.5295 87.9114 -21.2445 88.0998 -20.9686L88.6561 -20.1378C88.8384 -19.8589 88.9995 -19.5709 89.1758 -19.2889C90.5314 -17.0726 91.3247 -14.6925 92.1878 -12.3155C92.4683 -11.6259 92.7138 -10.9226 92.9234 -10.2084C93.0365 -9.76604 93.0755 -9.30812 93.0389 -8.8531C92.985 -8.38357 92.861 -7.92472 92.6711 -7.49178C92.2881 -6.58221 91.6468 -5.72717 91.0542 -4.80244C90.5283 -4.01112 90.1758 -3.11366 89.7107 -2.29202C89.27 -1.38244 88.7989 -0.509247 88.3157 0.366973C88.1971 0.588302 88.0634 0.800514 87.96 1.02791L87.6348 1.70098L86.9874 3.05927C86.7029 3.58227 86.5408 4.16276 86.5133 4.75716C86.4972 5.42536 86.395 6.08873 86.2093 6.73094C86.1242 7.06142 86.0209 7.38887 85.9267 7.71934C85.8325 8.04982 85.7534 8.38934 85.6683 8.72285C85.6683 8.77439 85.5984 8.84418 85.6015 8.86238C85.6794 9.39308 85.6111 9.93491 85.4039 10.4298C85.1921 10.9302 85.0302 11.4501 84.9206 11.9821C84.7839 12.828 84.6167 13.677 84.4465 14.5229C84.2763 15.3688 84.1426 16.2268 83.9845 17.0788C83.8204 17.8459 83.6806 18.619 83.559 19.3891C83.4374 20.1592 83.2551 20.9263 83.1365 21.6964C82.9481 22.9334 82.7931 24.2129 82.6715 25.4772C82.5773 26.5232 82.4587 27.5662 82.3463 28.6122C82.2338 29.6582 82.1761 30.7042 82.1214 31.7533C82.0758 32.6386 82.0332 33.5209 81.9724 34.4031L81.8904 35.725C81.8721 36.1677 81.86 36.6073 81.8509 37.05C81.8803 37.5895 81.8487 38.1305 81.7566 38.6629C81.7049 38.8812 81.7293 39.1268 81.8843 39.2147L81.8843 39.2451L81.8843 39.3754L81.8661 39.3603C81.6694 40.4318 81.601 41.5228 81.6624 42.6104C81.6624 42.6104 81.6624 42.6104 81.6351 42.6104L81.6533 42.6408C81.6553 42.6328 81.6553 42.6245 81.6533 42.6165L81.6533 42.656L81.6442 42.6741ZM82.556 29.5096C82.556 29.3489 82.4709 29.164 82.6198 28.9821C82.5955 29.1882 82.5773 29.3489 82.556 29.5217L82.556 29.5096ZM82.3493 31.1863C82.343 31.0954 82.343 31.0043 82.3493 30.9134C82.3493 30.8255 82.3919 30.8225 82.404 30.9134C82.4131 30.9676 82.4131 31.0229 82.404 31.0771C82.3905 31.1156 82.3721 31.1523 82.3493 31.1863Z" fill="#BFEF5B"/>
<path d="M81.8632 39.3632L81.8389 39.342L81.8875 39.2332L81.8875 39.2513L81.8632 39.3632Z" fill="#BFEF5B"/>
<path d="M81.7718 49.8356C81.9897 48.9648 82.0798 48.0671 82.0393 47.1705C82.0393 46.649 82.3432 46.1033 82.0393 45.5909C82.0393 45.5909 82.0393 45.5909 82.0393 45.6091L82.0393 45.6243C82.2156 45.1998 82.0393 44.842 81.9694 44.4691L81.9694 44.4904L81.9694 44.4509L81.9694 44.4691L82.2733 43.1624C82.3305 43.2756 82.3724 43.3959 82.3979 43.5201C82.3979 44.363 82.3979 45.2059 82.4161 46.0396C82.4161 46.7643 82.5499 47.4949 82.4161 48.2287C82.3098 48.8684 82.4162 49.6567 81.9785 50.0478C81.8022 50.1721 81.7201 50.0145 81.7718 49.8356Z" fill="#BFEF5B"/>
<path d="M80.4407 42.4009C80.4134 42.4009 80.3891 42.3646 80.3588 42.3434C80.3739 42.3041 80.3891 42.2375 80.4043 42.2375C80.4195 42.2375 80.4559 42.2738 80.4832 42.295C80.5105 42.3162 80.4559 42.3978 80.4407 42.4009Z" fill="#BFEF5B"/>
<path d="M82.0122 45.9147L82.0122 45.9358C82.0059 45.928 81.9988 45.921 81.9909 45.9147L82.0092 45.9147C81.9878 45.8137 81.9962 45.7087 82.0334 45.6123C82.0759 45.7181 82.2034 45.824 82.0122 45.9147Z" fill="#BFEF5B"/>
<path d="M80.5986 44.075L80.5683 44.1264L80.541 44.078C80.541 44.0599 80.5592 44.0266 80.5683 44.0266C80.5774 44.0266 80.5895 44.0417 80.5986 44.075Z" fill="#BFEF5B"/>
<path d="M151.912 123.851C151.967 124.457 152.061 124.496 152.745 124.075C154.119 123.226 155.331 122.159 156.587 121.137C157.298 120.57 158.088 120.091 158.784 119.497C159.313 119.042 159.909 118.696 160.431 118.226C160.735 117.972 161.134 117.805 161.431 117.526C162.082 116.92 162.811 116.419 163.498 115.864C165.133 114.543 166.914 113.439 168.613 112.199C169.499 111.578 170.481 111.106 171.519 110.801C172.132 110.576 172.707 110.261 173.227 109.867C173.872 109.443 174.483 108.976 175.081 108.494C175.68 108.012 176.279 107.536 176.881 107.06C177.639 106.5 178.44 105.999 179.276 105.562C180.116 105.13 180.928 104.646 181.707 104.113C182.236 103.746 182.731 103.332 183.184 102.876C183.692 102.372 184.104 101.78 184.4 101.129C184.609 100.642 184.765 100.134 184.865 99.6134C184.954 99.1407 185.011 98.6626 185.035 98.1824C185.063 97.7276 185.075 97.288 185.087 96.8666C185.099 96.4451 185.123 96.0327 185.139 95.6174C185.181 94.7442 185.23 93.871 185.233 92.9978C185.233 90.7724 184.877 88.5682 184.981 86.3276C185.029 85.2422 184.947 84.1507 184.981 83.0804C185.029 81.5038 184.801 79.9667 184.789 78.4052C184.772 77.4031 184.815 76.4008 184.917 75.4037C184.941 75.1672 184.874 75.1399 184.756 75.1824C184.562 75.2257 184.391 75.3379 184.274 75.4981C184.157 75.6582 184.102 75.8552 184.12 76.0525C184.139 76.7134 184.12 77.3714 184.203 78.0354C184.285 78.7812 184.09 79.5513 184.163 80.3154C184.272 81.6456 184.291 82.9817 184.218 84.3144C184.178 85.224 184.196 86.1336 184.099 87.0431C183.953 88.3772 184.157 89.687 184.248 91.0028C184.283 91.9428 184.25 92.8841 184.151 93.8195C184.073 94.7221 183.946 95.6198 183.771 96.5087C183.644 97.352 183.44 98.1822 183.163 98.9889C183.01 99.4255 182.806 99.8426 182.555 100.232C182.162 100.792 181.672 101.278 181.108 101.666C180.495 102.099 179.854 102.49 179.188 102.836C178.626 103.19 178.085 103.576 177.568 103.992C176.987 104.383 176.382 104.737 175.771 105.08L173.948 106.126C173.573 106.318 173.258 106.608 173.036 106.966C172.571 107.812 171.738 108.354 170.978 108.961C170.951 108.982 170.881 108.985 170.878 109C170.61 109.81 169.708 109.943 169.148 110.446C168.237 111.25 167.279 112.008 166.294 112.735C165.401 113.39 164.498 114.021 163.583 114.646C162.86 115.149 162.146 115.716 161.441 116.271C160.86 116.729 160.264 117.18 159.672 117.614C159.079 118.047 158.492 118.523 157.924 118.99C156.973 119.803 155.945 120.506 155.006 121.337C154.742 121.616 154.434 121.851 154.094 122.031C154.021 122.055 153.96 122.104 153.922 122.17C153.885 122.237 153.873 122.315 153.891 122.389L153.872 122.389L153.803 122.447L153.803 122.425C153.114 122.778 152.491 123.243 151.958 123.802C151.958 123.802 151.958 123.802 151.936 123.784L151.936 123.814L151.955 123.814L151.933 123.832L151.912 123.851ZM159.349 118.223C159.441 118.154 159.468 117.99 159.653 118.011L159.349 118.223ZM158.359 118.893C158.402 118.846 158.449 118.803 158.498 118.763C158.553 118.727 158.574 118.748 158.541 118.799C158.517 118.831 158.487 118.858 158.453 118.878C158.424 118.888 158.395 118.893 158.365 118.893L158.359 118.893Z" fill="#BFEF5B"/>
<path d="M153.8 122.456L153.794 122.428L153.885 122.413L153.875 122.419L153.8 122.456Z" fill="#BFEF5B"/>
<path d="M148.222 127.322C148.816 127.078 149.355 126.717 149.806 126.261C150.076 126.012 150.575 125.985 150.63 125.509C150.973 125.442 151.052 125.154 151.195 124.903L151.177 124.903L151.201 124.884L152.094 124.496C152.046 124.621 152.037 124.715 151.988 124.757C151.544 125.151 151.116 125.564 150.675 125.97C150.289 126.306 149.997 126.749 149.529 127.001C149.119 127.225 148.775 127.671 148.277 127.537C148.067 127.498 148.095 127.368 148.222 127.322Z" fill="#BFEF5B"/>
<path d="M151.252 122.828C151.234 122.81 151.253 122.771 151.231 122.741C151.21 122.71 151.304 122.713 151.316 122.723C151.328 122.732 151.316 122.78 151.337 122.81C151.359 122.84 151.265 122.837 151.252 122.828Z" fill="#BFEF5B"/>
<path d="M150.447 125.648L150.447 125.621L150.447 125.636C150.496 125.578 150.541 125.518 150.62 125.512C150.593 125.6 150.626 125.748 150.447 125.648Z" fill="#BFEF5B"/>
<path d="M150.484 123.729L150.436 123.729L150.436 123.687C150.454 123.687 150.475 123.687 150.484 123.687C150.493 123.687 150.487 123.714 150.484 123.729Z" fill="#BFEF5B"/>
<path d="M51.8733 123.608C52.308 123.262 52.3141 123.171 51.9068 122.826C51.0831 122.128 50.1196 121.686 49.1713 121.201C48.6425 120.925 48.1683 120.531 47.6151 120.291C47.1957 120.109 46.8401 119.815 46.3994 119.648C46.1623 119.554 45.9648 119.321 45.7094 119.233C45.1593 119.042 44.6578 118.742 44.129 118.505C43.4998 118.223 42.895 117.899 42.3053 117.556C42.1412 117.468 42.0409 117.405 41.9102 117.323C41.8399 117.271 41.7729 117.216 41.7096 117.156C41.5888 117.055 41.486 116.934 41.4056 116.798C41.3872 116.762 41.3762 116.722 41.3734 116.682C41.3706 116.641 41.376 116.6 41.3893 116.562C41.4027 116.523 41.4236 116.488 41.451 116.458C41.4783 116.428 41.5115 116.403 41.5485 116.386C41.6379 116.34 41.7369 116.317 41.8373 116.317C41.9376 116.317 42.0366 116.34 42.126 116.386C42.1655 116.406 42.2031 116.429 42.2385 116.456C42.2489 116.462 42.2581 116.47 42.2658 116.48C42.2263 116.522 42.3023 116.48 42.3509 116.459C42.5515 116.359 42.7491 116.234 42.9588 116.113C43.1685 115.992 43.4025 115.81 43.6123 115.658C43.822 115.507 44.0165 115.316 44.2201 115.137C44.6122 114.782 44.9891 114.415 45.3569 114.039C45.5898 113.819 45.8388 113.617 46.1015 113.433C46.3599 113.242 46.6213 113.051 46.8857 112.869C47.1501 112.687 47.4206 112.502 47.6729 112.302C47.9225 112.096 48.158 111.875 48.378 111.638C48.9086 111.053 49.3518 110.394 49.6941 109.682C49.9276 109.169 50.2347 108.692 50.6059 108.266C50.9524 107.833 51.3354 107.427 51.7244 107.023C52.1135 106.62 52.5116 106.15 52.8733 105.689C53.7608 104.477 54.2897 103.058 55.1103 101.815C55.5358 101.208 55.7911 100.526 56.1589 99.9136C56.6817 99.004 56.9187 97.9671 57.3047 97.006C57.4385 96.7028 57.5692 96.3996 57.6999 96.0813C57.8306 95.7629 58.0038 95.4749 58.1588 95.1869C58.2379 95.0474 58.1831 95.0079 58.0616 94.9928C57.709 94.9534 57.3686 94.9928 57.2561 95.3142C57.1163 95.7235 56.9522 96.1268 56.861 96.5573C56.7425 97.0394 56.3656 97.4274 56.2288 97.9126C55.9601 98.7493 55.5809 99.5466 55.1012 100.283C54.809 100.807 54.4768 101.308 54.1073 101.781C53.8381 102.122 53.6048 102.49 53.4113 102.879C53.2137 103.264 53.0496 103.67 52.8338 104.046C52.511 104.574 52.1195 105.057 51.6697 105.483C51.2509 105.915 50.7839 106.298 50.2777 106.623L49.5421 107.133C49.2959 107.302 49.0497 107.469 48.8218 107.654C48.5494 107.895 48.3019 108.164 48.0832 108.454C47.7793 108.83 47.4754 109.212 47.1349 109.567C46.7943 109.917 46.4241 110.238 46.0286 110.525C45.7086 110.807 45.4089 111.111 45.1319 111.435C44.7955 111.732 44.4323 111.998 44.0469 112.229L43.4755 112.587L42.8676 112.899C42.7436 112.96 42.6331 113.045 42.5428 113.149C42.4524 113.253 42.3841 113.374 42.3418 113.506C42.2465 113.816 42.0678 114.095 41.8251 114.312C41.7096 114.418 41.588 114.518 41.4634 114.615L41.0713 114.918C41.05 114.934 40.9923 114.918 40.9893 114.943C40.9699 115.07 40.9209 115.192 40.8459 115.297C40.7709 115.403 40.6722 115.489 40.5577 115.549C40.4391 115.613 40.3343 115.699 40.2493 115.803C40.1643 115.907 40.1007 116.027 40.0623 116.155C40.04 116.359 40.0636 116.566 40.1314 116.759C40.1993 116.953 40.3096 117.129 40.4544 117.274C40.7301 117.559 41.0441 117.804 41.3874 118.002C41.6914 118.19 42.0196 118.345 42.3357 118.523C42.6518 118.702 42.9649 118.878 43.2779 119.063C43.7764 119.366 44.3174 119.6 44.8463 119.857C45.7155 120.282 46.5453 120.794 47.4237 121.198C48.1653 121.54 48.8522 121.986 49.5908 122.328C49.8328 122.402 50.0537 122.532 50.2351 122.707C50.2507 122.735 50.2736 122.757 50.3012 122.773C50.3289 122.788 50.3602 122.795 50.3918 122.793C50.4233 122.792 50.4538 122.782 50.4798 122.764C50.5058 122.746 50.5263 122.721 50.539 122.692L50.5938 122.723C50.9415 123.098 51.38 123.378 51.8673 123.535C51.8653 123.539 51.8643 123.544 51.8643 123.549C51.8643 123.554 51.8653 123.558 51.8673 123.562L51.8855 123.562L51.9037 123.562L51.8733 123.608ZM46.6152 120.503C46.5483 120.47 46.4268 120.534 46.4085 120.37L46.6152 120.503ZM47.2717 120.937C47.2304 120.928 47.1904 120.914 47.1532 120.894C47.1167 120.873 47.1289 120.843 47.1714 120.843C47.1974 120.845 47.2219 120.856 47.2413 120.873C47.2413 120.873 47.2565 120.906 47.2717 120.937Z" fill="#BFEF5B"/>
<path d="M50.5847 122.768L50.5635 122.786L50.5392 122.723L50.5453 122.726L50.5847 122.768Z" fill="#BFEF5B"/>
<path d="M54.8916 124.96C54.6517 124.603 54.3096 124.326 53.9098 124.166C53.694 124.06 53.6059 123.666 53.2533 123.863C53.153 123.62 52.9342 123.693 52.7427 123.693C52.612 123.523 52.4783 123.35 52.3324 123.156C52.4266 123.135 52.4935 123.096 52.533 123.114C52.8825 123.287 53.2412 123.435 53.5877 123.608C53.8916 123.76 54.2442 123.793 54.4995 124.057C54.7548 124.321 55.0861 124.36 55.0587 124.83C55.0435 125.003 54.9432 125.042 54.8916 124.96Z" fill="#BFEF5B"/>
<path d="M51.2443 124.639C51.2443 124.663 51.2078 124.678 51.1866 124.699C51.1653 124.72 51.1562 124.654 51.1623 124.642C51.1684 124.629 51.1987 124.599 51.22 124.581C51.2412 124.563 51.2503 124.626 51.2443 124.639Z" fill="#BFEF5B"/>
<path d="M53.3777 123.929L53.3595 123.944L53.3595 123.926C53.311 123.926 53.2594 123.908 53.2442 123.847C53.3201 123.838 53.4232 123.742 53.3777 123.929Z" fill="#BFEF5B"/>
<path d="M51.9858 124.827L51.9858 124.863L51.9528 124.881C51.9528 124.881 51.9528 124.854 51.9528 124.845C51.9528 124.836 51.9858 124.833 51.9858 124.827Z" fill="#BFEF5B"/>
</g>
<defs>
<clipPath id="clip0_217_5018">
<rect width="625" height="390" fill="white" transform="matrix(-1 -8.74228e-08 -8.74228e-08 1 625 -184)"/>
</clipPath>
</defs>
</svg>
