<svg width="457" height="480" viewBox="0 0 457 480" fill="none" xmlns="http://www.w3.org/2000/svg">
<path d="M215.303 -116.348C210.813 -114.398 208.829 -113.602 210.195 -114.666C211.562 -115.73 216.21 -118.737 225.389 -123.591C262.311 -143.274 304.74 -154.486 347.485 -154.808L351.989 -154.85L356.492 -154.788L358.744 -154.753L360.996 -154.671L365.507 -154.493C367.004 -154.431 368.507 -154.314 370.011 -154.218C371.514 -154.122 373.018 -154.053 374.514 -153.902C377.508 -153.627 380.515 -153.394 383.508 -153.01L387.998 -152.481L392.482 -151.836L394.727 -151.513L396.958 -151.135L401.427 -150.366C407.366 -149.234 413.298 -147.984 419.161 -146.426C436.956 -141.798 454.072 -135.818 470.748 -127.593C479.928 -123.055 489.841 -117.776 498.897 -111.755C503.806 -108.542 508.509 -105.081 513.225 -101.573L516.658 -98.827C517.798 -97.9139 518.972 -97.0351 520.091 -96.0808C522.329 -94.1928 524.615 -92.3597 526.778 -90.3825C535.581 -82.6519 543.809 -74.2904 551.397 -65.3645L554.755 -61.362L558.002 -57.2427C558.537 -56.5561 559.087 -55.8696 559.615 -55.183L561.181 -53.1234C562.211 -51.7503 563.282 -50.3772 564.284 -48.9285C568.355 -43.2851 572.166 -37.4631 575.811 -31.545C579.457 -25.627 582.78 -19.5098 585.897 -13.3034C586.693 -11.7587 587.414 -10.1727 588.176 -8.61421L589.309 -6.26627C589.679 -5.47673 589.995 -4.68028 590.38 -3.89075L592.494 0.873872L594.492 5.67973C605.042 31.5284 611.079 58.9951 612.343 86.885C612.693 93.7505 612.583 100.808 612.343 107.907C612.102 115.006 611.237 122.325 608.8 129.417C607.565 133.006 605.807 136.393 603.582 139.468C603.047 140.264 602.387 140.965 601.783 141.713L601.55 141.988C601.426 142.118 601.296 142.248 601.165 142.372C600.908 142.62 600.632 142.85 600.342 143.059C599.8 143.432 599.217 143.743 598.605 143.985C597.539 144.374 596.426 144.616 595.295 144.706C594.288 144.811 593.274 144.846 592.261 144.809C588.589 144.59 584.948 144.004 581.393 143.059C580.535 142.846 579.676 142.626 578.832 142.372L578.516 142.29L578.358 142.242L578.317 142.242L578.18 142.242L577.974 142.242C577.776 142.213 577.576 142.197 577.376 142.193C577.269 142.191 577.161 142.21 577.061 142.248C577.039 142.261 577.023 142.281 577.013 142.303L577.013 142.345C577.013 142.345 577.013 142.42 577.081 142.461C577.35 142.658 577.635 142.832 577.933 142.983L578.049 143.072L578.31 143.265L578.557 143.457L578.681 143.546L579.237 144.013C580.947 145.427 582.67 146.855 584.352 148.352C587.723 151.318 591.025 154.442 594.149 157.737C597.751 161.573 601.115 165.627 604.221 169.875C607.317 174.084 610.173 178.375 612.967 182.631C618.608 191.231 623.75 200.148 628.367 209.338C637.529 227.664 644.679 246.929 649.691 266.796C651.284 272.933 652.588 279.153 653.81 285.332C654.353 288.442 654.943 291.511 655.424 294.649C655.904 297.786 656.405 300.828 656.755 303.986C658.361 316.435 659.177 328.974 659.2 341.527C659.2 354.081 658.374 366.621 656.728 379.067C655.049 391.569 652.463 403.932 648.991 416.059C644.863 430.877 639.157 445.21 631.971 458.81C631.044 460.478 630.165 462.167 629.225 463.808L626.279 468.696C625.25 470.296 624.22 471.868 623.142 473.454L622.359 474.635L621.522 475.782L619.847 478.082C615.37 484.14 610.381 489.802 604.935 495.005C600.895 498.776 596.593 502.256 592.062 505.42L590.359 506.608C589.796 507.013 589.226 507.404 588.629 507.754L585.08 509.903C584.476 510.26 583.919 510.638 583.281 510.974C582.642 511.311 582.018 511.661 581.372 511.963C580.088 512.601 578.777 513.144 577.459 513.659C572.201 515.59 566.739 516.914 561.181 517.606C555.695 518.318 550.166 518.65 544.635 518.602C533.579 518.533 522.564 517.243 511.79 514.757C506.323 513.537 500.983 511.803 495.842 509.581C493.143 508.421 490.605 506.919 488.29 505.111C486.979 504.085 485.875 502.82 485.035 501.383C484.553 500.534 484.235 499.603 484.095 498.637C483.966 497.603 484.064 496.553 484.383 495.561C484.727 494.569 485.263 493.654 485.962 492.87C486.634 492.147 487.423 491.544 488.296 491.085C489.832 490.306 491.495 489.806 493.205 489.609C496.261 489.272 499.347 489.318 502.391 489.746C508.215 490.554 513.958 491.866 519.555 493.666C530.616 497.188 541.373 501.601 551.72 506.862C558.32 510.176 564.749 513.8 571.005 517.737C577.284 521.674 583.289 526.033 588.979 530.781C591.843 533.179 594.568 535.737 597.142 538.443L598.104 539.473L599.01 540.53L600.829 542.631C602.037 544.004 603.273 545.418 604.365 546.915L607.749 551.323L610.887 555.902C611.402 556.671 611.951 557.419 612.432 558.202L613.874 560.578L615.308 562.946C615.789 563.742 616.283 564.518 616.681 565.349L619.297 570.237C619.517 570.642 619.743 571.047 619.943 571.459L620.533 572.716L621.714 575.229L622.888 577.734C623.3 578.565 623.574 579.437 623.966 580.288L626.025 585.424L627.845 590.662C628.14 591.534 628.483 592.399 628.73 593.285L629.506 595.949L630.31 598.516C630.57 599.402 630.838 600.288 630.996 601.187L632.266 606.59C635.409 621.101 636.316 636.006 634.958 650.79C634.673 654.406 634.196 658.004 633.529 661.569C632.881 665.155 632.047 668.705 631.03 672.204C629.004 679.256 626.015 685.995 622.147 692.23C618.186 698.445 613.167 703.917 607.317 708.399C601.494 712.765 595.052 716.236 588.203 718.697C578.193 722.329 567.717 723.99 557.309 724.54C546.969 724.981 536.612 724.522 526.352 723.167C516.164 721.793 506.085 720.05 496.068 717.873C486.051 715.697 476.158 713.067 466.286 710.06C440.995 702.359 416.581 692.03 393.443 679.241C388.012 676.206 387.429 675.698 388.5 676.007C391.671 676.865 396.676 679.207 409.309 685.653L412.213 687.129L415.145 688.503C417.101 689.436 419.051 690.384 421.014 691.29C424.969 693.054 428.91 694.867 432.926 696.501C436.943 698.135 440.979 699.748 445.03 701.355C449.149 702.838 453.193 704.41 457.354 705.79C475.849 712.223 495.711 716.589 515.505 719.899C519.83 720.585 524.148 721.272 528.515 721.78C532.881 722.288 537.255 722.658 541.648 722.864C550.447 723.332 559.27 722.987 568.005 721.835C576.75 720.705 585.287 718.321 593.352 714.756C601.391 711.17 608.599 705.954 614.519 699.439C616.532 697.207 618.368 694.822 620.011 692.306C620.437 691.681 620.849 691.05 621.22 690.397C621.59 689.745 622.002 689.114 622.373 688.461C623.06 687.136 623.815 685.818 624.433 684.452C625.051 683.086 625.682 681.706 626.286 680.333C626.89 678.959 627.399 677.531 627.872 676.103C628.872 673.264 629.722 670.374 630.419 667.446C631.147 664.528 631.71 661.569 632.184 658.603C632.424 657.12 632.623 655.63 632.802 654.141C632.98 652.651 633.076 651.154 633.214 649.664L633.406 647.426C633.468 646.678 633.55 645.936 633.557 645.188L633.68 640.705L633.742 638.474L633.687 636.235L633.557 631.78C633.095 623.072 631.901 614.418 629.987 605.91L629.232 602.739C628.971 601.688 628.751 600.624 628.422 599.587L626.602 593.347L624.467 587.209C624.131 586.179 623.705 585.19 623.3 584.181L622.078 581.181C618.729 573.202 614.693 565.53 610.015 558.25C605.296 550.991 599.898 544.195 593.895 537.956C589.425 533.59 584.62 529.579 579.525 525.962C574.479 522.337 569.227 519.014 563.913 515.917C553.285 509.778 542.196 504.474 530.746 500.051C525.204 497.892 519.548 496.04 513.802 494.504C510.939 493.755 508.055 493.131 505.151 492.636C502.263 492.142 499.335 491.912 496.405 491.95C494.954 491.97 493.509 492.14 492.093 492.458C490.699 492.735 489.4 493.364 488.317 494.284C487.807 494.741 487.406 495.307 487.143 495.939C486.865 496.554 486.745 497.229 486.793 497.902C486.845 498.578 487.044 499.234 487.377 499.825C487.71 500.432 488.118 500.995 488.592 501.5C490.65 503.488 493.047 505.092 495.67 506.237C498.287 507.454 500.985 508.491 503.744 509.34C509.283 511.039 514.939 512.326 520.667 513.192C526.4 514.079 532.179 514.633 537.975 514.853C543.781 515.083 549.595 514.925 555.379 514.379C561.161 513.864 566.873 512.741 572.42 511.029C575.806 509.969 579.056 508.513 582.1 506.69C583.642 505.729 585.189 504.761 586.741 503.786C588.238 502.749 589.714 501.658 591.211 500.6C597.059 496.167 602.473 491.188 607.379 485.73C613.892 478.38 619.63 470.378 624.501 461.851C629.402 453.304 633.61 444.378 637.086 435.158C644.069 416.639 648.866 397.367 651.38 377.735C652.519 369.215 653.268 360.626 653.721 352.017C654.185 343.422 654.217 334.808 653.817 326.21C652.94 308.025 650.273 289.97 645.853 272.309C641.436 254.711 635.334 237.581 627.632 221.154C622.964 211.178 617.787 201.601 612.912 192.895C611.505 190.465 610.07 187.986 608.553 185.487C607.036 182.988 605.449 180.482 603.802 177.983C600.485 172.851 596.814 167.955 592.817 163.332C588.643 158.628 584.154 154.212 579.381 150.116L575.749 147.034L571.568 143.656L567.408 140.333C566.68 139.763 566.124 139.269 565.54 138.761C564.957 138.253 564.421 137.772 563.893 137.278C563.254 136.694 562.169 135.671 562.011 135.452C561.696 135.096 561.435 134.696 561.236 134.264C561.184 134.136 561.184 133.993 561.236 133.866C561.28 133.809 561.337 133.762 561.4 133.728C561.464 133.693 561.534 133.673 561.606 133.667C561.882 133.625 562.162 133.625 562.437 133.667C563.579 133.867 564.706 134.149 565.808 134.511C568.087 135.198 570.504 136.069 572.907 136.914C577.591 138.633 582.393 140.01 587.277 141.033C589.728 141.556 592.236 141.759 594.739 141.637C595.977 141.581 597.187 141.25 598.282 140.669C598.816 140.366 599.283 139.957 599.655 139.468C600.053 138.994 600.472 138.52 600.857 138.04C603.821 134.067 606.002 129.565 607.283 124.776C609.445 117.182 609.96 109.177 610.159 101.234C610.372 93.2535 610.172 85.2674 609.562 77.3075C608.914 69.318 607.86 61.3667 606.404 53.4843C604.969 45.587 603.122 37.7703 600.87 30.066C592.755 2.20404 579.887 -24.0466 562.835 -47.528C549.088 -66.5732 532.735 -83.5941 514.255 -98.0924C498.932 -109.999 482.279 -120.088 464.631 -128.156C447.005 -136.228 428.573 -142.412 409.645 -146.604C393.71 -150.134 377.486 -152.202 361.175 -152.783C353.046 -153.076 344.913 -153.017 336.775 -152.605C328.646 -152.186 320.538 -151.369 312.464 -150.229C302.631 -148.91 292.901 -146.905 283.347 -144.229L280.402 -143.418C279.434 -143.137 278.48 -142.876 277.594 -142.65C276.243 -142.273 274.866 -141.996 273.475 -141.819L273.248 -141.75L273.461 -141.826L272.932 -141.647L270.667 -140.961L270.941 -141.009C252.001 -134.648 233.675 -126.584 216.189 -116.918C216.278 -116.959 216.299 -116.918 216.148 -116.828L215.647 -116.595L216.031 -116.828L215.386 -116.478L215.303 -116.348ZM449.96 -135.07C451.333 -134.5 452.795 -133.855 454.305 -133.216C455.067 -132.894 455.836 -132.578 456.64 -132.276C457.443 -131.974 458.239 -131.644 459.077 -131.356C458.191 -131.733 457.354 -132.097 456.557 -132.44C455.761 -132.784 454.978 -133.065 454.237 -133.367C452.74 -133.958 451.346 -134.514 449.96 -135.07ZM420.225 -144.469C421.2 -144.201 422.065 -143.968 422.855 -143.782C423.644 -143.597 424.358 -143.343 425.058 -143.144C426.651 -142.698 426.768 -142.739 425.278 -143.213C424.413 -143.48 423.294 -143.81 422.34 -144.057C421.742 -144.181 421.234 -144.263 420.225 -144.469Z" fill="#4C40DC"/>
<path d="M238.921 234.645C239.038 232.791 239.024 231.48 239.113 230.772C239.202 230.065 239.319 229.969 239.525 230.587C239.91 231.935 240.181 233.313 240.335 234.706L240.857 238.551L241.173 240.954C241.269 241.812 241.331 242.725 241.42 243.7C244.347 275.549 239.667 307.639 227.765 337.325C221.172 354.251 212.13 370.117 200.927 384.416C199.836 385.789 198.71 387.066 197.611 388.391C196.513 389.716 195.449 391.048 194.254 392.338C191.897 394.912 189.337 397.293 186.599 399.458C183.836 401.663 180.844 403.564 177.674 405.129C174.421 406.784 170.894 407.831 167.266 408.218C165.151 408.43 163.016 408.316 160.936 407.882C158.761 407.424 156.686 406.577 154.812 405.383C152.887 404.169 151.221 402.587 149.91 400.728C148.621 398.861 147.703 396.763 147.205 394.549C146.241 389.901 146.62 385.074 148.296 380.633C149.873 376.201 152.589 372.263 156.171 369.215C157.07 368.452 158.03 367.763 159.041 367.156C160.019 366.54 161.029 365.979 162.069 365.474C164.142 364.486 166.305 363.7 168.529 363.126C172.929 362.035 177.462 361.573 181.992 361.753C184.652 361.843 187.306 362.072 189.943 362.439C192.558 362.81 195.16 363.311 197.728 363.888C202.836 365.061 207.878 366.504 212.832 368.213C222.718 371.666 232.267 376.019 241.358 381.216C259.581 391.566 276.118 404.635 290.399 419.972C297.633 427.734 304.344 435.968 310.487 444.619C316.609 453.237 322.115 462.276 326.964 471.669C332.874 483.321 337.335 495.651 340.249 508.386C343.843 523.599 345.205 539.254 344.293 554.859C343.365 570.336 340.344 585.615 335.313 600.281L334.098 603.666L333.486 605.355L332.834 607.023L331.53 610.359L330.157 613.648L329.47 615.296L328.715 616.916L327.218 620.163L325.625 623.356C325.097 624.427 324.561 625.484 323.985 626.528L322.289 629.665L320.504 632.748C319.337 634.808 318.025 636.805 316.783 638.824C314.16 642.785 311.476 646.712 308.544 650.433C302.695 657.959 296.123 664.894 288.923 671.14C285.303 674.269 281.517 677.2 277.581 679.921C273.632 682.729 269.478 685.237 265.154 687.425C259.745 690.226 253.93 692.163 247.922 693.164C244.85 693.643 241.734 693.774 238.633 693.556C235.519 693.307 232.452 692.652 229.508 691.606C223.536 689.589 218.32 685.8 214.555 680.745C212.711 678.168 211.372 675.265 210.608 672.19C209.916 669.215 209.684 666.152 209.921 663.107C210.304 658.872 211.158 654.692 212.468 650.646C213.697 646.699 215.043 642.806 216.656 638.975C218.257 635.103 220.165 631.366 222.361 627.798C224.6 624.174 227.28 620.841 230.339 617.877C231.129 617.149 231.904 616.415 232.756 615.749C233.607 615.083 234.445 614.417 235.323 613.785C237.1 612.563 238.969 611.48 240.912 610.545C244.805 608.7 248.948 607.44 253.208 606.803C261.7 605.587 270.358 606.382 278.487 609.124C282.746 610.514 286.832 612.387 290.666 614.705C292.576 615.864 294.41 617.141 296.159 618.529L297.484 619.546L298.754 620.63C299.585 621.372 300.47 622.058 301.246 622.848C304.504 625.876 307.49 629.185 310.171 632.734C312.825 636.265 315.236 639.971 317.387 643.829C320.122 648.696 322.526 653.742 324.582 658.933C326.647 664.08 328.43 669.335 329.923 674.676C333.069 685.269 335.329 696.106 336.679 707.074C338.035 718.025 338.613 729.058 338.409 740.09C338.095 751.145 337.038 762.166 335.244 773.079C333.474 783.743 330.838 794.245 327.362 804.482L326.058 808.306C325.838 808.944 325.632 809.583 325.372 810.214L324.63 812.096L321.671 819.586L318.369 826.904L317.552 828.731C317.256 829.335 316.947 829.918 316.645 830.516L314.84 834.072L313.501 836.695L312.815 838.006L312.087 839.276L309.155 844.357L307.693 846.883L306.107 849.341L302.935 854.229L302.139 855.451L301.287 856.632L299.585 858.987L296.186 863.697L292.568 868.228L290.756 870.487L289.849 871.62L288.895 872.704C278.842 884.43 267.623 895.103 255.412 904.56C247.552 910.689 239.275 916.264 230.641 921.243L227.428 923.131L224.14 924.875C221.936 926.015 219.773 927.223 217.549 928.308C215.324 929.393 213.066 930.416 210.827 931.466L209.145 932.263L207.436 932.949L204.003 934.37C199.678 936.169 199.094 936.238 199.753 935.688C201.217 934.52 202.803 933.514 204.484 932.688C205.665 932.057 207.113 931.404 208.85 930.574C210.587 929.743 212.599 928.734 215.029 927.628C226.818 922.04 238.095 915.431 248.732 907.876C260.746 899.425 271.889 888.962 282.126 877.922C291.092 868.252 299.083 857.722 305.983 846.485C312.862 835.297 318.611 823.453 323.147 811.128L323.758 809.562L324.294 807.969L325.358 804.777L326.422 801.578L326.957 799.978C327.122 799.442 327.266 798.9 327.424 798.358L329.257 791.856L329.71 790.229C329.855 789.687 329.971 789.13 330.102 788.581L330.857 785.293L331.619 781.997L331.997 780.356L332.299 778.695L333.493 772.056L333.782 770.401L334.008 768.733L334.434 765.396L334.853 762.073L335.059 760.412C335.12 759.863 335.155 759.3 335.196 758.751C336.434 745.768 336.627 732.706 335.773 719.693C334.917 706.746 332.86 693.908 329.628 681.342C329.374 680.195 329.038 679.076 328.701 677.95L327.706 674.586C327.019 672.348 326.394 670.103 325.612 667.906C324.094 663.505 322.392 659.173 320.483 654.958C316.752 646.526 311.903 638.635 306.066 631.498C303.22 628.057 300.047 624.9 296.591 622.072L295.96 621.537L295.273 621.035L293.948 620.04C293.502 619.71 293.069 619.353 292.616 619.058L291.243 618.131C289.397 616.934 287.481 615.849 285.504 614.884C277.677 611.007 269.033 609.067 260.3 609.227C251.705 609.433 243.136 612.028 236.422 617.252C235.993 617.566 235.581 617.9 235.186 618.255C234.781 618.605 234.369 618.941 233.978 619.298C233.223 620.04 232.426 620.747 231.719 621.55C230.263 623.111 228.921 624.775 227.703 626.528C226.474 628.294 225.344 630.128 224.318 632.02C223.316 633.936 222.341 635.872 221.496 637.89C219.38 642.919 217.605 648.084 216.183 653.351C214.768 658.617 213.869 664.055 214.727 669.142C214.789 669.574 214.885 669.993 214.981 670.412C215.068 670.834 215.175 671.251 215.304 671.662L215.489 672.28L215.716 672.877L216.176 674.078C216.89 675.645 217.794 677.118 218.867 678.465C221.07 681.192 223.82 683.425 226.941 685.022C230.096 686.647 233.504 687.727 237.019 688.214C240.565 688.645 244.155 688.537 247.668 687.892C251.227 687.242 254.704 686.201 258.035 684.788C261.403 683.371 264.662 681.705 267.784 679.804C274.085 675.967 280.036 671.582 285.565 666.698C295.297 658.293 303.916 648.682 311.215 638.096C318.842 626.832 324.95 614.612 329.381 601.75C333.816 588.947 336.675 575.651 337.894 562.157C338.622 553.966 338.787 545.851 338.835 538.395C338.856 534.039 338.643 529.684 338.196 525.351C337.915 523.126 337.709 520.861 337.311 518.602L336.761 515.169L336.075 511.736L335.732 510.02L335.333 508.304L334.53 504.871L333.61 501.438L333.143 499.722L332.628 498.012C331.317 493.447 329.697 488.95 328.042 484.508C327.781 483.821 327.273 482.826 327.198 482.579C324.975 475.718 322.058 469.102 318.492 462.833C314.854 456.27 310.659 449.871 306.526 443.809C299.792 433.946 292.18 424.713 283.78 416.224C275.33 407.653 266.125 399.861 256.277 392.943C247.399 386.664 237.995 381.165 228.17 376.507C218.368 371.848 208.083 368.282 197.501 365.872C193.264 364.893 188.958 364.236 184.622 363.908C182.439 363.761 180.251 363.733 178.065 363.826C176.967 363.826 175.882 363.977 174.783 364.059L173.156 364.286C172.614 364.355 172.072 364.444 171.536 364.561L169.923 364.89L168.337 365.316C168.069 365.384 167.808 365.453 167.54 365.529L166.765 365.796C166.25 365.982 165.728 366.146 165.213 366.339C164.211 366.785 163.153 367.163 162.226 367.712C161.746 367.973 161.238 368.192 160.778 368.488L159.405 369.36C155.753 371.823 152.873 375.27 151.097 379.301C149.58 382.572 148.8 386.137 148.811 389.743C148.787 393.337 149.892 396.848 151.969 399.781C154.122 402.646 157.176 404.704 160.64 405.623C164.123 406.45 167.764 406.332 171.186 405.28C174.638 404.265 177.922 402.75 180.935 400.783C183.974 398.841 186.825 396.619 189.448 394.144C190.766 392.908 192.025 391.618 193.224 390.272C194.419 388.899 195.558 387.526 196.732 386.153C199.122 383.406 201.236 380.475 203.454 377.605C210.693 367.745 216.891 357.161 221.949 346.024C227.037 334.914 231.127 323.373 234.17 311.538C235.179 307.961 235.9 304.288 236.717 300.65C237.088 298.823 237.363 296.983 237.672 295.157C237.981 293.331 238.262 291.505 238.413 289.665C238.557 288.161 238.763 286.582 238.99 285.236C239.106 284.55 239.223 283.939 239.354 283.417C239.427 282.991 239.539 282.573 239.69 282.168L239.69 281.749L239.848 279.971L239.793 280.177L240.136 274.684L240.315 269.192L240.411 266.446L240.411 263.658L240.411 258.063L240.232 252.433L240.15 249.605L239.958 246.776L239.594 241.098L239.024 235.414C239.024 235.482 239.024 235.496 238.955 235.359L238.955 234.94L239.01 235.276L238.955 234.734L238.921 234.645ZM182.356 400.653C180.454 401.902 178.237 402.946 175.916 404.291C178.162 403.257 180.316 402.035 182.356 400.639L182.356 400.653ZM198.895 384.258C197.907 385.418 197.144 386.283 196.458 387.127C195.668 388.082 195.675 388.185 196.458 387.32C196.911 386.812 197.474 386.139 197.941 385.569C198.236 385.191 198.47 384.869 198.895 384.244L198.895 384.258Z" fill="#4C40DC"/>
<path d="M239.8 280.204L239.711 280.492L239.676 282.023L239.676 281.776L239.8 280.204Z" fill="#4C40DC"/>
<path d="M203.879 143.402C211.205 152.327 217.885 163.408 223.102 174.702C223.913 176.315 224.62 177.997 225.396 179.658C226.171 181.32 226.975 182.988 227.668 184.698C229.007 188.13 230.414 191.563 231.101 195.085L230.998 194.824L230.998 194.907L231.087 195.085L230.998 194.9C232.057 197.452 232.915 200.082 233.566 202.768C234.184 205.322 234.815 207.786 235.261 210.32L235.179 210.038L235.309 210.567L235.309 210.615L235.261 210.361C235.996 213.155 236.854 215.936 237.472 218.861L238.495 223.316L238.756 224.463L238.976 225.623L239.422 228.005C239.335 226.341 239.163 224.682 238.907 223.035C236.906 211.512 233.902 200.187 229.927 189.188C226.494 179.727 222.567 170.253 217.308 161.499C214.96 157.709 212.461 153.418 209.818 149.745L207.93 147.047C207.298 146.196 206.639 145.42 206.028 144.679C204.986 143.396 203.872 142.175 202.691 141.019C201.215 139.639 202.341 141.5 203.879 143.402Z" fill="#4C40DC"/>
<path d="M236.607 238.64C236.552 238.64 236.545 239.128 236.511 239.437C236.6 239.938 236.724 240.81 236.758 240.81C236.793 240.81 236.827 240.302 236.854 240.006C236.772 239.54 236.648 238.661 236.607 238.64Z" fill="#4C40DC"/>
<path d="M229.604 190.849L229.481 190.595L229.55 190.911L229.55 190.863C230.064 192.236 230.435 193.671 230.923 194.797C230.614 193.451 230.47 191.858 229.604 190.849Z" fill="#4C40DC"/>
<path d="M238.928 234.645L238.976 234.94L238.976 234.734L238.928 234.645Z" fill="#4C40DC"/>
<path d="M233.483 216.334L233.257 215.647L233.339 216.293C233.415 216.533 233.538 216.979 233.559 216.979C233.552 216.763 233.527 216.547 233.483 216.334Z" fill="#4C40DC"/>
<path d="M813.804 224.923C814.573 222.774 815.177 221.23 815.521 220.426C815.864 219.623 816.015 219.561 815.974 220.371C815.802 221.964 815.013 227.093 812.452 236.471C809.849 245.959 806.402 255.196 802.153 264.07C797.879 273.04 792.592 281.492 786.397 289.26C780.153 297.091 772.819 303.988 764.62 309.74C760.538 312.659 756.215 315.227 751.699 317.415C747.199 319.629 742.568 321.564 737.831 323.21C727.139 326.812 716.116 329.341 704.924 330.762C699.336 331.51 693.72 332.073 688.076 332.334C685.254 332.492 682.433 332.684 679.604 332.801C676.776 332.801 673.947 332.801 671.118 332.801C653.987 332.804 636.89 331.252 620.039 328.167C617.691 327.727 615.281 327.274 612.844 326.794C611.615 326.601 610.407 326.286 609.178 326.011C607.949 325.736 606.72 325.455 605.477 325.166C603.006 324.604 600.513 324.041 598.028 323.45C595.577 322.764 593.126 322.077 590.696 321.322C580.219 318.182 569.908 314.516 559.801 310.337C557.288 309.273 554.817 308.113 552.318 307L548.61 305.36L546.743 304.522C546.125 304.227 545.521 303.904 544.91 303.602L537.625 299.867C536.41 299.242 535.181 298.645 533.987 297.986L530.43 295.926C527.616 294.299 524.78 292.706 521.986 291.059L513.747 285.82L511.688 284.509L510.665 283.822L509.669 283.136L505.694 280.321L501.719 277.513L499.735 276.14C499.048 275.666 498.451 275.151 497.805 274.657L490.144 268.656C488.853 267.675 487.61 266.597 486.374 265.574C485.139 264.551 483.896 263.473 482.674 262.409C477.786 258.132 473.062 253.669 468.545 248.987C459.412 239.648 451.395 229.28 444.653 218.092C443.836 216.678 442.978 215.277 442.222 213.822C441.467 212.366 440.643 210.952 439.95 209.469C438.433 206.558 437.204 203.517 435.92 200.503L434.959 198.237C434.65 197.475 434.409 196.692 434.128 195.923L432.508 191.282C432.247 190.506 431.931 189.744 431.725 188.948L431.038 186.586L429.713 181.849C426.445 169.299 424.77 155.925 424.221 142.606C423.733 129.509 424.081 116.394 425.265 103.342C425.532 99.662 426.02 95.886 426.487 92.0001C426.706 90.0503 427.029 88.1074 427.311 86.1233C427.592 84.1392 427.88 82.1481 428.237 80.1502C428.924 76.1476 429.61 72.0833 430.414 68.0326C431.217 63.982 432 59.9038 432.865 55.8601C436.888 37.0623 442.03 18.4843 449.513 0.743871C453.233 -8.15368 457.657 -16.74 462.743 -24.9332C467.875 -33.1525 473.876 -40.7965 480.642 -47.7335C481.678 -48.8252 482.777 -49.8618 483.868 -50.8986C484.96 -51.9352 486.072 -52.9582 487.205 -53.933C488.338 -54.908 489.485 -55.8897 490.638 -56.844L491.324 -57.4002L491.455 -57.4963L491.736 -57.7091L491.874 -57.8121L491.942 -57.8671L491.874 -57.9151L491.585 -58.1211C491.496 -58.1829 491.379 -58.2789 491.331 -58.3201L489.642 -59.7687C489.073 -60.2974 488.537 -60.8672 487.981 -61.4165L487.157 -62.254L486.745 -62.6729L486.368 -63.1122C485.379 -64.3206 484.308 -65.4603 483.436 -66.7441C479.783 -71.7308 476.957 -77.2737 475.067 -83.1595C473.207 -88.9964 472.151 -95.0595 471.929 -101.182C471.875 -101.944 471.929 -102.706 471.929 -103.475L471.929 -105.768C472.026 -107.292 472.094 -108.83 472.259 -110.347C472.424 -111.864 472.582 -113.368 472.877 -114.858L473.268 -117.096C473.405 -117.844 473.591 -118.579 473.756 -119.32C475.094 -125.209 477.029 -130.946 479.529 -136.443C482.01 -141.897 484.892 -147.159 488.153 -152.185C491.407 -157.176 494.944 -161.975 498.746 -166.562C503.349 -172.209 508.4 -177.476 513.85 -182.311C519.29 -187.161 525.23 -191.419 531.57 -195.012C537.938 -198.558 544.785 -201.167 551.899 -202.757C552.345 -202.853 552.784 -202.963 553.231 -203.052L554.569 -203.265L557.254 -203.69C558.146 -203.835 559.073 -203.883 560 -203.986C560.927 -204.089 561.826 -204.089 562.746 -204.116C566.363 -204.186 569.978 -203.899 573.539 -203.258C576.141 -202.788 578.71 -202.148 581.228 -201.342C583.737 -200.526 586.188 -199.544 588.567 -198.404C593.359 -196.125 597.782 -193.14 601.688 -189.548C605.637 -185.918 608.874 -181.583 611.231 -176.764C612.4 -174.334 613.298 -171.783 613.908 -169.157C614.087 -168.505 614.203 -167.846 614.32 -167.18C614.437 -166.514 614.56 -165.855 614.622 -165.12C614.779 -163.753 614.827 -162.375 614.766 -161.001C614.718 -160.314 614.698 -159.628 614.595 -158.941C614.547 -158.598 614.512 -158.254 614.457 -157.911L614.258 -156.888C614.142 -156.202 613.922 -155.515 613.75 -154.829C613.578 -154.142 613.331 -153.455 613.022 -152.831C612.469 -151.485 611.752 -150.212 610.887 -149.041C609.972 -147.837 608.874 -146.782 607.633 -145.917C606.358 -145.062 604.946 -144.431 603.459 -144.05C602.033 -143.714 600.57 -143.566 599.106 -143.61C596.438 -143.744 593.785 -144.083 591.17 -144.626C580.856 -146.656 571.024 -150.631 562.197 -156.339C559.87 -157.794 557.652 -159.422 555.462 -161.069C553.272 -162.717 551.185 -164.502 549.18 -166.383C545.14 -170.101 541.416 -174.147 538.044 -178.48C534.674 -182.811 531.653 -187.402 529.009 -192.211C526.374 -197.036 524.147 -202.072 522.35 -207.267C520.072 -213.869 518.421 -220.671 517.42 -227.582C516.393 -234.457 515.957 -241.408 516.116 -248.357C516.276 -255.279 516.928 -262.18 518.066 -269.009C519.214 -275.817 520.819 -282.54 522.871 -289.132C524.881 -295.73 527.307 -302.195 530.135 -308.486C532.932 -314.885 536.486 -320.927 540.722 -326.48C542.897 -329.274 545.336 -331.851 548.006 -334.176C550.698 -336.515 553.654 -338.531 556.814 -340.184C563.124 -343.389 569.925 -345.515 576.937 -346.472C583.656 -347.397 590.438 -347.774 597.218 -347.598C600.582 -347.509 603.932 -347.331 607.283 -347.193L612.308 -346.973L617.313 -346.52C620.643 -346.205 623.98 -345.957 627.296 -345.58C630.612 -345.202 633.907 -344.694 637.21 -344.255C640.512 -343.815 643.773 -343.218 647.041 -342.669C648.668 -342.387 650.302 -342.106 651.929 -341.817L654.367 -341.399L656.79 -340.884C675.661 -337.026 694.242 -331.867 712.401 -325.443C730.464 -319.161 748.101 -311.946 765.67 -304.256C768.499 -303.007 771.327 -301.76 774.156 -300.515L782.58 -296.677C788.203 -294.15 793.757 -291.493 799.332 -288.905C802.105 -287.587 804.877 -286.271 807.646 -284.957C810.392 -283.584 813.138 -282.376 815.974 -280.948C818.815 -279.539 821.527 -277.88 824.075 -275.991C825.381 -275.005 826.601 -273.91 827.721 -272.716C828.295 -272.108 828.836 -271.468 829.341 -270.801C829.588 -270.457 829.821 -270.114 830.027 -269.743L830.377 -269.215L830.68 -268.645C830.872 -268.281 831.057 -267.958 831.222 -267.615L831.606 -266.647C831.824 -266.118 831.996 -265.571 832.121 -265.013C832.306 -264.341 832.416 -263.65 832.451 -262.953C832.506 -262.068 832.389 -262.157 832.183 -262.699L831.71 -263.997L831.023 -265.507C830.762 -266.05 830.432 -266.62 830.089 -267.251C829.665 -267.922 829.206 -268.57 828.716 -269.194C827.466 -270.825 826.023 -272.298 824.418 -273.581C822.189 -275.363 819.814 -276.954 817.319 -278.339C813.77 -280.337 810.076 -281.992 806.451 -283.777C802.826 -285.562 799.174 -287.305 795.508 -289.029C788.203 -292.523 780.829 -295.929 773.414 -299.389C756.834 -307.044 739.197 -313.93 721.621 -320.459C691.001 -331.794 658.809 -340.41 626.554 -343.96C623.808 -344.234 621 -344.44 618.213 -344.687L614.032 -345.051L611.972 -345.223L609.871 -345.305C607.07 -345.424 604.269 -345.539 601.468 -345.648C598.667 -345.779 595.859 -345.848 593.051 -345.799C590.243 -345.751 587.435 -345.69 584.64 -345.47C583.267 -345.388 581.846 -345.23 580.452 -345.092C579.059 -344.955 577.665 -344.763 576.285 -344.509C570.759 -343.675 565.373 -342.083 560.282 -339.778C556.577 -338.058 553.115 -335.858 549.983 -333.236C546.877 -330.611 544.087 -327.634 541.669 -324.365C536.774 -317.884 533.156 -310.566 530.06 -303.117C523.801 -288.186 519.914 -272.37 518.539 -256.239C517.582 -244.636 518.312 -232.955 520.709 -221.561C523.012 -210.289 527.251 -199.502 533.238 -189.678C538.986 -180.205 546.331 -171.799 554.947 -164.832C563.399 -157.959 573.106 -152.794 583.528 -149.624C586.114 -148.865 588.738 -148.244 591.389 -147.764C594.005 -147.24 596.66 -146.934 599.326 -146.851C600.588 -146.837 601.844 -147.013 603.054 -147.373C604.231 -147.753 605.325 -148.351 606.281 -149.137C608.174 -150.788 609.548 -152.954 610.235 -155.371C610.455 -155.968 610.565 -156.607 610.729 -157.225C610.894 -157.843 610.983 -158.488 611.031 -159.133C611.179 -160.418 611.22 -161.713 611.155 -163.005C610.964 -165.615 610.44 -168.19 609.597 -170.667C607.873 -175.688 605.073 -180.271 601.392 -184.096C596.745 -188.9 591.157 -192.693 584.977 -195.239C578.757 -197.867 572.093 -199.284 565.342 -199.413C563.102 -199.443 560.864 -199.322 558.641 -199.049C556.405 -198.739 554.187 -198.315 551.995 -197.779C550.896 -197.518 549.798 -197.264 548.727 -196.9C547.656 -196.537 546.557 -196.214 545.493 -195.857L542.328 -194.628C541.271 -194.216 540.269 -193.701 539.218 -193.255C530.98 -189.41 523.496 -184.021 516.706 -177.897C513.328 -174.807 510.102 -171.532 507.04 -168.113C503.978 -164.694 501.094 -161.104 498.348 -157.41C492.798 -150.085 488.095 -142.155 484.329 -133.772C481.075 -126.531 478.839 -118.874 477.683 -111.02C476.567 -103.189 477.005 -95.2148 478.973 -87.5535C481.025 -79.4579 485.016 -71.9834 490.604 -65.7761L492.787 -63.5791C493.171 -63.2358 493.569 -62.8926 493.961 -62.5768L494.565 -62.055C494.853 -61.8147 495.128 -61.5675 495.43 -61.3684C496.611 -60.4553 497.805 -59.6314 499 -58.7527L499.9 -58.0661C499.961 -58.0112 500.078 -57.9563 500.099 -57.9013L499.879 -57.7366L499.439 -57.4002L497.689 -56.0271L495.924 -54.654L495.046 -53.9674C494.771 -53.7614 494.407 -53.4456 494.249 -53.2808L491.833 -51.2692C490.274 -49.8549 488.681 -48.523 487.198 -46.992C485.715 -45.461 484.246 -44.0056 482.797 -42.4883C482.111 -41.7125 481.424 -40.9161 480.738 -40.1334C480.051 -39.3507 479.365 -38.5475 478.678 -37.7305C475.993 -34.4926 473.473 -31.122 471.126 -27.6313C466.434 -20.626 462.302 -13.2617 458.768 -5.60672C454.415 3.67545 450.887 13.2116 447.605 21.9308C443.789 32.4318 440.641 43.1633 438.179 54.0613C436.847 59.7322 435.652 65.5267 434.506 71.3487C433.359 77.1707 432.309 83.02 431.375 88.89C431.231 89.7551 431.08 91.1762 431.018 91.4852C429.191 100.279 427.996 109.193 427.441 118.158C426.878 127.495 426.878 137.024 427.146 146.162L427.434 151.696C427.489 152.616 427.523 153.543 427.599 154.442L427.873 157.188L428.43 162.722C428.684 164.562 428.986 166.395 429.26 168.214C429.734 171.908 430.633 175.526 431.375 179.199C431.478 179.652 431.56 180.112 431.677 180.572L432.048 181.945L432.789 184.65L433.531 187.348L433.901 188.721C434.025 189.168 434.197 189.607 434.348 190.046L436.167 195.354L436.627 196.678L436.854 197.365L437.128 198.01L438.213 200.599L440.403 205.768C441.234 207.45 442.01 209.153 442.888 210.808C446.358 217.457 450.336 223.829 454.786 229.866C462.889 240.729 472.112 250.71 482.303 259.642L486.12 262.972L490.013 266.219L497.998 272.446C500.62 274.581 503.442 276.449 506.195 278.406C508.948 280.362 511.688 282.36 514.578 284.097C532.984 296.017 552.646 305.873 573.209 313.488C607.315 325.9 643.462 331.743 679.741 330.707L691.172 330.089C692.12 330.034 693.074 330 694.022 329.917L696.871 329.663C698.766 329.499 700.654 329.265 702.549 329.066C710.098 328.18 717.587 326.832 724.971 325.029C726.804 324.542 728.644 324.102 730.464 323.546C731.377 323.272 732.29 323.018 733.21 322.736L735.915 321.85C736.814 321.562 737.707 321.246 738.593 320.91L741.263 319.935L743.893 318.864C744.771 318.507 745.643 318.177 746.502 317.745L749.09 316.571C749.948 316.173 750.786 315.726 751.63 315.308C753.34 314.491 754.974 313.529 756.628 312.616C757.466 312.163 758.249 311.635 759.059 311.147C759.869 310.66 760.693 310.193 761.455 309.63L766.11 306.376C773.556 300.904 780.162 294.372 785.717 286.987C786.006 286.624 786.301 286.253 786.589 285.875L787.413 284.722C787.962 283.953 788.512 283.218 789.027 282.545C789.812 281.51 790.651 280.515 791.539 279.566L791.656 279.38L791.553 279.566L791.828 279.12L793.015 277.252L792.844 277.451C802.263 261.99 809.101 244.366 813.612 225.891C813.612 225.981 813.564 225.987 813.571 225.809L813.729 225.308L813.653 225.727L813.804 225.04L813.804 224.923ZM640.608 329.718C639.194 329.622 637.745 329.334 636.235 329.094C634.659 328.837 633.071 328.663 631.477 328.572L636.338 329.258C637.828 329.43 639.235 329.629 640.608 329.718ZM669.684 331.181C667.789 331.181 666.354 331.181 664.994 331.112C663.45 331.057 663.36 331.112 664.809 331.229C665.235 331.229 665.715 331.284 666.182 331.311C666.649 331.339 667.177 331.311 667.644 331.311C668.262 331.291 668.757 331.236 669.69 331.181L669.684 331.181Z" fill="#4C40DC"/>
<path d="M436.016 -12.5141C437.691 -15.1024 438.391 -16.2558 438.254 -15.1641C438.017 -14.0221 437.679 -12.9032 437.245 -11.8206L436.737 -10.4475L436.05 -8.8273L435.281 -6.953L434.327 -4.89337C432.954 -1.89999 431.416 1.00412 429.789 3.8739C428.162 6.74368 426.356 9.51733 424.379 12.1949C422.402 14.8724 420.342 17.4676 418.166 19.9941C415.989 22.5206 413.628 24.8892 411.149 27.1274C408.671 29.3655 406.103 31.5213 403.46 33.5741C400.817 35.6269 398.029 37.5012 395.152 39.2381C392.276 40.9751 389.351 42.6091 386.365 44.147C383.378 45.6849 380.295 47.0236 377.158 48.2251C363.118 53.7175 347.959 56.8962 332.635 56.5323C321.053 56.2783 309.649 54.5414 298.589 50.5525C295.409 49.4516 292.285 48.1913 289.231 46.7765C286.045 45.3206 283.017 43.5399 280.196 41.4626C277.135 39.193 274.396 36.5186 272.054 33.5123C270.884 32.0031 269.827 30.4106 268.889 28.7476C267.964 27.0795 267.154 25.35 266.465 23.5711C263.719 16.4516 263.033 8.76898 263.554 1.34735C264.179 -7.51602 266.301 -16.1185 269.15 -24.3914C269.864 -26.4557 270.621 -28.5153 271.422 -30.5704C272.226 -32.5957 273.077 -34.6485 274.1 -36.667C275.136 -38.744 276.428 -40.6836 277.944 -42.4408C278.738 -43.3469 279.619 -44.1726 280.574 -44.9055C281.567 -45.6663 282.654 -46.2962 283.808 -46.7798C284.963 -47.2465 286.167 -47.5782 287.398 -47.7684C288.651 -47.9368 289.921 -47.9368 291.174 -47.7684C293.856 -47.463 296.317 -46.1321 298.04 -44.0542C298.879 -43.003 299.508 -41.8004 299.893 -40.5116C300.252 -39.2872 300.437 -38.0184 300.443 -36.7425C300.444 -34.3486 300.09 -31.9677 299.392 -29.6778C296.724 -21.1266 292.404 -13.1818 286.677 -6.29388C280.915 0.64319 274.129 6.66226 266.555 11.5565C259.022 16.4546 250.87 20.3243 242.313 23.063C237.177 24.7042 231.885 25.8086 226.522 26.3584C225.149 26.4958 223.707 26.5576 222.286 26.6606C221.599 26.7018 220.865 26.7429 220.151 26.791C219.437 26.839 218.723 26.791 218.009 26.791L213.704 26.791C212.276 26.7361 210.848 26.6125 209.42 26.5232C196.219 25.4904 183.336 21.9511 171.46 16.0945C165.596 13.1713 159.993 9.74881 154.716 5.86493C149.499 1.90943 144.638 -2.49441 140.188 -7.29629C129.203 -19.3247 121.349 -33.5363 115.829 -48.3863C115.143 -50.2537 114.456 -52.1075 113.866 -53.9955L112.108 -59.6664L110.577 -65.3922C110.076 -67.3077 109.678 -69.2369 109.204 -71.1661C107.537 -78.8752 106.279 -86.667 105.435 -94.5088C104.92 -99.3147 104.515 -104.12 104.233 -108.858C103.952 -113.595 103.801 -118.36 103.609 -123.069C103.41 -132.496 103.396 -141.826 103.801 -151.012C104.872 -178.076 107.021 -205.318 111.298 -232.451C113.543 -246.655 116.372 -260.805 119.866 -274.783L121.617 -281.443C122.201 -283.667 122.784 -285.885 123.429 -288.095C124.699 -292.517 126.1 -296.931 127.72 -301.277C130.968 -309.942 135.135 -318.482 141.177 -325.808C144.198 -329.485 147.701 -332.739 151.592 -335.481L154.585 -337.431L157.729 -339.127C159.851 -340.188 162.042 -341.105 164.286 -341.873C168.76 -343.386 173.385 -344.41 178.079 -344.928C182.742 -345.415 187.438 -345.525 192.119 -345.258C196.669 -345.021 201.197 -344.473 205.671 -343.617C210.125 -342.796 214.526 -341.714 218.853 -340.376L222.094 -339.422L223.714 -338.941L224.524 -338.708L225.32 -338.42C227.435 -337.66 229.547 -336.9 231.657 -336.14L233.236 -335.577C233.765 -335.392 234.294 -335.193 234.802 -334.966L237.884 -333.662C239.944 -332.776 242.004 -331.959 244.029 -331.032C255.846 -325.608 267 -318.842 277.272 -310.868C287.477 -302.974 296.863 -294.075 305.29 -284.306C316.212 -271.762 325.392 -257.802 332.58 -242.804C334.303 -239.282 334.365 -238.787 333.837 -239.302C332.719 -240.415 331.747 -241.665 330.946 -243.023C330.349 -243.978 329.69 -245.131 328.941 -246.545L328.358 -247.658L327.671 -248.845C327.198 -249.669 326.703 -250.562 326.175 -251.543C323.696 -256.384 320.744 -260.929 317.847 -265.522L313.178 -272.216C312.43 -273.355 311.551 -274.399 310.727 -275.49L308.215 -278.745C300.663 -288.356 291.339 -297.124 281.721 -305.184L278.555 -307.806C278.02 -308.239 277.505 -308.692 276.956 -309.111L275.301 -310.326C273.084 -311.946 270.887 -313.601 268.635 -315.187L261.708 -319.677C260.575 -320.453 259.353 -321.091 258.158 -321.778L254.567 -323.837C244.973 -329.121 234.903 -333.488 224.49 -336.882C222.711 -337.458 220.899 -337.932 219.1 -338.461C217.301 -338.99 215.51 -339.525 213.69 -339.992C210.045 -340.912 206.351 -341.66 202.644 -342.271C201.71 -342.422 200.776 -342.532 199.849 -342.662C198.923 -342.793 197.982 -342.924 197.048 -342.999L194.24 -343.267L191.432 -343.418L190.025 -343.486L188.652 -343.486C187.711 -343.486 186.777 -343.486 185.844 -343.486C183.976 -343.39 182.116 -343.37 180.262 -343.136C174.829 -342.639 169.48 -341.461 164.341 -339.628C159.233 -337.782 154.461 -335.115 150.212 -331.733C145.999 -328.314 142.328 -324.277 139.323 -319.759C136.302 -315.258 133.727 -310.473 131.634 -305.472C128.695 -298.27 126.285 -290.863 124.425 -283.31C122.489 -275.85 120.727 -268.385 119.138 -260.915C116.028 -246.291 113.804 -231.833 112.197 -217.347C110.591 -202.86 109.609 -188.34 109.053 -173.531C108.655 -164.441 108.463 -154.994 108.325 -145.76C108.266 -133.375 108.652 -121.003 109.485 -108.645C109.939 -102.466 110.515 -96.287 111.38 -90.1835C111.765 -87.1147 112.294 -84.0733 112.802 -81.0181C113.062 -79.494 113.392 -77.9835 113.68 -76.4663C113.969 -74.949 114.284 -73.4317 114.655 -71.9351L115.555 -68.0079C115.85 -66.7035 116.241 -65.4128 116.536 -64.1084C116.832 -62.8039 117.161 -61.4926 117.546 -60.2087L118.665 -56.3434C119.008 -55.0459 119.434 -53.7689 119.859 -52.4988L121.13 -48.6816L122.571 -44.9329C123.059 -43.6903 123.519 -42.4339 124.095 -41.2324L125.853 -37.3603C126.128 -36.6737 126.464 -36.0834 126.794 -35.4586L127.775 -33.5775C129.025 -31.0372 130.521 -28.648 131.977 -26.2245L132.526 -25.3182L133.124 -24.4463L134.318 -22.7024L135.513 -20.9587L136.11 -20.0936L136.762 -19.2559C138.506 -17.0521 140.195 -14.7865 142.11 -12.7475L143.518 -11.1822L144.204 -10.4064L144.96 -9.66485L147.96 -6.7196C148.447 -6.21844 148.997 -5.77905 149.525 -5.34652L151.111 -3.97342L152.697 -2.60031C153.226 -2.14032 153.809 -1.74212 154.358 -1.3096L157.695 1.24445L161.176 3.59238C161.766 3.98374 162.336 4.38886 162.927 4.75959L164.739 5.82367C165.948 6.51023 167.135 7.27924 168.371 7.93833C174.172 11.0203 180.143 13.7709 186.256 16.1769C193.154 18.9624 200.4 20.794 207.793 21.6212C215.632 22.5165 223.555 22.3919 231.362 21.2506C231.939 21.1613 232.866 20.9141 233.078 20.9004C234.486 20.8249 235.907 20.612 237.356 20.3991C238.804 20.1863 240.26 19.8636 241.722 19.4792C244.714 18.7336 247.648 17.7746 250.503 16.6094C253.415 15.4274 256.264 14.0936 259.037 12.6137C261.783 11.1307 264.481 9.53107 267.063 7.90396C275.515 2.59046 282.84 -4.3331 288.62 -12.4728C290.06 -14.5253 291.387 -16.6545 292.596 -18.8509C293.788 -21.0587 294.854 -23.3326 295.788 -25.6615C296.764 -27.9796 297.539 -30.3777 298.102 -32.8291C298.707 -35.2932 298.643 -37.8745 297.916 -40.3056C297.542 -41.3941 296.938 -42.3893 296.145 -43.2234C295.352 -44.0512 294.392 -44.7017 293.33 -45.1321C291.185 -45.9462 288.841 -46.0827 286.616 -45.5234C284.391 -45.0031 282.346 -43.8987 280.691 -42.3241C279.05 -40.7616 277.661 -38.9553 276.571 -36.969C275.487 -34.9838 274.531 -32.9315 273.709 -30.8244C272.878 -28.7235 272.068 -26.609 271.333 -24.4738C269.837 -20.202 268.592 -15.8464 267.605 -11.4293C266.074 -4.40591 265.168 2.94022 265.744 10.2589C265.793 11.1788 265.93 12.0851 266.019 13.0051C266.108 13.9251 266.273 14.8175 266.465 15.7169C266.809 17.518 267.267 19.2953 267.838 21.0377C268.413 22.7743 269.101 24.4715 269.898 26.1182C270.71 27.7537 271.644 29.3257 272.692 30.821C276.125 35.7917 280.931 39.6981 286.094 42.7189C291.367 45.6769 296.954 48.0395 302.749 49.7629C308.526 51.5441 314.442 52.8348 320.435 53.6213C326.429 54.3829 332.473 54.6721 338.512 54.4864C358.931 53.7915 378.788 47.6268 396.011 36.6361C401.255 33.3611 406.129 29.526 410.545 25.1982C411.451 24.3332 412.351 23.3651 413.202 22.6099C413.834 22.0024 414.524 21.4575 415.261 20.9828L415.358 20.8798L415.275 20.9897L415.502 20.7219L416.511 19.6371L416.36 19.7401C420.343 15.069 423.962 10.0999 427.187 4.87625C430.505 -0.460358 433.402 -6.04745 435.851 -11.8344C435.817 -11.7794 435.803 -11.7794 435.81 -11.903L435.982 -12.2051L435.892 -11.9374L436.064 -12.363L436.016 -12.5141ZM312.354 52.8936C310.514 52.468 308.565 51.802 306.354 51.5205C308.681 52.1384 310.528 52.4886 312.354 52.9005L312.354 52.8936ZM331.736 54.9533C330.466 54.8846 329.511 54.816 328.598 54.7885C327.568 54.7473 327.5 54.7885 328.468 54.912C329.038 54.9601 329.765 54.9876 330.383 55.0013C330.774 54.9807 331.097 54.9464 331.736 54.9258L331.736 54.9533Z" fill="#4C40DC"/>
<path d="M416.312 19.6924L416.099 19.8297L415.31 20.832L415.454 20.6741L416.312 19.6924Z" fill="#4C40DC"/>
<path d="M123.121 184.609C122.331 180.49 122.763 180.936 126.842 188.433C131.098 195.903 135.458 203.366 140.181 210.657C141.328 212.504 142.584 214.275 143.779 216.094L145.591 218.84C146.196 219.74 146.841 220.619 147.466 221.511L151.249 226.846L155.176 232.077C161.149 239.869 167.705 247.181 174.303 254.575C179.322 260.157 184.663 265.203 190.094 270.476C191.611 271.904 193.252 273.339 194.899 274.794C196.547 276.25 198.332 277.63 199.952 279.106C207.123 285.347 214.718 291.082 222.684 296.27C232.076 302.491 242.065 307.762 252.501 312.005L256.442 313.488C257.76 313.962 259.051 314.518 260.396 314.916L264.399 316.207L266.397 316.852L268.456 317.402C271.161 318.088 273.86 318.905 276.592 319.461C277.965 319.777 279.338 320.017 280.711 320.299C282.085 320.58 283.458 320.773 284.831 320.985C295.978 322.669 307.325 322.518 318.424 320.539C324.568 319.393 331.619 318.143 338.334 316.138C346.092 313.913 353.596 310.88 360.722 307.09C364.246 305.188 367.649 303.069 370.91 300.746C374.181 298.441 377.28 295.903 380.186 293.153C383.778 289.792 387.001 286.057 389.797 282.01C392.555 278.071 394.763 273.775 396.361 269.24C397.132 267.021 397.723 264.744 398.125 262.429L398.386 260.706L398.537 258.983L398.62 258.118L398.62 257.253L398.62 255.523L398.537 253.786L398.496 252.914L398.4 252.049L398.201 250.319L397.892 248.595L397.741 247.737C397.679 247.449 397.604 247.167 397.535 246.886L397.123 245.183L396.601 243.501C396.445 242.937 396.257 242.383 396.038 241.84C395.078 239.142 393.83 236.555 392.317 234.123C390.844 231.692 389.111 229.429 387.147 227.374C385.211 225.332 383.059 223.507 380.728 221.93C378.38 220.385 375.891 219.068 373.293 217.996C365.394 214.883 356.696 214.427 348.515 216.698C347.494 216.978 346.488 217.311 345.501 217.694L344.018 218.264C343.531 218.47 343.064 218.71 342.583 218.95C340.736 219.722 339.034 220.804 337.551 222.15C335.004 224.539 334.716 228.706 335.491 232.784L335.787 234.391L336.219 235.97L336.439 236.759C336.521 237.02 336.624 237.274 336.713 237.535L337.283 239.073C338.124 241.107 339.156 243.056 340.366 244.895C341.581 246.749 342.942 248.503 344.437 250.14C345.961 251.774 347.597 253.299 349.332 254.706C351.543 256.509 353.907 258.117 356.397 259.512C358.882 260.941 361.479 262.167 364.162 263.178C366.876 264.201 369.645 265.074 372.455 265.794C375.284 266.48 378.16 267.05 381.058 267.51C386.924 268.365 392.832 268.894 398.757 269.096C404.723 269.336 410.737 269.473 416.724 269.425C422.56 269.364 428.395 269.219 434.156 268.739C439.863 268.319 445.524 267.417 451.079 266.041C455.083 265.025 459.009 263.722 462.826 262.141L465.641 260.905L468.387 259.532C470.185 258.611 471.915 257.562 473.563 256.395C480.246 251.72 485.686 245.484 489.409 238.229C491.808 233.582 493.288 228.517 493.769 223.31C494.24 218.215 493.401 213.084 491.331 208.405C490.309 206.263 490.274 205.947 490.7 206.194C491.575 206.746 492.304 207.502 492.821 208.398C493.923 210.22 494.649 212.244 494.956 214.35C496.081 221.415 495.127 228.655 492.21 235.187C491.422 237.039 490.54 238.849 489.567 240.611C488.597 242.404 487.524 244.139 486.354 245.808C484.027 249.203 481.256 252.272 478.115 254.932C472.623 259.58 466.101 262.786 459.373 265.231C455.99 266.427 452.537 267.415 449.033 268.19C445.545 269.007 442.01 269.563 438.481 270.03C428.759 271.265 418.77 271.265 408.959 271.32C401.8 271.401 394.641 271.113 387.511 270.455C380.434 269.815 373.448 268.408 366.674 266.26C361.837 264.725 357.203 262.608 352.875 259.958L351.275 258.949L349.737 257.864L348.968 257.322L348.227 256.738L346.751 255.571L345.343 254.321L344.657 253.697L343.97 253.01L342.645 251.678L341.402 250.271C338.178 246.592 335.666 242.345 333.995 237.748C333.205 235.436 332.651 233.051 332.34 230.628C332.006 228.137 332.274 225.601 333.123 223.234C333.6 222.024 334.298 220.914 335.182 219.959C336.06 219.031 337.049 218.214 338.128 217.529C338.656 217.179 339.192 216.842 339.727 216.554L341.375 215.696C342.479 215.124 343.611 214.609 344.767 214.151C349.456 212.302 354.433 211.289 359.473 211.158C362.642 211.098 365.809 211.376 368.919 211.989C372.047 212.655 375.095 213.647 378.016 214.948C381.905 216.706 385.505 219.044 388.692 221.882C391.847 224.719 394.586 227.987 396.828 231.59C401.357 238.818 403.841 247.139 404.016 255.667C404.062 259.383 403.553 263.086 402.505 266.652C401.483 270.181 400.114 273.6 398.421 276.861C394.845 283.681 390.288 289.941 384.896 295.439C379.583 300.97 373.622 305.839 367.141 309.939C363.371 312.392 359.322 314.386 355.079 315.877C350.575 317.381 345.776 318.946 340.771 320.313C335.709 321.716 330.569 322.824 325.378 323.629C324.994 323.683 324.383 323.862 324.239 323.869C320.47 323.869 316.46 324.267 312.341 324.555C308.232 324.923 304.105 325.029 299.983 324.871C293.428 324.484 286.905 323.666 280.457 322.42C278.851 322.063 277.224 321.775 275.651 321.37L273.249 320.8L270.859 320.113L266.054 318.782C264.474 318.301 262.916 317.752 261.344 317.244C258.488 316.365 255.721 315.225 252.934 314.175C251.526 313.674 250.187 313.056 248.814 312.465L244.695 310.694C243.322 310.062 242.011 309.396 240.665 308.758L238.653 307.783L237.651 307.295L236.662 306.767L232.721 304.659C232.035 304.302 231.396 303.973 230.751 303.595L228.815 302.462C220.45 297.564 212.458 292.057 204.903 285.985C192.353 276.02 180.699 264.977 170.074 252.982C161.062 242.947 152.675 232.368 144.96 221.305C143.765 219.637 142.701 217.872 141.527 216.156C140.353 214.44 139.206 212.723 138.046 211.089C137.078 209.716 136.158 208.11 136.11 207.354L136.055 207.272L136.117 207.341L135.98 207.148L135.458 206.318L135.458 206.441C130.799 199.585 126.687 192.372 123.162 184.87C123.162 184.911 123.162 184.918 123.093 184.87L123.025 184.65L123.127 184.808L122.997 184.533L123.121 184.609ZM182.542 265.265C183.396 266.317 184.381 267.256 185.473 268.059C184.327 266.968 183.407 266.144 182.542 265.265ZM173.506 256.134C174.063 256.759 174.474 257.239 174.88 257.672C175.285 258.104 175.429 258.145 175.024 257.672C174.79 257.383 174.461 257.033 174.173 256.738C174.008 256.525 173.829 256.408 173.506 256.134Z" fill="#4C40DC"/>
<path d="M135.643 206.558L135.677 206.722L136.213 207.409L136.137 207.285L135.643 206.558Z" fill="#4C40DC"/>
<path d="M104.309 133.241C104.858 134.751 105.38 136.31 105.895 137.896C106.156 138.692 106.382 139.502 106.657 140.306L107.481 142.729C108.016 144.349 108.545 145.997 109.06 147.645C109.575 149.293 110.179 150.913 110.721 152.533C111.044 153.474 111.408 154.414 111.792 155.348L112.362 156.721L112.98 158.094C113.82 159.924 114.451 161.842 114.861 163.813L114.786 163.676L114.786 163.724L114.848 163.813L114.786 163.717C115.489 165.063 116.106 166.453 116.633 167.878C117.134 169.251 117.546 170.583 118.006 171.935L117.923 171.798L118.047 172.072L117.999 171.935C118.685 173.377 119.496 174.764 120.278 176.212L122.743 180.73C122.324 179.494 122.152 178.773 121.857 178.128L119.859 173.761C119.173 172.306 118.61 170.809 117.985 169.333L116.138 164.912L114.443 160.449C113.948 159.168 113.468 157.872 113.001 156.563L111.71 152.609C111.28 151.29 110.834 149.975 110.371 148.661C109.904 147.35 109.499 146.018 108.998 144.706C107.261 140.141 106.019 134.264 104.302 131.662C103.726 130.749 103.849 131.957 104.309 133.241Z" fill="#4C40DC"/>
<path d="M121.576 187.691C121.514 187.691 121.576 187.987 121.576 188.172C121.74 188.419 121.994 188.859 122.022 188.859C122.049 188.859 122.022 188.55 121.988 188.371C121.866 188.135 121.728 187.908 121.576 187.691Z" fill="#4C40DC"/>
<path d="M113.948 161.575L113.866 161.438L113.866 161.623L113.866 161.589C114.094 162.321 114.384 163.033 114.731 163.717C114.614 162.941 114.594 162.055 113.948 161.575Z" fill="#4C40DC"/>
<path d="M123.12 184.616C123.155 184.661 123.184 184.709 123.21 184.76L123.21 184.643C123.21 184.643 123.12 184.609 123.12 184.616Z" fill="#4C40DC"/>
<path d="M116.468 176.006L116.234 175.67L116.331 176.027C116.406 176.151 116.53 176.377 116.557 176.37C116.54 176.246 116.51 176.124 116.468 176.006Z" fill="#4C40DC"/>
<path d="M376.21 420.981C375.132 422.457 374.624 423.13 374.576 422.457C374.602 421.759 374.718 421.067 374.92 420.398C375.291 418.952 375.803 417.547 376.451 416.203C377.293 414.39 378.513 412.777 380.028 411.473C381.592 410.175 383.423 409.238 385.39 408.726C389.31 407.676 393.402 407.93 397.267 408.685C405.043 410.278 412.374 413.559 418.742 418.297C425.875 423.59 432.082 430.456 435.906 438.708C436.297 439.47 436.593 440.273 436.936 441.063C437.279 441.852 437.622 442.621 437.89 443.466C438.48 445.107 438.927 446.795 439.229 448.512C439.935 452.027 439.85 455.655 438.982 459.133C438.453 461.238 437.52 463.22 436.236 464.969L435.096 466.259C434.663 466.651 434.217 467.014 433.771 467.385C432.833 468.054 431.814 468.599 430.736 469.005C428.504 469.734 426.163 470.073 423.816 470.008C421.578 470.008 419.463 469.816 417.3 469.637C413.003 469.273 408.731 468.647 404.51 467.763C394.462 465.651 384.737 462.223 375.586 457.567C371.02 455.199 366.502 452.329 362.85 448.279C361.934 447.268 361.096 446.189 360.344 445.052L359.788 444.18C359.616 443.885 359.465 443.576 359.301 443.274C358.985 442.662 358.655 442.058 358.353 441.44C357.261 438.92 356.533 436.257 356.191 433.531C355.668 428.112 356.175 422.642 357.687 417.411C358.003 416.086 358.463 414.823 358.848 413.532C359.232 412.241 359.726 410.992 360.221 409.77C361.182 407.285 362.321 404.923 363.454 402.602C364.932 399.843 366.567 397.17 368.349 394.597C369.29 393.272 370.313 391.974 371.315 390.656L372.839 388.686L374.467 386.798L376.355 384.621L377.309 383.537C377.632 383.187 377.995 382.85 378.304 382.5L382.341 378.381L386.598 374.543C387.284 373.891 388.033 373.293 388.781 372.703L391.005 370.918C396.975 366.234 403.33 362.063 410.002 358.45C418.183 353.966 426.751 350.23 435.604 347.287C444.47 344.327 453.678 342.516 463.004 341.897C474.18 341.18 485.401 341.961 496.37 344.218C504.197 345.873 511.969 347.719 519.672 349.909C527.375 352.1 534.996 354.626 542.52 357.462C550.402 360.432 558.16 363.702 565.794 367.272C575.509 371.845 584.881 376.946 594.17 382.177C603.459 387.409 612.631 392.839 621.865 398.277C630.859 403.598 639.612 409.378 648.208 415.008C660.889 423.35 672.622 432.364 684.513 441.489C692.175 447.402 699.75 453.325 707.238 459.256C709.023 460.63 709.139 460.952 708.666 460.904C707.293 460.76 705.281 460.019 701.313 456.696C698.882 454.636 696.404 452.707 693.953 450.702C691.502 448.697 688.996 446.754 686.538 444.708C683.792 442.443 680.826 440.321 677.881 438.159C674.935 435.996 671.908 433.909 668.956 431.691C658.781 423.975 648.084 416.718 637.374 409.983C629.994 405.383 622.504 400.673 614.917 396.471C603.761 390.292 592.989 383.777 581.887 377.783C573.855 373.451 565.698 369.682 557.515 366.16C541.749 359.49 525.335 354.469 508.536 351.18C507.245 350.919 505.943 350.653 504.63 350.383C503.318 350.095 501.986 349.91 500.661 349.662L496.679 348.935C495.354 348.694 494.016 348.55 492.697 348.351L490.034 347.973C489.148 347.843 488.255 347.713 487.363 347.651L482.008 347.177L480.635 347.053L479.262 347.012L476.577 346.923C474.792 346.923 472.993 346.758 471.208 346.861L465.833 347.033C464.933 347.033 464.048 347.163 463.155 347.239L460.478 347.507L457.807 347.781C456.908 347.864 456.036 348.056 455.15 348.193L452.5 348.646C451.614 348.811 450.729 348.928 449.857 349.154C448.339 349.511 446.822 349.841 445.291 350.164L444.145 350.39L443.012 350.678L440.746 351.255C437.698 351.942 434.725 352.923 431.766 353.885C430.201 354.42 428.683 355.072 427.146 355.67C426.377 355.979 425.608 356.274 424.846 356.59L422.607 357.64L420.369 358.691C419.621 359.041 418.866 359.377 418.152 359.782L413.813 362.13C413.078 362.508 412.385 362.947 411.684 363.38L409.584 364.67L407.49 365.961C406.803 366.407 406.116 366.888 405.43 367.334C404.057 368.282 402.684 369.181 401.386 370.149L397.486 373.149C397.088 373.451 396.69 373.74 396.306 374.056C395.921 374.371 395.544 374.694 395.166 375.01C394.404 375.635 393.642 376.252 392.88 376.85C391.328 378.003 389.893 379.225 388.41 380.282C381.744 385.088 375.414 392.235 370.1 399.76C369.901 400.035 369.654 400.543 369.565 400.632C367.121 403.168 365.133 406.106 363.688 409.317C362.156 412.62 360.871 416.033 359.843 419.526C358.992 422.288 358.437 425.132 358.188 428.012C357.963 430.918 358.195 433.841 358.875 436.676C359.562 439.533 360.783 442.235 362.472 444.64C364.185 447.028 366.244 449.148 368.583 450.929C372.798 454.19 377.577 456.551 382.396 458.68C384.82 459.737 387.271 460.705 389.763 461.563C392.255 462.421 394.775 463.211 397.315 463.898C405.565 466.152 414.042 467.472 422.587 467.831C424.332 467.911 426.081 467.789 427.798 467.468C428.645 467.298 429.473 467.043 430.269 466.706C430.462 466.623 430.654 466.527 430.853 466.431C431.052 466.335 431.217 466.211 431.402 466.108L431.951 465.772L432.226 465.607L432.473 465.408C433.848 464.373 434.953 463.021 435.693 461.467C436.441 459.914 436.941 458.253 437.176 456.545C437.578 453.093 437.312 449.597 436.393 446.246C435.936 444.564 435.346 442.92 434.629 441.331C434.304 440.518 433.937 439.723 433.53 438.948C433.139 438.166 432.782 437.362 432.329 436.614L431.224 434.692C430.839 434.06 430.414 433.456 430.008 432.838C429.219 431.588 428.265 430.456 427.386 429.275C425.519 426.996 423.471 424.872 421.262 422.924C416.848 419.027 411.845 415.852 406.439 413.518C403.176 412.048 399.727 411.03 396.189 410.491C394.754 410.326 393.196 410.072 392.64 409.687L392.434 409.687C392.152 409.687 391.871 409.687 391.589 409.646L391.685 409.694C388.252 409.749 384.689 410.381 381.909 412.235C379.128 414.088 377.343 417.198 376.121 420.597C376.121 420.597 376.155 420.597 376.169 420.645L376.066 420.816L376.066 420.659L375.977 420.906L376.21 420.981ZM438.034 450.764C438.034 451.038 438.075 451.32 438.082 451.608L438.082 452.494C438.082 452.796 438.082 453.098 438.117 453.414C438.124 453.735 438.161 454.054 438.226 454.368L438.226 453.359L438.178 452.446L438.137 451.588L438.034 450.764ZM434.643 439.923C434.952 440.61 435.11 441.131 435.329 441.612C435.549 442.093 435.645 442.175 435.473 441.612C435.352 441.259 435.212 440.913 435.055 440.575C434.94 440.345 434.802 440.126 434.643 439.923Z" fill="#4C40DC"/>
<path d="M391.864 409.715L392.001 409.777C392.248 409.777 392.488 409.735 392.735 409.722L392.612 409.722C392.365 409.715 392.076 409.715 391.864 409.715Z" fill="#4C40DC"/>
<path d="M368.391 468.25C368.064 462.276 368.315 456.285 369.139 450.359C369.578 446.885 369.448 443.123 370.787 439.827L370.787 439.965L370.787 439.923C370.897 437.04 371.775 434.733 372.496 432.316L372.496 432.461L372.551 432.193L372.517 432.316C372.929 429.522 373.395 426.728 373.993 423.59C373.655 424.332 373.355 425.091 373.094 425.863C371.652 431.355 370.395 436.964 369.475 442.539C368.658 447.345 367.752 452.268 367.601 457.245C367.457 461.57 366.983 466.905 367.931 469.521C368.267 470.502 368.48 469.445 368.391 468.25Z" fill="#4C40DC"/>
<path d="M379.348 420.316C379.396 420.357 379.534 420.171 379.643 420.075C379.708 419.885 379.757 419.69 379.788 419.492C379.74 419.492 379.595 419.636 379.492 419.725C379.426 419.917 379.378 420.115 379.348 420.316Z" fill="#4C40DC"/>
<path d="M370.443 441.983L370.443 442.113L370.519 441.969L370.471 441.969C370.634 441.311 370.737 440.64 370.78 439.964C370.533 440.61 370.107 441.296 370.443 441.983Z" fill="#4C40DC"/>
<path d="M376.211 420.974L376.245 420.83L376.19 420.919L376.211 420.974Z" fill="#4C40DC"/>
<path d="M376.073 430.429L376.073 430.785L376.21 430.49C376.222 430.374 376.222 430.257 376.21 430.14C376.21 430.14 376.121 430.312 376.073 430.429Z" fill="#4C40DC"/>
<path d="M438.858 631.807C440.162 632.247 440.712 632.569 440.293 632.816C439.874 633.064 438.487 633.29 435.919 633.805C433.345 634.343 430.799 635.01 428.292 635.803L427.935 634.135C429.784 633.796 431.542 633.076 433.098 632.02C433.88 631.495 434.607 630.893 435.267 630.221C435.94 629.554 436.551 628.828 437.093 628.052C439.281 624.88 440.52 621.151 440.663 617.3C440.792 614.443 440.22 611.598 438.995 609.014C437.68 606.479 435.925 604.199 433.812 602.279C432.2 600.806 430.382 599.575 428.415 598.626C426.425 597.666 424.358 596.871 422.236 596.251C419.723 595.636 417.154 595.275 414.568 595.173C408.952 594.706 403.253 595.907 397.795 597.61C394.199 598.763 390.687 600.165 387.284 601.805C386.426 602.203 385.568 602.622 384.716 603.041L381.38 604.723L373.649 608.739L374.528 601.743L374.981 598.18C375.064 597.445 375.064 597.191 375.098 596.807L375.187 595.64L375.551 590.971L375.723 586.289C375.93 579.312 375.258 572.337 373.725 565.528C373.512 564.58 373.347 563.592 373.155 562.575C372.963 561.559 372.75 560.516 372.565 559.479C372.379 558.442 372.208 557.351 372.043 556.28L371.411 553.067C369.61 543.181 367.011 533.457 363.639 523.991C363.145 522.515 362.52 521.094 361.902 519.673C361.285 518.252 360.68 516.831 359.994 515.451C358.573 512.704 357.247 509.958 355.62 507.322C354.831 506.004 354.076 504.672 353.272 503.367L350.773 499.502C349.146 496.9 347.382 494.394 345.624 491.888C343.455 488.847 341.196 485.929 338.814 483.176C336.466 480.466 333.943 477.914 331.262 475.535C327.302 472.068 322.712 469.394 317.743 467.66C312.696 465.935 307.415 464.991 302.083 464.859C296.453 464.716 290.823 465.176 285.29 466.232C278.186 467.516 271.232 469.522 264.536 472.218C257.784 474.939 251.352 478.393 245.354 482.517C239.48 486.507 233.943 490.973 228.801 495.87L226.055 498.616L224.681 499.989L223.37 501.363L220.748 504.164L218.249 507.061L216.992 508.51L215.811 510.006L213.443 513.02L211.232 516.151L210.133 517.723L209.117 519.357L207.813 521.465C207.374 522.151 206.941 522.838 206.563 523.607C205.774 525.055 204.977 526.497 204.222 527.96L202.163 532.422C201.476 533.912 200.927 535.45 200.323 536.967C199.718 538.484 199.554 538.519 199.41 538.175C199.005 537.159 198.908 535.608 200.371 532.319C201.373 530.362 202.3 528.371 203.344 526.442L204.977 523.572L205.815 522.144C206.103 521.671 206.419 521.218 206.721 520.771C207.408 519.742 208.094 518.712 208.719 517.606C209.344 516.501 210.092 515.492 210.779 514.421C212.134 512.274 213.618 510.211 215.221 508.242C220.843 501.39 227.025 495.018 233.703 489.19L235.426 487.714C235.996 487.22 236.572 486.725 237.184 486.279C238.383 485.364 239.586 484.434 240.795 483.492C243.273 481.734 245.711 479.915 248.244 478.281C249.171 477.67 250.091 477.038 251.038 476.468L253.922 474.834C255.83 473.722 257.842 472.83 259.826 471.889C263.816 470.082 267.925 468.548 272.122 467.296C278.059 465.37 284.144 463.932 290.316 462.998C296.261 462.129 302.284 461.912 308.276 462.353C314.377 462.813 320.35 464.345 325.92 466.877C329.45 468.534 332.741 470.658 335.704 473.193C339.636 476.529 343.237 480.238 346.455 484.267C348.075 486.254 349.631 488.284 351.124 490.357C352.613 492.417 354.103 494.518 355.483 496.667C357.989 500.346 359.891 504.404 361.93 508.338C366.276 516.655 369.98 525.292 373.011 534.173C373.423 535.546 373.821 536.919 374.15 538.244C374.503 539.545 374.733 540.876 374.837 542.219C375.022 545.164 375.579 548.213 375.99 551.385C376.21 552.971 376.533 554.55 376.732 556.19L377.343 560.996C377.377 561.237 377.515 561.614 377.501 561.683C377.257 564.118 377.31 566.573 377.659 568.995C377.906 571.528 378.194 574.109 378.249 576.602L378.112 582.664C378.112 583.673 378.043 584.682 377.981 585.698L377.81 588.74C377.741 590.8 377.515 592.79 377.329 594.816L377.055 597.864C376.931 598.894 376.78 599.924 376.65 600.954C376.457 602.402 376.244 603.892 376.1 605.272C378.805 603.858 381.449 602.478 384.071 601.153C386.694 599.828 389.385 598.578 392.118 597.438C397.631 595.062 403.483 593.566 409.46 593.003C411.943 592.803 414.438 592.833 416.916 593.093C419.397 593.338 421.848 593.837 424.228 594.582C426.625 595.329 428.929 596.349 431.093 597.624C433.263 598.925 435.226 600.545 436.915 602.43C437.628 603.219 438.295 604.049 438.913 604.915C439.208 605.361 439.476 605.821 439.764 606.288L440.183 606.975L440.547 607.661C441.497 609.588 442.119 611.66 442.387 613.792C442.949 618.076 442.232 622.43 440.327 626.308C439.097 628.649 437.494 630.775 435.583 632.604C434.821 633.386 433.723 633.977 433.173 633.881L433.118 633.881L433.166 633.839L433.043 633.922L432.487 634.224L432.569 634.224C431.229 635.046 429.753 635.621 428.209 635.92L427.798 633.99C431.294 632.824 434.921 632.098 438.597 631.828C438.597 631.828 438.597 631.828 438.597 631.766L438.748 631.766L438.631 631.8L438.824 631.8L438.858 631.807ZM427.873 596.697C427.523 596.539 427.187 596.313 426.816 596.12C426.423 595.92 425.993 595.805 425.553 595.784C426.012 595.949 426.424 596.079 426.802 596.237L427.873 596.697ZM434.629 600.782C434.333 600.473 434.009 600.193 433.661 599.944C433.317 599.69 433.256 599.732 433.544 600.006C433.732 600.185 433.934 600.348 434.148 600.494C434.306 600.6 434.472 600.697 434.642 600.782L434.629 600.782Z" fill="#4C40DC"/>
<path d="M84.2958 703.682C84.44 705.158 84.4331 705.838 84.0075 705.522C83.5818 705.206 82.7099 703.888 81.2613 701.32C80.5404 700.023 79.8195 698.712 79.2016 697.339C78.5837 695.965 77.9932 694.592 77.4371 693.178C76.3989 690.328 75.5772 687.405 74.9792 684.431C74.4046 681.433 74.0422 678.398 73.8946 675.348C73.7756 672.288 73.8627 669.224 74.1554 666.176C74.493 662.731 75.0781 659.314 75.9061 655.953C76.1327 655.116 76.3249 654.264 76.5927 653.434L77.3959 650.948C77.9795 649.321 78.5699 647.776 78.975 646.252C79.2903 645.172 79.4134 644.045 79.3389 642.922C79.2518 641.899 78.8966 640.916 78.3091 640.073C77.6236 639.144 76.8386 638.292 75.968 637.533C74.9509 636.637 73.9881 635.681 73.0845 634.67C71.8935 633.354 71.0238 631.779 70.5441 630.07C70.0947 628.337 70.0501 626.523 70.4137 624.77C70.7782 623.037 71.307 621.343 71.9928 619.71C72.6382 618.104 73.3659 616.634 74.0525 615.11L75.0961 612.838L76.2151 610.607L77.3342 608.375C77.7118 607.634 78.1375 606.92 78.5357 606.185C86.2045 592.344 95.5965 579.451 107.062 568.425C112.712 562.981 118.919 557.268 124.912 552.209C125.784 551.522 126.711 550.767 127.658 550.039L129.128 548.954L130.686 547.904C132.862 546.482 135.112 545.177 137.428 543.997C140.177 542.574 143.044 541.391 145.996 540.462C149.028 539.515 152.163 538.937 155.333 538.738C156.136 538.69 156.94 538.656 157.743 538.683L158.951 538.683L160.16 538.786C160.565 538.828 160.956 538.835 161.375 538.903L162.618 539.102C163.438 539.239 164.25 539.425 165.048 539.658C168.213 540.542 171.199 541.974 173.87 543.888L175.072 544.821L175.669 545.288C175.861 545.453 176.047 545.624 176.232 545.796L177.358 546.826L178.401 547.945L178.916 548.508L179.397 549.112L180.337 550.334L181.168 551.652C181.305 551.872 181.456 552.085 181.58 552.339L181.93 553.026C182.923 554.915 183.6 556.953 183.935 559.06L184.12 560.674C184.155 561.216 184.155 561.759 184.12 562.301C184.126 563.382 184.02 564.461 183.804 565.521C182.957 569.609 181.04 573.399 178.25 576.506C176.946 578.026 175.487 579.406 173.898 580.625C172.319 581.85 170.621 582.915 168.831 583.804C164.528 585.891 159.838 587.06 155.059 587.236C150.501 587.415 145.948 586.764 141.623 585.314C138.51 584.297 135.517 582.943 132.698 581.277C129.866 579.627 127.252 577.627 124.919 575.325C122.557 573.002 120.553 570.341 118.973 567.429C117.45 564.511 116.297 561.413 115.541 558.209C113.969 551.522 113.962 544.65 114.731 538.031C115.795 529.647 117.898 521.428 120.992 513.563C122.502 509.646 124.209 505.808 126.107 502.063C127.974 498.301 130.041 494.634 132.231 491.037C133.274 489.266 134.435 487.604 135.588 485.867C136.741 484.13 137.97 482.517 139.261 480.924C140.552 479.331 141.842 477.745 143.147 476.18C144.451 474.615 145.818 473.111 147.218 471.656C155.361 462.902 164.876 455.988 175.072 450.153C181.65 446.419 188.528 443.238 195.634 440.644C197.302 440.026 197.556 440.102 197.343 440.452C196.922 441.117 196.354 441.676 195.682 442.086C195.16 442.418 194.614 442.71 194.048 442.958C193.27 443.335 192.473 443.669 191.659 443.96C187.056 445.721 182.55 447.727 178.161 449.967C173.183 452.446 168.549 455.927 163.929 459.208C155.811 464.972 148.568 471.88 142.426 479.716C138.163 485.005 134.4 490.68 131.187 496.667C126.615 505.441 122.475 514.304 119.742 523.751C119.282 525.46 118.809 527.184 118.472 528.9C118.301 529.758 118.102 530.616 117.957 531.482L117.545 534.077C117.022 537.518 116.726 540.991 116.66 544.471C116.55 551.234 117.662 557.948 120.553 563.763C123.443 569.578 128.187 574.103 133.776 577.185C137.29 579.119 141.06 580.547 144.973 581.428C150.233 582.624 155.705 582.532 160.922 581.16C166.122 579.804 170.775 576.871 174.241 572.764C175.72 571.045 176.949 569.127 177.893 567.065C178.344 566.045 178.682 564.98 178.903 563.887L179.033 563.07C179.074 562.795 179.067 562.521 179.088 562.246C179.146 561.698 179.146 561.146 179.088 560.598C178.891 558.236 178.11 555.959 176.815 553.973C175.507 551.959 173.838 550.204 171.893 548.796C169.954 547.377 167.801 546.276 165.515 545.535C163.245 544.801 160.87 544.444 158.484 544.478C155.553 544.478 152.676 544.89 149.93 545.165C146.613 545.561 143.382 546.489 140.36 547.911C137.122 549.405 133.995 551.128 131.002 553.067C130.782 553.211 130.466 553.52 130.377 553.554C129.133 554.043 127.932 554.635 126.786 555.325C125.633 556.053 124.5 556.884 123.354 557.742C122.207 558.6 121.136 559.527 120.045 560.44C118.953 561.353 117.841 562.218 116.77 563.097C109.634 568.668 103.104 574.973 97.2854 581.909C92.023 588.196 87.3203 594.932 83.2316 602.038C79.8959 607.77 76.8886 613.686 74.2241 619.758C73.1874 622.271 72.3087 624.907 72.3499 627.578C72.3647 628.896 72.6767 630.194 73.2629 631.375C73.9181 632.531 74.7577 633.572 75.7482 634.457C76.7232 635.398 77.8078 636.29 78.7553 637.313C79.7813 638.348 80.5605 639.601 81.0347 640.98C81.4489 642.383 81.5313 643.864 81.275 645.305C81.0285 646.691 80.6538 648.052 80.1559 649.369C79.7645 650.475 79.3183 651.546 78.9681 652.637C78.618 653.729 78.2267 654.807 77.9383 655.912C77.7873 656.468 77.6226 657.011 77.4852 657.567L77.1145 659.242C76.833 660.354 76.682 661.487 76.476 662.606C75.7672 667.121 75.5371 671.698 75.7895 676.261C75.8454 679.043 76.2302 681.809 76.936 684.5C77.2724 685.578 77.4371 686.821 77.2243 687.342L77.2243 687.404L77.2243 687.349L77.2792 687.5L77.4509 688.146L77.4509 688.056C79.2659 693.352 81.476 698.504 84.0625 703.469C84.0625 703.435 84.0624 703.428 84.1241 703.469L84.1585 703.627L84.0829 703.524L84.1791 703.71L84.2958 703.682ZM78.6386 638.048C78.1217 637.273 77.4424 636.619 76.6477 636.132C77.3464 636.734 78.011 637.373 78.6386 638.048ZM80.6983 646.245C80.8243 645.794 80.9206 645.336 80.9866 644.872C80.9866 644.399 80.9523 644.364 80.8699 644.797C80.8012 645.051 80.7669 645.38 80.7189 645.655C80.6708 645.93 80.7051 645.95 80.6845 646.245L80.6983 646.245Z" fill="#4C40DC"/>
<path d="M256.311 104.886C257.801 106.884 257.396 106.898 253.085 105.099C248.689 103.371 244.207 101.872 239.656 100.609C238.502 100.328 237.369 99.9844 236.223 99.7304L232.749 98.9752L229.241 98.3779C228.073 98.1651 226.886 98.0758 225.712 97.9248C220.38 97.4579 215.019 97.4579 209.688 97.9248C207.628 98.014 205.664 98.3711 203.667 98.6594C202.678 98.8517 201.689 99.0439 200.694 99.2292C200.193 99.3253 199.691 99.4215 199.19 99.5107C198.689 99.6 198.195 99.7235 197.694 99.8334C195.469 100.252 193.156 101.206 190.828 101.797C185.865 103.226 181.059 105.156 176.486 107.557C171.016 110.314 165.901 113.723 161.251 117.711L159.528 119.222C159.254 119.469 158.938 119.73 158.691 119.97C158.444 120.21 158.196 120.451 157.956 120.705C157.001 121.734 156.165 122.867 155.464 124.082C154.782 125.24 154.276 126.491 153.96 127.797C153.665 128.838 153.721 129.948 154.118 130.955C154.312 131.36 154.602 131.711 154.963 131.978C155.349 132.268 155.794 132.472 156.267 132.575C157.453 132.76 158.666 132.635 159.789 132.211C161.186 131.728 162.547 131.145 163.86 130.467C165.234 129.781 166.607 129.094 167.863 128.312C170.815 126.568 174.289 124.879 177.427 122.888C180.976 120.787 184.169 118.136 186.887 115.034C189.366 112.027 190.862 108.559 190.794 104.79C190.792 104.216 190.755 103.643 190.684 103.074C190.596 102.509 190.475 101.949 190.32 101.399C190.011 100.277 189.563 99.1974 188.988 98.1857C187.793 96.106 186.227 94.263 184.368 92.7481C182.481 91.2146 180.381 89.9636 178.134 89.034C176.983 88.5528 175.807 88.1334 174.612 87.7775C173.403 87.4068 172.168 87.091 170.904 86.8232C164.725 85.4501 158.059 85.3334 151.571 85.1549C141.959 84.949 132.348 86.8438 123.086 89.7685C121.857 90.1049 120.669 90.565 119.468 90.9837L115.864 92.2607C115.259 92.4598 114.669 92.6932 114.085 92.9473L112.314 93.6682L108.772 95.0962C107.275 95.7278 105.812 96.4693 104.329 97.0803L102.105 98.0621C101.357 98.3779 100.65 98.7486 99.9219 99.1262L95.5624 101.275C94.1275 102.023 92.7268 102.841 91.3056 103.623L89.1774 104.811C88.4909 105.209 87.8043 105.669 87.1178 106.095L82.9984 108.724C81.6665 109.651 80.369 110.64 79.0645 111.608L77.1078 113.077C76.4693 113.585 75.8651 114.134 75.2473 114.663C74.0435 115.706 72.8306 116.736 71.6085 117.752C70.4276 118.817 69.2743 119.915 68.1072 120.986L66.3565 122.593C65.7729 123.128 65.251 123.725 64.6949 124.281L61.4475 127.714C58.461 131.229 55.3648 134.58 52.6598 138.225C49.878 141.799 47.4304 145.621 45.3479 149.643C42.6802 154.77 40.9437 160.33 40.2194 166.065C40.0752 167.397 39.8967 167.541 39.6702 167.273C39.0179 166.504 38.4275 165.152 39.169 162.028C40.0948 158.225 41.4492 154.54 43.206 151.043C45.2313 147.15 47.133 142.963 49.8449 139.31C52.1929 136.138 54.6508 133.021 57.2803 130.062C59.7862 127 62.5529 124.172 65.2304 121.322L68.1551 118.521C69.1438 117.594 70.0913 116.626 71.1486 115.775L74.2243 113.118L75.7415 111.745L77.3138 110.475C83.3692 105.333 90.2965 101.55 97.265 98.117C98.5351 97.4991 99.7778 96.84 101.027 96.2153C102.277 95.5905 103.561 95.0344 104.81 94.4302C107.289 93.1601 109.856 92.1234 112.362 90.9975L114.223 90.1942C114.854 89.9539 115.479 89.7205 116.104 89.5076C117.353 89.0133 118.598 88.5236 119.839 88.0384C121.068 87.5166 122.338 87.1253 123.587 86.6653L127.356 85.3403C129.89 84.5165 132.458 83.823 135.039 83.0678C137.648 82.4705 140.284 81.8664 142.969 81.3789C146.339 80.8553 149.74 80.5594 153.15 80.4932C157.729 80.274 162.319 80.3887 166.881 80.8365C171.538 81.2513 176.112 82.3335 180.461 84.0496C184.281 85.727 187.646 88.2899 190.279 91.5261C193.251 94.8796 195.163 99.0392 195.771 103.479C196.311 108.021 195.315 112.613 192.943 116.523C191.639 118.782 189.839 120.715 187.677 122.174C182.932 125.337 177.957 128.139 172.792 130.557C172.6 130.646 172.319 130.865 172.243 130.879C170.085 131.319 167.986 132.01 165.989 132.939C163.895 133.783 161.794 134.847 159.535 135.163C157.718 135.519 155.834 135.222 154.214 134.326C153.431 133.855 152.777 133.197 152.313 132.41C151.868 131.62 151.619 130.735 151.585 129.829C151.581 128.014 152.012 126.225 152.841 124.611C153.632 122.983 154.633 121.466 155.821 120.1C156.356 119.478 156.932 118.891 157.544 118.343L159.405 116.743C160.627 115.645 161.938 114.683 163.222 113.64C163.853 113.125 164.519 112.644 165.192 112.178L167.19 110.743C168.563 109.83 169.936 108.944 171.309 108.058C175.875 105.297 180.705 102.997 185.727 101.193C189.872 99.6723 194.112 98.4269 198.421 97.4647C202.745 96.5362 207.133 95.9417 211.548 95.6866L214.349 95.6111L215.722 95.5631C216.189 95.5631 216.656 95.5631 217.095 95.5631L219.883 95.5631C220.817 95.5631 221.743 95.6729 222.677 95.721C224.538 95.7896 226.385 96.0574 228.238 96.2565C229.158 96.3663 230.078 96.5516 230.984 96.6958C231.891 96.84 232.824 96.991 233.731 97.2176C234.838 97.4785 235.948 97.7417 237.06 98.0071C238.154 98.3119 239.264 98.5595 240.383 98.7487C241.31 98.8654 242.264 99.2773 242.505 99.7304L242.628 99.7304L243.15 99.8952L243.102 99.8334C245.319 100.316 247.497 100.963 249.617 101.769C250.684 102.227 251.748 102.685 252.81 103.143C253.881 103.609 254.869 104.186 255.941 104.722C255.941 104.722 255.941 104.722 255.989 104.674L256.085 104.77C256.05 104.772 256.016 104.772 255.982 104.77L256.126 104.845L256.311 104.886ZM202.225 97.403C201.474 97.401 200.731 97.5529 200.042 97.8493C200.893 97.6364 201.559 97.506 202.225 97.3687L202.225 97.403ZM209.2 96.3114C208.74 96.3114 208.39 96.3114 208.06 96.3732C207.731 96.4349 207.676 96.483 208.06 96.5036C208.29 96.5077 208.52 96.4915 208.747 96.4555C208.904 96.4121 209.056 96.3523 209.2 96.277L209.2 96.3114Z" fill="#4C40DC"/>
<path d="M243.239 99.9024L243.171 99.8132L242.697 99.772L242.772 99.7994L243.239 99.9024Z" fill="#4C40DC"/>
<path d="M280.423 123.073C279.736 122.531 278.988 121.961 278.288 121.364C277.587 120.767 276.832 120.19 276.118 119.572C274.704 118.323 273.193 117.128 271.759 115.913C270.863 115.248 269.93 114.636 268.964 114.08C268.485 113.783 268.027 113.455 267.591 113.098C267.151 112.755 266.757 112.359 266.417 111.917C266.417 111.917 266.472 111.917 266.5 111.917C265.721 111.594 264.997 111.154 264.351 110.613C263.719 110.132 263.135 109.617 262.511 109.116L262.6 109.116L262.456 109.034L262.518 109.082C260.925 108.313 259.263 107.708 257.423 106.933C257.789 107.287 258.182 107.613 258.597 107.908C261.648 109.627 264.6 111.515 267.44 113.565C268.635 114.478 269.816 115.439 270.983 116.407C272.15 117.375 273.31 118.364 274.532 119.291C275.583 120.114 276.709 121.096 277.731 121.996C278.563 122.832 279.565 123.478 280.67 123.89C281.37 124.11 281.034 123.527 280.423 123.073Z" fill="#4C40DC"/>
<path d="M256.49 101.9C256.49 101.852 256.401 101.729 256.346 101.626C256.199 101.571 256.047 101.532 255.893 101.509C255.893 101.557 255.982 101.687 256.037 101.783C256.183 101.839 256.335 101.879 256.49 101.9Z" fill="#4C40DC"/>
<path d="M267.584 112.658L267.674 112.658L267.619 112.569L267.619 112.61C267.301 112.326 266.939 112.094 266.548 111.924C266.822 112.295 267.022 112.796 267.584 112.658Z" fill="#4C40DC"/>
<path d="M256.311 104.887C256.282 104.892 256.252 104.892 256.222 104.887L256.263 104.934L256.311 104.887Z" fill="#4C40DC"/>
<path d="M262.655 105.635L262.888 105.697L262.744 105.532C262.662 105.532 262.531 105.45 262.518 105.47C262.504 105.491 262.607 105.573 262.655 105.635Z" fill="#4C40DC"/>
<path d="M101.226 486.609C100.025 487.014 99.4204 487.055 99.5646 486.609C99.7635 486.218 100.01 485.854 100.299 485.524C100.718 485.002 101.329 484.336 102.071 483.416C108.236 476.07 112.964 467.63 116.007 458.535C117.586 453.365 118.547 448.025 118.87 442.628C119.053 440.588 119.126 438.539 119.09 436.49C119.09 435.467 119.015 434.431 118.987 433.415C118.96 432.399 118.987 431.355 118.877 430.318C118.816 429.172 118.665 427.977 118.52 426.769C118.376 425.56 118.122 424.345 118.012 423.137C117.376 417.916 116.351 412.75 114.943 407.683C111.751 395.538 106.54 384.079 101.109 372.71C99.7938 369.905 98.1827 367.249 96.3035 364.787C94.4887 362.403 92.362 360.274 89.9804 358.457C88.669 357.496 87.3097 356.487 85.8611 355.628C84.5147 354.784 83.0532 354.139 81.522 353.713C80.7055 353.486 79.8635 353.364 79.0162 353.349C78.1837 353.318 77.3507 353.395 76.5376 353.576C76.328 353.61 76.1215 353.66 75.9198 353.727C75.7138 353.788 75.4942 353.836 75.3089 353.905C74.945 354.07 74.581 354.2 74.2103 354.351C73.8396 354.502 73.5238 354.75 73.1736 354.949C72.8235 355.148 72.5421 355.45 72.2125 355.697C69.7066 357.873 68.1618 361.677 68.1755 365.412C68.1373 367.681 68.7806 369.91 70.0223 371.81C71.302 373.699 73.0504 375.222 75.096 376.232C77.2088 377.276 79.4971 377.919 81.8447 378.127C84.2275 378.332 86.6279 378.161 88.9574 377.619C89.6783 377.495 90.3305 377.227 91.0514 377.035C91.7723 376.843 92.3901 376.548 93.0561 376.191C94.4044 375.554 95.6894 374.79 96.894 373.911C99.3554 372.101 101.539 369.941 103.375 367.499C106.166 363.744 108.029 359.383 108.812 354.77C109.604 350.024 109.706 345.189 109.115 340.414C108.49 335.311 107.555 330.251 106.313 325.262C105.524 322.063 104.721 318.877 103.808 315.726C102.894 312.575 101.892 309.458 100.725 306.396C99.5769 303.327 98.2684 300.32 96.8046 297.388C95.3418 294.451 93.6739 291.62 91.8134 288.916C90.9346 287.584 89.9528 286.314 89.0672 285.01C88.1815 283.705 87.145 282.463 86.1014 281.261C84.0996 278.809 81.9122 276.513 79.5586 274.396C76.1588 271.332 72.525 268.539 68.6904 266.04C64.8721 263.548 60.7723 261.515 56.4766 259.985L54.417 259.298L52.2819 258.729L51.2177 258.44L50.1467 258.221L47.991 257.795C45.1231 257.328 42.2175 257.132 39.3129 257.211C37.9398 257.246 37.7819 257.088 38.0154 256.827C38.4591 256.35 39.0275 256.008 39.6562 255.838C40.1369 255.692 40.6317 255.595 41.1323 255.55C41.8194 255.516 42.5081 255.537 43.192 255.612C47.1475 255.958 51.0474 256.776 54.8084 258.049C59.0032 259.511 63.4452 260.946 67.386 263.329C74.2226 267.476 80.4594 272.539 85.9229 278.378C89.5802 282.457 92.8916 286.834 95.8229 291.463C100.217 298.205 103.011 305.709 105.277 313.261C106.938 318.754 108.545 324.116 109.801 329.574C111.105 334.846 112.023 340.206 112.547 345.612C113.085 351.15 112.572 356.74 111.037 362.089C109.965 365.506 108.329 368.72 106.197 371.598C103.365 375.518 99.6452 378.713 95.3424 380.921C90.9538 383.087 86.0537 384.004 81.1787 383.571C79.0438 383.371 76.9563 382.821 74.9998 381.944C73.0327 381.077 71.2068 379.92 69.583 378.511C67.826 377.03 66.3534 375.24 65.237 373.232C64.1462 371.201 63.4651 368.975 63.2324 366.682C62.6604 362.036 63.8161 357.342 66.4797 353.493C67.3067 352.309 68.328 351.274 69.5005 350.431C69.7791 350.212 70.0807 350.023 70.3999 349.868C70.7089 349.697 71.0179 349.539 71.3268 349.381C71.6353 349.234 71.9571 349.117 72.2879 349.031C72.6106 348.935 72.9334 348.845 73.2561 348.77C76.1718 348.126 79.1976 348.173 82.0919 348.907C84.9949 349.709 87.6967 351.112 90.0216 353.026C90.1932 353.164 90.5365 353.315 90.5777 353.39C91.933 355.166 93.386 356.864 94.9304 358.478C96.5192 360.153 97.9383 361.981 99.1665 363.936C101.011 367.099 102.652 370.376 104.082 373.746C105.593 377.09 107.069 380.468 108.517 383.852C111.126 389.983 113.557 396.149 115.637 402.479C117.289 407.62 118.588 412.868 119.523 418.187L120.086 421.489L120.525 424.812L120.745 426.48L120.889 428.149C120.971 429.261 121.088 430.38 121.157 431.492C121.218 433.73 121.363 435.969 121.253 438.207C121.212 439.326 121.253 440.452 121.122 441.571L120.827 444.914C120.439 448.68 119.75 452.408 118.767 456.064C117.794 459.726 116.503 463.296 114.909 466.733C113.907 468.793 112.746 470.852 111.792 472.912C111.421 473.784 110.776 474.621 110.282 474.752L110.22 474.869L109.932 475.335L110 475.335C107.812 479.485 104.92 483.223 101.453 486.382C101.453 486.382 101.487 486.382 101.453 486.444L101.329 486.499L101.391 486.416L101.267 486.533L101.226 486.609ZM120.587 435.282C120.587 434.595 120.8 433.833 120.477 433.03L120.587 435.282ZM120.587 442.443C120.642 441.976 120.697 441.626 120.717 441.296C120.738 440.967 120.669 440.884 120.594 441.241C120.554 441.468 120.531 441.698 120.525 441.928C120.523 442.089 120.534 442.249 120.559 442.408L120.587 442.443Z" fill="#4C40DC"/>
<path d="M109.925 475.329L110.028 475.287L110.186 474.827L110.151 474.889L109.925 475.329Z" fill="#4C40DC"/>
<path d="M279.997 170.747C278.988 169.697 279.091 169.498 281.034 169.031C284.947 168.084 288.998 167.898 293.049 167.713C295.328 167.596 297.607 167.239 299.914 167.28C301.665 167.342 303.347 167.081 305.139 167.219C306.114 167.287 307.198 167.019 308.215 167.136C310.432 167.376 312.657 167.356 314.874 167.541C320.14 167.974 325.419 168.111 330.665 168.798C331.961 168.973 333.271 169.03 334.578 168.969C335.657 168.947 336.708 168.623 337.613 168.035C338.024 167.727 338.299 167.507 338.636 167.253C338.968 167.019 339.273 166.748 339.542 166.443C340.412 165.419 341.108 164.26 341.601 163.01C342.256 161.384 342.796 159.714 343.215 158.012C343.531 156.838 343.771 155.657 343.977 154.469L344.252 152.684L344.561 150.906C344.76 149.725 344.959 148.537 345.192 147.357C345.426 146.176 345.762 145.015 346.133 143.862C346.366 143.176 346.593 142.489 346.853 141.802C347.114 141.116 347.403 140.429 347.698 139.743C348.261 138.409 348.905 137.111 349.627 135.857C350.649 134.028 351.539 132.128 352.291 130.172C352.682 129.204 353.039 128.222 353.383 127.234L354.467 124.275C355.195 122.192 356.012 120.133 356.918 118.096C359.273 112.967 362.541 108.388 365.198 103.445C365.816 102.216 366.571 101.083 367.32 99.9228L369.517 96.4901C370.55 94.8118 371.697 93.2061 372.949 91.6842L374.789 89.3911C375.407 88.6291 376.039 87.8807 376.636 87.098C378.153 85.0384 379.712 83.0954 381.106 80.9946C381.435 80.4934 381.6 80.5346 381.737 80.7886C382.003 81.1869 382.121 81.6651 382.072 82.1412C382.023 82.6173 381.81 83.0615 381.47 83.3975C380.398 84.6539 379.41 85.9309 378.25 87.1666C376.973 88.5397 376.149 90.318 374.934 91.7872C373.847 93.0547 372.838 94.3867 371.913 95.776C370.993 97.1491 370.066 98.5222 369.276 100.005C368.72 100.994 368.13 101.976 367.56 102.964C366.99 103.953 366.482 104.969 366.008 105.999C365.668 106.754 365.29 107.492 364.875 108.209C364.477 108.896 364.072 109.644 363.64 110.345C362.782 111.718 361.855 113.091 361.058 114.546C360.481 115.577 359.961 116.638 359.5 117.725C359.067 118.81 358.676 119.915 358.264 121C357.508 123.117 356.902 125.285 356.452 127.488C356.198 128.573 356.012 129.685 355.765 130.769C355.518 131.854 355.264 132.939 355.017 134.037C354.652 135.388 354.193 136.712 353.644 137.999C352.984 139.743 352.36 141.5 351.769 143.272C351.229 145.064 350.784 146.883 350.437 148.723C350.197 150.329 349.504 151.847 349.112 153.419C348.735 155.101 348.481 156.804 348.247 158.506C348.059 160.291 347.779 162.064 347.41 163.82C347.21 164.936 346.685 165.968 345.899 166.786C344.959 167.651 344.142 168.612 343.187 169.484C342.247 170.39 341.13 171.091 339.906 171.544C339.81 171.544 339.693 171.709 339.652 171.702C338.701 171.515 337.725 171.499 336.768 171.654C335.815 171.801 334.845 171.801 333.892 171.654C330.934 170.964 327.938 170.457 324.918 170.136C322.172 169.848 319.426 169.704 316.68 169.635C315.588 169.594 314.476 169.56 313.364 169.491C312.251 169.422 311.125 169.361 310.013 169.319C306.34 169.155 302.66 169.319 298.987 169.319C295.884 169.319 292.808 169.608 289.726 169.731C288.781 169.678 287.834 169.771 286.918 170.006C286.753 170.092 286.561 170.114 286.381 170.067C286.201 170.021 286.044 169.908 285.943 169.752L285.895 169.752L285.668 169.752L285.668 169.793C283.839 170.33 281.945 170.61 280.039 170.624C280.039 170.624 280.039 170.624 280.039 170.686L279.984 170.644L280.025 170.644L279.956 170.644L279.997 170.747ZM303.017 168.688C303.306 168.688 303.608 168.935 303.951 168.64C303.587 168.695 303.299 168.736 303.017 168.736L303.017 168.688ZM300.058 168.914C300.216 168.926 300.374 168.926 300.532 168.914C300.69 168.914 300.697 168.832 300.532 168.791C300.434 168.773 300.334 168.773 300.237 168.791C300.202 168.846 300.154 168.894 300.079 168.949L300.058 168.914Z" fill="#4C40DC"/>
<path d="M285.737 169.875L285.778 169.93L285.963 169.807L285.929 169.814L285.737 169.875Z" fill="#4C40DC"/>
<path d="M267.55 171.99C268.964 171.277 270.503 170.846 272.081 170.72C272.987 170.61 273.859 169.793 274.827 170.397L274.793 170.397C275.48 169.91 276.166 170.218 276.853 170.335L276.921 170.335L276.887 170.335C277.574 170.04 278.308 169.745 279.105 169.408C278.796 169.305 278.617 169.175 278.452 169.196C276.983 169.36 275.493 169.436 274.038 169.635C272.775 169.8 271.456 169.635 270.221 170.129C269.136 170.534 267.729 170.507 267.2 171.578C266.96 172.017 267.262 172.168 267.55 171.99Z" fill="#4C40DC"/>
<path d="M280.698 173.425C280.698 173.48 280.766 173.535 280.814 173.597C280.862 173.658 280.986 173.521 280.986 173.487C280.986 173.452 280.91 173.37 280.869 173.315C280.828 173.26 280.698 173.391 280.698 173.425Z" fill="#4C40DC"/>
<path d="M274.278 170.507L274.244 170.507L274.292 170.548L274.292 170.507C274.381 170.523 274.472 170.522 274.56 170.503C274.649 170.485 274.732 170.449 274.807 170.397C274.608 170.329 274.381 170.054 274.278 170.507Z" fill="#4C40DC"/>
<path d="M277.827 173.329L277.745 173.404L277.827 173.459C277.827 173.459 277.917 173.411 277.91 173.39C277.903 173.37 277.855 173.349 277.827 173.329Z" fill="#4C40DC"/>
<path d="M114.518 48.9258C114.134 50.1753 113.934 50.2371 112.754 49.4064C110.385 47.7449 108.463 45.6029 106.458 43.5364C105.332 42.3693 103.98 41.4081 102.915 40.1723C102.098 39.2386 101.096 38.5109 100.306 37.5428C99.8671 37.0073 99.1462 36.6434 98.7068 36.0599C97.7456 34.8035 96.5923 33.7256 95.5487 32.5447C93.0703 29.7367 90.2484 27.272 87.6876 24.5395C86.3283 23.1373 84.7073 22.0154 82.9161 21.2373C81.8685 20.6816 80.9365 19.9312 80.1699 19.0265C79.2157 18.0315 78.326 16.9767 77.5062 15.8684L76.3253 14.2894C76.0729 13.9292 75.7952 13.5874 75.4945 13.2664C75.4157 13.1785 75.323 13.1042 75.2199 13.0467C75.1558 13.0224 75.0849 13.0224 75.0208 13.0467C74.6015 13.1649 74.1964 13.3283 73.8124 13.5341C72.5011 14.2207 71.1074 14.969 69.6931 15.5938C67.884 16.3432 66.029 16.9761 64.139 17.4886C61.283 18.2438 58.9417 20.0152 56.6349 21.8277C55.4129 22.7889 54.2046 23.7569 52.9276 24.6563C49.6596 26.9494 45.8973 28.4804 42.4509 30.6567C40.7137 31.6519 38.9133 32.5325 37.0614 33.2931C34.3838 34.5494 31.4386 34.9064 28.5551 35.3527C26.6808 35.6205 24.8065 35.847 22.9048 36.0393C22.4516 36.0873 22.4035 35.9363 22.4996 35.6686C22.7605 34.8996 23.1863 34.2062 24.1268 34.2542C24.7173 34.2542 25.3077 34.2542 25.8981 34.2542C26.4886 34.2542 27.079 34.1856 27.69 34.2062C29.0631 34.2062 30.3333 33.5196 31.6789 33.2862C34.0481 32.8851 36.3281 32.0693 38.414 30.8764C39.8768 30.153 41.2775 29.3103 42.6019 28.3568C44.483 26.8876 46.6799 26.0225 48.7465 24.924C50.1783 24.053 51.5213 23.0435 52.756 21.9101C55.255 19.8504 57.15 17.1042 59.6765 15.0446C60.4812 14.4083 61.3565 13.867 62.2852 13.4312C64.7431 12.1885 67.249 11.0831 69.6794 9.69631C70.8256 9.17817 72.0317 8.80457 73.27 8.5841C74.0373 8.37896 74.8317 8.29329 75.625 8.33008C76.4719 8.38773 77.2973 8.62157 78.0486 9.01663C79.2688 9.71909 80.3887 10.5828 81.3782 11.5843C81.9679 12.0575 82.3814 12.7152 82.5522 13.4517C82.868 15.2436 84.097 16.5 85.1749 17.8457C85.2161 17.8937 85.3465 17.9143 85.3465 17.9487C85.3465 19.617 86.9874 20.0495 87.7563 21.1411C89.015 22.9005 90.3912 24.5726 91.8756 26.1461C93.2487 27.581 94.6219 28.9472 96.0568 30.2654C97.2033 31.3433 98.2673 32.5516 99.3521 33.6982C101.151 35.6205 103.101 37.3987 104.845 39.3553C106.327 41.0031 107.996 42.4654 109.479 44.1062C109.875 44.6574 110.377 45.1242 110.955 45.4793C111.02 45.5034 111.079 45.5417 111.128 45.5915C111.176 45.6412 111.213 45.7013 111.235 45.767C111.258 45.8328 111.265 45.9028 111.257 45.9718C111.249 46.0408 111.225 46.1071 111.188 46.1659L111.223 46.1659L111.339 46.2826L111.339 46.2414C112.548 46.9259 113.594 47.8625 114.408 48.9876C114.408 48.9876 114.408 48.9876 114.456 48.9464L114.456 49.0082L114.456 49.0494L114.518 48.9258ZM102.455 37.5909C102.318 37.4398 102.345 37.1103 101.954 37.1446L102.455 37.5909ZM104.069 38.964C104.008 38.8688 103.939 38.7792 103.863 38.6962C103.774 38.6275 103.719 38.6962 103.76 38.7717C103.787 38.8358 103.833 38.8906 103.89 38.9297C103.925 38.9777 103.986 38.9777 104.069 38.9777L104.069 38.964Z" fill="#4C40DC"/>
<path d="M111.387 46.1796L111.408 46.1247L111.236 46.0972L111.25 46.1109L111.387 46.1796Z" fill="#4C40DC"/>
<path d="M120.457 55.654C119.386 55.2287 118.442 54.5389 117.71 53.6492C117.264 53.1755 116.275 53.1481 116.371 52.1938C115.685 52.077 115.685 51.5072 115.493 51.0266L115.452 51.0266L113.824 50.292C113.872 50.546 113.824 50.7245 113.927 50.8138C114.648 51.5827 115.3 52.3929 116.049 53.1481C116.797 53.9033 117.085 54.6722 117.93 55.146C118.658 55.5647 119.166 56.4366 120.223 56.1277C120.697 56.0041 120.697 55.7364 120.457 55.654Z" fill="#4C40DC"/>
<path d="M116.303 46.8388C116.344 46.8388 116.358 46.729 116.385 46.6603C116.413 46.5917 116.248 46.6123 116.227 46.6603C116.207 46.7084 116.166 46.777 116.138 46.832C116.111 46.8869 116.276 46.8594 116.303 46.8388Z" fill="#4C40DC"/>
<path d="M116.674 52.4613L116.674 52.4064C116.605 52.2897 116.537 52.1729 116.385 52.1592C116.406 52.372 116.276 52.7085 116.674 52.4613Z" fill="#4C40DC"/>
<path d="M117.457 48.5887L117.552 48.5887L117.552 48.5C117.552 48.5 117.477 48.5 117.464 48.5C117.45 48.5 117.457 48.5887 117.457 48.5887Z" fill="#4C40DC"/>
</svg>
