<svg width="595" height="311" viewBox="0 0 595 311" fill="none" xmlns="http://www.w3.org/2000/svg">
<mask id="mask0_236_6186" style="mask-type:alpha" maskUnits="userSpaceOnUse" x="74" y="5" width="480" height="414">
<path d="M131.022 6.31491C131.726 7.79085 135.811 10.5058 140.226 14.3431L141.865 15.8395L139.769 16.8523L139.184 17.1313C125.744 23.3991 114.067 32.9011 105.199 44.7871L103.501 42.166C107.022 41.3501 110.562 40.542 114.108 40.0508C115.875 39.7356 117.65 39.5132 119.452 39.2794C120.338 39.145 121.227 39.057 122.124 38.9497L125.116 38.6604C131.248 38.1688 137.413 38.2443 143.531 38.8858C149.319 39.4992 155.055 40.5305 160.694 41.9717C163.453 42.6432 166.193 43.419 168.901 44.2719C170.278 44.6966 171.644 45.0941 172.997 45.5766L174.972 46.244L175.454 46.4397L175.705 46.5415C175.705 46.5415 175.658 46.6572 175.634 46.715L174.727 47.2899C169.908 50.3632 165.251 53.3679 160.811 56.393L155.94 59.6476L150.443 63.0071L139.337 69.7256L128.998 75.9922C125.838 77.9654 122.709 79.9735 119.642 82.0515C114.899 85.2683 111.818 87.0486 111.184 85.6233C110.955 85.0811 109.128 85.709 107.297 86.2904L106.186 86.6477L107.472 86.7435C110.176 86.9433 112.829 87.2124 110.232 88.8524C121.058 84.6479 131.619 85.2992 140.121 85.6535C145.205 85.8545 150.147 86.0198 155.165 86.2166L170.403 86.6338C174.531 86.7804 178.636 87.3198 182.662 88.2446C186.252 89.0287 189.238 89.86 193.23 90.5381C199.075 89.3636 201.065 87.8363 197.563 85.8972C199.616 86.3718 201.152 86.7935 202.251 87.1278C202.704 87.2837 203.148 87.4641 203.582 87.6681L204.353 87.9813C204.353 87.9813 204.306 88.097 204.282 88.1548C201.971 89.5911 199.563 90.8643 197.075 91.9651C195.414 92.7984 193.826 93.7683 192.326 94.8649C187.346 98.2774 183.169 101.207 179.422 103.908L176.699 105.856L176.028 106.347L175.71 106.577L175.21 106.98L173.106 108.619L164.675 115.278C162.727 116.633 161.133 118.434 160.025 120.532C159.772 121.709 161.846 120.418 164.352 118.449L165.002 117.68L164.604 118.327C164.896 119.232 165.299 120.097 165.804 120.903C166.84 122.222 170.443 120.541 176.409 115.306C182.123 110.418 189.947 104.095 193.879 99.9428C196.797 96.7086 199.984 93.7279 203.405 91.0327C205.128 89.6663 206.998 88.2697 208.903 86.8424C208.95 86.7267 209.213 86.6315 209.19 86.5773L208.92 86.4677L208.361 86.2406L207.204 85.8828L204.832 85.1438C206.673 85.4202 208.48 85.7273 210.345 85.9459C211.126 85.9036 210.529 86.2676 210.35 86.4869C210.133 86.7052 209.933 86.9391 209.751 87.1869C209.461 87.4979 209.247 87.8726 209.127 88.281C209.002 88.5895 210.796 88.3749 206.675 90.8337C203.678 92.6061 200.844 94.642 198.208 96.9171C195.696 99.0637 193.226 101.384 190.742 103.52L159.445 130.807C158.168 132.176 156.587 133.227 154.83 133.874C165.735 122.896 165.735 122.896 160.349 124.324L159.707 125.074L160.081 124.485C160.479 122.401 156.148 125.268 153.522 126.313C154.732 124.828 155.957 123.304 153.53 124.744L151.929 127.305C148.865 129.317 145.832 132.308 142.539 134.608L138.997 137.19L137.376 138.418L135.288 140.13C132.579 142.376 130.292 144.412 128.3 146.276C125.199 149.091 122.677 152.483 120.874 156.263C118.038 157.717 117.382 157.45 116.797 157.01C116.212 156.571 115.701 156.116 112.712 157.889C107.144 162.253 105.638 164.246 104.594 165.821C103.047 168.4 100.967 170.618 98.493 172.327C91.205 178.216 84.2988 182.777 75.8831 189.286L74.7114 190.18C79.2249 190.127 83.6836 190.208 88.4965 189.805C93.9359 189.355 99.3206 188.391 104.578 186.927C107.849 185.887 111.309 185.582 114.711 186.034C119.629 186.864 127.766 185.632 136.185 184.201C143.766 182.9 144.441 183.062 145.956 184.531C146.363 184.966 148.032 184.948 150.734 184.877L153.853 184.774L155.433 184.697L156.067 184.685L156.543 184.676L160.256 184.657C162.737 184.632 165.21 184.625 167.664 184.611C172.224 183.005 166.448 182.074 170.486 180.704C173.275 180.638 176.056 181.01 178.73 181.807C184.527 183.735 187.287 183.464 196.412 180.297C197.544 180.218 198.763 180.04 199.783 180.072C204.883 180.122 208.152 181.585 214.998 180.211C221.845 178.837 218.281 177.659 218.96 176.43C219.116 176.044 219.107 175.681 221.884 175.147C227.091 175.488 230.032 176.21 229.996 177.791C229.979 178.884 231.138 179.512 233.321 179.613C233.933 179.657 234.548 179.659 235.16 179.619L236.227 179.536L236.792 179.473L237.031 179.435C237.421 179.273 237.787 179.059 238.121 178.8C240.432 177.313 243.059 177.369 241.469 179.127C240.178 180.646 239.687 180.806 242.152 179.988C244.618 179.171 249.605 177.288 253.695 175.513L254.067 175.26L253.965 175.511C254.255 175.516 254.545 175.543 254.83 175.593C251.38 177.691 247.686 179.358 243.83 180.557L238.721 182.076C238.102 182.274 238.419 182.267 238.567 182.844C238.617 182.996 238.626 183.158 238.594 183.314C238.562 183.47 238.49 183.616 238.384 183.736L238.182 183.901L237.787 184.212L236.964 184.798C236.398 185.197 235.84 185.577 235.243 185.941C234.021 186.714 232.75 187.405 231.437 188.011C227.487 189.955 223.898 192.562 220.828 195.717C217.797 198.978 225.497 193.953 222.973 197.128C208.038 205.064 193.94 214.484 180.894 225.247C180.343 227.268 183.817 225.625 186.112 225.008L186.968 224.614L185.999 225.119C183.24 227.237 180.36 229.195 177.375 230.981C171.415 233.411 165.768 236.547 160.555 240.32L76.9237 297.311L175.925 267.338C177.493 266.852 179.011 266.211 180.629 265.767L181.24 265.589L181.356 265.636C181.471 265.683 181.607 265.626 181.626 265.746C181.644 265.866 181.733 265.924 182.069 265.926C182.199 265.905 182.333 265.921 182.455 265.97C182.238 266.07 182.007 266.135 181.77 266.164L181.55 266.209L182.617 266.126C185.69 265.914 185.751 266.096 185.155 266.236C184.381 266.394 183.594 266.48 182.804 266.494C182.412 266.509 182.02 266.471 181.638 266.379C181.568 266.368 181.502 266.342 181.445 266.301L181.053 266.546L180.561 266.93L180.052 267.352L179.808 267.568L178.229 268.745L171.584 273.548C169.37 275.074 167.145 277.068 164.901 278.941C162.658 280.815 160.434 282.697 158.295 284.59L152.495 290.297L149.609 293.145C148.758 294.08 148.019 295.015 147.214 295.946L142.478 301.523C140.996 303.347 139.835 305.099 138.493 306.912C135.831 310.48 133.378 313.975 130.998 317.568L123.264 328.755L119.082 334.85L118.034 336.378L117.524 337.137L117.678 337.2L118.041 337.19L120.994 337.109L132.781 336.843C137.326 336.713 142.09 336.649 146.739 336.539L150.225 336.472L151.102 336.469C151.218 336.516 151.373 336.467 151.539 336.445L152.193 336.328L154.823 335.825L165.428 333.933L205.411 326.345C219.962 323.698 234.512 321.051 248.902 318.137C273.333 313.282 297.639 308.736 321.914 304.267C333.865 302.047 344.774 299.021 356.602 296.773C386.26 291.107 415.934 285.417 445.624 279.704C456.087 277.665 466.167 275.022 476.816 272.969C489.186 270.604 501.024 269.326 513.522 266.811L523.773 264.799C523.901 264.755 524.039 264.743 524.173 264.764C524.307 264.786 524.434 264.84 524.543 264.921C524.651 265.003 524.738 265.11 524.796 265.233C524.854 265.356 524.88 265.492 524.873 265.628C524.777 266.153 524.525 266.637 524.151 267.019L523.592 267.622C523.203 268.026 522.811 268.383 522.419 268.741L521.254 269.727L520.68 270.146L520.424 270.334L519.893 270.702L511.481 276.538C485.945 294.285 459.577 310.323 434.427 328.339C422.692 336.734 410.868 345.017 398.954 353.19L331.276 399.434C349.721 402.239 368.178 405.035 386.646 407.82L412.669 411.652L427.037 413.715C447.261 416.562 468.776 419.439 483.138 417.479C486.461 417.493 489.777 417.781 493.052 418.339C502.627 419.151 505.864 417.928 500.526 415.311C493.068 411.887 485.197 409.445 477.11 408.046C443.982 401.687 410.817 395.313 377.319 388.871L395.041 377.586L428.213 356.742C440.108 349.243 452.018 341.706 463.837 333.952C480.22 323.2 496.554 312.9 512.895 302.581L525.155 294.849L531.234 290.94L532.774 289.971L533.565 289.461L534.495 288.828C536.926 287.15 539.199 285.254 541.287 283.165C542.558 281.862 543.775 280.469 544.914 279.046C547.166 276.216 549.087 273.138 550.64 269.872C553.595 263.481 554.875 256.68 552.636 250.47C551.716 247.915 550.16 245.637 548.116 243.85C546.12 242.094 543.779 240.776 541.243 239.98C538.686 239.176 536.019 238.782 533.339 238.814C530.349 238.833 527.366 239.125 524.428 239.686L510.427 242.084L498.651 244.039C482.923 246.634 467.249 249.079 451.629 251.374C436.126 253.656 420.069 256.859 404.39 259.631C376.868 264.354 349.547 269.023 322.119 273.738C288.803 279.565 255.405 285.539 221.947 291.938L197.161 296.559C196.477 296.64 195.855 296.68 195.399 296.697C195.056 296.698 194.714 296.672 194.375 296.618L194.461 296.406L194.791 296.091L195.378 295.587C195.632 295.394 195.899 295.217 196.176 295.058L196.347 294.97C196.492 294.894 196.632 294.808 196.766 294.714L197.626 294.143L204.236 290.09L207.892 287.779C208.443 287.419 209.295 286.979 210.028 286.558L212.295 285.233L221.31 280.18L230.997 275.131L235.86 272.615L240.935 270.184L282.275 249.963L270.849 245.636L253.745 239.363L245.589 236.387L241.67 234.975L237.446 233.708C231.271 231.92 224.949 230.683 218.555 230.01C209.037 229.025 199.433 229.228 189.966 230.616C184.604 231.418 179.3 232.565 174.086 234.047L170.563 235.199C169.8 235.474 169.015 235.694 168.244 235.987L163.652 237.783L179.742 266.014L349.429 139.542L272.9 146.256C256.736 147.716 240.571 149.176 224.406 150.635L195.071 153.408C185.316 154.387 175.556 155.356 165.793 156.317L158.498 157.082L154.832 157.479L153.935 157.587L153.472 157.623L153.432 157.719C153.107 157.857 152.689 158.001 152.143 158.184C151.681 158.293 151.205 158.327 150.732 158.285L149.112 158.458C149.901 157.677 150.609 156.819 151.744 155.573L152.253 155.039L156.423 151.298L164.762 143.815L181.434 128.868L213.89 100.165C215.656 98.6366 216.83 97.4064 218.29 96.0231L222.299 92.0142L230.673 83.894L234.856 79.8435L236.981 77.7644C237.702 77.3161 236.662 77.3879 236.253 77.2891L234.713 77.0452L222.466 75.2374C214.357 74.1896 206.659 72.9044 198.511 71.953C190.362 71.0016 181.966 70.331 173.575 69.9773C172.555 69.9448 171.381 69.8497 170.496 69.872L168.571 69.8541L164.901 69.8229L157.528 69.9499C152.6 70.1942 147.729 70.462 142.917 70.7532C140.574 70.9919 138.028 71.0131 135.519 71.2741C125.522 71.9621 115.573 73.2147 105.718 75.026L113.547 96.1731L130.363 85.3505L139.513 79.4099L153.362 70.7508L166.873 62.2019C168.767 61.0262 170.552 59.6844 172.208 58.1924L176.814 54.4262L186.089 46.9639L188.417 45.1022L189.578 44.181L190.167 43.7243L190.447 43.4785L190.042 43.314L183.287 41.1993C177.864 39.5518 172.287 38.4605 166.643 37.9422L165.21 37.7646L166.439 37.8368C167.379 37.6795 167.289 37.0144 165.506 36.6494C157.129 34.9188 148.625 33.8682 140.078 33.508C131.835 33.1995 123.582 33.7461 115.452 35.139C111.062 35.9387 109.403 36.096 105.717 36.7101L102.414 37.3224L109.336 47.9274C114.099 41.7316 120.415 35.5827 123.892 30.6166C125.392 29.1348 126.722 27.4908 127.859 25.7149C124.725 27.9007 122.814 29.8419 122.552 31.1505C120.037 32.532 119.726 32.0242 121.631 29.8782C123.352 28.0185 125.474 26.5761 127.836 25.6607C132.335 23.2657 135.569 23.2095 141.281 20.2066L148.628 16.2735L142.563 11.7434C141.659 11.0402 140.717 10.3876 139.741 9.78869C136.379 7.50262 130.285 4.75764 131.022 6.31491ZM228.022 319.336L229.036 319.051L229.097 319.233L228.022 319.336ZM134.844 325.239L134.275 326.086L134.157 325.881L134.844 325.239ZM131.628 322.652L130.662 323.922L131.271 322.867L131.628 322.652ZM177.561 283.163C176.755 284.456 175.665 285.549 174.375 286.36C173.592 286.835 172.776 287.254 171.934 287.615C172.657 286.537 173.515 285.557 174.488 284.7C176.468 283.033 177.858 282.43 177.561 283.163ZM174.907 274.269C174.852 274.404 175.158 274.371 174.727 274.712C173.345 276.015 172.146 276.808 171.687 276.667C171.995 276.233 172.376 275.855 172.814 275.552C173.414 275.235 174.283 274.644 174.907 274.269ZM192.585 266.357C192.835 266.458 192.734 266.597 192.784 266.752C192.337 266.874 191.882 266.959 191.422 267.007C191.133 266.89 190.844 266.772 190.921 266.692C191.303 266.195 192.141 266.176 192.585 266.357ZM185.934 263.655L186.472 263.38L186.046 263.656L185.934 263.655ZM187.223 255.891C187.301 255.698 188.141 255.456 188.656 255.238C188.802 255.432 189.056 255.58 188.962 255.812C188.818 256.008 188.628 256.167 188.409 256.273C188.189 256.38 187.947 256.431 187.703 256.423C187.612 256.094 187.161 255.933 187.286 255.737L187.223 255.891ZM205.923 209.854L205.023 210.409L205.8 209.714L205.923 209.854ZM249.27 188.674L250.034 188.176L249.579 188.687L249.27 188.674ZM243.37 187.939C244.748 186.891 246.33 186.142 248.014 185.738C246.753 187.331 245.136 188.605 243.292 189.457C242.894 189.684 242.468 189.858 242.026 189.976C241.65 190.071 241.473 189.954 241.614 189.607C241.711 189.392 241.844 189.196 242.008 189.025C242.098 188.874 242.214 188.738 242.35 188.625C242.702 188.31 243.092 188.038 243.509 187.816L243.37 187.939ZM248.092 182.671C246.167 184.21 243.932 185.317 241.541 185.916C240.589 184.721 241.023 183.819 241.913 182.9C242.947 182.993 243.989 182.94 245.009 182.743C246.045 182.386 247.16 182.319 248.232 182.548L248.092 182.671ZM258.752 180.757C258.416 181.158 258.042 181.525 257.633 181.852C256.96 182.353 256.261 182.819 255.539 183.247C255.848 182.876 256.19 182.534 256.561 182.225C257.279 181.618 258.058 181.193 258.892 180.634L258.752 180.757ZM264.341 179.051L263.848 179.435L263.597 179.333L264.341 179.051ZM266.998 170.518C268.298 170.046 269.633 169.68 270.992 169.423C270.912 169.518 270.817 169.601 270.712 169.669C269.448 170.533 268.088 171.246 266.659 171.795C265.072 172.386 265.061 172.135 265.888 171.482L266.349 171.175C265.875 171.072 265.953 170.88 267.138 170.395L266.998 170.518ZM252.705 174.909L253.111 174.849L252.333 175.162L252.705 174.909ZM250.386 168.397L250.913 168.095L251.222 168.22L250.386 168.397ZM239.687 167.645L240.51 167.553L240.15 167.833L239.687 167.645ZM226.604 168.889C226.591 168.592 227.31 168.367 228.698 168.325C229.088 168.303 229.582 168.414 229.628 168.523C229.674 168.631 228.976 169.021 227.562 169.076C227.277 169.009 227.002 168.904 226.744 168.766L226.604 168.889ZM181.093 171.897C182.583 171.377 184.157 171.14 185.734 171.199C187.043 171.237 189.048 171.444 188.838 171.629C187.496 172.112 186.064 172.297 184.643 172.171C183.422 172.079 182.38 171.88 181.233 171.774L181.093 171.897ZM132.972 175.911C140.795 174.843 145.503 174.532 146.732 175.818C147.367 176.412 142.125 177.652 140.653 177.57C138.065 177.348 135.525 176.747 133.112 175.788L132.972 175.911ZM122.715 182.862L127.932 182.016L129.386 181.753L128.326 182.041L122.715 182.862ZM128.019 156.92C124.944 159.623 122.393 161.979 119.797 164.113C116.944 166.482 113.901 168.611 110.698 170.479C113.321 168.333 115.686 166.104 118.481 163.758C121.48 161.138 124.72 158.807 128.159 156.797L128.019 156.92ZM140.132 146.23L140.785 145.507L141.016 145.601L140.132 146.23ZM145.219 138.46L144.246 139.142C142.826 140.205 141.527 141.137 140.27 142.019C139.045 142.887 137.77 143.682 136.451 144.398C134.126 145.7 132.389 146.05 131.679 145.088C134.911 143.324 137.399 142.066 139.51 141.014L144.382 138.973L145.219 138.46ZM176.687 111.084L177.587 110.417L176.837 111.212L176.687 111.084ZM178.002 107.127C177.934 107.571 177.762 107.994 177.501 108.36C176.541 109.453 175.175 110.605 174.743 110.34C174.608 110.285 175.51 109.281 175.915 108.727L177.122 107.802L178.002 107.127ZM187.844 102.14C187.184 102.654 186.491 103.122 185.769 103.543C185.316 103.719 185.326 103.363 185.113 103.277C185.763 102.757 186.45 102.286 187.169 101.866C187.63 101.672 187.663 101.977 187.875 102.063L187.844 102.14ZM175.01 81.2061C177.657 81.2704 179.825 81.2974 181.461 81.5804C185.165 82.029 188.503 82.8235 191.986 83.3173C195.857 83.8759 199.781 83.9617 203.673 83.5726C205.671 84.1822 203.564 84.4492 203.148 84.8643C201.011 84.9843 199.005 85.1127 197.002 85.2876C194.07 84.4976 191.06 84.0281 188.026 83.8874C185.483 83.843 183.83 84.4293 183.279 85.7324C181.588 84.8385 179.812 84.117 177.977 83.579C176.042 82.5911 174.431 81.914 175.065 81.0712L175.01 81.2061ZM153.368 81.9604C157.537 82.7554 160.678 83.4251 164.889 84.3942C155.476 84.3441 151.247 84.086 153.423 81.8255L153.368 81.9604ZM122.843 83.846C131.821 81.3165 133.449 81.2363 144.562 83.3472L146.336 84.0676L144.225 83.4574C138.869 82.1577 130.532 83.3305 122.898 83.7111L122.843 83.846ZM114.599 82.7434L115.674 82.753L116.469 82.8963L115.437 82.8367L114.599 82.7434ZM118.757 37.7841C118.812 37.6492 118.851 37.5528 119.095 37.4498C120.183 37.0382 121.002 37.0117 121.132 37.3563C121.261 37.7009 120.655 37.5895 120.241 37.6684C119.827 37.7474 119.322 37.6094 118.812 37.6492L118.757 37.7841ZM104.378 40.0068L105.569 39.8393L104.513 40.1737L104.378 40.0068ZM115.247 36.5831C115.192 36.718 115.366 36.7885 115.217 37.0428C114.648 38.0019 114.073 38.5321 113.746 38.399C113.418 38.2658 113.949 37.8977 114.09 37.5507C114.469 37.1571 114.874 36.7887 115.302 36.4481L115.247 36.5831Z" fill="#010101"/>
</mask>
<g mask="url(#mask0_236_6186)">
<rect width="772.739" height="434.666" transform="matrix(-1 0 0 1 726.352 -81.689)" fill="#BFEF5B"/>
</g>
</svg>
