<svg width="477" height="314" viewBox="0 0 477 314" fill="none" xmlns="http://www.w3.org/2000/svg">
<path d="M135.356 451.824C140.827 456.156 141.399 455.176 140.332 443.917C139.487 432.53 138.324 421.208 137.514 409.805C137.255 406.956 137.159 404.094 136.958 401.245L136.659 396.946C136.565 395.516 136.537 394.081 136.47 392.654L136.118 384.06L136.004 375.488C135.979 362.567 137.718 349.683 138.448 336.736C139.017 326.899 141.114 317.447 142.21 307.647C142.643 304.853 143.22 302.084 143.941 299.35C144.746 296.568 145.393 293.743 145.88 290.889C147.789 278.589 151.43 266.699 155.277 254.983C159.838 241.097 165.946 227.768 173.485 215.246L176.39 210.653C177.383 209.134 178.278 207.563 179.354 206.106L182.473 201.668L184.024 199.445L185.68 197.312C187.873 194.434 190.052 191.567 192.374 188.854C193.512 187.475 194.726 186.163 195.887 184.8L199.497 180.81C204.495 175.556 210.114 170.931 216.231 167.037C222.26 163.171 228.727 160.036 235.496 157.695C239.308 156.437 243.104 154.718 247.032 153.034C248.966 152.139 250.961 151.336 252.929 150.44C254.896 149.543 256.905 148.729 258.953 148.023C268.134 144.37 277.599 141.473 287.251 139.361C292.041 138.359 296.887 137.645 301.762 137.221C306.629 136.767 311.523 136.678 316.403 136.957C328.556 137.604 340.148 141.514 348.778 147.645C350.882 149.133 352.864 150.787 354.706 152.589L355.987 153.897L357.175 155.277L357.78 155.959L358.341 156.674L359.465 158.105L360.481 159.62L360.992 160.375L361.454 161.169L362.398 162.741L363.25 164.385L363.69 165.196C363.825 165.472 363.939 165.764 364.073 166.052L364.867 167.742L365.575 169.498C365.835 170.077 366.065 170.669 366.262 171.272C367.345 174.167 368.146 177.16 368.652 180.209C369.193 183.244 369.432 186.327 369.365 189.41C369.318 192.476 368.979 195.531 368.35 198.532C367.652 201.631 366.691 204.664 365.477 207.6C362.335 214.715 357.127 220.722 350.528 224.84C347.232 226.947 343.637 228.546 339.864 229.581C338.935 229.87 337.972 230.014 337.03 230.244C336.146 230.452 335.249 230.604 334.345 230.698C334.117 230.715 333.979 230.731 333.862 230.73L333.471 230.748C333.206 230.748 332.947 230.743 332.69 230.725C332.174 230.679 331.665 230.574 331.173 230.413C330.112 230.009 329.178 229.328 328.469 228.442C327.992 227.874 327.555 227.274 327.163 226.645C326.649 225.841 326.192 225.002 325.794 224.135L324.971 222.468L324.322 220.758L323.967 219.879C323.866 219.588 323.792 219.288 323.704 218.999L323.185 217.232C322.591 214.81 322.218 212.339 322.072 209.849C321.91 207.297 321.945 204.737 322.178 202.191C322.445 199.584 322.878 196.996 323.474 194.443C324.221 191.131 325.224 187.882 326.471 184.724C326.755 183.922 327.068 183.098 327.449 182.36C327.829 181.622 328.093 180.779 328.495 180.024L329.627 177.725L330.902 175.417C332.678 172.303 334.618 169.286 336.714 166.379C338.854 163.449 341.171 160.567 343.64 157.761C348.74 152.049 354.199 146.667 359.982 141.647C365.857 136.492 372.029 131.404 378.344 126.736C384.493 122.209 390.534 117.663 396.692 113.488C402.699 109.345 409.089 105.789 415.774 102.867C420.53 100.843 425.396 99.0883 430.349 97.6126L434.029 96.5852L437.731 95.761C440.122 95.2398 442.546 94.8824 444.986 94.6911C454.998 93.7602 465.081 95.4387 474.252 99.563C480.045 102.177 485.241 105.949 489.522 110.647C493.562 115.069 496.302 120.522 497.439 126.403C497.862 129.078 498.488 129.315 499.438 128.639C500.975 127.605 502.082 126.045 502.551 124.253C503.081 122.217 502.823 119.413 501.012 116.105C496.49 107.909 489.543 101.313 481.123 97.2223C478.786 96.0729 476.42 94.9586 474.009 93.8908C471.598 92.8231 469.128 91.813 466.59 90.9373C461.507 89.0895 456.149 88.1157 450.741 88.057C446.063 88.0787 441.399 88.5497 436.811 89.4633L433.366 90.2017C432.214 90.4128 431.116 90.8118 429.952 91.0667C427.676 91.6155 425.453 92.3779 423.21 93.0861C418.757 94.588 414.393 96.3422 410.139 98.3404C405.865 100.262 401.726 102.517 397.627 104.809C386.448 111.191 376.062 119.425 365.464 126.902C357.697 132.373 350.428 138.517 343.739 145.263C337.128 151.91 331.266 159.262 326.257 167.187C322.662 172.749 319.599 178.638 317.11 184.776L316.224 187.079L315.449 189.422L315.055 190.598L314.737 191.785L314.074 194.167L313.551 196.578L313.324 197.763L313.131 198.99L312.744 201.444L312.537 203.92L312.383 205.197L312.352 206.482C312.332 207.342 312.286 208.211 312.279 209.071C312.352 210.784 312.319 212.51 312.545 214.241C312.77 215.972 312.939 217.69 313.233 219.39C313.369 220.255 313.625 221.083 313.808 221.934C313.991 222.792 314.219 223.639 314.493 224.472L315.306 226.98C315.628 227.802 315.984 228.61 316.319 229.434C316.987 231.111 317.808 232.724 318.771 234.251C320.789 237.697 323.841 240.419 327.493 242.033C329.173 242.703 330.946 243.113 332.75 243.249C333.666 243.331 334.586 243.362 335.505 243.341C336.367 243.335 337.202 243.293 338.018 243.242C339.653 243.115 341.209 242.887 342.855 242.671C344.5 242.455 346.068 242.08 347.654 241.655C354.108 240.026 360.232 237.299 365.761 233.593C369.474 230.998 372.838 227.937 375.772 224.485C378.68 220.959 381.185 217.119 383.241 213.036C385.955 207.57 387.832 201.727 388.807 195.703C389.747 189.756 389.867 183.708 389.164 177.729C387.77 165.743 383.387 154.3 376.418 144.449C375.603 143.412 374.783 142.367 373.963 141.323C373.143 140.278 372.116 139.396 371.172 138.46C370.229 137.524 369.201 136.7 368.173 135.877C367.145 135.053 366.094 134.259 364.994 133.55C360.692 130.709 356.156 128.238 351.436 126.165C341.745 121.829 331.531 118.772 321.052 117.07C310.652 115.28 300.072 114.77 289.548 115.551C283.159 116.045 276.855 117.339 271.709 120.373C265.91 123.769 259.747 126.688 253.452 129.687C247.156 132.687 240.741 135.769 234.704 139.363C234.257 139.633 233.353 139.764 233.23 139.93C230.021 144.358 225.624 147.301 220.976 150.233C216.327 153.165 211.401 155.934 207.535 159.628C201.248 165.667 195.283 172.033 189.664 178.699C188.312 180.409 186.87 182.049 185.566 183.79L183.544 186.371L181.631 189.03L177.788 194.36C176.549 196.154 175.361 198 174.14 199.803C171.864 203.046 169.896 206.476 167.801 209.833C166.769 211.464 165.827 213.21 164.862 214.927L161.967 220.079L159.26 225.35L157.877 228.008L157.194 229.319L156.565 230.668L154.086 236.084C153.652 237.003 153.217 237.923 152.828 238.783L151.682 241.522C146.662 253.142 142.936 265.735 139.915 278.237C134.951 298.902 131.101 319.953 129.938 341.231C128.961 359.137 127.967 377.021 129.117 395.014C129.243 397.737 129.672 400.465 129.855 403.201C130.082 405.936 130.102 408.685 129.914 411.423C129.727 413.675 130.256 416.116 131.762 416.841L131.78 416.967L131.808 416.84L131.796 417.15L131.918 418.454L131.733 418.322C131.332 429.419 132.59 440.515 135.465 451.241C135.426 451.191 135.361 451.196 135.24 451.337L135.454 451.609C135.467 451.524 135.473 451.438 135.472 451.352L135.573 451.747L135.356 451.824ZM134.56 318.556C134.737 316.925 134.076 314.993 135.501 313.273C135.135 315.341 134.8 316.946 134.56 318.556ZM131.942 335.402C131.94 334.48 131.988 333.558 132.087 332.64C132.215 331.742 132.505 331.699 132.588 332.571C132.63 333.128 132.599 333.689 132.497 334.238C132.357 334.646 132.171 335.037 131.942 335.402Z" fill="black"/>
</svg>
