<svg width="24" height="24" viewBox="0 0 24 24" fill="none" xmlns="http://www.w3.org/2000/svg">
<path d="M8.9999 15.0001L14.9999 9.00006M10.9999 6.00006L11.4629 5.46406C12.4007 4.52639 13.6726 3.99966 14.9988 3.99976C16.3249 3.99985 17.5967 4.52676 18.5344 5.46456C19.4721 6.40237 19.9988 7.67425 19.9987 9.00042C19.9986 10.3266 19.4717 11.5984 18.5339 12.5361L17.9999 13.0001M12.9999 18.0001L12.6029 18.5341C11.6541 19.4723 10.3737 19.9984 9.0394 19.9984C7.70511 19.9984 6.42465 19.4723 5.4759 18.5341C5.00825 18.0717 4.63699 17.5211 4.38361 16.9142C4.13023 16.3073 3.99976 15.6562 3.99976 14.9986C3.99976 14.3409 4.13023 13.6898 4.38361 13.0829C4.63699 12.476 5.00825 11.9255 5.4759 11.4631L5.9999 11.0001" stroke="white" stroke-width="2" stroke-linecap="round" stroke-linejoin="round"/>
</svg>
