<svg width="64" height="64" viewBox="0 0 64 64" fill="none" xmlns="http://www.w3.org/2000/svg">
<rect width="64" height="64" rx="32" fill="white"/>
<path d="M40.3998 23.6134C40.2765 23.4898 40.1299 23.3917 39.9686 23.3248C39.8073 23.2579 39.6344 23.2235 39.4598 23.2235C39.2852 23.2235 39.1123 23.2579 38.951 23.3248C38.7897 23.3917 38.6432 23.4898 38.5198 23.6134L31.9998 30.1201L25.4798 23.6001C25.3564 23.4766 25.2098 23.3787 25.0485 23.3119C24.8872 23.2451 24.7144 23.2107 24.5398 23.2107C24.3652 23.2107 24.1924 23.2451 24.0311 23.3119C23.8698 23.3787 23.7233 23.4766 23.5998 23.6001C23.4764 23.7235 23.3784 23.87 23.3116 24.0313C23.2448 24.1926 23.2104 24.3655 23.2104 24.5401C23.2104 24.7146 23.2448 24.8875 23.3116 25.0488C23.3784 25.2101 23.4764 25.3566 23.5998 25.4801L30.1198 32.0001L23.5998 38.5201C23.4764 38.6435 23.3784 38.79 23.3116 38.9513C23.2448 39.1126 23.2104 39.2855 23.2104 39.4601C23.2104 39.6346 23.2448 39.8075 23.3116 39.9688C23.3784 40.1301 23.4764 40.2766 23.5998 40.4001C23.7233 40.5235 23.8698 40.6214 24.0311 40.6882C24.1924 40.755 24.3652 40.7894 24.5398 40.7894C24.7144 40.7894 24.8872 40.755 25.0485 40.6882C25.2098 40.6214 25.3564 40.5235 25.4798 40.4001L31.9998 33.8801L38.5198 40.4001C38.6433 40.5235 38.7898 40.6214 38.9511 40.6882C39.1124 40.755 39.2852 40.7894 39.4598 40.7894C39.6344 40.7894 39.8072 40.755 39.9685 40.6882C40.1298 40.6214 40.2764 40.5235 40.3998 40.4001C40.5233 40.2766 40.6212 40.1301 40.688 39.9688C40.7548 39.8075 40.7892 39.6346 40.7892 39.4601C40.7892 39.2855 40.7548 39.1126 40.688 38.9513C40.6212 38.79 40.5233 38.6435 40.3998 38.5201L33.8798 32.0001L40.3998 25.4801C40.9065 24.9734 40.9065 24.1201 40.3998 23.6134Z" fill="#4C40DC"/>
</svg>
