<svg width="120" height="9" viewBox="0 0 120 9" fill="none" xmlns="http://www.w3.org/2000/svg">
<path d="M0 8.90736C9.83072 6.05972 19.8425 3.83785 29.9714 2.2559C40.1344 0.528819 50.4496 -0.209778 60.7636 0.0510913C71.2632 0.458702 81.2472 3.46018 91.0213 5.99848C93.4327 6.59288 95.8913 6.98953 98.3711 7.18426C100.853 7.26684 103.335 7.04271 105.759 6.51726C110.679 5.26438 115.451 3.51962 120 1.31097C115.662 4.021 111.002 6.21089 106.122 7.83274C103.588 8.54664 100.97 8.93899 98.3328 9C95.7075 8.93909 93.0935 8.64134 90.525 8.11065C85.447 7.07309 80.56 5.73911 75.5775 4.79419C70.6676 3.69325 65.6643 3.02966 60.63 2.81171C55.5772 2.60819 50.5166 2.68244 45.4725 3.03406C40.3946 3.27492 35.3548 3.84927 30.2005 4.38658C20.2546 5.60941 10.1559 7.09164 0 8.90736Z" fill="#AAD451"/>
</svg>
