<svg width="176" height="40" viewBox="0 0 176 40" fill="none" xmlns="http://www.w3.org/2000/svg">
<path d="M72.2689 0.0172191C73.5775 0.0688765 74.8862 0.154972 76.1948 0.120534C76.9869 0.103315 77.5207 0.344383 78.0373 0.929833C80.2758 3.47826 82.5487 5.97504 84.8216 8.48903C84.8905 8.57513 84.9938 8.62678 85.1488 8.76454C86.7674 6.95653 88.3688 5.16574 89.9701 3.37495C90.1423 3.18554 90.3145 2.97891 90.4867 2.7895C91.2788 1.92854 91.9331 0.705984 92.9146 0.292725C93.965 -0.154972 95.3425 0.154972 96.5651 0.137753C97.0128 0.137753 97.4777 0.137753 97.977 0.137753C97.9943 0.482136 98.0287 0.740423 98.0287 0.98149C98.0287 6.26776 98.0115 11.5368 98.0459 16.8231C98.0459 17.5463 97.8393 17.7701 97.1161 17.7357C96.0829 17.684 95.0498 17.684 94.0166 17.7357C93.3451 17.7701 93.1901 17.5119 93.1901 16.892C93.2073 13.9647 93.2073 11.0375 93.2073 8.11021C93.2073 7.81748 93.2073 7.50754 93.0007 7.12872C92.0536 8.16187 91.1238 9.1778 90.1768 10.2109C89.1781 11.313 88.1793 12.4322 87.1462 13.4998C86.9396 13.7236 86.578 13.7753 86.2852 13.9131C86.268 13.9303 86.2336 13.9131 86.1991 13.9131C84.1501 14.2747 82.6176 13.5859 81.3606 11.864C80.2758 10.3659 78.8982 9.07448 77.6585 7.67973C77.4691 7.4731 77.4002 7.18038 77.2624 6.93931C77.1591 7.02541 77.0386 7.1115 76.9353 7.1976C76.9353 10.6586 76.9353 14.1197 76.9353 17.6496C75.2994 17.6496 73.7497 17.6496 72.0967 17.6496C72.0967 11.7434 72.0967 5.87172 72.0967 0C72.1656 0.0172191 72.2172 0.0172191 72.2689 0.0172191Z" fill="white"/>
<path d="M0 0.206816C0.20663 0.189597 0.344383 0.155159 0.499355 0.155159C5.71675 0.172378 10.9341 0.0690631 16.1515 0.224035C20.4908 0.361788 21.6617 4.40828 20.1808 7.40441C19.9742 7.81767 19.5781 8.16205 19.2338 8.57531C19.2682 8.60975 19.3026 8.69585 19.3887 8.76472C21.2656 10.1078 22.0233 12.0364 21.4895 14.051C20.9212 16.1173 19.1821 17.5293 16.892 17.6842C15.7727 17.7531 14.6535 17.7359 13.5342 17.7359C9.38443 17.7359 5.2174 17.7359 1.06759 17.7359C0.740423 17.7359 0.39604 17.7359 0.0172192 17.7359C6.54292e-08 11.8469 0 6.07854 0 0.206816ZM4.78692 7.26666C5.1313 7.28388 5.37237 7.31832 5.63066 7.31832C8.55791 7.31832 11.4852 7.31832 14.4124 7.31832C15.6005 7.31832 16.186 6.81896 16.1688 5.82025C16.1515 4.89042 15.6005 4.4255 14.4124 4.40828C11.4679 4.39106 8.50625 4.39106 5.56178 4.39106C5.32071 4.39106 5.06242 4.4255 4.78692 4.45994C4.78692 5.40699 4.78692 6.28517 4.78692 7.26666ZM4.78692 13.3967C4.99355 13.4311 5.09686 13.4655 5.20018 13.4655C8.40294 13.4655 11.6229 13.4828 14.8257 13.4655C15.7211 13.4655 16.3065 12.8457 16.3065 12.0191C16.2893 11.1926 15.7383 10.6933 14.7568 10.6933C12.2428 10.6933 9.71159 10.6933 7.1976 10.6933C6.40552 10.6933 5.61344 10.6933 4.78692 10.6933C4.78692 11.6231 4.78692 12.4668 4.78692 13.3967Z" fill="white"/>
<path d="M122.17 0.240867C122.17 6.09537 122.17 11.8466 122.17 17.7011C120.603 17.7011 119.053 17.7011 117.418 17.7011C117.418 16.4785 117.366 15.2732 117.435 14.085C117.486 13.293 117.194 13.0863 116.453 13.138C115.592 13.2069 114.731 13.138 113.87 13.2069C112.631 13.3102 111.563 13.8784 110.65 14.7222C108.309 16.8918 105.485 17.7183 102.385 17.7699C102.161 17.7699 101.748 17.5117 101.748 17.3395C101.696 16.203 101.714 15.0665 101.714 13.8612C103.487 13.6718 105.209 13.5168 106.656 12.2943C106.432 12.1737 106.294 12.0876 106.139 12.036C103.246 10.8823 101.817 8.90209 101.903 6.12981C101.972 3.71913 103.849 1.48064 106.552 0.671345C107.413 0.413058 108.343 0.240867 109.256 0.240867C113.337 0.189209 117.4 0.223648 121.481 0.223648C121.688 0.206428 121.877 0.223647 122.17 0.240867ZM117.366 4.49399C114.473 4.49399 111.666 4.45955 108.86 4.51121C107.981 4.52843 107.31 5.07944 107 5.95762C106.466 7.52456 107.499 8.86765 109.325 8.90209C111.098 8.93653 112.872 8.90209 114.662 8.90209C115.541 8.90209 116.419 8.90209 117.349 8.90209C117.366 7.40403 117.366 6.00928 117.366 4.49399Z" fill="white"/>
<path d="M49.1947 0.206543C55.4281 0.206543 61.6614 0.206543 67.9636 0.206543C67.9636 1.58407 67.9636 2.92717 67.9636 4.39079C67.6364 4.39079 67.3609 4.39079 67.0854 4.39079C62.9873 4.39079 58.8891 4.40801 54.7737 4.37357C54.0678 4.37357 53.8267 4.56298 53.8439 5.28619C53.8611 7.14585 53.8267 7.14585 55.6691 7.14585C58.6481 7.14585 61.627 7.14585 64.6231 7.14585C64.933 7.14585 65.243 7.14585 65.5874 7.14585C65.5874 8.40285 65.5874 9.53931 65.5874 10.7791C61.6786 10.7791 57.8388 10.7791 54.0333 10.7791C53.9472 10.9341 53.8956 10.9857 53.8784 11.0374C53.6889 13.4653 53.6889 13.4653 56.0652 13.4653C59.7329 13.4653 63.4005 13.4825 67.0854 13.4481C67.7742 13.4481 68.0669 13.6202 68.0325 14.3434C67.9808 15.2216 67.998 16.117 68.0325 17.0124C68.0497 17.4945 67.9292 17.7356 67.3609 17.7356C61.4892 17.7184 55.6003 17.7356 49.7285 17.7356C49.3497 17.7356 49.0742 17.684 49.0742 17.1846C49.0914 11.6228 49.0914 6.06105 49.0914 0.499268C49.0914 0.413173 49.1431 0.327077 49.1947 0.206543Z" fill="white"/>
<path d="M22.5918 39.9831C23.5905 37.9684 24.5203 36.1432 25.433 34.3007C27.2237 30.6847 29.0318 27.0687 30.7881 23.4355C31.1153 22.7639 31.4941 22.4884 32.2862 22.5056C34.8002 22.5745 37.3314 22.5401 39.8626 22.5229C40.3275 22.5229 40.6547 22.609 40.8785 23.0911C43.5819 28.584 46.3025 34.0769 49.0232 39.5698C49.0748 39.6731 49.0748 39.7764 49.1437 39.9831C47.4046 39.9831 45.7171 40.0003 44.0296 39.9658C43.823 39.9658 43.5475 39.7076 43.4269 39.4837C43.0137 38.7261 42.7037 37.9168 42.2733 37.1936C42.1011 36.918 41.6878 36.6425 41.3779 36.6425C37.7446 36.6081 34.0942 36.6081 30.4609 36.6425C30.1682 36.6425 29.755 36.9353 29.5828 37.2108C29.1351 37.934 28.8079 38.7433 28.3946 39.5009C28.2741 39.7076 27.9986 39.9486 27.792 39.9658C26.1045 40.0003 24.4515 39.9831 22.5918 39.9831ZM31.9934 32.2689C34.6624 32.2689 37.1936 32.2689 39.8626 32.2689C39.0016 30.4781 38.2095 28.8078 37.383 27.1376C37.2969 26.9654 37.0042 26.7932 36.7976 26.776C34.7313 26.5694 34.7313 26.5866 33.8015 28.4118C33.612 28.7906 33.4054 29.1694 33.2332 29.5655C32.82 30.4609 32.4239 31.3218 31.9934 32.2689Z" fill="white"/>
<path d="M129.625 39.9486C127.972 39.9486 126.491 39.9486 124.924 39.9486C124.907 39.6042 124.873 39.3115 124.873 39.0015C124.873 33.8014 124.89 28.6184 124.855 23.4182C124.855 22.6606 125.062 22.4367 125.82 22.454C130.142 22.5056 134.498 22.3506 138.803 22.5917C143.831 22.8672 146.81 27.9813 144.726 32.4583C143.59 34.9034 141.541 36.2465 138.906 36.4531C136.134 36.6597 133.345 36.5909 130.572 36.5909C129.797 36.5909 129.556 36.8147 129.608 37.5551C129.677 38.33 129.625 39.1049 129.625 39.9486ZM134.085 26.7071C134.085 26.7243 134.085 26.7243 134.085 26.7071C132.845 26.7071 131.623 26.7243 130.383 26.7071C129.832 26.6899 129.608 26.862 129.625 27.4303C129.66 28.8078 129.66 30.1853 129.625 31.5457C129.608 32.2172 129.883 32.355 130.486 32.355C132.862 32.3377 135.239 32.355 137.615 32.3377C139.147 32.3205 140.267 31.1152 140.301 29.4794C140.335 27.8608 139.302 26.7415 137.684 26.7071C136.478 26.6899 135.273 26.7071 134.085 26.7071Z" fill="white"/>
<path d="M55.721 36.625C55.721 37.8131 55.721 38.8291 55.721 39.9311C54.1368 39.9311 52.6043 39.9311 51.0029 39.9311C51.0029 34.1627 51.0029 28.377 51.0029 22.5225C51.2784 22.5053 51.5712 22.4709 51.8467 22.4709C55.7554 22.4709 59.6469 22.4364 63.5557 22.4709C65.8458 22.4881 67.9982 23.0047 69.6168 24.8299C71.4765 26.9306 71.9586 29.3585 71.0116 31.9586C70.0129 34.6965 67.8949 36.229 65.0365 36.4528C62.3503 36.6594 59.6469 36.5733 56.9608 36.6078C56.5647 36.625 56.2031 36.625 55.721 36.625ZM55.7726 32.303C56.0826 32.3202 56.3581 32.3547 56.6508 32.3547C58.941 32.3547 61.2483 32.3719 63.5385 32.3547C65.2776 32.3374 66.328 31.201 66.328 29.3585C66.3107 27.6538 65.3292 26.724 63.5212 26.7068C61.2311 26.7068 58.9237 26.7068 56.6336 26.7068C56.3581 26.7068 56.0826 26.7412 55.7726 26.7584C55.7726 28.6525 55.7726 30.4433 55.7726 32.303Z" fill="white"/>
<path d="M147.878 22.471C149.359 22.471 150.788 22.4538 152.217 22.5055C152.355 22.5055 152.579 22.8843 152.596 23.1081C152.648 23.9863 152.613 24.8645 152.613 25.8632C153.13 25.8632 153.543 25.8632 153.974 25.8632C156.729 25.9148 159.484 25.7771 162.221 26.0698C164.925 26.3625 166.991 27.8434 167.904 30.5468C168.816 33.2158 168.334 35.6609 166.423 37.7272C165.149 39.1219 163.461 39.8623 161.602 39.914C157.125 40.0173 152.665 39.9657 148.188 39.9657C148.102 39.9657 148.033 39.9312 147.878 39.8796C147.878 34.1456 147.878 28.3944 147.878 22.471ZM152.665 35.6781C155.609 35.6781 158.468 35.6953 161.326 35.6609C161.688 35.6609 162.101 35.4026 162.394 35.1615C163.22 34.4555 163.461 32.9919 163.014 31.8038C162.6 30.6845 161.774 30.1335 160.5 30.1335C158.175 30.1335 155.868 30.1335 153.543 30.1335C153.268 30.1335 152.992 30.168 152.682 30.1852C152.665 32.0449 152.665 33.8012 152.665 35.6781Z" fill="white"/>
<path d="M25.502 0.223732C25.743 0.206513 25.9669 0.189294 26.1907 0.189294C30.3233 0.189294 34.4559 0.172074 38.5713 0.189294C42.0495 0.206513 44.994 2.42778 45.7344 5.52722C46.7331 9.65981 44.1158 13.6374 39.8627 14.0851C37.1421 14.3779 34.3698 14.2401 31.6147 14.2918C31.1843 14.2918 30.771 14.2918 30.2544 14.2918C30.2544 15.4454 30.2544 16.513 30.2544 17.6667C28.6358 17.6667 27.1033 17.6667 25.502 17.6667C25.502 11.8811 25.502 6.07824 25.502 0.223732ZM30.2717 10.0214C33.1128 10.0214 35.8506 10.0386 38.5885 10.0042C39.415 9.98698 40.0177 9.4704 40.4137 8.76442C41.5846 6.69812 40.4137 4.49408 38.0719 4.4252C35.6096 4.35632 33.1472 4.40798 30.6849 4.40798C30.5472 4.40798 30.4094 4.47686 30.2544 4.51129C30.2717 6.3193 30.2717 8.11009 30.2717 10.0214Z" fill="white"/>
<path d="M74.1631 39.9311C74.1631 34.111 74.1631 28.3598 74.1631 22.4881C75.6095 22.4881 77.0042 22.4709 78.399 22.5225C78.554 22.5225 78.8295 22.9186 78.8467 23.1597C78.8983 24.0378 78.8639 24.916 78.8639 25.8803C80.3275 25.8803 81.6706 25.8631 83.0137 25.8803C84.8389 25.9147 86.6986 25.8286 88.5066 26.0697C93.8446 26.7585 96.393 32.6818 93.2935 37.0383C92.0365 38.8118 90.2113 39.8278 88.1278 39.8966C83.4959 40.0344 78.8811 39.9311 74.1631 39.9311ZM78.9156 35.6952C81.8428 35.6952 84.684 35.7296 87.5079 35.6607C87.9556 35.6435 88.4894 35.2991 88.8166 34.9375C89.6775 33.9905 89.712 32.8368 89.247 31.7176C88.7993 30.6328 87.9384 30.1162 86.7331 30.1334C84.4085 30.1506 82.0839 30.1334 79.7593 30.1506C79.4838 30.1506 79.2083 30.1851 78.9156 30.2023C78.9156 32.0447 78.9156 33.8011 78.9156 35.6952Z" fill="white"/>
<path d="M0.0175781 22.5744C1.60174 22.5744 3.11702 22.5744 4.7184 22.5744C4.7184 24.7268 4.7184 26.8792 4.7184 29.1349C5.90652 29.1349 7.00854 29.1693 8.11057 29.1005C8.33442 29.0832 8.57549 28.7216 8.74768 28.4806C10.2457 26.1904 12.1915 24.3996 14.7916 23.4526C16.6685 22.781 18.6142 22.4883 20.6978 22.54C20.6978 23.9347 20.6978 25.2778 20.6978 26.6898C17.7533 27.0342 14.8088 27.413 13.2419 29.9098C14.43 31.2873 15.4631 32.5615 16.5996 33.7152C17.7188 34.8344 19.0964 35.5232 20.715 35.6954C20.9216 35.7126 21.266 36.0226 21.2832 36.212C21.3349 37.4173 21.3176 38.6054 21.3176 40.0002C20.2845 39.8796 19.3202 39.8452 18.3904 39.6558C16.0658 39.1909 14.1373 38.02 12.5187 36.2808C12.1054 35.8331 11.6749 35.4199 11.2617 34.9894C10.108 33.8357 8.7649 33.1986 7.09464 33.3019C6.35422 33.3536 5.6138 33.3019 4.78728 33.3019C4.78728 35.5232 4.78728 37.6584 4.78728 39.8624C3.16868 39.8624 1.63618 39.8624 0.0347972 39.8624C0.0175781 34.1801 0.0175781 28.4289 0.0175781 22.5744Z" fill="white"/>
<path d="M175.411 39.9482C173.81 39.9482 172.294 39.9482 170.676 39.9482C170.658 39.6555 170.641 39.38 170.641 39.1045C170.641 33.8354 170.658 28.5664 170.624 23.2973C170.624 22.643 170.796 22.4536 171.451 22.4708C172.759 22.5052 174.068 22.488 175.411 22.488C175.411 28.3425 175.411 34.0937 175.411 39.9482Z" fill="white"/>
<path d="M114.645 39.9311C108.308 39.9311 102.075 39.9311 95.7725 39.9311C95.7725 38.5363 95.7725 37.176 95.7725 35.7296C96.1168 35.7296 96.4268 35.7296 96.7367 35.7296C102.419 35.7296 108.084 35.7296 113.766 35.7124C114.438 35.7124 114.696 35.8674 114.662 36.5561C114.593 37.6409 114.645 38.7257 114.645 39.9311Z" fill="white"/>
<path d="M118.192 29.1865C118.192 30.5813 118.192 31.9071 118.192 33.3191C111.907 33.3191 105.656 33.3191 99.3711 33.3191C99.3711 31.9244 99.3711 30.5985 99.3711 29.1865C105.639 29.1865 111.855 29.1865 118.192 29.1865Z" fill="white"/>
<path d="M122.17 22.5571C122.17 23.9519 122.17 25.2605 122.17 26.6381C115.902 26.6381 109.686 26.6381 103.384 26.6381C103.384 25.3122 103.384 23.9691 103.384 22.5571C109.617 22.5571 115.868 22.5571 122.17 22.5571Z" fill="white"/>
</svg>
