<svg width="141" height="32" viewBox="0 0 141 32" fill="none" xmlns="http://www.w3.org/2000/svg">
<path d="M57.8148 0.0137752C58.8617 0.055101 59.9086 0.123977 60.9555 0.0964267C61.5892 0.0826515 62.0162 0.275505 62.4295 0.743863C64.2202 2.7826 66.0386 4.78001 67.8569 6.7912C67.912 6.86007 67.9947 6.9014 68.1186 7.0116C69.4135 5.5652 70.6946 4.13257 71.9757 2.69995C72.1135 2.54842 72.2512 2.38312 72.389 2.23159C73.0226 1.54283 73.5461 0.564785 74.3313 0.234179C75.1716 -0.123977 76.2736 0.123977 77.2516 0.110202C77.6098 0.110202 77.9817 0.110202 78.3812 0.110202C78.395 0.385707 78.4225 0.592335 78.4225 0.785189C78.4225 5.01419 78.4087 9.22941 78.4363 13.4584C78.4363 14.037 78.271 14.2161 77.6924 14.1885C76.8659 14.1472 76.0394 14.1472 75.2129 14.1885C74.6757 14.2161 74.5517 14.0094 74.5517 13.5135C74.5655 11.1717 74.5655 8.82993 74.5655 6.48814C74.5655 6.25396 74.5654 6.00601 74.4001 5.70295C73.6425 6.52947 72.8986 7.34221 72.141 8.16872C71.342 9.05034 70.5431 9.94573 69.7166 10.7998C69.5513 10.9789 69.262 11.0202 69.0278 11.1304C69.014 11.1442 68.9865 11.1304 68.9589 11.1304C67.3197 11.4197 66.0937 10.8687 65.0881 9.49114C64.2202 8.2927 63.1182 7.25955 62.1264 6.14376C61.9749 5.97846 61.9198 5.74428 61.8096 5.55142C61.7269 5.6203 61.6305 5.68918 61.5478 5.75805C61.5478 8.52688 61.5478 11.2957 61.5478 14.1196C60.2392 14.1196 58.9994 14.1196 57.677 14.1196C57.677 9.39472 57.677 4.69736 57.677 0C57.7321 0.0137752 57.7734 0.0137752 57.8148 0.0137752Z" fill="#262626"/>
<path d="M0 0.16555C0.165303 0.151775 0.275505 0.124225 0.399482 0.124225C4.57338 0.138 8.74728 0.0553484 12.9212 0.179326C16.3925 0.289528 17.3293 3.52671 16.1446 5.9236C15.9793 6.25421 15.6625 6.52971 15.3869 6.86032C15.4145 6.88787 15.442 6.95675 15.5109 7.01185C17.0124 8.08632 17.6185 9.62914 17.1915 11.2408C16.7369 12.8939 15.3456 14.0234 13.5135 14.1474C12.6181 14.2025 11.7227 14.1887 10.8273 14.1887C7.50751 14.1887 4.1739 14.1887 0.854065 14.1887C0.592335 14.1887 0.316831 14.1887 0.0137753 14.1887C5.23431e-08 9.47762 0 4.86291 0 0.16555ZM3.82952 5.8134C4.10502 5.82718 4.29788 5.85473 4.5045 5.85473C6.8463 5.85473 9.18809 5.85473 11.5299 5.85473C12.4804 5.85473 12.9487 5.45524 12.935 4.65628C12.9212 3.91242 12.4804 3.54049 11.5299 3.52671C9.17431 3.51293 6.80497 3.51293 4.4494 3.51293C4.25655 3.51293 4.04992 3.54049 3.82952 3.56804C3.82952 4.32567 3.82952 5.02821 3.82952 5.8134ZM3.82952 10.7174C3.99482 10.7449 4.07747 10.7725 4.16012 10.7725C6.72232 10.7725 9.29829 10.7863 11.8605 10.7725C12.5768 10.7725 13.0452 10.2766 13.0452 9.61537C13.0314 8.95416 12.5906 8.55467 11.8054 8.55467C9.7942 8.55467 7.76924 8.55467 5.75805 8.55467C5.12439 8.55467 4.49073 8.55467 3.82952 8.55467C3.82952 9.29854 3.82952 9.97352 3.82952 10.7174Z" fill="#262626"/>
<path d="M97.7356 0.192693C97.7356 4.87628 97.7356 9.47721 97.7356 14.1608C96.4821 14.1608 95.2423 14.1608 93.9336 14.1608C93.9336 13.1827 93.8923 12.2185 93.9474 11.268C93.9887 10.6343 93.7546 10.469 93.1622 10.5104C92.4735 10.5655 91.7847 10.5104 91.0959 10.5655C90.1041 10.6481 89.25 11.1027 88.52 11.7777C86.6465 13.5134 84.3874 14.1746 81.9078 14.2159C81.7288 14.2159 81.3982 14.0093 81.3982 13.8715C81.3568 12.9623 81.3706 12.0532 81.3706 11.0889C82.7895 10.9374 84.167 10.8134 85.3241 9.83536C85.145 9.73894 85.0348 9.67006 84.9108 9.62874C82.5966 8.70579 81.4533 7.12164 81.5221 4.90383C81.5772 2.97529 83.0787 1.18451 85.2415 0.537074C85.9302 0.330446 86.6741 0.192693 87.4042 0.192693C90.6689 0.151367 93.9199 0.178918 97.1846 0.178918C97.3499 0.165143 97.5014 0.178918 97.7356 0.192693ZM93.8923 3.59518C91.5781 3.59518 89.3327 3.56763 87.0873 3.60895C86.3848 3.62273 85.8476 4.06354 85.5996 4.76607C85.1726 6.01962 85.9991 7.09409 87.4593 7.12164C88.8781 7.14919 90.297 7.12164 91.7296 7.12164C92.4321 7.12164 93.1347 7.12164 93.8785 7.12164C93.8923 5.92319 93.8923 4.8074 93.8923 3.59518Z" fill="#262626"/>
<path d="M39.3557 0.165527C44.3423 0.165527 49.329 0.165527 54.3707 0.165527C54.3707 1.26755 54.3707 2.34202 54.3707 3.51291C54.109 3.51291 53.8886 3.51291 53.6682 3.51291C50.3897 3.51291 47.1112 3.52669 43.8189 3.49914C43.2541 3.49914 43.0612 3.65066 43.075 4.22922C43.0888 5.71695 43.0612 5.71695 44.5352 5.71695C46.9183 5.71695 49.3014 5.71695 51.6983 5.71695C51.9463 5.71695 52.1942 5.71695 52.4697 5.71695C52.4697 6.72254 52.4697 7.63171 52.4697 8.62353C49.3428 8.62353 46.2709 8.62353 43.2265 8.62353C43.1577 8.7475 43.1163 8.78883 43.1026 8.83016C42.951 10.7725 42.951 10.7725 44.852 10.7725C47.7861 10.7725 50.7203 10.7862 53.6682 10.7587C54.2192 10.7587 54.4534 10.8964 54.4258 11.475C54.3845 12.1775 54.3983 12.8939 54.4258 13.6102C54.4396 13.9959 54.3432 14.1887 53.8886 14.1887C49.1912 14.1749 44.4801 14.1887 39.7827 14.1887C39.4797 14.1887 39.2593 14.1474 39.2593 13.7479C39.2731 9.29851 39.273 4.84911 39.273 0.399706C39.273 0.33083 39.3144 0.261954 39.3557 0.165527Z" fill="#262626"/>
<path d="M18.073 31.9869C18.872 30.3752 19.6158 28.915 20.3459 27.441C21.7785 24.5482 23.2249 21.6554 24.63 18.7489C24.8917 18.2116 25.1948 17.9912 25.8285 18.005C27.8396 18.0601 29.8646 18.0325 31.8896 18.0188C32.2615 18.0188 32.5232 18.0877 32.7023 18.4734C34.865 22.8677 37.0415 27.262 39.218 31.6563C39.2593 31.7389 39.2593 31.8216 39.3144 31.9869C37.9231 31.9869 36.5732 32.0006 35.2232 31.9731C35.0579 31.9731 34.8375 31.7665 34.741 31.5874C34.4104 30.9813 34.1625 30.3338 33.8181 29.7553C33.6804 29.5349 33.3497 29.3145 33.1018 29.3145C30.1952 29.2869 27.2749 29.2869 24.3683 29.3145C24.1341 29.3145 23.8035 29.5487 23.6657 29.7691C23.3076 30.3476 23.0459 30.9951 22.7153 31.6012C22.6188 31.7665 22.3984 31.9593 22.2331 31.9731C20.8831 32.0006 19.5607 31.9869 18.073 31.9869ZM25.5943 25.8156C27.7294 25.8156 29.7544 25.8156 31.8896 25.8156C31.2008 24.3829 30.5671 23.0467 29.9059 21.7105C29.8371 21.5728 29.6029 21.435 29.4376 21.4213C27.7845 21.256 27.7845 21.2697 27.0407 22.7299C26.8892 23.033 26.7239 23.336 26.5861 23.6529C26.2555 24.3692 25.9387 25.0579 25.5943 25.8156Z" fill="#262626"/>
<path d="M103.7 31.9589C102.378 31.9589 101.193 31.9589 99.9394 31.9589C99.9256 31.6834 99.8981 31.4492 99.8981 31.2013C99.8981 27.0411 99.9118 22.8948 99.8843 18.7347C99.8843 18.1286 100.05 17.9495 100.656 17.9633C104.113 18.0046 107.598 17.8806 111.042 18.0735C115.065 18.2939 117.448 22.3851 115.781 25.9667C114.872 27.9228 113.232 28.9972 111.125 29.1625C108.907 29.3278 106.675 29.2727 104.458 29.2727C103.838 29.2727 103.645 29.4518 103.686 30.0441C103.741 30.664 103.7 31.2839 103.7 31.9589ZM107.268 21.3657C107.268 21.3795 107.268 21.3795 107.268 21.3657C106.276 21.3657 105.298 21.3795 104.306 21.3657C103.865 21.352 103.686 21.4897 103.7 21.9443C103.728 23.0463 103.728 24.1483 103.7 25.2366C103.686 25.7738 103.907 25.884 104.389 25.884C106.29 25.8702 108.191 25.884 110.092 25.8702C111.318 25.8565 112.213 24.8922 112.241 23.5836C112.268 22.2887 111.442 21.3933 110.147 21.3657C109.183 21.352 108.218 21.3657 107.268 21.3657Z" fill="#262626"/>
<path d="M44.5767 29.2994C44.5767 30.2499 44.5767 31.0626 44.5767 31.9442C43.3093 31.9442 42.0833 31.9442 40.8022 31.9442C40.8022 27.3295 40.8022 22.701 40.8022 18.0174C41.0227 18.0037 41.2568 17.9761 41.4772 17.9761C44.6042 17.9761 47.7174 17.9486 50.8444 17.9761C52.6765 17.9899 54.3984 18.4031 55.6933 19.8633C57.181 21.5439 57.5667 23.4862 56.8091 25.5663C56.0101 27.7565 54.3158 28.9825 52.0291 29.1616C49.8801 29.3269 47.7174 29.258 45.5685 29.2856C45.2517 29.2994 44.9624 29.2994 44.5767 29.2994ZM44.618 25.8418C44.8659 25.8556 45.0863 25.8831 45.3205 25.8831C47.1526 25.8831 48.9985 25.8969 50.8306 25.8831C52.2219 25.8693 53.0622 24.9602 53.0622 23.4862C53.0484 22.1225 52.2633 21.3786 50.8169 21.3648C48.9847 21.3648 47.1389 21.3648 45.3068 21.3648C45.0863 21.3648 44.8659 21.3924 44.618 21.4061C44.618 22.9214 44.618 24.3541 44.618 25.8418Z" fill="#262626"/>
<path d="M118.302 17.9773C119.486 17.9773 120.63 17.9635 121.773 18.0049C121.883 18.0049 122.062 18.3079 122.076 18.487C122.118 19.1895 122.09 19.8921 122.09 20.691C122.503 20.691 122.834 20.691 123.178 20.691C125.382 20.7324 127.586 20.6221 129.777 20.8563C131.939 21.0905 133.592 22.2752 134.322 24.4379C135.052 26.5731 134.667 28.5291 133.138 30.1822C132.118 31.298 130.768 31.8903 129.281 31.9316C125.699 32.0143 122.131 31.9729 118.55 31.9729C118.481 31.9729 118.426 31.9454 118.302 31.9041C118.302 27.3169 118.302 22.716 118.302 17.9773ZM122.131 28.5429C124.487 28.5429 126.774 28.5567 129.06 28.5291C129.35 28.5291 129.68 28.3225 129.914 28.1297C130.576 27.5649 130.768 26.394 130.41 25.4435C130.08 24.5481 129.418 24.1073 128.399 24.1073C126.539 24.1073 124.693 24.1073 122.834 24.1073C122.613 24.1073 122.393 24.1348 122.145 24.1486C122.131 25.6363 122.131 27.0414 122.131 28.5429Z" fill="#262626"/>
<path d="M20.4011 0.178692C20.594 0.164917 20.7731 0.151142 20.9521 0.151142C24.2582 0.151142 27.5642 0.137367 30.8565 0.151142C33.6391 0.164917 35.9947 1.94192 36.587 4.42147C37.386 7.72753 35.2922 10.9096 31.8897 11.2678C29.7132 11.5019 27.4954 11.3917 25.2913 11.4331C24.947 11.4331 24.6163 11.4331 24.2031 11.4331C24.2031 12.356 24.2031 13.2101 24.2031 14.133C22.9082 14.133 21.6822 14.133 20.4011 14.133C20.4011 9.50453 20.4011 4.86228 20.4011 0.178692ZM24.2169 8.01681C26.4898 8.01681 28.68 8.03058 30.8703 8.00303C31.5315 7.98925 32.0137 7.576 32.3305 7.01121C33.2672 5.35818 32.3305 3.59495 30.4571 3.53985C28.4872 3.48475 26.5173 3.52608 24.5475 3.52608C24.4373 3.52608 24.3271 3.58118 24.2031 3.60873C24.2169 5.05513 24.2169 6.48775 24.2169 8.01681Z" fill="#262626"/>
<path d="M59.3301 31.9443C59.3301 27.2883 59.3301 22.6874 59.3301 17.99C60.4872 17.99 61.603 17.9762 62.7188 18.0175C62.8428 18.0175 63.0632 18.3344 63.0769 18.5272C63.1183 19.2298 63.0907 19.9323 63.0907 20.7037C64.2616 20.7037 65.3361 20.6899 66.4106 20.7037C67.8707 20.7313 69.3585 20.6624 70.8049 20.8552C75.0752 21.4063 77.1139 26.1449 74.6344 29.6301C73.6288 31.0489 72.1686 31.8617 70.5018 31.9168C66.7963 32.027 63.1045 31.9443 59.3301 31.9443ZM63.132 28.5556C65.4738 28.5556 67.7468 28.5832 70.0059 28.5281C70.3641 28.5143 70.7911 28.2388 71.0528 27.9495C71.7416 27.1919 71.7691 26.2689 71.3972 25.3735C71.039 24.5057 70.3503 24.0924 69.386 24.1062C67.5263 24.12 65.6667 24.1062 63.807 24.12C63.5866 24.12 63.3662 24.1475 63.132 24.1613C63.132 25.6353 63.132 27.0403 63.132 28.5556Z" fill="#262626"/>
<path d="M0.013916 18.059C1.28124 18.059 2.49346 18.059 3.77456 18.059C3.77456 19.7809 3.77456 21.5029 3.77456 23.3074C4.72505 23.3074 5.60666 23.335 6.48828 23.2799C6.66736 23.2661 6.86021 22.9768 6.99796 22.784C8.19641 20.9518 9.75301 19.5192 11.8331 18.7616C13.3346 18.2243 14.8912 17.9902 16.558 18.0315C16.558 19.1473 16.558 20.2218 16.558 21.3513C14.2024 21.6268 11.8468 21.9299 10.5933 23.9273C11.5438 25.0293 12.3703 26.0487 13.2795 26.9716C14.1749 27.867 15.2769 28.418 16.5718 28.5558C16.7371 28.5696 17.0126 28.8175 17.0263 28.969C17.0677 29.9333 17.0539 30.8838 17.0539 31.9996C16.2274 31.9032 15.456 31.8756 14.7121 31.7241C12.8524 31.3522 11.3096 30.4154 10.0147 29.0241C9.68414 28.666 9.33976 28.3354 9.00915 27.991C8.08621 27.0681 7.01174 26.5584 5.67554 26.641C5.08321 26.6823 4.49087 26.641 3.82966 26.641C3.82966 28.418 3.82966 30.1262 3.82966 31.8894C2.53479 31.8894 1.30879 31.8894 0.0276912 31.8894C0.013916 27.3436 0.013916 22.7426 0.013916 18.059Z" fill="#262626"/>
<path d="M140.328 31.9588C139.047 31.9588 137.835 31.9588 136.54 31.9588C136.526 31.7246 136.513 31.5042 136.513 31.2838C136.513 27.0686 136.526 22.8534 136.499 18.6381C136.499 18.1147 136.637 17.9631 137.16 17.9769C138.207 18.0045 139.254 17.9907 140.328 17.9907C140.328 22.6743 140.328 27.2752 140.328 31.9588Z" fill="#262626"/>
<path d="M91.7156 31.9448C86.6463 31.9448 81.6597 31.9448 76.6179 31.9448C76.6179 30.829 76.6179 29.7407 76.6179 28.5836C76.8934 28.5836 77.1414 28.5836 77.3893 28.5836C81.9352 28.5836 86.4672 28.5836 91.0131 28.5698C91.5503 28.5698 91.7569 28.6938 91.7294 29.2448C91.6743 30.1127 91.7156 30.9805 91.7156 31.9448Z" fill="#262626"/>
<path d="M94.5532 23.3486C94.5532 24.4644 94.5532 25.5251 94.5532 26.6547C89.5252 26.6547 84.5248 26.6547 79.4968 26.6547C79.4968 25.5389 79.4968 24.4782 79.4968 23.3486C84.511 23.3486 89.4839 23.3486 94.5532 23.3486Z" fill="#262626"/>
<path d="M97.7356 18.0454C97.7356 19.1612 97.7356 20.2081 97.7356 21.3101C92.7214 21.3101 87.7485 21.3101 82.7068 21.3101C82.7068 20.2495 82.7068 19.175 82.7068 18.0454C87.6934 18.0454 92.6938 18.0454 97.7356 18.0454Z" fill="#262626"/>
</svg>
