<svg width="117" height="40" viewBox="0 0 117 40" fill="none" xmlns="http://www.w3.org/2000/svg">
<path d="M0 1.52409C3.05027 1.52409 4.34175 3.66751 5.71253 5.96791L16.9394 25.3758C17.469 26.3433 17.9901 27.5135 17.9759 28.6094C17.9335 31.4635 14.2573 32.5081 12.0566 32.6052C10.4595 32.6603 8.87192 32.3346 7.42318 31.6548L6.52821 32.8221C7.04933 35.0597 9.1055 37.7797 11.932 37.7568C16.8402 37.7226 19.4175 33.1903 21.3887 29.5142L25.0423 22.6901L14.4442 4.36106C13.4642 2.72281 15.0729 1.52979 16.7836 1.50696L17.1631 0H0.390843L0 1.52409Z" fill="#262626"/>
<path d="M61.9031 8.9504H63.2654C63.9819 8.9504 64.2651 8.15982 64.2651 7.63181C64.2651 7.10381 63.9649 6.43881 63.2399 6.43881H61.9003V8.9504H61.9031ZM60.2831 10.3146V2.41455H61.9031V5.09168H63.036C64.9364 5.09168 65.9446 6.26185 65.9276 7.60612C65.9106 8.9504 64.9704 10.3146 63.0558 10.3146H60.2661H60.2831Z" fill="#262626"/>
<path d="M111.428 14.3016C112.02 14.7461 112.738 14.9862 113.477 14.9862C114.215 14.9862 114.934 14.7461 115.526 14.3016L114.874 13.3369C114.472 13.6437 113.981 13.8096 113.477 13.8096C112.972 13.8096 112.481 13.6437 112.079 13.3369L111.428 14.3016ZM116.667 23.6344V15.7686H115.078L111.872 21.12V15.7686H110.298V23.6344H111.872L115.073 18.2973V23.6344H116.661H116.667Z" fill="#262626"/>
<path d="M60.221 17.9977V18.9766H57.8023V18.1204C57.8023 17.4183 58.4028 17.0187 59.0995 17.0187C59.5271 17.0187 60.2323 17.3041 60.2323 18.0091L60.221 17.9977ZM62.0251 22.7183L61.3426 21.4825C60.7421 22.0166 59.9738 22.3198 59.1731 22.3387C58.3971 22.3387 57.7967 21.9078 57.7967 21.0601V20.3238H61.8524V18.4058C61.8524 16.408 60.5977 15.6431 59.0938 15.6431C57.3662 15.6431 56.1597 16.5364 56.1597 18.4971V21.12C56.1597 22.8753 57.2925 23.7572 59.0457 23.7572C60.3258 23.7601 61.1132 23.3405 62.0251 22.7183Z" fill="#262626"/>
<path d="M55.6072 35.6276H56.9695C57.686 35.6276 57.9693 35.0568 57.9693 34.5231C57.9783 34.3869 57.9576 34.2503 57.9087 34.1229C57.8598 33.9956 57.7838 33.8805 57.6862 33.7859C57.5885 33.6913 57.4714 33.6193 57.3432 33.5751C57.215 33.5309 57.0787 33.5154 56.944 33.5299H55.6044V35.6248L55.6072 35.6276ZM55.6072 30.4903V32.1885H56.7741C56.8858 32.1998 56.9987 32.1858 57.1044 32.1475C57.21 32.1092 57.3059 32.0476 57.3849 31.9672C57.4639 31.8867 57.5241 31.7895 57.561 31.6826C57.5979 31.5757 57.6106 31.4619 57.5982 31.3494C57.604 31.2397 57.5876 31.13 57.5502 31.0269C57.5127 30.9238 57.4549 30.8294 57.3803 30.7494C57.3057 30.6694 57.2158 30.6055 57.1159 30.5614C57.0161 30.5174 56.9085 30.4942 56.7996 30.4932H55.6072V30.4903ZM53.9872 36.989V29.1289H56.7741C58.6886 29.1289 59.2891 30.3048 59.2607 31.2038C59.2661 31.5302 59.1796 31.8515 59.0111 32.1303C58.8427 32.4092 58.5993 32.6342 58.3091 32.7793C58.6985 32.91 59.0364 33.1622 59.2742 33.4993C59.512 33.8363 59.6372 34.2409 59.6317 34.6544C59.6317 35.796 58.7991 36.9948 56.8817 36.9948H53.9844L53.9872 36.989Z" fill="#262626"/>
<path d="M102.457 29.1289V30.476H104.431L104.428 37.0119H104.533H106.017H106.119V30.476H108.09V29.1289H102.457Z" fill="#262626"/>
<path d="M90.1575 0.964674C90.7496 1.4092 91.4682 1.64932 92.2066 1.64932C92.9449 1.64932 93.6635 1.4092 94.2556 0.964674L93.6042 0C93.2019 0.306745 92.7111 0.47273 92.2066 0.47273C91.702 0.47273 91.2113 0.306745 90.8089 0L90.1575 0.964674ZM95.397 10.2975V2.43166H93.8082L90.5908 7.79445V2.43166H89.0161V10.2975H90.605L93.8053 4.96037V10.2975H95.3942H95.397Z" fill="#262626"/>
<path d="M42.3725 7.85771C42.3725 8.54269 41.6928 8.95939 41.0753 8.95939C40.5734 8.94663 40.0842 8.79775 39.6592 8.52842V4.28155C40.0875 3.92524 40.6221 3.72422 41.1773 3.71073C41.3309 3.70463 41.4842 3.72948 41.6282 3.78384C41.7722 3.83819 41.9039 3.92095 42.0158 4.02727C42.1276 4.13359 42.2173 4.26133 42.2795 4.40301C42.3417 4.54469 42.3752 4.69746 42.3781 4.85237V7.85771H42.3725ZM44.0095 7.68647V4.97224C44.0095 3.25979 43.1032 2.2894 41.4237 2.2894C40.7893 2.2894 39.6989 2.54627 39.2542 2.91159C39.1341 2.63247 38.915 2.40856 38.6397 2.28369L37.6399 3.21412C38.0194 3.47099 38.0307 3.97331 38.0307 4.19593V12.8438H39.6507V10.081C40.1729 10.2982 40.7314 10.4125 41.2962 10.4178C42.8171 10.4207 44.0095 9.45885 44.0095 7.68647Z" fill="#262626"/>
<path d="M49.1754 8.48833C48.9759 8.71623 48.7204 8.88714 48.4345 8.98384C48.1486 9.08054 47.8424 9.09962 47.5469 9.03917C47.3326 8.98835 47.1409 8.86765 47.0016 8.6958C46.8623 8.52394 46.7832 8.31056 46.7766 8.08876C46.7662 7.92701 46.7901 7.76488 46.8468 7.61317C46.9034 7.46147 46.9915 7.32365 47.1051 7.2089C47.2187 7.09415 47.3552 7.00509 47.5056 6.94766C47.656 6.89022 47.8169 6.86571 47.9774 6.87578H49.1754V8.49119V8.48833ZM58.6264 10.2978V2.41484H53.2792V7.29533C53.2792 8.28855 52.6647 9.11623 51.8065 9.13906C51.4072 9.13906 50.7983 8.8822 50.7983 8.28284V4.95498C50.7983 3.3253 49.9486 2.28926 48.119 2.28926C47.1063 2.27 46.127 2.65467 45.3944 3.35955L46.2441 4.41841C46.7093 3.98323 47.3098 3.72402 47.9434 3.68491C48.4815 3.68491 49.1613 3.92465 49.1613 4.65815V5.49725H47.833C45.9326 5.49725 45.1367 6.71309 45.1367 7.99172C45.1367 9.22183 45.8051 10.4205 47.7225 10.4205C48.3949 10.3928 49.0354 10.1246 49.5294 9.66421C49.8338 9.95585 50.1963 10.1787 50.5929 10.318C50.9894 10.4573 51.4109 10.5098 51.8292 10.4719C53.6729 10.4148 54.8568 9.41305 54.8086 7.24395V3.76197H57.0376V10.2978H58.6264Z" fill="#262626"/>
<path d="M80.0743 10.3032L77.1713 6.14198L79.8846 2.43168H78.038L76.0073 5.51694H75.0104V2.41455H73.4187V10.3032H74.9792L74.9934 6.86406H75.9818L78.2221 10.3032H80.0743Z" fill="#262626"/>
<path d="M72.3859 9.41876L71.7203 8.23146C70.7999 8.88504 70.2476 9.08768 69.7859 9.08768C69.1374 9.08768 68.4888 8.7509 68.4888 8.06592V4.99207C68.4888 4.28997 69.1345 3.79336 69.8794 3.79336C70.4948 3.84285 71.0678 4.12898 71.4796 4.5925L72.3293 3.51651C72.0165 3.11978 71.6151 2.80313 71.1579 2.59234C70.7007 2.38155 70.2005 2.28259 69.6981 2.30353C68.098 2.30353 66.866 3.2939 66.866 5.00064V7.95747C66.866 9.63281 68.1518 10.4205 69.735 10.4205C70.7131 10.4147 71.6571 10.0575 72.3972 9.41305" fill="#262626"/>
<path d="M87.3725 10.2975V2.43164H85.7836L82.5662 7.79446V2.43164H80.9944V10.2975H82.5662H82.5832L85.7836 4.96036V10.2975H87.3725Z" fill="#262626"/>
<path d="M37.5978 0H35.7852L34.3833 4.68923C34.3578 4.77485 34.3238 4.86904 34.304 4.97464C34.2842 5.08024 34.2643 5.14588 34.2558 5.21153C34.2473 5.27717 34.2388 5.31142 34.2388 5.31427C34.2388 5.31713 34.2388 5.28003 34.2218 5.21724C34.2049 5.15445 34.1935 5.07739 34.1737 4.98606C34.1557 4.89431 34.1292 4.80448 34.0944 4.71777L32.0241 0H30.1775L33.4911 7.33781L33.2816 7.86866C33.0153 8.4566 32.3186 9.10448 31.0668 9.1587L31.265 10.4316C33.1003 10.4716 34.3096 9.6496 34.7798 8.27394L37.5978 0Z" fill="#262626"/>
<path d="M108.643 15.769H107.054V23.6349H108.643V15.769Z" fill="#262626"/>
<path d="M102.14 22.3049H103.502C104.219 22.3049 104.502 21.5143 104.502 20.9863C104.502 20.4583 104.202 19.7933 103.476 19.7933H102.137V22.3049H102.14ZM100.52 23.6691V15.769H102.14V18.4462H103.273C105.173 18.4462 106.181 19.6163 106.164 20.9606C106.147 22.3049 105.207 23.6691 103.292 23.6691H100.503H100.52Z" fill="#262626"/>
<path d="M37.7198 21.1972C37.7187 21.3494 37.6866 21.4997 37.6255 21.6389C37.5644 21.7781 37.4756 21.9031 37.3647 22.0064C37.2537 22.1096 37.1229 22.1889 36.9804 22.2392C36.8379 22.2895 36.6866 22.3098 36.536 22.2989C36.355 22.3175 36.1723 22.2875 36.0066 22.2118C35.841 22.1361 35.6982 22.0174 35.5929 21.8679V17.7751V17.6067C35.7189 17.4532 35.8774 17.33 36.0567 17.246C36.2361 17.1621 36.4317 17.1196 36.6294 17.1215C36.7766 17.1179 36.9229 17.1454 37.0589 17.2023C37.1949 17.2592 37.3176 17.3441 37.419 17.4517C37.5204 17.5593 37.5983 17.687 37.6476 17.8268C37.697 17.9666 37.7168 18.1152 37.7057 18.2632V21.1972H37.7198ZM33.987 17.5411V17.6381V21.8679C33.8817 22.0174 33.7389 22.1361 33.5732 22.2118C33.4075 22.2875 33.2249 22.3175 33.0439 22.2989C32.8942 22.3082 32.7442 22.2866 32.603 22.2356C32.4618 22.1846 32.3324 22.1051 32.2227 22.002C32.1129 21.8989 32.0252 21.7744 31.9648 21.636C31.9044 21.4976 31.8726 21.3483 31.8714 21.1972V18.189C31.8602 18.0408 31.8801 17.8919 31.9296 17.7519C31.9792 17.6119 32.0573 17.484 32.159 17.3764C32.2608 17.2688 32.3838 17.1839 32.5201 17.1272C32.6564 17.0705 32.803 17.0433 32.9504 17.0473C33.1489 17.0462 33.345 17.09 33.5244 17.1754C33.7039 17.2609 33.8619 17.3858 33.987 17.5411ZM39.3682 21.0288V18.3117C39.3682 16.5993 38.5865 15.6289 36.907 15.6289C36.4548 15.6291 36.0102 15.746 35.6155 15.9685V14.4844H33.987V15.9685C33.5923 15.7463 33.1477 15.6293 32.6955 15.6289C31.0161 15.6289 30.2344 16.6021 30.2344 18.3117V21.0259C30.2344 22.7983 31.3021 23.7601 32.823 23.7601C33.2333 23.7483 33.6339 23.6314 33.987 23.4205V26.1718H35.607V23.4205C35.9605 23.6303 36.361 23.7462 36.7711 23.7573C38.2919 23.7601 39.3682 22.7983 39.3682 21.0259V21.0288Z" fill="#262626"/>
<path d="M44.815 17.9977V18.9766H42.3963V18.1204C42.3963 17.4183 42.9968 17.0187 43.6935 17.0187C44.1211 17.0187 44.8263 17.3041 44.8263 18.0091L44.815 17.9977ZM46.6361 22.7298L45.9536 21.4939C45.3531 22.028 44.5848 22.3313 43.7841 22.3502C43.0081 22.3502 42.4077 21.9192 42.4077 21.0715V20.3238H46.4492V18.4058C46.4492 16.408 45.1945 15.6431 43.6878 15.6431C41.9602 15.6431 40.7537 16.5364 40.7537 18.4971V21.12C40.7537 22.8753 41.8865 23.7572 43.6397 23.7572C44.9283 23.7601 45.7043 23.3405 46.6248 22.7183L46.6361 22.7298Z" fill="#262626"/>
<path d="M49.7954 22.3073C50.1947 21.8678 50.4439 21.0287 50.4241 20.1725V17.1243H52.653V22.3073H49.7954ZM54.2419 22.3073V15.7715H48.8806V20.1183C48.8806 21.1086 48.3141 22.2845 47.4446 22.3073H47.2974V25.5638H48.8409V23.6573H53.5452V25.5667H55.1312V22.3073H54.2419Z" fill="#262626"/>
<path d="M98.8775 23.6349V15.769H97.2858V18.8429H94.0713V15.769H92.4966V23.6349H94.0713V20.19H97.2858V23.6349H98.8775Z" fill="#262626"/>
<path d="M67.7432 21.2114C67.7432 21.8964 67.0635 22.3131 66.4461 22.3131C65.9442 22.3003 65.455 22.1514 65.03 21.8821V17.6466C65.4584 17.2905 65.9929 17.0895 66.548 17.0758C66.7017 17.0697 66.855 17.0946 66.9989 17.1489C67.1429 17.2033 67.2747 17.286 67.3865 17.3924C67.4984 17.4987 67.588 17.6264 67.6502 17.7681C67.7125 17.9098 67.746 18.0625 67.7489 18.2174V21.2114H67.7432ZM69.3802 21.0401V18.3259C69.3802 16.6135 68.4739 15.6431 66.7944 15.6431C66.16 15.6431 65.0696 15.8999 64.625 16.2653C64.5019 15.9899 64.2819 15.7703 64.0076 15.6488L63.0078 16.5792C63.3873 16.8361 63.4015 17.3384 63.4015 17.561V26.186H65.0215V23.4376C65.5436 23.6547 66.1022 23.769 66.667 23.7743C68.1879 23.7743 69.3887 22.8154 69.3887 21.043L69.3802 21.0401Z" fill="#262626"/>
<path d="M74.5465 21.8452C73.9489 22.6244 72.1703 22.7243 72.1476 21.4457C72.1368 21.2832 72.1605 21.1202 72.2173 20.9677C72.2741 20.8153 72.3626 20.6768 72.4769 20.5616C72.5912 20.4465 72.7286 20.3573 72.8799 20.3C73.0312 20.2428 73.1929 20.2189 73.3542 20.2298H74.5522V21.8452H74.5465ZM84.0088 23.6547V15.7689H78.6503V20.6522C78.6503 21.6455 78.0358 22.4731 77.1776 22.496C76.7783 22.496 76.1694 22.2391 76.1694 21.6397V18.3119C76.1694 16.6822 75.3197 15.6462 73.4901 15.6462C72.4775 15.6272 71.4983 16.0119 70.7655 16.7165L71.6152 17.7753C72.0804 17.3401 72.6809 17.0809 73.3145 17.0418C73.8526 17.0418 74.5323 17.2816 74.5323 18.0151V18.8542H73.2041C71.3037 18.8542 70.5078 20.07 70.5078 21.3486C70.5078 22.5787 71.1762 23.7774 73.0936 23.7774C73.7659 23.7497 74.4065 23.4815 74.9005 23.0211C75.205 23.3126 75.5675 23.5354 75.964 23.6747C76.3606 23.8139 76.782 23.8665 77.2003 23.8288C79.044 23.7689 80.2279 22.7671 80.1797 20.6009V17.1246H82.4172V23.6604H84.0032L84.0088 23.6547Z" fill="#262626"/>
<path d="M87.2738 22.3049H88.6474C89.364 22.3049 89.6472 21.5143 89.6472 20.9863C89.6472 20.4583 89.347 19.7933 88.6219 19.7933H87.2823V22.3049H87.2738ZM85.6538 23.6691V15.769H87.2738V18.4462H88.4067C90.3099 18.4462 91.3153 19.6163 91.3012 20.9606C91.287 22.3049 90.3439 23.6691 88.4293 23.6691H85.6396H85.6538Z" fill="#262626"/>
<path d="M36.9268 29.1288H35.1624L33.565 35.2423C33.5605 34.8627 33.5014 34.4859 33.3894 34.1235L32.03 29.126L30.2344 29.1431C30.2344 29.1431 32.3274 35.8074 32.8173 36.9747C32.5766 38.005 32.0187 38.6872 30.8348 38.8042L30.9877 40C32.7833 40 33.8029 39.0239 34.1739 37.8224L36.9268 29.1288Z" fill="#262626"/>
<path d="M44.3207 36.9948V29.1289H42.7318V32.1999H39.5145V29.1289H37.9426V36.9948H39.5145V33.5499H42.7318V36.9948H44.3207Z" fill="#262626"/>
<path d="M52.3417 36.9948V29.1289H50.7528L47.5355 34.4917V29.1289H45.9636V36.9948H47.5355H47.5525L50.7528 31.6576V36.9948H52.3417Z" fill="#262626"/>
<path d="M89.4944 29.1289V30.476H91.4656V37.0119H91.5676H93.0516H93.1536V30.476H95.1276V29.1289H89.4944Z" fill="#262626"/>
<path d="M88.3165 36.9948V29.1289H86.7277L83.5103 34.4917V29.1289H81.9385V36.9948H83.5103H83.5273L86.7277 31.6576V36.9948H88.3165Z" fill="#262626"/>
<path d="M72.3314 34.5545C72.3314 35.2394 71.6516 35.6561 71.0342 35.6561C70.5323 35.6434 70.0431 35.4945 69.6181 35.2252V30.9869C70.0464 30.6305 70.581 30.4295 71.1362 30.416C71.2898 30.4099 71.4431 30.4348 71.5871 30.4891C71.731 30.5435 71.8628 30.6263 71.9746 30.7326C72.0865 30.8389 72.1761 30.9666 72.2384 31.1083C72.3006 31.25 72.3341 31.4028 72.337 31.5577V34.5659L72.3314 34.5545ZM73.9684 34.3832V31.6804C73.9684 29.9679 73.0621 28.9976 71.3826 28.9976C70.7482 28.9976 69.6578 29.2544 69.2131 29.6197C69.0908 29.3432 68.8707 29.1224 68.5957 29.0004L67.5959 29.9308C67.9755 30.1877 67.9868 30.69 67.9868 30.9126V39.5291H69.6096V36.7806C70.1317 36.9978 70.6903 37.1121 71.2551 37.1174C72.7873 37.1032 73.9684 36.1556 73.9684 34.3832Z" fill="#262626"/>
<path d="M80.9017 36.0925L80.2361 34.9052C79.3157 35.5588 78.7634 35.7614 78.3046 35.7614C77.656 35.7614 77.0075 35.4246 77.0075 34.7396V31.6801C77.0075 30.978 77.656 30.4813 78.4009 30.4813C79.0162 30.5311 79.5891 30.8172 80.0011 31.2805L80.8507 30.2045C80.538 29.8078 80.1366 29.4911 79.6794 29.2803C79.2222 29.0695 78.722 28.9706 78.2196 28.9915C76.6194 28.9915 75.3875 29.9819 75.3875 31.6886V34.6426C75.3875 36.3179 76.6733 37.1057 78.2593 37.1057C79.2374 37.0998 80.1814 36.7426 80.9215 36.0982" fill="#262626"/>
<path d="M100.013 31.3379V32.3169H97.5938V31.4606C97.5938 30.7585 98.1943 30.359 98.891 30.359C99.3186 30.359 100.024 30.6444 100.024 31.3493L100.013 31.3379ZM101.834 36.07L101.137 34.8199C100.536 35.354 99.7681 35.6572 98.9674 35.6761C98.1914 35.6761 97.591 35.2451 97.591 34.3975V33.6783H101.647V31.7603C101.647 29.7625 100.392 28.9976 98.8853 28.9976C97.1577 28.9976 95.9512 29.8909 95.9512 31.8516V34.4717C95.9512 36.227 97.084 37.1089 98.8372 37.1089C100.126 37.1032 100.902 36.6808 101.822 36.0586L101.834 36.07Z" fill="#262626"/>
<path d="M64.8571 31.3379V32.3169H62.4384V31.4606C62.4384 30.7585 63.0388 30.359 63.7356 30.359C64.1632 30.359 64.8684 30.6444 64.8684 31.3493L64.8571 31.3379ZM66.6782 36.07L65.9673 34.8199C65.3669 35.354 64.5985 35.6572 63.7979 35.6761C63.0218 35.6761 62.4214 35.2451 62.4214 34.3975V33.6783H66.4771V31.7603C66.4771 29.7625 65.2225 28.9976 63.7186 28.9976C61.9909 28.9976 60.7844 29.8909 60.7844 31.8516V34.4717C60.7844 36.227 61.9173 37.1089 63.6704 37.1089C64.9562 37.1032 65.7322 36.6808 66.6527 36.0586L66.6782 36.07Z" fill="#262626"/>
</svg>
