<svg width="160" height="48" viewBox="0 0 160 48" fill="none" xmlns="http://www.w3.org/2000/svg">
<g clip-path="url(#clip0_236_6423)">
<path d="M56.6903 0.858349C57.2342 0.869726 57.7644 1.03121 58.2223 1.32495L58.6515 0.563921C58.0735 0.194061 57.4014 -0.0016975 56.7152 1.10896e-05C54.9012 1.10896e-05 53.6387 1.21267 53.6387 3.01667C53.6387 4.82068 54.9012 6.03083 56.7152 6.03083C57.4015 6.03381 58.0741 5.83795 58.6515 5.46692L58.2223 4.71837C57.7642 5.01135 57.234 5.17197 56.6903 5.18248C56.1309 5.16345 55.6007 4.92785 55.2117 4.5254C54.8227 4.12295 54.6053 3.58512 54.6053 3.0254C54.6053 2.46568 54.8227 1.92786 55.2117 1.52541C55.6007 1.12296 56.1309 0.88736 56.6903 0.868331V0.858349Z" fill="white"/>
<path d="M62.0622 0C60.2956 0 58.9956 1.26256 58.9956 3.01666C58.9956 4.77076 60.2881 6.03082 62.0622 6.03082C63.8362 6.03082 65.1262 4.76827 65.1262 3.01666C65.1262 1.26506 63.8387 0 62.0622 0ZM62.0622 5.16001C61.6371 5.16248 61.2209 5.03867 60.8664 4.80428C60.5118 4.56988 60.2348 4.23547 60.0705 3.84344C59.9063 3.45142 59.8622 3.01945 59.9438 2.60231C60.0253 2.18517 60.229 1.80166 60.5288 1.5004C60.8287 1.19915 61.2112 0.993733 61.628 0.910201C62.0447 0.826669 62.4769 0.868789 62.8697 1.03121C63.2625 1.19364 63.5982 1.46905 63.8342 1.82253C64.0703 2.176 64.196 2.59162 64.1955 3.01666C64.2098 3.30092 64.1644 3.58501 64.0623 3.85069C63.9602 4.11637 63.8037 4.35777 63.6028 4.55938C63.4019 4.76099 63.161 4.91834 62.8957 5.02135C62.6304 5.12436 62.3465 5.17074 62.0622 5.15751V5.16001Z" fill="white"/>
<path d="M68.8916 2.83201V2.80706C69.7499 2.69727 70.239 2.19326 70.239 1.47215C70.239 0.51401 69.3806 0 67.9584 0C67.1914 0.00849175 66.4317 0.149467 65.7127 0.416696L66.0196 1.21265C66.6293 0.96968 67.2773 0.837034 67.9334 0.820912C68.7918 0.820912 69.3182 1.07043 69.3182 1.6543C69.3182 2.28058 68.7793 2.47521 67.9209 2.47521H66.9029V3.26118H67.9683C68.9664 3.26118 69.5029 3.49323 69.5029 4.22931C69.5029 4.96538 68.8392 5.20991 67.9209 5.20991C67.22 5.20911 66.5298 5.03785 65.9098 4.71087L65.5281 5.49186C66.2547 5.8663 67.0639 6.05166 67.881 6.03082C69.6276 6.03082 70.3936 5.35712 70.3936 4.30416C70.3862 3.41089 69.8347 2.91186 68.8916 2.83201Z" fill="white"/>
<path d="M76.2097 0.18457H72.0154V3.07647C72.0411 3.79623 71.8685 4.50923 71.5163 5.13748H70.7927V7.44051H71.5887V5.95838H76.1249V7.44051H76.9084V5.13748H76.2097V0.18457ZM75.3289 5.13748H72.4595C72.7642 4.51206 72.9115 3.82168 72.8887 3.12637V0.993002H75.3289V5.13748Z" fill="white"/>
<path d="M82.2058 1.1901H82.1834C81.9722 0.81139 81.6594 0.499252 81.2802 0.288939C80.901 0.0786264 80.4706 -0.0214885 80.0375 -9.75253e-05C78.4805 -9.75253e-05 77.2305 1.1402 77.2305 3.01656C77.2305 4.89293 78.4781 6.03072 80.0375 6.03072C80.4703 6.05235 80.9006 5.95262 81.2798 5.74276C81.6589 5.5329 81.9719 5.22127 82.1834 4.84302H82.2058V5.84109H83.0891V0.177065H82.2058V1.1901ZM80.2097 5.15991C78.9621 5.15991 78.1637 4.26664 78.1637 3.01656C78.1637 1.76649 78.9721 0.87072 80.2097 0.87072C81.4473 0.87072 82.2582 1.76649 82.2582 3.01656C82.2582 4.26664 81.4473 5.15741 80.2072 5.15741L80.2097 5.15991Z" fill="white"/>
<path d="M88.8154 2.4402H85.5168V0.18457H84.6335V5.8486H85.5168V3.26111H88.8154V5.8486H89.6987V0.18457H88.8154V2.4402Z" fill="white"/>
<path d="M93.9405 0C92.174 0 90.8765 1.26256 90.8765 3.01666C90.8765 4.77076 92.174 6.03082 93.9405 6.03082C95.7071 6.03082 97.0046 4.76827 97.0046 3.01666C97.0046 1.26506 95.7196 0 93.9405 0ZM93.9405 5.16001C93.5155 5.16248 93.0993 5.03867 92.7447 4.80428C92.3902 4.56988 92.1132 4.23547 91.9489 3.84344C91.7847 3.45142 91.7405 3.01945 91.8221 2.60231C91.9037 2.18517 92.1073 1.80166 92.4072 1.5004C92.707 1.19915 93.0896 0.993733 93.5063 0.910201C93.9231 0.826669 94.3553 0.868789 94.7481 1.03121C95.1408 1.19364 95.4765 1.46905 95.7126 1.82253C95.9486 2.176 96.0744 2.59162 96.0739 3.01666C96.0877 3.30083 96.0421 3.58475 95.9399 3.85025C95.8377 4.11576 95.6811 4.35699 95.4803 4.55852C95.2795 4.76005 95.0388 4.91742 94.7736 5.02056C94.5085 5.12371 94.2247 5.17035 93.9405 5.15751V5.16001Z" fill="white"/>
<path d="M104.498 5.17249C103.938 5.15346 103.408 4.91786 103.019 4.51541C102.63 4.11296 102.413 3.57514 102.413 3.01542C102.413 2.4557 102.63 1.91787 103.019 1.51542C103.408 1.11297 103.938 0.877374 104.498 0.858345C105.042 0.869723 105.572 1.0312 106.03 1.32495L106.459 0.563918C105.881 0.194317 105.209 -0.00141967 104.523 7.75182e-06C102.709 7.75182e-06 101.446 1.21267 101.446 3.01667C101.446 4.82067 102.706 6.03083 104.523 6.03083C105.209 6.03338 105.881 5.83756 106.459 5.46692L106.03 4.71837C105.571 5.00783 105.04 5.16498 104.498 5.17249Z" fill="white"/>
<path d="M6.2978 16.2085C9.73115 16.2085 12.5133 18.7261 12.5133 22.162C12.5027 23.7551 11.8619 25.2794 10.7309 26.4015C9.59989 27.5236 8.07066 28.1524 6.47745 28.1504C4.98035 28.1504 3.51569 27.7262 2.42031 26.4836H2.29056V35.1493H0V23.1226C0 18.9083 2.42031 16.2085 6.2978 16.2085ZM6.26536 26.1368C8.53846 26.1368 10.0929 24.3377 10.0929 22.162C10.0929 19.9862 8.57089 18.2196 6.26536 18.2196C3.95983 18.2196 2.3729 19.9862 2.3729 22.147C2.3729 24.3078 3.9748 26.1368 6.26536 26.1368Z" fill="white"/>
<path d="M14.6392 22.1794C14.6392 18.7436 17.5186 16.2085 20.9045 16.2085C24.2905 16.2085 27.1674 18.7436 27.1674 22.1794C27.1674 25.6153 24.2905 28.1479 20.9045 28.1479C17.5186 28.1479 14.6392 25.6178 14.6392 22.1794ZM20.9045 26.1368C23.1951 26.1368 24.7471 24.3702 24.7471 22.1794C24.7471 19.9887 23.1951 18.2196 20.9045 18.2196C18.614 18.2196 17.0595 19.9662 17.0595 22.1794C17.0595 24.3926 18.6189 26.1368 20.9045 26.1368Z" fill="white"/>
<path d="M35.6234 28.1479C32.0254 28.1479 29.2957 25.6302 29.2957 22.1794C29.2957 18.7286 31.9605 16.2085 35.5336 16.2085C38.2783 16.2085 40.8483 17.7056 41.502 20.5276H39.1466C38.5752 19.0056 37.2003 18.2196 35.5984 18.2196C33.1781 18.2196 31.706 20.0186 31.706 22.2119C31.706 24.4051 33.2255 26.1368 35.6483 26.1368C37.2178 26.1368 38.6425 25.4181 39.1965 23.7663H41.5744C40.7285 26.7755 38.2733 28.1479 35.6234 28.1479Z" fill="white"/>
<path d="M50.0581 26.4962L46.3153 18.6314H46.2505V27.9059H44.0422V16.4531H47.5579L51.2882 24.288H51.3531L55.0958 16.4531H58.6115V27.9034H56.4033V18.6314H56.3384L52.5532 26.4962H50.0581Z" fill="white"/>
<path d="M61.0366 22.1794C61.0366 18.7436 63.916 16.2085 67.302 16.2085C70.6879 16.2085 73.5673 18.7436 73.5673 22.1794C73.5673 25.6153 70.6879 28.1479 67.302 28.1479C63.916 28.1479 61.0366 25.6178 61.0366 22.1794ZM67.302 26.1368C69.5925 26.1368 71.147 24.3702 71.147 22.1794C71.147 19.9887 69.5925 18.2196 67.302 18.2196C65.0114 18.2196 63.4594 19.9662 63.4594 22.1794C63.4594 24.3926 65.0289 26.1368 67.307 26.1368H67.302Z" fill="white"/>
<path d="M74.7327 28.0006V25.6302H74.7826C75.028 25.6282 75.2705 25.5764 75.4953 25.4777C75.7201 25.379 75.9224 25.2357 76.09 25.0563C76.5167 24.5822 76.7288 23.7314 76.9583 22.4888L77.2852 20.6573C77.662 18.5464 78.413 16.4155 81.5869 16.4155H86.0507V27.9133H83.7627V18.5314H81.9786C80.1971 18.5314 79.8203 19.0305 79.3936 21.4583L79.0992 23.1774C78.8497 24.7469 78.4455 26.1043 77.6271 26.9701C77.0058 27.6263 76.13 28.0006 74.9797 28.0006H74.7327Z" fill="white"/>
<path d="M88.5884 22.1794C88.5884 18.7436 91.4653 16.2085 94.8512 16.2085C98.2372 16.2085 101.117 18.7436 101.117 22.1794C101.117 25.6153 98.2372 28.1479 94.8512 28.1479C91.4653 28.1479 88.5884 25.6178 88.5884 22.1794ZM94.8512 26.1368C97.1418 26.1368 98.6963 24.3702 98.6963 22.1794C98.6963 19.9887 97.1418 18.2196 94.8512 18.2196C92.5607 18.2196 91.0087 19.9662 91.0087 22.1794C91.0087 24.3926 92.5607 26.1368 94.8512 26.1368Z" fill="white"/>
<path d="M103.766 30.6831H101.558V25.7776H103.055C103.711 25.0415 104.053 23.9462 104.365 22.6212L104.864 20.4928C105.338 18.4493 106.222 16.4058 109.051 16.4058H113.5V25.7776H115.152V30.6831H112.936V27.9035H103.766V30.6831ZM111.224 25.8275V18.4992H109.081C107.691 18.4992 107.217 19.6096 106.94 20.7873L106.441 22.9955C106.164 24.2231 105.74 25.2411 105.313 25.6628V25.8275H111.224Z" fill="white"/>
<path d="M123.131 28.1478C119.484 28.1478 116.836 25.6302 116.836 22.1794C116.836 18.7286 119.501 16.2085 123.052 16.2085C125.796 16.2085 129.102 18.0075 129.102 22.3591V22.8331H119.122C119.371 24.7469 120.868 26.1367 123.114 26.1367C124.454 26.1367 126.058 25.6377 126.5 24.4849H128.855C128.137 27.0026 125.472 28.1478 123.131 28.1478ZM119.157 12.2661H121.53V14.639H119.157V12.2661ZM126.715 21.0815C126.355 19.3499 125.013 18.1871 123.017 18.1871C122.148 18.1583 121.296 18.4307 120.604 18.9581C119.913 19.4856 119.426 20.2358 119.224 21.0815H126.715ZM124.309 12.2661H126.682V14.639H124.309V12.2661Z" fill="white"/>
<path d="M139.897 16.4532V21.0019H141.81L144.51 16.4532H147.03L143.677 21.9176L147.307 27.906H144.74L141.845 23.0803H139.897V27.906H137.738V23.0778H135.792L132.898 27.9035H130.33L133.961 21.9151L130.607 16.4507H133.127L135.824 20.9994H137.738V16.4532H139.897Z" fill="white"/>
<path d="M148.909 22.7509L148.867 16.4531H151.157L151.175 19.7093H151.24C151.672 19.1534 152.229 18.706 152.864 18.4028C153.5 18.0996 154.198 17.9489 154.903 17.9627C157.717 17.9627 159.99 20.0562 159.99 22.9855C159.99 25.9148 157.667 28.153 154.478 28.153C151.29 28.153 148.927 25.8674 148.909 22.7509ZM154.438 26.1369C156.255 26.1369 157.58 24.8618 157.58 23.0778C157.58 21.2938 156.255 19.9863 154.438 19.9863C154.027 19.9719 153.617 20.0417 153.234 20.1916C152.85 20.3414 152.502 20.5681 152.209 20.8576C151.916 21.1472 151.686 21.4935 151.532 21.8753C151.378 22.2571 151.304 22.6663 151.314 23.0778C151.314 24.8693 152.639 26.1369 154.438 26.1369Z" fill="white"/>
<path d="M59.8965 36.9107H56.0814V43.6227H54.8538V35.7505H59.8965V36.9107Z" fill="white"/>
<path d="M60.9595 35.7506H62.1846V37.1479H62.2195C62.7635 36.1498 63.769 35.4961 65.2013 35.4961C67.3646 35.4961 69.1012 37.0805 69.1012 39.688C69.1012 42.2954 67.3546 43.8774 65.2013 43.8774C63.769 43.8774 62.7635 43.2136 62.2195 42.2256H62.1846V47.0287H60.9595V35.7506ZM67.8062 39.688C67.8062 37.9414 66.6834 36.7063 64.9617 36.7063C63.2401 36.7063 62.1172 37.9538 62.1172 39.688C62.1172 41.4221 63.2426 42.6672 64.9617 42.6672C66.6809 42.6672 67.8062 41.4246 67.8062 39.688Z" fill="white"/>
<path d="M70.134 39.688C70.134 37.0805 71.8807 35.4961 74.0365 35.4961C75.4662 35.4961 76.4718 36.1598 77.0182 37.1479H77.0506V35.7506H78.2783V43.6229H77.0506V42.2256H77.0182C76.4718 43.2236 75.4662 43.8774 74.0365 43.8774C71.8732 43.8774 70.134 42.2929 70.134 39.688ZM77.1205 39.688C77.1205 37.9414 75.9952 36.7063 74.2735 36.7063C72.5518 36.7063 71.429 37.9538 71.429 39.688C71.429 41.4221 72.5543 42.6672 74.2735 42.6672C75.9927 42.6672 77.1205 41.4246 77.1205 39.688Z" fill="white"/>
<path d="M87.2759 35.7505V43.6227H86.0508V40.0272H81.4672V43.6227H80.2495V35.7505H81.4746V38.8869H86.0583V35.7505H87.2759Z" fill="white"/>
<path d="M95.6248 36.8758H92.5907V43.6128H91.3655V36.8758H88.3489V35.7505H95.6248V36.8758Z" fill="white"/>
<path d="M103.118 41.1351C103.118 42.5997 102.062 43.6302 100.428 43.6302H96.6851V35.7505H97.9127V38.6648H100.433C102.062 38.6648 103.118 39.618 103.118 41.1351ZM101.823 41.1525C101.823 40.2667 101.324 39.7727 100.308 39.7727H97.9227V42.5174H100.308C101.329 42.5149 101.823 42.0034 101.823 41.1525ZM105.146 35.7505V43.6227H103.919V35.7505H105.146Z" fill="white"/>
</g>
<defs>
<clipPath id="clip0_236_6423">
<rect width="160" height="47.0289" fill="white"/>
</clipPath>
</defs>
</svg>
