<svg width="56" height="56" viewBox="0 0 56 56" fill="none" xmlns="http://www.w3.org/2000/svg">
<circle cx="28" cy="28" r="28" fill="white"/>
<path fill-rule="evenodd" clip-rule="evenodd" d="M33.7892 20.1095C34.0195 20.0125 34.2715 19.9791 34.5191 20.0127C34.7667 20.0462 35.0008 20.1455 35.197 20.3002C35.3931 20.4549 35.5443 20.6594 35.6346 20.8923C35.725 21.1252 35.7513 21.3781 35.7107 21.6247L33.5972 34.4443C33.3922 35.6808 32.0354 36.39 30.9014 35.774C29.9527 35.2587 28.5438 34.4648 27.2764 33.6363C26.6428 33.2217 24.7017 31.8938 24.9403 30.9488C25.1453 30.1409 28.4068 27.1049 30.2705 25.2999C31.002 24.5908 30.6684 24.1817 29.8046 24.834C27.6585 26.4536 24.2153 28.9165 23.0766 29.6098C22.072 30.2211 21.5483 30.3254 20.9221 30.2211C19.7796 30.031 18.7201 29.7365 17.8553 29.3777C16.6868 28.8932 16.7436 27.2866 17.8544 26.8188L33.7892 20.1095Z" fill="#262626"/>
</svg>
