<svg width="111" height="39" viewBox="0 0 111 39" fill="none" xmlns="http://www.w3.org/2000/svg">
<path d="M0 1.94788C2.89776 1.94788 4.12466 3.98414 5.42691 6.16952L16.0924 24.607C16.5955 25.5261 17.0906 26.6378 17.0771 27.679C17.0368 30.3904 13.5444 31.3827 11.4538 31.4749C9.93649 31.5272 8.42833 31.2179 7.05202 30.572L6.2018 31.681C6.69686 33.8067 8.65023 36.3907 11.3354 36.369C15.9982 36.3364 18.4466 32.0308 20.3193 28.5385L23.7901 22.0555L13.722 4.643C12.791 3.08667 14.3193 1.9533 15.9444 1.93161L16.3049 0.5H0.371301L0 1.94788Z" fill="white"/>
<path d="M58.8081 9.003H60.1022C60.783 9.003 61.052 8.25195 61.052 7.75034C61.052 7.24874 60.7668 6.61699 60.078 6.61699H58.8054V9.003H58.8081ZM57.2691 10.299V2.79395H58.8081V5.33722H59.8843C61.6897 5.33722 62.6475 6.44888 62.6314 7.72594C62.6152 9.003 61.722 10.299 59.9031 10.299H57.2529H57.2691Z" fill="white"/>
<path d="M105.856 14.0864C106.419 14.5087 107.101 14.7368 107.803 14.7368C108.504 14.7368 109.187 14.5087 109.749 14.0864L109.131 13.1699C108.748 13.4613 108.282 13.619 107.803 13.619C107.324 13.619 106.857 13.4613 106.475 13.1699L105.856 14.0864ZM110.834 22.9526V15.48H109.324L106.279 20.5638V15.48H104.783V22.9526H106.279L109.319 17.8823V22.9526H110.828H110.834Z" fill="white"/>
<path d="M57.2098 17.5977V18.5277H54.9121V17.7143C54.9121 17.0473 55.4825 16.6677 56.1444 16.6677C56.5507 16.6677 57.2206 16.9389 57.2206 17.6086L57.2098 17.5977ZM58.9237 22.0823L58.2753 20.9083C57.7049 21.4157 56.975 21.7038 56.2143 21.7217C55.4771 21.7217 54.9067 21.3123 54.9067 20.507V19.8075H58.7596V17.9855C58.7596 16.0875 57.5677 15.3608 56.139 15.3608C54.4977 15.3608 53.3516 16.2095 53.3516 18.0722V20.564C53.3516 22.2315 54.4278 23.0693 56.0933 23.0693C57.3094 23.072 58.0574 22.6734 58.9237 22.0823Z" fill="white"/>
<path d="M52.8269 34.3462H54.121C54.8017 34.3462 55.0708 33.8039 55.0708 33.2969C55.0794 33.1674 55.0597 33.0377 55.0133 32.9167C54.9668 32.7957 54.8947 32.6864 54.8018 32.5965C54.709 32.5066 54.5978 32.4383 54.476 32.3962C54.3543 32.3542 54.2248 32.3396 54.0968 32.3533H52.8242V34.3435L52.8269 34.3462ZM52.8269 29.4657V31.079H53.9354C54.0415 31.0897 54.1487 31.0764 54.2491 31.0401C54.3495 31.0037 54.4406 30.9451 54.5157 30.8687C54.5907 30.7923 54.6479 30.6999 54.6829 30.5984C54.718 30.4968 54.7301 30.3887 54.7183 30.2818C54.7238 30.1776 54.7082 30.0734 54.6727 29.9755C54.6371 29.8775 54.5822 29.7879 54.5113 29.7119C54.4404 29.6358 54.355 29.5751 54.2602 29.5333C54.1653 29.4914 54.0631 29.4694 53.9596 29.4684H52.8269V29.4657ZM51.2878 35.6395V28.1724H53.9354C55.7542 28.1724 56.3246 29.2895 56.2977 30.1435C56.3028 30.4536 56.2206 30.7588 56.0606 31.0237C55.9006 31.2886 55.6693 31.5024 55.3937 31.6402C55.7635 31.7644 56.0846 32.004 56.3105 32.3242C56.5364 32.6444 56.6553 33.0287 56.6502 33.4216C56.6502 34.5061 55.8591 35.6449 54.0376 35.6449H51.2852L51.2878 35.6395Z" fill="white"/>
<path d="M97.334 28.1724V29.4521H99.2093L99.2066 35.6612H99.3062H100.716H100.813V29.4521H102.686V28.1724H97.334Z" fill="white"/>
<path d="M85.6495 1.41644C86.212 1.83874 86.8947 2.06685 87.5961 2.06685C88.2975 2.06685 88.9802 1.83874 89.5427 1.41644L88.9239 0.5C88.5416 0.791408 88.0754 0.949093 87.5961 0.949093C87.1168 0.949093 86.6506 0.791408 86.2683 0.5L85.6495 1.41644ZM90.627 10.2826V2.81008H89.1176L86.0611 7.90473V2.81008H84.5652V10.2826H86.0746L89.1149 5.21235V10.2826H90.6243H90.627Z" fill="white"/>
<path d="M40.2538 7.96476C40.2538 8.61549 39.608 9.01135 39.0215 9.01135C38.5447 8.99922 38.08 8.85779 37.6762 8.60193V4.5674C38.083 4.2289 38.5909 4.03793 39.1183 4.02512C39.2643 4.01932 39.4099 4.04293 39.5467 4.09457C39.6835 4.14621 39.8087 4.22483 39.9149 4.32583C40.0211 4.42684 40.1063 4.54819 40.1654 4.68279C40.2245 4.81738 40.2564 4.96251 40.2592 5.10967V7.96476H40.2538ZM41.8089 7.80207V5.22355C41.8089 3.59672 40.9479 2.67486 39.3524 2.67486C38.7497 2.67486 37.7139 2.91888 37.2914 3.26594C37.1773 3.00077 36.9691 2.78806 36.7076 2.66943L35.7578 3.55334C36.1183 3.79737 36.1291 4.27457 36.1291 4.48606V12.7015H37.6681V10.0769C38.1641 10.2832 38.6948 10.3918 39.2313 10.3969C40.6762 10.3996 41.8089 9.48584 41.8089 7.80207Z" fill="white"/>
<path d="M46.7166 8.5636C46.5271 8.7801 46.2843 8.94246 46.0127 9.03433C45.7411 9.12619 45.4503 9.14433 45.1696 9.08689C44.9659 9.03862 44.7838 8.92395 44.6515 8.76069C44.5192 8.59743 44.444 8.39471 44.4377 8.18401C44.4279 8.03034 44.4506 7.87632 44.5044 7.7322C44.5582 7.58808 44.6419 7.45715 44.7498 7.34814C44.8577 7.23913 44.9875 7.15452 45.1303 7.09996C45.2732 7.04539 45.426 7.02211 45.5785 7.03167H46.7166V8.56631V8.5636ZM55.6951 10.2826V2.79378H50.6153V7.43024C50.6153 8.3738 50.0314 9.1601 49.2162 9.18179C48.8368 9.18179 48.2583 8.93777 48.2583 8.36838V5.20691C48.2583 3.65871 47.4512 2.67448 45.7131 2.67448C44.751 2.65618 43.8207 3.02162 43.1247 3.69125L43.9319 4.69717C44.3739 4.28375 44.9444 4.0375 45.5462 4.00035C46.0575 4.00035 46.7032 4.2281 46.7032 4.92493V5.72207H45.4413C43.6359 5.72207 42.8799 6.87712 42.8799 8.09182C42.8799 9.26042 43.5149 10.3992 45.3364 10.3992C45.9751 10.3728 46.5836 10.1181 47.053 9.68069C47.3421 9.95774 47.6865 10.1695 48.0632 10.3018C48.44 10.4341 48.8404 10.484 49.2377 10.448C50.9893 10.3938 52.1139 9.44209 52.0682 7.38144V4.07356H54.1857V10.2826H55.6951Z" fill="white"/>
<path d="M76.0704 10.2882L73.3126 6.335L75.8901 2.81021H74.1359L72.2067 5.74121H71.2597V2.79395H69.7476V10.2882H71.2301L71.2435 7.02098H72.1825L74.3108 10.2882H76.0704Z" fill="white"/>
<path d="M68.7664 9.44762L68.1341 8.31969C67.2597 8.9406 66.735 9.1331 66.2964 9.1331C65.6803 9.1331 65.0642 8.81316 65.0642 8.16243V5.24228C65.0642 4.57528 65.6776 4.1035 66.3852 4.1035C66.9699 4.15051 67.5142 4.42234 67.9054 4.86268L68.7126 3.84049C68.4155 3.4636 68.0342 3.16277 67.5998 2.96252C67.1655 2.76227 66.6903 2.66827 66.213 2.68816C64.6929 2.68816 63.5225 3.62901 63.5225 5.25041V8.0594C63.5225 9.65098 64.744 10.3993 66.248 10.3993C67.1772 10.3938 68.074 10.0544 68.7772 9.4422" fill="white"/>
<path d="M83.0038 10.2826V2.81006H81.4943L78.4378 7.90474V2.81006H76.9446V10.2826H78.4378H78.454L81.4943 5.21234V10.2826H83.0038Z" fill="white"/>
<path d="M35.7178 0.5H33.9958L32.664 4.95477C32.6397 5.03611 32.6075 5.12559 32.5886 5.22591C32.5698 5.32623 32.551 5.38859 32.5429 5.45095C32.5348 5.51331 32.5267 5.54585 32.5267 5.54856C32.5267 5.55127 32.5267 5.51602 32.5106 5.45637C32.4945 5.39672 32.4837 5.32352 32.4649 5.23675C32.4478 5.14959 32.4226 5.06425 32.3895 4.98188L30.4227 0.5H28.6685L31.8164 7.47092L31.6173 7.97523C31.3644 8.53377 30.7025 9.14925 29.5133 9.20077L29.7016 10.41C31.4451 10.448 32.594 9.66712 33.0406 8.36024L35.7178 0.5Z" fill="white"/>
<path d="M103.211 15.4805H101.701V22.953H103.211V15.4805Z" fill="white"/>
<path d="M97.0329 21.6895H98.3271C99.0078 21.6895 99.2769 20.9385 99.2769 20.4369C99.2769 19.9353 98.9917 19.3035 98.3029 19.3035H97.0303V21.6895H97.0329ZM95.4939 22.9856V15.4805H97.0329V18.0237H98.1092C99.9146 18.0237 100.872 19.1354 100.856 20.4125C100.84 21.6895 99.9468 22.9856 98.128 22.9856H95.4778H95.4939Z" fill="white"/>
<path d="M35.8338 20.6374C35.8327 20.782 35.8022 20.9248 35.7442 21.057C35.6862 21.1893 35.6018 21.3081 35.4964 21.4062C35.391 21.5043 35.2668 21.5795 35.1314 21.6273C34.996 21.6751 34.8523 21.6944 34.7092 21.684C34.5373 21.7018 34.3637 21.6732 34.2063 21.6013C34.0489 21.5293 33.9133 21.4166 33.8132 21.2746V17.3865V17.2265C33.933 17.0807 34.0835 16.9636 34.2539 16.8838C34.4243 16.8041 34.6101 16.7637 34.798 16.7656C34.9378 16.7621 35.0768 16.7883 35.206 16.8423C35.3352 16.8963 35.4517 16.977 35.548 17.0792C35.6443 17.1814 35.7184 17.3028 35.7653 17.4356C35.8122 17.5684 35.831 17.7096 35.8204 17.8501V20.6374H35.8338ZM32.2877 17.1641V17.2563V21.2746C32.1876 21.4166 32.052 21.5293 31.8946 21.6013C31.7372 21.6732 31.5636 21.7018 31.3917 21.684C31.2495 21.6928 31.1069 21.6724 30.9728 21.6239C30.8387 21.5754 30.7157 21.4999 30.6115 21.402C30.5073 21.3041 30.424 21.1858 30.3666 21.0543C30.3092 20.9229 30.279 20.781 30.2778 20.6374V17.7796C30.2672 17.6388 30.2861 17.4974 30.3331 17.3644C30.3802 17.2314 30.4545 17.1099 30.5511 17.0077C30.6477 16.9055 30.7646 16.8248 30.8941 16.771C31.0236 16.7171 31.1629 16.6913 31.3029 16.6951C31.4914 16.694 31.6778 16.7356 31.8482 16.8168C32.0187 16.8979 32.1688 17.0167 32.2877 17.1641ZM37.3998 20.4774V17.8962C37.3998 16.2694 36.6572 15.3475 35.0617 15.3475C34.6321 15.3477 34.2097 15.4588 33.8347 15.6702V14.2603H32.2877V15.6702C31.9127 15.459 31.4903 15.348 31.0608 15.3475C29.4653 15.3475 28.7227 16.2721 28.7227 17.8962V20.4747C28.7227 22.1585 29.737 23.0722 31.1818 23.0722C31.5716 23.061 31.9522 22.9499 32.2877 22.7496V25.3633H33.8267V22.7496C34.1624 22.9489 34.543 23.059 34.9325 23.0695C36.3773 23.0722 37.3998 22.1585 37.3998 20.4747V20.4774Z" fill="white"/>
<path d="M42.5741 17.5977V18.5277H40.2764V17.7143C40.2764 17.0473 40.8468 16.6677 41.5086 16.6677C41.9149 16.6677 42.5849 16.9389 42.5849 17.6086L42.5741 17.5977ZM44.3041 22.0932L43.6557 20.9192C43.0853 21.4265 42.3554 21.7146 41.5947 21.7326C40.8575 21.7326 40.2871 21.3232 40.2871 20.5179V19.8075H44.1266V17.9855C44.1266 16.0875 42.9346 15.3608 41.5033 15.3608C39.862 15.3608 38.7158 16.2095 38.7158 18.0722V20.564C38.7158 22.2315 39.7921 23.0693 41.4575 23.0693C42.6817 23.072 43.4189 22.6734 44.2934 22.0823L44.3041 22.0932Z" fill="white"/>
<path d="M47.3057 21.692C47.6851 21.2744 47.9218 20.4773 47.903 19.6639V16.7681H50.0205V21.692H47.3057ZM51.5299 21.692V15.4829H46.4366V19.6123C46.4366 20.5532 45.8985 21.6703 45.0725 21.692H44.9326V24.7856H46.399V22.9744H50.868V24.7884H52.3747V21.692H51.5299Z" fill="white"/>
<path d="M93.9337 22.953V15.4805H92.4216V18.4006H89.3678V15.4805H87.8718V22.953H89.3678V19.6804H92.4216V22.953H93.9337Z" fill="white"/>
<path d="M64.3561 20.6507C64.3561 21.3015 63.7103 21.6973 63.1238 21.6973C62.647 21.6852 62.1823 21.5438 61.7785 21.2879V17.2642C62.1854 16.9259 62.6933 16.735 63.2206 16.722C63.3666 16.7162 63.5122 16.7398 63.649 16.7914C63.7858 16.843 63.9109 16.9217 64.0172 17.0227C64.1234 17.1237 64.2086 17.245 64.2677 17.3796C64.3268 17.5142 64.3587 17.6593 64.3615 17.8065V20.6507H64.3561ZM65.9112 20.4881V17.9095C65.9112 16.2827 65.0502 15.3608 63.4547 15.3608C62.852 15.3608 61.8162 15.6049 61.3937 15.9519C61.2768 15.6903 61.0678 15.4817 60.8072 15.3663L59.8574 16.2502C60.218 16.4942 60.2314 16.9714 60.2314 17.1829V25.3767H61.7704V22.7656C62.2665 22.9718 62.7971 23.0804 63.3336 23.0856C64.7785 23.0856 65.9193 22.1745 65.9193 20.4908L65.9112 20.4881Z" fill="white"/>
<path d="M70.8192 21.253C70.2515 21.9932 68.5618 22.0881 68.5403 20.8734C68.5299 20.7191 68.5525 20.5642 68.6065 20.4194C68.6604 20.2745 68.7445 20.143 68.853 20.0336C68.9616 19.9242 69.0922 19.8395 69.2359 19.7851C69.3796 19.7307 69.5333 19.708 69.6865 19.7184H70.8246V21.253H70.8192ZM79.8084 22.972V15.4805H74.7178V20.1197C74.7178 21.0632 74.134 21.8495 73.3187 21.8712C72.9394 21.8712 72.3609 21.6272 72.3609 21.0578V17.8963C72.3609 16.3481 71.5537 15.3639 69.8156 15.3639C68.8536 15.3459 67.9234 15.7113 67.2273 16.3807L68.0344 17.3866C68.4764 16.9732 69.0469 16.7269 69.6488 16.6898C70.16 16.6898 70.8057 16.9175 70.8057 17.6144V18.4115H69.5439C67.7385 18.4115 66.9824 19.5665 66.9824 20.7812C66.9824 21.9498 67.6174 23.0886 69.4389 23.0886C70.0776 23.0622 70.6862 22.8075 71.1555 22.3701C71.4447 22.647 71.7891 22.8587 72.1658 22.991C72.5425 23.1233 72.9429 23.1732 73.3402 23.1374C75.0918 23.0805 76.2165 22.1288 76.1707 20.0709V16.7684H78.2963V22.9775H79.803L79.8084 22.972Z" fill="white"/>
<path d="M82.9101 21.6895H84.2151C84.8958 21.6895 85.1648 20.9385 85.1648 20.4369C85.1648 19.9353 84.8796 19.3035 84.1908 19.3035H82.9182V21.6895H82.9101ZM81.3711 22.9856V15.4805H82.9101V18.0237H83.9864C85.7944 18.0237 86.7496 19.1354 86.7361 20.4125C86.7227 21.6895 85.8267 22.9856 84.0079 22.9856H81.3577H81.3711Z" fill="white"/>
<path d="M35.0805 28.1721H33.4043L31.8868 33.9799C31.8825 33.6194 31.8263 33.2613 31.72 32.9171L30.4285 28.1694L28.7227 28.1857C28.7227 28.1857 30.711 34.5168 31.1765 35.6257C30.9478 36.6045 30.4177 37.2526 29.2931 37.3637L29.4384 38.4998C31.1442 38.4998 32.1128 37.5725 32.4652 36.431L35.0805 28.1721Z" fill="white"/>
<path d="M42.1046 35.6449V28.1724H40.5952V31.0898H37.5387V28.1724H36.0454V35.6449H37.5387V32.3723H40.5952V35.6449H42.1046Z" fill="white"/>
<path d="M49.7247 35.6449V28.1724H48.2153L45.1588 33.267V28.1724H43.6655V35.6449H45.1588H45.1749L48.2153 30.5746V35.6449H49.7247Z" fill="white"/>
<path d="M85.0198 28.1724V29.4521H86.8924V35.6612H86.9893H88.3991H88.496V29.4521H90.3713V28.1724H85.0198Z" fill="white"/>
<path d="M83.9007 35.6449V28.1724H82.3913L79.3348 33.267V28.1724H77.8416V35.6449H79.3348H79.351L82.3913 30.5746V35.6449H83.9007Z" fill="white"/>
<path d="M68.715 33.3269C68.715 33.9776 68.0692 34.3735 67.4827 34.3735C67.0059 34.3614 66.5411 34.2199 66.1374 33.9641V29.9377C66.5442 29.5992 67.0521 29.4082 67.5795 29.3954C67.7255 29.3896 67.8711 29.4132 68.0079 29.4649C68.1447 29.5165 68.2698 29.5951 68.3761 29.6961C68.4823 29.7971 68.5675 29.9185 68.6266 30.0531C68.6857 30.1877 68.7176 30.3328 68.7203 30.48V33.3378L68.715 33.3269ZM70.2701 33.1642V30.5965C70.2701 28.9697 69.4091 28.0479 67.8136 28.0479C67.2109 28.0479 66.175 28.2919 65.7526 28.6389C65.6364 28.3762 65.4273 28.1664 65.1661 28.0506L64.2163 28.9345C64.5768 29.1785 64.5876 29.6557 64.5876 29.8672V38.0528H66.1293V35.4418C66.6253 35.6481 67.156 35.7567 67.6925 35.7617C69.1481 35.7482 70.2701 34.848 70.2701 33.1642Z" fill="white"/>
<path d="M76.8567 34.7881L76.2244 33.6601C75.35 34.281 74.8253 34.4736 74.3895 34.4736C73.7733 34.4736 73.1572 34.1536 73.1572 33.5029V30.5963C73.1572 29.9293 73.7733 29.4575 74.4809 29.4575C75.0655 29.5048 75.6097 29.7766 76.0011 30.2167L76.8083 29.1945C76.5111 28.8176 76.1299 28.5168 75.6955 28.3165C75.2612 28.1163 74.786 28.0223 74.3087 28.0422C72.7886 28.0422 71.6182 28.983 71.6182 30.6044V33.4107C71.6182 35.0023 72.8397 35.7506 74.3464 35.7506C75.2756 35.7451 76.1724 35.4057 76.8755 34.7935" fill="white"/>
<path d="M95.0121 30.2712V31.2012H92.7143V30.3878C92.7143 29.7208 93.2847 29.3412 93.9466 29.3412C94.3529 29.3412 95.0228 29.6123 95.0228 30.282L95.0121 30.2712ZM96.7421 34.7667L96.0802 33.5791C95.5098 34.0865 94.7799 34.3745 94.0193 34.3925C93.282 34.3925 92.7116 33.9831 92.7116 33.1778V32.4945H96.5645V30.6725C96.5645 28.7745 95.3726 28.0479 93.9412 28.0479C92.3 28.0479 91.1538 28.8965 91.1538 30.7592V33.2483C91.1538 34.9158 92.23 35.7536 93.8955 35.7536C95.1197 35.7482 95.8569 35.3469 96.7313 34.7558L96.7421 34.7667Z" fill="white"/>
<path d="M61.6142 30.2712V31.2012H59.3164V30.3878C59.3164 29.7208 59.8868 29.3412 60.5487 29.3412C60.955 29.3412 61.6249 29.6123 61.6249 30.282L61.6142 30.2712ZM63.3442 34.7667L62.6689 33.5791C62.0984 34.0865 61.3685 34.3745 60.6079 34.3925C59.8707 34.3925 59.3003 33.9831 59.3003 33.1778V32.4945H63.1532V30.6725C63.1532 28.7745 61.9612 28.0479 60.5326 28.0479C58.8913 28.0479 57.7451 28.8965 57.7451 30.7592V33.2483C57.7451 34.9158 58.8213 35.7536 60.4868 35.7536C61.7083 35.7482 62.4455 35.3469 63.32 34.7558L63.3442 34.7667Z" fill="white"/>
</svg>
